<?xml version="1.0" encoding="UTF-8" standalone="no"?><svg xmlns="http://www.w3.org/2000/svg" xmlns:xlink="http://www.w3.org/1999/xlink" contentScriptType="application/ecmascript" contentStyleType="text/css" height="1406px" preserveAspectRatio="none" style="width:1807px;height:1406px;" version="1.1" viewBox="0 0 1807 1406" width="1807px" zoomAndPan="magnify"><defs><filter height="300%" id="f1lrheu3nylame" width="300%" x="-1" y="-1"><feGaussianBlur result="blurOut" stdDeviation="2.0"/><feColorMatrix in="blurOut" result="blurOut2" type="matrix" values="0 0 0 0 0 0 0 0 0 0 0 0 0 0 0 0 0 0 .4 0"/><feOffset dx="4.0" dy="4.0" in="blurOut2" result="blurOut3"/><feBlend in="SourceGraphic" in2="blurOut3" mode="normal"/></filter></defs><g><!--MD5=[fcd6df96e169c9fc6403c4dc9bdb4d83]
class SampleStore--><rect codeLine="5" fill="#FEFECE" filter="url(#f1lrheu3nylame)" height="89.5078" id="SampleStore" style="stroke:#A80036;stroke-width:1.5;" width="191" x="989.5" y="462"/><ellipse cx="1044.75" cy="478" fill="#ADD1B2" rx="11" ry="11" style="stroke:#A80036;stroke-width:1.0;"/><path d="M1046.75,474.5 Q1046.9531,474 1047.1875,473.75 Q1047.4219,473.5 1047.6875,473.5 Q1048.1563,473.5 1048.4531,473.7813 Q1048.75,474.0625 1048.75,474.7188 L1048.75,476.2813 Q1048.75,476.9375 1048.4688,477.2188 Q1048.1875,477.5 1047.75,477.5 Q1047.3594,477.5 1047.1094,477.3281 Q1046.8594,477.1563 1046.75,476.7031 Q1046.7031,476.3906 1046.5313,476.2188 Q1046.2188,475.8906 1045.6563,475.7031 Q1045.0938,475.5 1044.5313,475.5 Q1043.8281,475.5 1043.2344,475.7813 Q1042.6563,476.0625 1042.2031,476.6875 Q1041.75,477.3125 1041.75,478.1719 L1041.75,479.0938 Q1041.75,480.125 1042.5938,480.8125 Q1043.4375,481.5 1044.9375,481.5 Q1045.8281,481.5 1046.4531,481.2969 Q1046.8125,481.1875 1047.2188,480.8281 Q1047.4844,480.625 1047.625,480.5625 Q1047.7656,480.5 1047.9375,480.5 Q1048.2656,480.5 1048.5,480.7656 Q1048.75,481.0156 1048.75,481.375 Q1048.75,481.7188 1048.4063,482.125 Q1047.9063,482.7188 1047.1094,483.0469 Q1046.0625,483.5 1044.7813,483.5 Q1043.2813,483.5 1042.0781,482.9063 Q1041.1094,482.4375 1040.4219,481.4219 Q1039.75,480.4063 1039.75,479.2031 L1039.75,478.1094 Q1039.75,476.8594 1040.3438,475.7656 Q1040.9531,474.6719 1042,474.0938 Q1043.0625,473.5 1044.25,473.5 Q1044.9688,473.5 1045.5938,473.75 Q1046.2188,474 1046.75,474.5 Z " fill="#000000"/><text fill="#000000" font-family="sans-serif" font-size="12" lengthAdjust="spacing" textLength="72" x="1065.25" y="482.9102">SampleStore</text><line style="stroke:#A80036;stroke-width:1.5;" x1="990.5" x2="1179.5" y1="494" y2="494"/><line style="stroke:#A80036;stroke-width:1.5;" x1="990.5" x2="1179.5" y1="502" y2="502"/><text fill="#000000" font-family="sans-serif" font-size="11" lengthAdjust="spacing" textLength="179" x="995.5" y="517.4189">+createSample(barcodeTxt) : Sample</text><text fill="#000000" font-family="sans-serif" font-size="11" lengthAdjust="spacing" textLength="136" x="995.5" y="531.2549">+saveSample(sample) : bool</text><text fill="#000000" font-family="sans-serif" font-size="11" lengthAdjust="spacing" textLength="147" x="995.5" y="545.0908">-validateSample(sample) : bool</text><!--MD5=[df38be88ccee13e832d6fafd6288a4ca]
class Test--><rect codeLine="11" fill="#FEFECE" filter="url(#f1lrheu3nylame)" height="89.5078" id="Test" style="stroke:#A80036;stroke-width:1.5;" width="410" x="643" y="988.5"/><ellipse cx="831.75" cy="1004.5" fill="#ADD1B2" rx="11" ry="11" style="stroke:#A80036;stroke-width:1.0;"/><path d="M833.75,1001 Q833.9531,1000.5 834.1875,1000.25 Q834.4219,1000 834.6875,1000 Q835.1563,1000 835.4531,1000.2813 Q835.75,1000.5625 835.75,1001.2188 L835.75,1002.7813 Q835.75,1003.4375 835.4688,1003.7188 Q835.1875,1004 834.75,1004 Q834.3594,1004 834.1094,1003.8281 Q833.8594,1003.6563 833.75,1003.2031 Q833.7031,1002.8906 833.5313,1002.7188 Q833.2188,1002.3906 832.6563,1002.2031 Q832.0938,1002 831.5313,1002 Q830.8281,1002 830.2344,1002.2813 Q829.6563,1002.5625 829.2031,1003.1875 Q828.75,1003.8125 828.75,1004.6719 L828.75,1005.5938 Q828.75,1006.625 829.5938,1007.3125 Q830.4375,1008 831.9375,1008 Q832.8281,1008 833.4531,1007.7969 Q833.8125,1007.6875 834.2188,1007.3281 Q834.4844,1007.125 834.625,1007.0625 Q834.7656,1007 834.9375,1007 Q835.2656,1007 835.5,1007.2656 Q835.75,1007.5156 835.75,1007.875 Q835.75,1008.2188 835.4063,1008.625 Q834.9063,1009.2188 834.1094,1009.5469 Q833.0625,1010 831.7813,1010 Q830.2813,1010 829.0781,1009.4063 Q828.1094,1008.9375 827.4219,1007.9219 Q826.75,1006.9063 826.75,1005.7031 L826.75,1004.6094 Q826.75,1003.3594 827.3438,1002.2656 Q827.9531,1001.1719 829,1000.5938 Q830.0625,1000 831.25,1000 Q831.9688,1000 832.5938,1000.25 Q833.2188,1000.5 833.75,1001 Z " fill="#000000"/><text fill="#000000" font-family="sans-serif" font-size="12" lengthAdjust="spacing" textLength="24" x="852.25" y="1009.4102">Test</text><line style="stroke:#A80036;stroke-width:1.5;" x1="644" x2="1052" y1="1020.5" y2="1020.5"/><text fill="#000000" font-family="sans-serif" font-size="11" lengthAdjust="spacing" textLength="83" x="649" y="1035.9189">-Integer testCode</text><text fill="#000000" font-family="sans-serif" font-size="11" lengthAdjust="spacing" textLength="83" x="649" y="1049.7549">-Integer nhsCode</text><line style="stroke:#A80036;stroke-width:1.5;" x1="644" x2="1052" y1="1056.1719" y2="1056.1719"/><text fill="#000000" font-family="sans-serif" font-size="11" lengthAdjust="spacing" textLength="398" x="649" y="1071.5908">+Test(testCode, nhsCode, ClientID, TestTypeDesignation, CategoryID, ParameterID)</text><!--MD5=[9681492165142af2a4a3a169d90ee8d4]
class Sample--><rect codeLine="17" fill="#FEFECE" filter="url(#f1lrheu3nylame)" height="75.6719" id="Sample" style="stroke:#A80036;stroke-width:1.5;" width="196" x="838" y="715"/><ellipse cx="910.25" cy="731" fill="#ADD1B2" rx="11" ry="11" style="stroke:#A80036;stroke-width:1.0;"/><path d="M912.25,727.5 Q912.4531,727 912.6875,726.75 Q912.9219,726.5 913.1875,726.5 Q913.6563,726.5 913.9531,726.7813 Q914.25,727.0625 914.25,727.7188 L914.25,729.2813 Q914.25,729.9375 913.9688,730.2188 Q913.6875,730.5 913.25,730.5 Q912.8594,730.5 912.6094,730.3281 Q912.3594,730.1563 912.25,729.7031 Q912.2031,729.3906 912.0313,729.2188 Q911.7188,728.8906 911.1563,728.7031 Q910.5938,728.5 910.0313,728.5 Q909.3281,728.5 908.7344,728.7813 Q908.1563,729.0625 907.7031,729.6875 Q907.25,730.3125 907.25,731.1719 L907.25,732.0938 Q907.25,733.125 908.0938,733.8125 Q908.9375,734.5 910.4375,734.5 Q911.3281,734.5 911.9531,734.2969 Q912.3125,734.1875 912.7188,733.8281 Q912.9844,733.625 913.125,733.5625 Q913.2656,733.5 913.4375,733.5 Q913.7656,733.5 914,733.7656 Q914.25,734.0156 914.25,734.375 Q914.25,734.7188 913.9063,735.125 Q913.4063,735.7188 912.6094,736.0469 Q911.5625,736.5 910.2813,736.5 Q908.7813,736.5 907.5781,735.9063 Q906.6094,735.4375 905.9219,734.4219 Q905.25,733.4063 905.25,732.2031 L905.25,731.1094 Q905.25,729.8594 905.8438,728.7656 Q906.4531,727.6719 907.5,727.0938 Q908.5625,726.5 909.75,726.5 Q910.4688,726.5 911.0938,726.75 Q911.7188,727 912.25,727.5 Z " fill="#000000"/><text fill="#000000" font-family="sans-serif" font-size="12" lengthAdjust="spacing" textLength="43" x="930.75" y="735.9102">Sample</text><line style="stroke:#A80036;stroke-width:1.5;" x1="839" x2="1033" y1="747" y2="747"/><text fill="#000000" font-family="sans-serif" font-size="11" lengthAdjust="spacing" textLength="90" x="844" y="762.4189">-String barcodeTxt</text><line style="stroke:#A80036;stroke-width:1.5;" x1="839" x2="1033" y1="768.8359" y2="768.8359"/><text fill="#000000" font-family="sans-serif" font-size="11" lengthAdjust="spacing" textLength="184" x="844" y="784.2549">+Sample(barcodeTxt, testDesignation)</text><!--MD5=[6ba72ddf03822b91e8d41ca71de58ed3]
class TestTypeStore--><rect codeLine="22" fill="#FEFECE" filter="url(#f1lrheu3nylame)" height="89.5078" id="TestTypeStore" style="stroke:#A80036;stroke-width:1.5;" width="160" x="1409" y="462"/><ellipse cx="1446.05" cy="478" fill="#ADD1B2" rx="11" ry="11" style="stroke:#A80036;stroke-width:1.0;"/><path d="M1448.05,474.5 Q1448.2531,474 1448.4875,473.75 Q1448.7219,473.5 1448.9875,473.5 Q1449.4563,473.5 1449.7531,473.7813 Q1450.05,474.0625 1450.05,474.7188 L1450.05,476.2813 Q1450.05,476.9375 1449.7688,477.2188 Q1449.4875,477.5 1449.05,477.5 Q1448.6594,477.5 1448.4094,477.3281 Q1448.1594,477.1563 1448.05,476.7031 Q1448.0031,476.3906 1447.8313,476.2188 Q1447.5188,475.8906 1446.9563,475.7031 Q1446.3938,475.5 1445.8313,475.5 Q1445.1281,475.5 1444.5344,475.7813 Q1443.9563,476.0625 1443.5031,476.6875 Q1443.05,477.3125 1443.05,478.1719 L1443.05,479.0938 Q1443.05,480.125 1443.8938,480.8125 Q1444.7375,481.5 1446.2375,481.5 Q1447.1281,481.5 1447.7531,481.2969 Q1448.1125,481.1875 1448.5188,480.8281 Q1448.7844,480.625 1448.925,480.5625 Q1449.0656,480.5 1449.2375,480.5 Q1449.5656,480.5 1449.8,480.7656 Q1450.05,481.0156 1450.05,481.375 Q1450.05,481.7188 1449.7063,482.125 Q1449.2063,482.7188 1448.4094,483.0469 Q1447.3625,483.5 1446.0813,483.5 Q1444.5813,483.5 1443.3781,482.9063 Q1442.4094,482.4375 1441.7219,481.4219 Q1441.05,480.4063 1441.05,479.2031 L1441.05,478.1094 Q1441.05,476.8594 1441.6438,475.7656 Q1442.2531,474.6719 1443.3,474.0938 Q1444.3625,473.5 1445.55,473.5 Q1446.2688,473.5 1446.8938,473.75 Q1447.5188,474 1448.05,474.5 Z " fill="#000000"/><text fill="#000000" font-family="sans-serif" font-size="12" lengthAdjust="spacing" textLength="79" x="1464.95" y="482.9102">TestTypeStore</text><line style="stroke:#A80036;stroke-width:1.5;" x1="1410" x2="1568" y1="494" y2="494"/><line style="stroke:#A80036;stroke-width:1.5;" x1="1410" x2="1568" y1="502" y2="502"/><text fill="#000000" font-family="sans-serif" font-size="11" lengthAdjust="spacing" textLength="148" x="1415" y="517.4189">+createTestType() : Parameter</text><text fill="#000000" font-family="sans-serif" font-size="11" lengthAdjust="spacing" textLength="118" x="1415" y="531.2549">+saveTestType(tt) : bool</text><text fill="#000000" font-family="sans-serif" font-size="11" lengthAdjust="spacing" textLength="129" x="1415" y="545.0908">-validateTestType(tt) : bool</text><!--MD5=[01931d41e78f8996acd44f6f0fd8de28]
class MedicalLabTechnician--><rect codeLine="27" fill="#FEFECE" filter="url(#f1lrheu3nylame)" height="158.6875" id="MedicalLabTechnician" style="stroke:#A80036;stroke-width:1.5;" width="478" x="130" y="954"/><ellipse cx="303.25" cy="970" fill="#ADD1B2" rx="11" ry="11" style="stroke:#A80036;stroke-width:1.0;"/><path d="M305.25,966.5 Q305.4531,966 305.6875,965.75 Q305.9219,965.5 306.1875,965.5 Q306.6563,965.5 306.9531,965.7813 Q307.25,966.0625 307.25,966.7188 L307.25,968.2813 Q307.25,968.9375 306.9688,969.2188 Q306.6875,969.5 306.25,969.5 Q305.8594,969.5 305.6094,969.3281 Q305.3594,969.1563 305.25,968.7031 Q305.2031,968.3906 305.0313,968.2188 Q304.7188,967.8906 304.1563,967.7031 Q303.5938,967.5 303.0313,967.5 Q302.3281,967.5 301.7344,967.7813 Q301.1563,968.0625 300.7031,968.6875 Q300.25,969.3125 300.25,970.1719 L300.25,971.0938 Q300.25,972.125 301.0938,972.8125 Q301.9375,973.5 303.4375,973.5 Q304.3281,973.5 304.9531,973.2969 Q305.3125,973.1875 305.7188,972.8281 Q305.9844,972.625 306.125,972.5625 Q306.2656,972.5 306.4375,972.5 Q306.7656,972.5 307,972.7656 Q307.25,973.0156 307.25,973.375 Q307.25,973.7188 306.9063,974.125 Q306.4063,974.7188 305.6094,975.0469 Q304.5625,975.5 303.2813,975.5 Q301.7813,975.5 300.5781,974.9063 Q299.6094,974.4375 298.9219,973.4219 Q298.25,972.4063 298.25,971.2031 L298.25,970.1094 Q298.25,968.8594 298.8438,967.7656 Q299.4531,966.6719 300.5,966.0938 Q301.5625,965.5 302.75,965.5 Q303.4688,965.5 304.0938,965.75 Q304.7188,966 305.25,966.5 Z " fill="#000000"/><text fill="#000000" font-family="sans-serif" font-size="12" lengthAdjust="spacing" textLength="123" x="323.75" y="974.9102">MedicalLabTechnician</text><line style="stroke:#A80036;stroke-width:1.5;" x1="131" x2="607" y1="986" y2="986"/><text fill="#000000" font-family="sans-serif" font-size="11" lengthAdjust="spacing" textLength="90" x="136" y="1001.4189">-String employeeID</text><text fill="#000000" font-family="sans-serif" font-size="11" lengthAdjust="spacing" textLength="115" x="136" y="1015.2549">-String organizationRole</text><text fill="#000000" font-family="sans-serif" font-size="11" lengthAdjust="spacing" textLength="61" x="136" y="1029.0908">-String name</text><text fill="#000000" font-family="sans-serif" font-size="11" lengthAdjust="spacing" textLength="75" x="136" y="1042.9268">-String address</text><text fill="#000000" font-family="sans-serif" font-size="11" lengthAdjust="spacing" textLength="107" x="136" y="1056.7627">-Integer phoneNumber</text><text fill="#000000" font-family="sans-serif" font-size="11" lengthAdjust="spacing" textLength="59" x="136" y="1070.5986">-String email</text><text fill="#000000" font-family="sans-serif" font-size="11" lengthAdjust="spacing" textLength="58" x="136" y="1084.4346">-Integer soc</text><line style="stroke:#A80036;stroke-width:1.5;" x1="131" x2="607" y1="1090.8516" y2="1090.8516"/><text fill="#000000" font-family="sans-serif" font-size="11" lengthAdjust="spacing" textLength="466" x="136" y="1106.2705">+MedicalLabTechnician(employeeID, organizationRole, name, address, phoneNumber, email, soc)</text><!--MD5=[aeb3272166074d8737a70b61b1e71682]
class TestType--><rect codeLine="38" fill="#FEFECE" filter="url(#f1lrheu3nylame)" height="61.8359" id="TestType" style="stroke:#A80036;stroke-width:1.5;" width="102" x="1554" y="722"/><ellipse cx="1578" cy="738" fill="#ADD1B2" rx="11" ry="11" style="stroke:#A80036;stroke-width:1.0;"/><path d="M1580,734.5 Q1580.2031,734 1580.4375,733.75 Q1580.6719,733.5 1580.9375,733.5 Q1581.4063,733.5 1581.7031,733.7813 Q1582,734.0625 1582,734.7188 L1582,736.2813 Q1582,736.9375 1581.7188,737.2188 Q1581.4375,737.5 1581,737.5 Q1580.6094,737.5 1580.3594,737.3281 Q1580.1094,737.1563 1580,736.7031 Q1579.9531,736.3906 1579.7813,736.2188 Q1579.4688,735.8906 1578.9063,735.7031 Q1578.3438,735.5 1577.7813,735.5 Q1577.0781,735.5 1576.4844,735.7813 Q1575.9063,736.0625 1575.4531,736.6875 Q1575,737.3125 1575,738.1719 L1575,739.0938 Q1575,740.125 1575.8438,740.8125 Q1576.6875,741.5 1578.1875,741.5 Q1579.0781,741.5 1579.7031,741.2969 Q1580.0625,741.1875 1580.4688,740.8281 Q1580.7344,740.625 1580.875,740.5625 Q1581.0156,740.5 1581.1875,740.5 Q1581.5156,740.5 1581.75,740.7656 Q1582,741.0156 1582,741.375 Q1582,741.7188 1581.6563,742.125 Q1581.1563,742.7188 1580.3594,743.0469 Q1579.3125,743.5 1578.0313,743.5 Q1576.5313,743.5 1575.3281,742.9063 Q1574.3594,742.4375 1573.6719,741.4219 Q1573,740.4063 1573,739.2031 L1573,738.1094 Q1573,736.8594 1573.5938,735.7656 Q1574.2031,734.6719 1575.25,734.0938 Q1576.3125,733.5 1577.5,733.5 Q1578.2188,733.5 1578.8438,733.75 Q1579.4688,734 1580,734.5 Z " fill="#000000"/><text fill="#000000" font-family="sans-serif" font-size="12" lengthAdjust="spacing" textLength="50" x="1594" y="742.9102">TestType</text><line style="stroke:#A80036;stroke-width:1.5;" x1="1555" x2="1655" y1="754" y2="754"/><text fill="#000000" font-family="sans-serif" font-size="11" lengthAdjust="spacing" textLength="90" x="1560" y="769.4189">-String designation</text><line style="stroke:#A80036;stroke-width:1.5;" x1="1555" x2="1655" y1="775.8359" y2="775.8359"/><!--MD5=[be7802b157a16874d39c59ca0e2b25be]
class ParameterStore--><rect codeLine="42" fill="#FEFECE" filter="url(#f1lrheu3nylame)" height="103.3438" id="ParameterStore" style="stroke:#A80036;stroke-width:1.5;" width="164" x="1199" y="821"/><ellipse cx="1234.25" cy="837" fill="#ADD1B2" rx="11" ry="11" style="stroke:#A80036;stroke-width:1.0;"/><path d="M1236.25,833.5 Q1236.4531,833 1236.6875,832.75 Q1236.9219,832.5 1237.1875,832.5 Q1237.6563,832.5 1237.9531,832.7813 Q1238.25,833.0625 1238.25,833.7188 L1238.25,835.2813 Q1238.25,835.9375 1237.9688,836.2188 Q1237.6875,836.5 1237.25,836.5 Q1236.8594,836.5 1236.6094,836.3281 Q1236.3594,836.1563 1236.25,835.7031 Q1236.2031,835.3906 1236.0313,835.2188 Q1235.7188,834.8906 1235.1563,834.7031 Q1234.5938,834.5 1234.0313,834.5 Q1233.3281,834.5 1232.7344,834.7813 Q1232.1563,835.0625 1231.7031,835.6875 Q1231.25,836.3125 1231.25,837.1719 L1231.25,838.0938 Q1231.25,839.125 1232.0938,839.8125 Q1232.9375,840.5 1234.4375,840.5 Q1235.3281,840.5 1235.9531,840.2969 Q1236.3125,840.1875 1236.7188,839.8281 Q1236.9844,839.625 1237.125,839.5625 Q1237.2656,839.5 1237.4375,839.5 Q1237.7656,839.5 1238,839.7656 Q1238.25,840.0156 1238.25,840.375 Q1238.25,840.7188 1237.9063,841.125 Q1237.4063,841.7188 1236.6094,842.0469 Q1235.5625,842.5 1234.2813,842.5 Q1232.7813,842.5 1231.5781,841.9063 Q1230.6094,841.4375 1229.9219,840.4219 Q1229.25,839.4063 1229.25,838.2031 L1229.25,837.1094 Q1229.25,835.8594 1229.8438,834.7656 Q1230.4531,833.6719 1231.5,833.0938 Q1232.5625,832.5 1233.75,832.5 Q1234.4688,832.5 1235.0938,832.75 Q1235.7188,833 1236.25,833.5 Z " fill="#000000"/><text fill="#000000" font-family="sans-serif" font-size="12" lengthAdjust="spacing" textLength="87" x="1252.75" y="841.9102">ParameterStore</text><line style="stroke:#A80036;stroke-width:1.5;" x1="1200" x2="1362" y1="853" y2="853"/><line style="stroke:#A80036;stroke-width:1.5;" x1="1200" x2="1362" y1="861" y2="861"/><text fill="#000000" font-family="sans-serif" font-size="11" lengthAdjust="spacing" textLength="152" x="1205" y="876.4189">+createParameter() : Parameter</text><text fill="#000000" font-family="sans-serif" font-size="11" lengthAdjust="spacing" textLength="122" x="1205" y="890.2549">+saveParameter(p) : bool</text><text fill="#000000" font-family="sans-serif" font-size="11" lengthAdjust="spacing" textLength="133" x="1205" y="904.0908">-validateParameter(p) : bool</text><text fill="#000000" font-family="sans-serif" font-size="11" lengthAdjust="spacing" textLength="151" x="1205" y="917.9268">+getParameterByID(pID) : string</text><!--MD5=[1f6362a5c8f21d8d6a0fce68f3a92a4e]
class Parameter--><rect codeLine="49" fill="#FEFECE" filter="url(#f1lrheu3nylame)" height="61.8359" id="Parameter" style="stroke:#A80036;stroke-width:1.5;" width="102" x="1166" y="1191"/><ellipse cx="1186.4" cy="1207" fill="#ADD1B2" rx="11" ry="11" style="stroke:#A80036;stroke-width:1.0;"/><path d="M1188.4,1203.5 Q1188.6031,1203 1188.8375,1202.75 Q1189.0719,1202.5 1189.3375,1202.5 Q1189.8063,1202.5 1190.1031,1202.7813 Q1190.4,1203.0625 1190.4,1203.7188 L1190.4,1205.2813 Q1190.4,1205.9375 1190.1188,1206.2188 Q1189.8375,1206.5 1189.4,1206.5 Q1189.0094,1206.5 1188.7594,1206.3281 Q1188.5094,1206.1563 1188.4,1205.7031 Q1188.3531,1205.3906 1188.1813,1205.2188 Q1187.8688,1204.8906 1187.3063,1204.7031 Q1186.7438,1204.5 1186.1813,1204.5 Q1185.4781,1204.5 1184.8844,1204.7813 Q1184.3063,1205.0625 1183.8531,1205.6875 Q1183.4,1206.3125 1183.4,1207.1719 L1183.4,1208.0938 Q1183.4,1209.125 1184.2438,1209.8125 Q1185.0875,1210.5 1186.5875,1210.5 Q1187.4781,1210.5 1188.1031,1210.2969 Q1188.4625,1210.1875 1188.8688,1209.8281 Q1189.1344,1209.625 1189.275,1209.5625 Q1189.4156,1209.5 1189.5875,1209.5 Q1189.9156,1209.5 1190.15,1209.7656 Q1190.4,1210.0156 1190.4,1210.375 Q1190.4,1210.7188 1190.0563,1211.125 Q1189.5563,1211.7188 1188.7594,1212.0469 Q1187.7125,1212.5 1186.4313,1212.5 Q1184.9313,1212.5 1183.7281,1211.9063 Q1182.7594,1211.4375 1182.0719,1210.4219 Q1181.4,1209.4063 1181.4,1208.2031 L1181.4,1207.1094 Q1181.4,1205.8594 1181.9938,1204.7656 Q1182.6031,1203.6719 1183.65,1203.0938 Q1184.7125,1202.5 1185.9,1202.5 Q1186.6188,1202.5 1187.2438,1202.75 Q1187.8688,1203 1188.4,1203.5 Z " fill="#000000"/><text fill="#000000" font-family="sans-serif" font-size="12" lengthAdjust="spacing" textLength="58" x="1201.6" y="1211.9102">Parameter</text><line style="stroke:#A80036;stroke-width:1.5;" x1="1167" x2="1267" y1="1223" y2="1223"/><text fill="#000000" font-family="sans-serif" font-size="11" lengthAdjust="spacing" textLength="90" x="1172" y="1238.4189">-String designation</text><line style="stroke:#A80036;stroke-width:1.5;" x1="1167" x2="1267" y1="1244.8359" y2="1244.8359"/><!--MD5=[d802db621b5b215a6f0466f93cefcb42]
class ParameterCategoryStore--><rect codeLine="53" fill="#FEFECE" filter="url(#f1lrheu3nylame)" height="103.3438" id="ParameterCategoryStore" style="stroke:#A80036;stroke-width:1.5;" width="252" x="1274" y="582"/><ellipse cx="1327.75" cy="598" fill="#ADD1B2" rx="11" ry="11" style="stroke:#A80036;stroke-width:1.0;"/><path d="M1329.75,594.5 Q1329.9531,594 1330.1875,593.75 Q1330.4219,593.5 1330.6875,593.5 Q1331.1563,593.5 1331.4531,593.7813 Q1331.75,594.0625 1331.75,594.7188 L1331.75,596.2813 Q1331.75,596.9375 1331.4688,597.2188 Q1331.1875,597.5 1330.75,597.5 Q1330.3594,597.5 1330.1094,597.3281 Q1329.8594,597.1563 1329.75,596.7031 Q1329.7031,596.3906 1329.5313,596.2188 Q1329.2188,595.8906 1328.6563,595.7031 Q1328.0938,595.5 1327.5313,595.5 Q1326.8281,595.5 1326.2344,595.7813 Q1325.6563,596.0625 1325.2031,596.6875 Q1324.75,597.3125 1324.75,598.1719 L1324.75,599.0938 Q1324.75,600.125 1325.5938,600.8125 Q1326.4375,601.5 1327.9375,601.5 Q1328.8281,601.5 1329.4531,601.2969 Q1329.8125,601.1875 1330.2188,600.8281 Q1330.4844,600.625 1330.625,600.5625 Q1330.7656,600.5 1330.9375,600.5 Q1331.2656,600.5 1331.5,600.7656 Q1331.75,601.0156 1331.75,601.375 Q1331.75,601.7188 1331.4063,602.125 Q1330.9063,602.7188 1330.1094,603.0469 Q1329.0625,603.5 1327.7813,603.5 Q1326.2813,603.5 1325.0781,602.9063 Q1324.1094,602.4375 1323.4219,601.4219 Q1322.75,600.4063 1322.75,599.2031 L1322.75,598.1094 Q1322.75,596.8594 1323.3438,595.7656 Q1323.9531,594.6719 1325,594.0938 Q1326.0625,593.5 1327.25,593.5 Q1327.9688,593.5 1328.5938,593.75 Q1329.2188,594 1329.75,594.5 Z " fill="#000000"/><text fill="#000000" font-family="sans-serif" font-size="12" lengthAdjust="spacing" textLength="136" x="1348.25" y="602.9102">ParameterCategoryStore</text><line style="stroke:#A80036;stroke-width:1.5;" x1="1275" x2="1525" y1="614" y2="614"/><line style="stroke:#A80036;stroke-width:1.5;" x1="1275" x2="1525" y1="622" y2="622"/><text fill="#000000" font-family="sans-serif" font-size="11" lengthAdjust="spacing" textLength="240" x="1280" y="637.4189">+createParameterCategory() : ParameterCategory</text><text fill="#000000" font-family="sans-serif" font-size="11" lengthAdjust="spacing" textLength="172" x="1280" y="651.2549">+saveParameterCategory(pc) : bool</text><text fill="#000000" font-family="sans-serif" font-size="11" lengthAdjust="spacing" textLength="183" x="1280" y="665.0908">-validateParameterCategory(pc) : bool</text><text fill="#000000" font-family="sans-serif" font-size="11" lengthAdjust="spacing" textLength="201" x="1280" y="678.9268">+getParameterCategoryByID(pcID) : string</text><!--MD5=[36afb6bbd95a8ac778c4537c55a683d5]
class ParameterCategory--><rect codeLine="60" fill="#FEFECE" filter="url(#f1lrheu3nylame)" height="61.8359" id="ParameterCategory" style="stroke:#A80036;stroke-width:1.5;" width="139" x="1478.5" y="1331"/><ellipse cx="1493.5" cy="1347" fill="#ADD1B2" rx="11" ry="11" style="stroke:#A80036;stroke-width:1.0;"/><path d="M1495.5,1343.5 Q1495.7031,1343 1495.9375,1342.75 Q1496.1719,1342.5 1496.4375,1342.5 Q1496.9063,1342.5 1497.2031,1342.7813 Q1497.5,1343.0625 1497.5,1343.7188 L1497.5,1345.2813 Q1497.5,1345.9375 1497.2188,1346.2188 Q1496.9375,1346.5 1496.5,1346.5 Q1496.1094,1346.5 1495.8594,1346.3281 Q1495.6094,1346.1563 1495.5,1345.7031 Q1495.4531,1345.3906 1495.2813,1345.2188 Q1494.9688,1344.8906 1494.4063,1344.7031 Q1493.8438,1344.5 1493.2813,1344.5 Q1492.5781,1344.5 1491.9844,1344.7813 Q1491.4063,1345.0625 1490.9531,1345.6875 Q1490.5,1346.3125 1490.5,1347.1719 L1490.5,1348.0938 Q1490.5,1349.125 1491.3438,1349.8125 Q1492.1875,1350.5 1493.6875,1350.5 Q1494.5781,1350.5 1495.2031,1350.2969 Q1495.5625,1350.1875 1495.9688,1349.8281 Q1496.2344,1349.625 1496.375,1349.5625 Q1496.5156,1349.5 1496.6875,1349.5 Q1497.0156,1349.5 1497.25,1349.7656 Q1497.5,1350.0156 1497.5,1350.375 Q1497.5,1350.7188 1497.1563,1351.125 Q1496.6563,1351.7188 1495.8594,1352.0469 Q1494.8125,1352.5 1493.5313,1352.5 Q1492.0313,1352.5 1490.8281,1351.9063 Q1489.8594,1351.4375 1489.1719,1350.4219 Q1488.5,1349.4063 1488.5,1348.2031 L1488.5,1347.1094 Q1488.5,1345.8594 1489.0938,1344.7656 Q1489.7031,1343.6719 1490.75,1343.0938 Q1491.8125,1342.5 1493,1342.5 Q1493.7188,1342.5 1494.3438,1342.75 Q1494.9688,1343 1495.5,1343.5 Z " fill="#000000"/><text fill="#000000" font-family="sans-serif" font-size="12" lengthAdjust="spacing" textLength="107" x="1507.5" y="1351.9102">ParameterCategory</text><line style="stroke:#A80036;stroke-width:1.5;" x1="1479.5" x2="1616.5" y1="1363" y2="1363"/><text fill="#000000" font-family="sans-serif" font-size="11" lengthAdjust="spacing" textLength="90" x="1484.5" y="1378.4189">-String designation</text><line style="stroke:#A80036;stroke-width:1.5;" x1="1479.5" x2="1616.5" y1="1384.8359" y2="1384.8359"/><!--MD5=[02e4b9b7573f1156f41e60aa5b4e25a4]
class Company--><rect codeLine="64" fill="#FEFECE" filter="url(#f1lrheu3nylame)" height="131.0156" id="Company" style="stroke:#A80036;stroke-width:1.5;" width="262" x="1120" y="253"/><ellipse cx="1220.25" cy="269" fill="#ADD1B2" rx="11" ry="11" style="stroke:#A80036;stroke-width:1.0;"/><path d="M1222.25,265.5 Q1222.4531,265 1222.6875,264.75 Q1222.9219,264.5 1223.1875,264.5 Q1223.6563,264.5 1223.9531,264.7813 Q1224.25,265.0625 1224.25,265.7188 L1224.25,267.2813 Q1224.25,267.9375 1223.9688,268.2188 Q1223.6875,268.5 1223.25,268.5 Q1222.8594,268.5 1222.6094,268.3281 Q1222.3594,268.1563 1222.25,267.7031 Q1222.2031,267.3906 1222.0313,267.2188 Q1221.7188,266.8906 1221.1563,266.7031 Q1220.5938,266.5 1220.0313,266.5 Q1219.3281,266.5 1218.7344,266.7813 Q1218.1563,267.0625 1217.7031,267.6875 Q1217.25,268.3125 1217.25,269.1719 L1217.25,270.0938 Q1217.25,271.125 1218.0938,271.8125 Q1218.9375,272.5 1220.4375,272.5 Q1221.3281,272.5 1221.9531,272.2969 Q1222.3125,272.1875 1222.7188,271.8281 Q1222.9844,271.625 1223.125,271.5625 Q1223.2656,271.5 1223.4375,271.5 Q1223.7656,271.5 1224,271.7656 Q1224.25,272.0156 1224.25,272.375 Q1224.25,272.7188 1223.9063,273.125 Q1223.4063,273.7188 1222.6094,274.0469 Q1221.5625,274.5 1220.2813,274.5 Q1218.7813,274.5 1217.5781,273.9063 Q1216.6094,273.4375 1215.9219,272.4219 Q1215.25,271.4063 1215.25,270.2031 L1215.25,269.1094 Q1215.25,267.8594 1215.8438,266.7656 Q1216.4531,265.6719 1217.5,265.0938 Q1218.5625,264.5 1219.75,264.5 Q1220.4688,264.5 1221.0938,264.75 Q1221.7188,265 1222.25,265.5 Z " fill="#000000"/><text fill="#000000" font-family="sans-serif" font-size="12" lengthAdjust="spacing" textLength="53" x="1240.75" y="273.9102">Company</text><line style="stroke:#A80036;stroke-width:1.5;" x1="1121" x2="1381" y1="285" y2="285"/><text fill="#000000" font-family="sans-serif" font-size="11" lengthAdjust="spacing" textLength="90" x="1126" y="300.4189">-String designation</text><line style="stroke:#A80036;stroke-width:1.5;" x1="1121" x2="1381" y1="306.8359" y2="306.8359"/><text fill="#000000" font-family="sans-serif" font-size="11" lengthAdjust="spacing" textLength="114" x="1126" y="322.2549">+Company(designation)</text><text fill="#000000" font-family="sans-serif" font-size="11" lengthAdjust="spacing" textLength="134" x="1126" y="336.0908">+getSampleStore() : Sample</text><text fill="#000000" font-family="sans-serif" font-size="11" lengthAdjust="spacing" textLength="162" x="1126" y="349.9268">+getParameterStore() : Parameter</text><text fill="#000000" font-family="sans-serif" font-size="11" lengthAdjust="spacing" textLength="168" x="1126" y="363.7627">+getSampleTypeStore() : TestType</text><text fill="#000000" font-family="sans-serif" font-size="11" lengthAdjust="spacing" textLength="250" x="1126" y="377.5986">+getParameterCategoryStore() : ParameterCategory</text><!--MD5=[fd2423cf074c58af9f3fc0cc98d921c9]
class CreateSampleController--><rect codeLine="74" fill="#FEFECE" filter="url(#f1lrheu3nylame)" height="75.6719" id="CreateSampleController" style="stroke:#A80036;stroke-width:1.5;" width="260" x="963" y="116"/><ellipse cx="1021.75" cy="132" fill="#ADD1B2" rx="11" ry="11" style="stroke:#A80036;stroke-width:1.0;"/><path d="M1023.75,128.5 Q1023.9531,128 1024.1875,127.75 Q1024.4219,127.5 1024.6875,127.5 Q1025.1563,127.5 1025.4531,127.7813 Q1025.75,128.0625 1025.75,128.7188 L1025.75,130.2813 Q1025.75,130.9375 1025.4688,131.2188 Q1025.1875,131.5 1024.75,131.5 Q1024.3594,131.5 1024.1094,131.3281 Q1023.8594,131.1563 1023.75,130.7031 Q1023.7031,130.3906 1023.5313,130.2188 Q1023.2188,129.8906 1022.6563,129.7031 Q1022.0938,129.5 1021.5313,129.5 Q1020.8281,129.5 1020.2344,129.7813 Q1019.6563,130.0625 1019.2031,130.6875 Q1018.75,131.3125 1018.75,132.1719 L1018.75,133.0938 Q1018.75,134.125 1019.5938,134.8125 Q1020.4375,135.5 1021.9375,135.5 Q1022.8281,135.5 1023.4531,135.2969 Q1023.8125,135.1875 1024.2188,134.8281 Q1024.4844,134.625 1024.625,134.5625 Q1024.7656,134.5 1024.9375,134.5 Q1025.2656,134.5 1025.5,134.7656 Q1025.75,135.0156 1025.75,135.375 Q1025.75,135.7188 1025.4063,136.125 Q1024.9063,136.7188 1024.1094,137.0469 Q1023.0625,137.5 1021.7813,137.5 Q1020.2813,137.5 1019.0781,136.9063 Q1018.1094,136.4375 1017.4219,135.4219 Q1016.75,134.4063 1016.75,133.2031 L1016.75,132.1094 Q1016.75,130.8594 1017.3438,129.7656 Q1017.9531,128.6719 1019,128.0938 Q1020.0625,127.5 1021.25,127.5 Q1021.9688,127.5 1022.5938,127.75 Q1023.2188,128 1023.75,128.5 Z " fill="#000000"/><text fill="#000000" font-family="sans-serif" font-size="12" lengthAdjust="spacing" textLength="134" x="1042.25" y="136.9102">CreateSampleController</text><line style="stroke:#A80036;stroke-width:1.5;" x1="964" x2="1222" y1="148" y2="148"/><line style="stroke:#A80036;stroke-width:1.5;" x1="964" x2="1222" y1="156" y2="156"/><text fill="#000000" font-family="sans-serif" font-size="11" lengthAdjust="spacing" textLength="248" x="969" y="171.4189">+createSample(barcodeTxt), testDesignation) : bool</text><text fill="#000000" font-family="sans-serif" font-size="11" lengthAdjust="spacing" textLength="102" x="969" y="185.2549">+saveSample() : bool</text><!--MD5=[463df3c621d753e095fa24a878c61328]
class CreateSampleUI--><rect codeLine="79" fill="#FEFECE" filter="url(#f1lrheu3nylame)" height="48" id="CreateSampleUI" style="stroke:#A80036;stroke-width:1.5;" width="124" x="1031" y="7"/><ellipse cx="1046" cy="23" fill="#ADD1B2" rx="11" ry="11" style="stroke:#A80036;stroke-width:1.0;"/><path d="M1048,19.5 Q1048.2031,19 1048.4375,18.75 Q1048.6719,18.5 1048.9375,18.5 Q1049.4063,18.5 1049.7031,18.7813 Q1050,19.0625 1050,19.7188 L1050,21.2813 Q1050,21.9375 1049.7188,22.2188 Q1049.4375,22.5 1049,22.5 Q1048.6094,22.5 1048.3594,22.3281 Q1048.1094,22.1563 1048,21.7031 Q1047.9531,21.3906 1047.7813,21.2188 Q1047.4688,20.8906 1046.9063,20.7031 Q1046.3438,20.5 1045.7813,20.5 Q1045.0781,20.5 1044.4844,20.7813 Q1043.9063,21.0625 1043.4531,21.6875 Q1043,22.3125 1043,23.1719 L1043,24.0938 Q1043,25.125 1043.8438,25.8125 Q1044.6875,26.5 1046.1875,26.5 Q1047.0781,26.5 1047.7031,26.2969 Q1048.0625,26.1875 1048.4688,25.8281 Q1048.7344,25.625 1048.875,25.5625 Q1049.0156,25.5 1049.1875,25.5 Q1049.5156,25.5 1049.75,25.7656 Q1050,26.0156 1050,26.375 Q1050,26.7188 1049.6563,27.125 Q1049.1563,27.7188 1048.3594,28.0469 Q1047.3125,28.5 1046.0313,28.5 Q1044.5313,28.5 1043.3281,27.9063 Q1042.3594,27.4375 1041.6719,26.4219 Q1041,25.4063 1041,24.2031 L1041,23.1094 Q1041,21.8594 1041.5938,20.7656 Q1042.2031,19.6719 1043.25,19.0938 Q1044.3125,18.5 1045.5,18.5 Q1046.2188,18.5 1046.8438,18.75 Q1047.4688,19 1048,19.5 Z " fill="#000000"/><text fill="#000000" font-family="sans-serif" font-size="12" lengthAdjust="spacing" textLength="92" x="1060" y="27.9102">CreateSampleUI</text><line style="stroke:#A80036;stroke-width:1.5;" x1="1032" x2="1154" y1="39" y2="39"/><line style="stroke:#A80036;stroke-width:1.5;" x1="1032" x2="1154" y1="47" y2="47"/><!--MD5=[f1b16c84c53bbb166854cd5a2d0808e1]
link CreateSampleUI to CreateSampleController--><path codeLine="83" d="M1093,55.04 C1093,70.71 1093,91.91 1093,110.58 " fill="none" id="CreateSampleUI-to-CreateSampleController" style="stroke:#A80036;stroke-width:1.0;stroke-dasharray:7.0,7.0;"/><polygon fill="#A80036" points="1093,115.77,1097,106.77,1093,110.77,1089,106.77,1093,115.77" style="stroke:#A80036;stroke-width:1.0;"/><!--MD5=[0eb702da9b2dfc483ee0df04cafef7d9]
link CreateSampleController to MedicalLabTechnician--><path codeLine="84" d="M962.98,156.05 C700.25,159.22 124.7,171.87 51,222 C12.2,248.39 6,270.58 6,317.5 C6,317.5 6,317.5 6,754 C6,842.69 75.05,906.99 152.92,951.31 " fill="none" id="CreateSampleController-to-MedicalLabTechnician" style="stroke:#A80036;stroke-width:1.0;stroke-dasharray:7.0,7.0;"/><polygon fill="#A80036" points="157.58,953.93,151.7055,946.0249,153.2248,951.4739,147.7758,952.9933,157.58,953.93" style="stroke:#A80036;stroke-width:1.0;"/><!--MD5=[161ddefdfa588482893187b30a9da142]
link CreateSampleController to Sample--><path codeLine="85" d="M1074.74,192.27 C1047.76,249.04 997.67,361.24 972,462 C949.99,548.38 941.24,652.79 937.91,709.79 " fill="none" id="CreateSampleController-to-Sample" style="stroke:#A80036;stroke-width:1.0;stroke-dasharray:7.0,7.0;"/><polygon fill="#A80036" points="937.62,714.82,942.1284,706.0636,937.9061,709.8282,934.1415,705.6059,937.62,714.82" style="stroke:#A80036;stroke-width:1.0;"/><!--MD5=[b2d00435224cdc09b6bfdc0f7c7cb10d]
link CreateSampleController to Parameter--><path codeLine="86" d="M962.77,162.46 C688.62,179.92 77,228.8 77,317.5 C77,317.5 77,317.5 77,1034.5 C77,1072.7 81.01,1090.67 112,1113 C197.73,1174.78 947.4,1209.96 1160.64,1218.79 " fill="none" id="CreateSampleController-to-Parameter" style="stroke:#A80036;stroke-width:1.0;stroke-dasharray:7.0,7.0;"/><polygon fill="#A80036" points="1165.88,1219,1157.0476,1214.6425,1160.884,1218.7996,1156.7269,1222.636,1165.88,1219" style="stroke:#A80036;stroke-width:1.0;"/><!--MD5=[b2d40009c9fc5df87efb394a02a82b57]
link CreateSampleController to ParameterCategory--><path codeLine="87" d="M1223.09,158.55 C1427.28,167.71 1800,200.45 1800,317.5 C1800,317.5 1800,317.5 1800,1223 C1800,1304.59 1697.12,1338.26 1622.82,1351.93 " fill="none" id="CreateSampleController-to-ParameterCategory" style="stroke:#A80036;stroke-width:1.0;stroke-dasharray:7.0,7.0;"/><polygon fill="#A80036" points="1617.53,1352.88,1627.0968,1355.2202,1622.4507,1351.9931,1625.6778,1347.3471,1617.53,1352.88" style="stroke:#A80036;stroke-width:1.0;"/><!--MD5=[6df8d6846eec4436e4de09ad177f7a20]
link CreateSampleController to TestType--><path codeLine="88" d="M1223.31,180.29 C1280.62,195.4 1346.83,218.54 1400,253 C1504.6,320.78 1526.5,353.03 1587,462 C1635.7,549.71 1634.43,585.45 1622,685 C1620.68,695.54 1618.25,706.8 1615.62,717.03 " fill="none" id="CreateSampleController-to-TestType" style="stroke:#A80036;stroke-width:1.0;stroke-dasharray:7.0,7.0;"/><polygon fill="#A80036" points="1614.32,721.95,1620.4955,714.2777,1615.603,717.1174,1612.7633,712.2249,1614.32,721.95" style="stroke:#A80036;stroke-width:1.0;"/><!--MD5=[66ade67116f6239317027dfc9225e614]
link CreateSampleController to Company--><path codeLine="89" d="M1129.25,192.28 C1145.65,209.15 1165.56,229.63 1184.5,249.1 " fill="none" id="CreateSampleController-to-Company" style="stroke:#A80036;stroke-width:1.0;stroke-dasharray:7.0,7.0;"/><polygon fill="#A80036" points="1188.27,252.98,1184.8648,243.7385,1184.7848,249.3948,1179.1285,249.3148,1188.27,252.98" style="stroke:#A80036;stroke-width:1.0;"/><!--MD5=[1ae83efc6d1967ce5bc17dfe294d00c2]
link Sample to Test--><path codeLine="91" d="M924.22,791.27 C908.58,840.76 880.92,928.31 863.57,983.22 " fill="none" id="Sample-to-Test" style="stroke:#A80036;stroke-width:1.0;"/><polygon fill="#A80036" points="862.03,988.1,868.5651,980.7316,863.5425,983.3342,860.9399,978.3117,862.03,988.1" style="stroke:#A80036;stroke-width:1.0;"/><text fill="#000000" font-family="sans-serif" font-size="13" lengthAdjust="spacing" textLength="70" x="916" y="877.9951">collected by</text><text fill="#000000" font-family="sans-serif" font-size="13" lengthAdjust="spacing" textLength="5" x="916.9441" y="812.1936">*</text><text fill="#000000" font-family="sans-serif" font-size="13" lengthAdjust="spacing" textLength="7" x="856.6424" y="977.4828">1</text><!--MD5=[a0992dda039fed1bb57aff5aacace800]
link ParameterStore to Parameter--><path codeLine="93" d="M1276.52,924.35 C1271.68,973.11 1262.76,1048.59 1249,1113 C1243.74,1137.61 1235.69,1164.77 1228.97,1185.69 " fill="none" id="ParameterStore-to-Parameter" style="stroke:#A80036;stroke-width:1.0;"/><polygon fill="#A80036" points="1227.38,1190.6,1233.9415,1183.2551,1228.9096,1185.8397,1226.325,1180.8078,1227.38,1190.6" style="stroke:#A80036;stroke-width:1.0;"/><text fill="#000000" font-family="sans-serif" font-size="13" lengthAdjust="spacing" textLength="118" x="1274" y="1038.9951">capable of analysing</text><text fill="#000000" font-family="sans-serif" font-size="13" lengthAdjust="spacing" textLength="7" x="1268.4477" y="945.888">1</text><text fill="#000000" font-family="sans-serif" font-size="13" lengthAdjust="spacing" textLength="5" x="1224.0053" y="1180.022">*</text><!--MD5=[3eebf0e5f359806b77b30e9524c37676]
link TestTypeStore to TestType--><path codeLine="94" d="M1512.92,552.13 C1517.83,561.85 1522.79,572.18 1527,582 C1546.12,626.56 1541.99,641.29 1563,685 C1568.26,695.93 1574.89,707.3 1581.32,717.51 " fill="none" id="TestTypeStore-to-TestType" style="stroke:#A80036;stroke-width:1.0;"/><polygon fill="#A80036" points="1584.06,721.8,1582.5729,712.0641,1581.3627,717.5899,1575.8368,716.3797,1584.06,721.8" style="stroke:#A80036;stroke-width:1.0;"/><text fill="#000000" font-family="sans-serif" font-size="13" lengthAdjust="spacing" textLength="53" x="1564" y="638.9951">conducts</text><text fill="#000000" font-family="sans-serif" font-size="13" lengthAdjust="spacing" textLength="7" x="1512.1252" y="571.2014">1</text><text fill="#000000" font-family="sans-serif" font-size="13" lengthAdjust="spacing" textLength="5" x="1574.2255" y="711.2633">*</text><!--MD5=[d6274e3b73b5bc8f467c6cfbf5bf003e]
link ParameterCategoryStore to ParameterCategory--><path codeLine="95" d="M1435.61,685.04 C1464.69,731.31 1501,802.85 1501,871.5 C1501,871.5 1501,871.5 1501,1223 C1501,1259.61 1516,1298.9 1529.05,1326.16 " fill="none" id="ParameterCategoryStore-to-ParameterCategory" style="stroke:#A80036;stroke-width:1.0;"/><polygon fill="#A80036" points="1531.3,1330.76,1530.9536,1320.9172,1529.1099,1326.2652,1523.7619,1324.4215,1531.3,1330.76" style="stroke:#A80036;stroke-width:1.0;"/><text fill="#000000" font-family="sans-serif" font-size="13" lengthAdjust="spacing" textLength="39" x="1502" y="1038.9951">adopts</text><text fill="#000000" font-family="sans-serif" font-size="13" lengthAdjust="spacing" textLength="7" x="1433.1255" y="706.9085">1</text><text fill="#000000" font-family="sans-serif" font-size="13" lengthAdjust="spacing" textLength="5" x="1522.34" y="1320.215">*</text><!--MD5=[24da80e03bf7ae3160485df7795f9e59]
link SampleStore to Sample--><path codeLine="96" d="M1058.02,552.19 C1030.53,597.2 988.24,666.46 961.35,710.48 " fill="none" id="SampleStore-to-Sample" style="stroke:#A80036;stroke-width:1.0;"/><polygon fill="#A80036" points="958.64,714.92,966.75,709.3317,961.2501,710.6554,959.9265,705.1555,958.64,714.92" style="stroke:#A80036;stroke-width:1.0;"/><text fill="#000000" font-family="sans-serif" font-size="13" lengthAdjust="spacing" textLength="50" x="1038" y="638.9951">performs</text><text fill="#000000" font-family="sans-serif" font-size="13" lengthAdjust="spacing" textLength="7" x="1046.9243" y="572.8892">1</text><text fill="#000000" font-family="sans-serif" font-size="13" lengthAdjust="spacing" textLength="5" x="957.2274" y="704.2677">*</text><!--MD5=[6fff8c743b4aac4516b5292cd3b50f72]
link Company to SampleStore--><path codeLine="98" d="M1193.41,384.21 C1171.81,408.47 1147.67,435.59 1127.66,458.07 " fill="none" id="Company-to-SampleStore" style="stroke:#A80036;stroke-width:1.0;"/><polygon fill="#A80036" points="1124.23,461.92,1133.1989,457.8508,1127.5518,458.183,1127.2196,452.5359,1124.23,461.92" style="stroke:#A80036;stroke-width:1.0;"/><text fill="#000000" font-family="sans-serif" font-size="13" lengthAdjust="spacing" textLength="28" x="1165" y="428.4951">uses</text><text fill="#000000" font-family="sans-serif" font-size="13" lengthAdjust="spacing" textLength="7" x="1180.1101" y="405.3238">1</text><text fill="#000000" font-family="sans-serif" font-size="13" lengthAdjust="spacing" textLength="7" x="1122.9245" y="451.0227">1</text><!--MD5=[141c3afa12b2b3c0a39ffce56dbd5f19]
link Company to TestTypeStore--><path codeLine="99" d="M1343.77,384.25 C1357.09,394.02 1370.5,404.14 1383,414 C1400.78,428.03 1419.63,444.01 1436.42,458.66 " fill="none" id="Company-to-TestTypeStore" style="stroke:#A80036;stroke-width:1.0;"/><polygon fill="#A80036" points="1440.2,461.96,1436.0608,453.0232,1436.4371,458.6675,1430.7928,459.0438,1440.2,461.96" style="stroke:#A80036;stroke-width:1.0;"/><text fill="#000000" font-family="sans-serif" font-size="13" lengthAdjust="spacing" textLength="28" x="1404" y="428.4951">uses</text><text fill="#000000" font-family="sans-serif" font-size="13" lengthAdjust="spacing" textLength="7" x="1345.976" y="405.3679">1</text><text fill="#000000" font-family="sans-serif" font-size="13" lengthAdjust="spacing" textLength="7" x="1424.8647" y="451.0691">1</text><!--MD5=[daf3d7412afa2c7651483be0b6e971d1]
link Company to ParameterStore--><path codeLine="100" d="M1254.51,384.17 C1260.46,493.5 1272.38,712.98 1277.98,815.87 " fill="none" id="Company-to-ParameterStore" style="stroke:#A80036;stroke-width:1.0;"/><polygon fill="#A80036" points="1278.25,820.98,1281.7548,811.7759,1277.9782,815.9874,1273.7667,812.2108,1278.25,820.98" style="stroke:#A80036;stroke-width:1.0;"/><text fill="#000000" font-family="sans-serif" font-size="13" lengthAdjust="spacing" textLength="28" x="1265" y="512.4951">uses</text><text fill="#000000" font-family="sans-serif" font-size="13" lengthAdjust="spacing" textLength="7" x="1247.5111" y="405.7411">1</text><text fill="#000000" font-family="sans-serif" font-size="13" lengthAdjust="spacing" textLength="7" x="1270.3711" y="810.1057">1</text><!--MD5=[d53d7490e5836ca5709858d7326f212b]
link Company to ParameterCategoryStore--><path codeLine="101" d="M1281.87,384.35 C1308.93,441.19 1347.84,522.93 1373.51,576.85 " fill="none" id="Company-to-ParameterCategoryStore" style="stroke:#A80036;stroke-width:1.0;"/><polygon fill="#A80036" points="1375.8,581.65,1375.5541,571.8042,1373.6559,577.1331,1368.327,575.2348,1375.8,581.65" style="stroke:#A80036;stroke-width:1.0;"/><text fill="#000000" font-family="sans-serif" font-size="13" lengthAdjust="spacing" textLength="28" x="1304" y="428.4951">uses</text><text fill="#000000" font-family="sans-serif" font-size="13" lengthAdjust="spacing" textLength="7" x="1277.6925" y="405.4782">1</text><text fill="#000000" font-family="sans-serif" font-size="13" lengthAdjust="spacing" textLength="7" x="1365.0778" y="571.1033">1</text><!--MD5=[8aaf0efd5e2f3824be7ea3e488dcc283]
link TestType to ParameterCategory--><path codeLine="103" d="M1602.17,784.1 C1592.62,885.83 1561.57,1216.54 1551.32,1325.69 " fill="none" id="TestType-to-ParameterCategory" style="stroke:#A80036;stroke-width:1.0;"/><polygon fill="#A80036" points="1550.84,1330.72,1555.6473,1322.1241,1551.2978,1325.741,1547.6809,1321.3915,1550.84,1330.72" style="stroke:#A80036;stroke-width:1.0;"/><text fill="#000000" font-family="sans-serif" font-size="13" lengthAdjust="spacing" textLength="180" x="1569" y="1157.4951">can measure parameters under</text><text fill="#000000" font-family="sans-serif" font-size="13" lengthAdjust="spacing" textLength="7" x="1593.9238" y="805.3437">1</text><text fill="#000000" font-family="sans-serif" font-size="13" lengthAdjust="spacing" textLength="20" x="1529.3632" y="1320.1668">1..*</text><!--MD5=[6df8849671cb880f6936e94aa30db6f9]
link Parameter to ParameterCategory--><path codeLine="104" d="M1268.14,1249.15 C1299.95,1264.99 1341.92,1285.14 1380,1301 C1410.13,1313.55 1443.93,1325.94 1473.27,1336.17 " fill="none" id="Parameter-to-ParameterCategory" style="stroke:#A80036;stroke-width:1.0;"/><polygon fill="#A80036" points="1478.32,1337.92,1471.1376,1331.1811,1473.5985,1336.2746,1468.505,1338.7355,1478.32,1337.92" style="stroke:#A80036;stroke-width:1.0;"/><text fill="#000000" font-family="sans-serif" font-size="13" lengthAdjust="spacing" textLength="93" x="1381" y="1297.4951">presented under</text><text fill="#000000" font-family="sans-serif" font-size="13" lengthAdjust="spacing" textLength="5" x="1276.0184" y="1249.4956">*</text><text fill="#000000" font-family="sans-serif" font-size="13" lengthAdjust="spacing" textLength="7" x="1463.3159" y="1331.9346">1</text><!--MD5=[e976888a8c5f90ac36521172948fc210]
link Sample to Parameter--><path codeLine="105" d="M971.13,791.13 C979.36,800.56 987.82,810.89 995,821 C1034.3,876.32 1042.48,891.97 1070,954 C1100.21,1022.09 1086.05,1048.32 1123,1113 C1138.6,1140.32 1161.75,1167.02 1181.18,1187.04 " fill="none" id="Sample-to-Parameter" style="stroke:#A80036;stroke-width:1.0;"/><polygon fill="#A80036" points="1185.01,1190.95,1181.5675,1181.7224,1181.5104,1187.3789,1175.8538,1187.3218,1185.01,1190.95" style="stroke:#A80036;stroke-width:1.0;"/><text fill="#000000" font-family="sans-serif" font-size="13" lengthAdjust="spacing" textLength="116" x="1124" y="1038.9951">requests analysis of</text><text fill="#000000" font-family="sans-serif" font-size="13" lengthAdjust="spacing" textLength="20" x="955.1351" y="812.0312">1..*</text><text fill="#000000" font-family="sans-serif" font-size="13" lengthAdjust="spacing" textLength="5" x="1172.4653" y="1179.9593">*</text><!--MD5=[cb5e86f6614a99551e1d9ce6f0ae5849]
link Sample to MedicalLabTechnician--><path codeLine="106" d="M860.41,791.13 C777.38,831.91 641.49,898.66 533.63,951.64 " fill="none" id="Sample-to-MedicalLabTechnician" style="stroke:#A80036;stroke-width:1.0;"/><polygon fill="#A80036" points="528.84,953.99,538.6809,953.5931,533.3235,951.7768,535.1397,946.4195,528.84,953.99" style="stroke:#A80036;stroke-width:1.0;"/><text fill="#000000" font-family="sans-serif" font-size="13" lengthAdjust="spacing" textLength="70" x="800" y="877.9951">collected by</text><text fill="#000000" font-family="sans-serif" font-size="13" lengthAdjust="spacing" textLength="5" x="842.9644" y="812.0312">*</text><text fill="#000000" font-family="sans-serif" font-size="13" lengthAdjust="spacing" textLength="7" x="536.7412" y="943.176">1</text><!--MD5=[a849d19e9af7f0987dbea9dc53562635]
@startuml
skinparam classAttributeIconSize 0
top to bottom direction


class SampleStore {
  +createSample(barcodeTxt) : Sample
  +saveSample(sample) : bool
  -validateSample(sample) : bool
}

class Test {
  -Integer testCode
  -Integer nhsCode
  +Test(testCode, nhsCode, ClientID, TestTypeDesignation, CategoryID, ParameterID)
}

class Sample {
  -String barcodeTxt
  +Sample(barcodeTxt, testDesignation)
}

class TestTypeStore {
  +createTestType() : Parameter
  +saveTestType(tt) : bool
  -validateTestType(tt) : bool
}
class MedicalLabTechnician{
  -String employeeID
  -String organizationRole
  -String name
  -String address
  -Integer phoneNumber
  -String email
  -Integer soc
  +MedicalLabTechnician(employeeID, organizationRole, name, address, phoneNumber, email, soc)
}

class TestType {
  -String designation
}

class ParameterStore {
  +createParameter() : Parameter
  +saveParameter(p) : bool
  -validateParameter(p) : bool
  +getParameterByID(pID) : string
}

class Parameter {
  -String designation
}

class ParameterCategoryStore {
  +createParameterCategory() : ParameterCategory
  +saveParameterCategory(pc) : bool
  -validateParameterCategory(pc) : bool
  +getParameterCategoryByID(pcID) : string
}

class ParameterCategory {
  -String designation
}

class Company {
  -String designation
  +Company(designation)
  +getSampleStore() : Sample
  +getParameterStore() : Parameter
  +getSampleTypeStore() : TestType
  +getParameterCategoryStore() : ParameterCategory
}


class CreateSampleController {
  +createSample(barcodeTxt), testDesignation) : bool
  +saveSample() : bool
}

class CreateSampleUI {

}

CreateSampleUI ..> CreateSampleController
CreateSampleController ..> MedicalLabTechnician
CreateSampleController ..> Sample
CreateSampleController ..> Parameter
CreateSampleController ..> ParameterCategory
CreateSampleController ..> TestType
CreateSampleController ..> Company

 Sample"*" - -> "1" Test : collected by

ParameterStore "1" - -> "*" Parameter : capable of analysing
TestTypeStore "1" - -> "*" TestType : conducts
ParameterCategoryStore "1" - -> "*" ParameterCategory : adopts
SampleStore "1" - -> "*" Sample : performs

Company "1" - -> "1" SampleStore : uses
Company "1" - -> "1" TestTypeStore : uses
Company "1" - -> "1" ParameterStore : uses
Company "1" - -> "1" ParameterCategoryStore : uses

TestType "1" - -> "1..*" ParameterCategory : can measure parameters under
Parameter "*" - -> "1" ParameterCategory : presented under
Sample "1..*" - - -> "*" Parameter : requests analysis of
Sample "*" - -> "1" MedicalLabTechnician : collected by

@enduml

PlantUML version 1.2021.5(Sun Apr 25 12:20:28 BST 2021)
(GPL source distribution)
Java Runtime: OpenJDK Runtime Environment
JVM: OpenJDK 64-Bit Server VM
Default Encoding: Cp1252
Language: pt
Country: PT
--></g></svg>