<?xml version="1.0" encoding="UTF-8" standalone="no"?><svg xmlns="http://www.w3.org/2000/svg" xmlns:xlink="http://www.w3.org/1999/xlink" contentScriptType="application/ecmascript" contentStyleType="text/css" height="756px" preserveAspectRatio="none" style="width:778px;height:756px;" version="1.1" viewBox="0 0 778 756" width="778.8px" zoomAndPan="magnify"><defs><filter height="300%" id="fj5n1u4sw7twg" width="300%" x="-1" y="-1"><feGaussianBlur result="blurOut" stdDeviation="2.4"/><feColorMatrix in="blurOut" result="blurOut2" type="matrix" values="0 0 0 0 0 0 0 0 0 0 0 0 0 0 0 0 0 0 .4 0"/><feOffset dx="4.8" dy="4.8" in="blurOut2" result="blurOut3"/><feBlend in="SourceGraphic" in2="blurOut3" mode="normal"/></filter></defs><g><ellipse cx="385.8" cy="24" fill="#000000" filter="url(#fj5n1u4sw7twg)" rx="12" ry="12" style="stroke:none;stroke-width:1.2;"/><rect fill="#FEFECE" filter="url(#fj5n1u4sw7twg)" height="42.1125" rx="15" ry="15" style="stroke:#A80036;stroke-width:1.7999999999999998;" width="202.8" x="284.4" y="60"/><text fill="#000000" font-family="sans-serif" font-size="14.4" lengthAdjust="spacing" textLength="178.8" x="296.4" y="86.9484">CitizenAsksForRegistration</text><rect fill="#FEFECE" filter="url(#fj5n1u4sw7twg)" height="42.1125" rx="15" ry="15" style="stroke:#A80036;stroke-width:1.7999999999999998;" width="745.2" x="13.2" y="126.1125"/><text fill="#000000" font-family="sans-serif" font-size="14.4" lengthAdjust="spacing" textLength="721.2" x="25.2" y="153.0609">Receptionist asks for Citizen card number, NHS number, birth date, sex, TIN, phone number, e-mail and name</text><rect fill="#FEFECE" filter="url(#fj5n1u4sw7twg)" height="42.1125" rx="15" ry="15" style="stroke:#A80036;stroke-width:1.7999999999999998;" width="349.2" x="211.2" y="250.9266"/><text fill="#000000" font-family="sans-serif" font-size="14.4" lengthAdjust="spacing" textLength="325.2" x="223.2" y="277.875">System shows all data and requests confirmation</text><rect fill="#FEFECE" filter="url(#fj5n1u4sw7twg)" height="42.1125" rx="15" ry="15" style="stroke:#A80036;stroke-width:1.7999999999999998;" width="246" x="262.8" y="317.0391"/><text fill="#000000" font-family="sans-serif" font-size="14.4" lengthAdjust="spacing" textLength="222" x="274.8" y="343.9875">Receptionist confirms information</text><rect fill="#FEFECE" filter="url(#fj5n1u4sw7twg)" height="42.1125" rx="15" ry="15" style="stroke:#A80036;stroke-width:1.7999999999999998;" width="268.8" x="251.4" y="441.8531"/><text fill="#000000" font-family="sans-serif" font-size="14.4" lengthAdjust="spacing" textLength="244.8" x="263.4" y="468.8016">System generates random password</text><rect fill="#FEFECE" filter="url(#fj5n1u4sw7twg)" height="60.225" rx="15" ry="15" style="stroke:#A80036;stroke-width:1.7999999999999998;" width="486" x="142.8" y="519.9094"/><text fill="#000000" font-family="sans-serif" font-size="14.4" lengthAdjust="spacing" textLength="462" x="154.8" y="546.8578">System sends e-mail to client informing the success of the registration</text><text fill="#000000" font-family="sans-serif" font-size="14.4" lengthAdjust="spacing" textLength="369.6" x="154.8" y="564.9703">combioned with the Client's password to access the site</text><polygon fill="#FEFECE" filter="url(#fj5n1u4sw7twg)" points="285,383.1516,486.6,383.1516,501,397.5516,486.6,411.9516,285,411.9516,270.6,397.5516,285,383.1516" style="stroke:#A80036;stroke-width:1.7999999999999998;"/><text fill="#000000" font-family="sans-serif" font-size="13.2" lengthAdjust="spacing" textLength="22.8" x="390.6" y="425.6543">true</text><text fill="#000000" font-family="sans-serif" font-size="13.2" lengthAdjust="spacing" textLength="201.6" x="285" y="402.9527">System Informs operation success</text><text fill="#000000" font-family="sans-serif" font-size="13.2" lengthAdjust="spacing" textLength="28.8" x="501" y="394.6512">false</text><polygon fill="#FEFECE" filter="url(#fj5n1u4sw7twg)" points="385.8,604.1344,400.2,618.5344,385.8,632.9344,371.4,618.5344,385.8,604.1344" style="stroke:#A80036;stroke-width:1.7999999999999998;"/><polygon fill="#FEFECE" filter="url(#fj5n1u4sw7twg)" points="307.8,192.225,463.8,192.225,478.2,206.625,463.8,221.025,307.8,221.025,293.4,206.625,307.8,192.225" style="stroke:#A80036;stroke-width:1.7999999999999998;"/><text fill="#000000" font-family="sans-serif" font-size="13.2" lengthAdjust="spacing" textLength="22.8" x="390.6" y="234.7277">true</text><text fill="#000000" font-family="sans-serif" font-size="13.2" lengthAdjust="spacing" textLength="156" x="307.8" y="212.0262">The information is received</text><text fill="#000000" font-family="sans-serif" font-size="13.2" lengthAdjust="spacing" textLength="28.8" x="478.2" y="203.7246">false</text><polygon fill="#FEFECE" filter="url(#fj5n1u4sw7twg)" points="385.8,656.9344,400.2,671.3344,385.8,685.7344,371.4,671.3344,385.8,656.9344" style="stroke:#A80036;stroke-width:1.7999999999999998;"/><ellipse cx="385.8" cy="722.9344" fill="#FFFFFF" filter="url(#fj5n1u4sw7twg)" rx="13.2" ry="13.2" style="stroke:#000000;stroke-width:1.2;"/><ellipse cx="385.8" cy="722.9344" fill="#000000" rx="7.2" ry="7.2" style="stroke:#7F7F7F;stroke-width:1.2;"/><line style="stroke:#A80036;stroke-width:1.7999999999999998;" x1="385.8" x2="385.8" y1="36" y2="60"/><polygon fill="#A80036" points="381,48,385.8,60,390.6,48,385.8,52.8" style="stroke:#A80036;stroke-width:1.2;"/><line style="stroke:#A80036;stroke-width:1.7999999999999998;" x1="385.8" x2="385.8" y1="102.1125" y2="126.1125"/><polygon fill="#A80036" points="381,114.1125,385.8,126.1125,390.6,114.1125,385.8,118.9125" style="stroke:#A80036;stroke-width:1.2;"/><line style="stroke:#A80036;stroke-width:1.7999999999999998;" x1="385.8" x2="385.8" y1="293.0391" y2="317.0391"/><polygon fill="#A80036" points="381,305.0391,385.8,317.0391,390.6,305.0391,385.8,309.8391" style="stroke:#A80036;stroke-width:1.2;"/><line style="stroke:#A80036;stroke-width:1.7999999999999998;" x1="385.8" x2="385.8" y1="483.9656" y2="519.9094"/><polygon fill="#A80036" points="381,507.9094,385.8,519.9094,390.6,507.9094,385.8,512.7094" style="stroke:#A80036;stroke-width:1.2;"/><line style="stroke:#A80036;stroke-width:1.7999999999999998;" x1="385.8" x2="385.8" y1="411.9516" y2="441.8531"/><polygon fill="#A80036" points="381,429.8531,385.8,441.8531,390.6,429.8531,385.8,434.6531" style="stroke:#A80036;stroke-width:1.2;"/><line style="stroke:#A80036;stroke-width:1.7999999999999998;" x1="501" x2="640.8" y1="397.5516" y2="397.5516"/><polygon fill="#A80036" points="636,495.9656,640.8,507.9656,645.6,495.9656,640.8,500.7656" style="stroke:#A80036;stroke-width:1.7999999999999998;"/><line style="stroke:#A80036;stroke-width:1.7999999999999998;" x1="640.8" x2="640.8" y1="397.5516" y2="618.5344"/><line style="stroke:#A80036;stroke-width:1.7999999999999998;" x1="640.8" x2="400.2" y1="618.5344" y2="618.5344"/><polygon fill="#A80036" points="412.2,613.7344,400.2,618.5344,412.2,623.3344,407.4,618.5344" style="stroke:#A80036;stroke-width:1.2;"/><line style="stroke:#A80036;stroke-width:1.7999999999999998;" x1="385.8" x2="385.8" y1="580.1344" y2="604.1344"/><polygon fill="#A80036" points="381,592.1344,385.8,604.1344,390.6,592.1344,385.8,596.9344" style="stroke:#A80036;stroke-width:1.2;"/><line style="stroke:#A80036;stroke-width:1.7999999999999998;" x1="385.8" x2="385.8" y1="359.1516" y2="383.1516"/><polygon fill="#A80036" points="381,371.1516,385.8,383.1516,390.6,371.1516,385.8,375.9516" style="stroke:#A80036;stroke-width:1.2;"/><line style="stroke:#A80036;stroke-width:1.7999999999999998;" x1="385.8" x2="385.8" y1="221.025" y2="250.9266"/><polygon fill="#A80036" points="381,238.9266,385.8,250.9266,390.6,238.9266,385.8,243.7266" style="stroke:#A80036;stroke-width:1.2;"/><line style="stroke:#A80036;stroke-width:1.7999999999999998;" x1="478.2" x2="667.2" y1="206.625" y2="206.625"/><polygon fill="#A80036" points="662.4,417.9094,667.2,429.9094,672,417.9094,667.2,422.7094" style="stroke:#A80036;stroke-width:1.7999999999999998;"/><line style="stroke:#A80036;stroke-width:1.7999999999999998;" x1="667.2" x2="667.2" y1="206.625" y2="671.3344"/><line style="stroke:#A80036;stroke-width:1.7999999999999998;" x1="667.2" x2="400.2" y1="671.3344" y2="671.3344"/><polygon fill="#A80036" points="412.2,666.5344,400.2,671.3344,412.2,676.1344,407.4,671.3344" style="stroke:#A80036;stroke-width:1.2;"/><line style="stroke:#A80036;stroke-width:1.7999999999999998;" x1="385.8" x2="385.8" y1="632.9344" y2="656.9344"/><polygon fill="#A80036" points="381,644.9344,385.8,656.9344,390.6,644.9344,385.8,649.7344" style="stroke:#A80036;stroke-width:1.2;"/><line style="stroke:#A80036;stroke-width:1.7999999999999998;" x1="385.8" x2="385.8" y1="168.225" y2="192.225"/><polygon fill="#A80036" points="381,180.225,385.8,192.225,390.6,180.225,385.8,185.025" style="stroke:#A80036;stroke-width:1.2;"/><line style="stroke:#A80036;stroke-width:1.7999999999999998;" x1="385.8" x2="385.8" y1="685.7344" y2="709.7344"/><polygon fill="#A80036" points="381,697.7344,385.8,709.7344,390.6,697.7344,385.8,702.5344" style="stroke:#A80036;stroke-width:1.2;"/><!--MD5=[cf47750ddb415f4f0c24d98ab1b54f54]
@startuml
'https://plantuml.com/activity-diagram-beta
start
:CitizenAsksForRegistration;
:Receptionist asks for Citizen card number, NHS number, birth date, sex, TIN, phone number, e-mail and name;
if (The information is received) then (true)
    :System shows all data and requests confirmation;
    :Receptionist confirms information;

    if (System Informs operation success) then (true)
    :System generates random password;
    :System sends e-mail to client informing the success of the registration
    combioned with the Client's password to access the site;
    else (false);
    endif
else (false);
endif
stop
@enduml

@startuml
start
:CitizenAsksForRegistration;
:Receptionist asks for Citizen card number, NHS number, birth date, sex, TIN, phone number, e-mail and name;
if (The information is received) then (true)
    :System shows all data and requests confirmation;
    :Receptionist confirms information;

    if (System Informs operation success) then (true)
    :System generates random password;
    :System sends e-mail to client informing the success of the registration
    combioned with the Client's password to access the site;
    else (false);
    endif
else (false);
endif
stop
@enduml

PlantUML version 1.2021.00(Sun Jan 10 10:25:05 GMT 2021)
(GPL source distribution)
Java Runtime: OpenJDK Runtime Environment
JVM: OpenJDK 64-Bit Server VM
Default Encoding: Cp1252
Language: pt
Country: PT
--></g></svg>