<?xml version="1.0" encoding="UTF-8" standalone="no"?><svg xmlns="http://www.w3.org/2000/svg" xmlns:xlink="http://www.w3.org/1999/xlink" contentScriptType="application/ecmascript" contentStyleType="text/css" height="648px" preserveAspectRatio="none" style="width:943px;height:648px;" version="1.1" viewBox="0 0 943 648" width="943px" zoomAndPan="magnify"><defs><filter height="300%" id="f1gl1k02r8cqds" width="300%" x="-1" y="-1"><feGaussianBlur result="blurOut" stdDeviation="2.0"/><feColorMatrix in="blurOut" result="blurOut2" type="matrix" values="0 0 0 0 0 0 0 0 0 0 0 0 0 0 0 0 0 0 .4 0"/><feOffset dx="4.0" dy="4.0" in="blurOut2" result="blurOut3"/><feBlend in="SourceGraphic" in2="blurOut3" mode="normal"/></filter></defs><g><!--MD5=[e45a4727c47b726c25e081782e8bc183]
class ApplicationPOT--><rect codeLine="3" fill="#FEFECE" filter="url(#f1gl1k02r8cqds)" height="75.6719" id="ApplicationPOT" style="stroke:#A80036;stroke-width:1.5;" width="116" x="7" y="287.5"/><ellipse cx="22" cy="303.5" fill="#ADD1B2" rx="11" ry="11" style="stroke:#A80036;stroke-width:1.0;"/><path d="M24,300 Q24.2031,299.5 24.4375,299.25 Q24.6719,299 24.9375,299 Q25.4063,299 25.7031,299.2813 Q26,299.5625 26,300.2188 L26,301.7813 Q26,302.4375 25.7188,302.7188 Q25.4375,303 25,303 Q24.6094,303 24.3594,302.8281 Q24.1094,302.6563 24,302.2031 Q23.9531,301.8906 23.7813,301.7188 Q23.4688,301.3906 22.9063,301.2031 Q22.3438,301 21.7813,301 Q21.0781,301 20.4844,301.2813 Q19.9063,301.5625 19.4531,302.1875 Q19,302.8125 19,303.6719 L19,304.5938 Q19,305.625 19.8438,306.3125 Q20.6875,307 22.1875,307 Q23.0781,307 23.7031,306.7969 Q24.0625,306.6875 24.4688,306.3281 Q24.7344,306.125 24.875,306.0625 Q25.0156,306 25.1875,306 Q25.5156,306 25.75,306.2656 Q26,306.5156 26,306.875 Q26,307.2188 25.6563,307.625 Q25.1563,308.2188 24.3594,308.5469 Q23.3125,309 22.0313,309 Q20.5313,309 19.3281,308.4063 Q18.3594,307.9375 17.6719,306.9219 Q17,305.9063 17,304.7031 L17,303.6094 Q17,302.3594 17.5938,301.2656 Q18.2031,300.1719 19.25,299.5938 Q20.3125,299 21.5,299 Q22.2188,299 22.8438,299.25 Q23.4688,299.5 24,300 Z " fill="#000000"/><text fill="#000000" font-family="sans-serif" font-size="12" lengthAdjust="spacing" textLength="84" x="36" y="308.4102">ApplicationPOT</text><line style="stroke:#A80036;stroke-width:1.5;" x1="8" x2="122" y1="319.5" y2="319.5"/><line style="stroke:#A80036;stroke-width:1.5;" x1="8" x2="122" y1="327.5" y2="327.5"/><text fill="#000000" font-family="sans-serif" font-size="11" lengthAdjust="spacing" textLength="99" x="13" y="342.9189">+static getInstance()</text><text fill="#000000" font-family="sans-serif" font-size="11" lengthAdjust="spacing" textLength="104" x="13" y="356.7549">+getCurrentSession()</text><!--MD5=[c5b08e60048ef1bcd788d24cf324082e]
class UserSession--><rect codeLine="9" fill="#FEFECE" filter="url(#f1gl1k02r8cqds)" height="61.8359" id="UserSession" style="stroke:#A80036;stroke-width:1.5;" width="105" x="158.5" y="294.5"/><ellipse cx="173.5" cy="310.5" fill="#ADD1B2" rx="11" ry="11" style="stroke:#A80036;stroke-width:1.0;"/><path d="M175.5,307 Q175.7031,306.5 175.9375,306.25 Q176.1719,306 176.4375,306 Q176.9063,306 177.2031,306.2813 Q177.5,306.5625 177.5,307.2188 L177.5,308.7813 Q177.5,309.4375 177.2188,309.7188 Q176.9375,310 176.5,310 Q176.1094,310 175.8594,309.8281 Q175.6094,309.6563 175.5,309.2031 Q175.4531,308.8906 175.2813,308.7188 Q174.9688,308.3906 174.4063,308.2031 Q173.8438,308 173.2813,308 Q172.5781,308 171.9844,308.2813 Q171.4063,308.5625 170.9531,309.1875 Q170.5,309.8125 170.5,310.6719 L170.5,311.5938 Q170.5,312.625 171.3438,313.3125 Q172.1875,314 173.6875,314 Q174.5781,314 175.2031,313.7969 Q175.5625,313.6875 175.9688,313.3281 Q176.2344,313.125 176.375,313.0625 Q176.5156,313 176.6875,313 Q177.0156,313 177.25,313.2656 Q177.5,313.5156 177.5,313.875 Q177.5,314.2188 177.1563,314.625 Q176.6563,315.2188 175.8594,315.5469 Q174.8125,316 173.5313,316 Q172.0313,316 170.8281,315.4063 Q169.8594,314.9375 169.1719,313.9219 Q168.5,312.9063 168.5,311.7031 L168.5,310.6094 Q168.5,309.3594 169.0938,308.2656 Q169.7031,307.1719 170.75,306.5938 Q171.8125,306 173,306 Q173.7188,306 174.3438,306.25 Q174.9688,306.5 175.5,307 Z " fill="#000000"/><text fill="#000000" font-family="sans-serif" font-size="12" lengthAdjust="spacing" textLength="73" x="187.5" y="315.4102">UserSession</text><line style="stroke:#A80036;stroke-width:1.5;" x1="159.5" x2="262.5" y1="326.5" y2="326.5"/><line style="stroke:#A80036;stroke-width:1.5;" x1="159.5" x2="262.5" y1="334.5" y2="334.5"/><text fill="#000000" font-family="sans-serif" font-size="11" lengthAdjust="spacing" textLength="76" x="164.5" y="349.9189">+getUserEmail()</text><!--MD5=[e423b5bdce70c6eb941fb2176a750d2f]
class EMP--><rect codeLine="14" fill="#FEFECE" filter="url(#f1gl1k02r8cqds)" height="158.6875" id="EMP" style="stroke:#A80036;stroke-width:1.5;" width="366" x="163" y="476"/><ellipse cx="329.25" cy="492" fill="#ADD1B2" rx="11" ry="11" style="stroke:#A80036;stroke-width:1.0;"/><path d="M331.25,488.5 Q331.4531,488 331.6875,487.75 Q331.9219,487.5 332.1875,487.5 Q332.6563,487.5 332.9531,487.7813 Q333.25,488.0625 333.25,488.7188 L333.25,490.2813 Q333.25,490.9375 332.9688,491.2188 Q332.6875,491.5 332.25,491.5 Q331.8594,491.5 331.6094,491.3281 Q331.3594,491.1563 331.25,490.7031 Q331.2031,490.3906 331.0313,490.2188 Q330.7188,489.8906 330.1563,489.7031 Q329.5938,489.5 329.0313,489.5 Q328.3281,489.5 327.7344,489.7813 Q327.1563,490.0625 326.7031,490.6875 Q326.25,491.3125 326.25,492.1719 L326.25,493.0938 Q326.25,494.125 327.0938,494.8125 Q327.9375,495.5 329.4375,495.5 Q330.3281,495.5 330.9531,495.2969 Q331.3125,495.1875 331.7188,494.8281 Q331.9844,494.625 332.125,494.5625 Q332.2656,494.5 332.4375,494.5 Q332.7656,494.5 333,494.7656 Q333.25,495.0156 333.25,495.375 Q333.25,495.7188 332.9063,496.125 Q332.4063,496.7188 331.6094,497.0469 Q330.5625,497.5 329.2813,497.5 Q327.7813,497.5 326.5781,496.9063 Q325.6094,496.4375 324.9219,495.4219 Q324.25,494.4063 324.25,493.2031 L324.25,492.1094 Q324.25,490.8594 324.8438,489.7656 Q325.4531,488.6719 326.5,488.0938 Q327.5625,487.5 328.75,487.5 Q329.4688,487.5 330.0938,487.75 Q330.7188,488 331.25,488.5 Z " fill="#000000"/><text fill="#000000" font-family="sans-serif" font-size="12" lengthAdjust="spacing" textLength="25" x="349.75" y="496.9102">EMP</text><line style="stroke:#A80036;stroke-width:1.5;" x1="164" x2="528" y1="508" y2="508"/><text fill="#000000" font-family="sans-serif" font-size="11" lengthAdjust="spacing" textLength="64" x="169" y="523.4189">-String empID</text><text fill="#000000" font-family="sans-serif" font-size="11" lengthAdjust="spacing" textLength="115" x="169" y="537.2549">-String organizationRole</text><text fill="#000000" font-family="sans-serif" font-size="11" lengthAdjust="spacing" textLength="61" x="169" y="551.0908">-String name</text><text fill="#000000" font-family="sans-serif" font-size="11" lengthAdjust="spacing" textLength="75" x="169" y="564.9268">-String address</text><text fill="#000000" font-family="sans-serif" font-size="11" lengthAdjust="spacing" textLength="59" x="169" y="578.7627">-String email</text><text fill="#000000" font-family="sans-serif" font-size="11" lengthAdjust="spacing" textLength="107" x="169" y="592.5986">-Integer phoneNumber</text><text fill="#000000" font-family="sans-serif" font-size="11" lengthAdjust="spacing" textLength="58" x="169" y="606.4346">-Integer soc</text><line style="stroke:#A80036;stroke-width:1.5;" x1="164" x2="528" y1="612.8516" y2="612.8516"/><text fill="#000000" font-family="sans-serif" font-size="11" lengthAdjust="spacing" textLength="354" x="169" y="628.2705">+EMP(empID, organizationRole, name, address, email, phoneNumber, soc)</text><!--MD5=[02e4b9b7573f1156f41e60aa5b4e25a4]
class Company--><rect codeLine="26" fill="#FEFECE" filter="url(#f1gl1k02r8cqds)" height="131.0156" id="Company" style="stroke:#A80036;stroke-width:1.5;" width="397" x="370.5" y="260"/><ellipse cx="538.25" cy="276" fill="#ADD1B2" rx="11" ry="11" style="stroke:#A80036;stroke-width:1.0;"/><path d="M540.25,272.5 Q540.4531,272 540.6875,271.75 Q540.9219,271.5 541.1875,271.5 Q541.6563,271.5 541.9531,271.7813 Q542.25,272.0625 542.25,272.7188 L542.25,274.2813 Q542.25,274.9375 541.9688,275.2188 Q541.6875,275.5 541.25,275.5 Q540.8594,275.5 540.6094,275.3281 Q540.3594,275.1563 540.25,274.7031 Q540.2031,274.3906 540.0313,274.2188 Q539.7188,273.8906 539.1563,273.7031 Q538.5938,273.5 538.0313,273.5 Q537.3281,273.5 536.7344,273.7813 Q536.1563,274.0625 535.7031,274.6875 Q535.25,275.3125 535.25,276.1719 L535.25,277.0938 Q535.25,278.125 536.0938,278.8125 Q536.9375,279.5 538.4375,279.5 Q539.3281,279.5 539.9531,279.2969 Q540.3125,279.1875 540.7188,278.8281 Q540.9844,278.625 541.125,278.5625 Q541.2656,278.5 541.4375,278.5 Q541.7656,278.5 542,278.7656 Q542.25,279.0156 542.25,279.375 Q542.25,279.7188 541.9063,280.125 Q541.4063,280.7188 540.6094,281.0469 Q539.5625,281.5 538.2813,281.5 Q536.7813,281.5 535.5781,280.9063 Q534.6094,280.4375 533.9219,279.4219 Q533.25,278.4063 533.25,277.2031 L533.25,276.1094 Q533.25,274.8594 533.8438,273.7656 Q534.4531,272.6719 535.5,272.0938 Q536.5625,271.5 537.75,271.5 Q538.4688,271.5 539.0938,271.75 Q539.7188,272 540.25,272.5 Z " fill="#000000"/><text fill="#000000" font-family="sans-serif" font-size="12" lengthAdjust="spacing" textLength="53" x="558.75" y="280.9102">Company</text><line style="stroke:#A80036;stroke-width:1.5;" x1="371.5" x2="766.5" y1="292" y2="292"/><text fill="#000000" font-family="sans-serif" font-size="11" lengthAdjust="spacing" textLength="90" x="376.5" y="307.4189">-String designation</text><line style="stroke:#A80036;stroke-width:1.5;" x1="371.5" x2="766.5" y1="313.8359" y2="313.8359"/><text fill="#000000" font-family="sans-serif" font-size="11" lengthAdjust="spacing" textLength="114" x="376.5" y="329.2549">+Company(designation)</text><text fill="#000000" font-family="sans-serif" font-size="11" lengthAdjust="spacing" textLength="385" x="376.5" y="343.0908">+createEMP(empID, organizationRole, name, address, email, phoneNumber, soc)</text><text fill="#000000" font-family="sans-serif" font-size="11" lengthAdjust="spacing" textLength="78" x="376.5" y="356.9268">+saveEMP(EMP)</text><text fill="#000000" font-family="sans-serif" font-size="11" lengthAdjust="spacing" textLength="70" x="376.5" y="370.7627">-addEMP(EMP)</text><text fill="#000000" font-family="sans-serif" font-size="11" lengthAdjust="spacing" textLength="89" x="376.5" y="384.5986">-validateEMP(EMP)</text><!--MD5=[da547346deef918ea16944ba046651ef]
class Administrator--><rect codeLine="35" fill="#FEFECE" filter="url(#f1gl1k02r8cqds)" height="144.8516" id="Administrator" style="stroke:#A80036;stroke-width:1.5;" width="127" x="802.5" y="253"/><ellipse cx="827.4" cy="269" fill="#ADD1B2" rx="11" ry="11" style="stroke:#A80036;stroke-width:1.0;"/><path d="M829.4,265.5 Q829.6031,265 829.8375,264.75 Q830.0719,264.5 830.3375,264.5 Q830.8063,264.5 831.1031,264.7813 Q831.4,265.0625 831.4,265.7188 L831.4,267.2813 Q831.4,267.9375 831.1188,268.2188 Q830.8375,268.5 830.4,268.5 Q830.0094,268.5 829.7594,268.3281 Q829.5094,268.1563 829.4,267.7031 Q829.3531,267.3906 829.1813,267.2188 Q828.8688,266.8906 828.3063,266.7031 Q827.7438,266.5 827.1813,266.5 Q826.4781,266.5 825.8844,266.7813 Q825.3063,267.0625 824.8531,267.6875 Q824.4,268.3125 824.4,269.1719 L824.4,270.0938 Q824.4,271.125 825.2438,271.8125 Q826.0875,272.5 827.5875,272.5 Q828.4781,272.5 829.1031,272.2969 Q829.4625,272.1875 829.8688,271.8281 Q830.1344,271.625 830.275,271.5625 Q830.4156,271.5 830.5875,271.5 Q830.9156,271.5 831.15,271.7656 Q831.4,272.0156 831.4,272.375 Q831.4,272.7188 831.0563,273.125 Q830.5563,273.7188 829.7594,274.0469 Q828.7125,274.5 827.4313,274.5 Q825.9313,274.5 824.7281,273.9063 Q823.7594,273.4375 823.0719,272.4219 Q822.4,271.4063 822.4,270.2031 L822.4,269.1094 Q822.4,267.8594 822.9938,266.7656 Q823.6031,265.6719 824.65,265.0938 Q825.7125,264.5 826.9,264.5 Q827.6188,264.5 828.2438,264.75 Q828.8688,265 829.4,265.5 Z " fill="#000000"/><text fill="#000000" font-family="sans-serif" font-size="12" lengthAdjust="spacing" textLength="73" x="843.6" y="273.9102">Administrator</text><line style="stroke:#A80036;stroke-width:1.5;" x1="803.5" x2="928.5" y1="285" y2="285"/><text fill="#000000" font-family="sans-serif" font-size="11" lengthAdjust="spacing" textLength="64" x="808.5" y="300.4189">-String empID</text><text fill="#000000" font-family="sans-serif" font-size="11" lengthAdjust="spacing" textLength="115" x="808.5" y="314.2549">-String organizationRole</text><text fill="#000000" font-family="sans-serif" font-size="11" lengthAdjust="spacing" textLength="61" x="808.5" y="328.0908">-String name</text><text fill="#000000" font-family="sans-serif" font-size="11" lengthAdjust="spacing" textLength="75" x="808.5" y="341.9268">-String address</text><text fill="#000000" font-family="sans-serif" font-size="11" lengthAdjust="spacing" textLength="59" x="808.5" y="355.7627">-String email</text><text fill="#000000" font-family="sans-serif" font-size="11" lengthAdjust="spacing" textLength="107" x="808.5" y="369.5986">-Integer phoneNumber</text><text fill="#000000" font-family="sans-serif" font-size="11" lengthAdjust="spacing" textLength="58" x="808.5" y="383.4346">-Integer soc</text><line style="stroke:#A80036;stroke-width:1.5;" x1="803.5" x2="928.5" y1="389.8516" y2="389.8516"/><!--MD5=[134803615339199ae8d868850728d6ea]
class CreateEMPController--><rect codeLine="45" fill="#FEFECE" filter="url(#f1gl1k02r8cqds)" height="75.6719" id="CreateEMPController" style="stroke:#A80036;stroke-width:1.5;" width="397" x="118.5" y="116"/><ellipse cx="254.75" cy="132" fill="#ADD1B2" rx="11" ry="11" style="stroke:#A80036;stroke-width:1.0;"/><path d="M256.75,128.5 Q256.9531,128 257.1875,127.75 Q257.4219,127.5 257.6875,127.5 Q258.1563,127.5 258.4531,127.7813 Q258.75,128.0625 258.75,128.7188 L258.75,130.2813 Q258.75,130.9375 258.4688,131.2188 Q258.1875,131.5 257.75,131.5 Q257.3594,131.5 257.1094,131.3281 Q256.8594,131.1563 256.75,130.7031 Q256.7031,130.3906 256.5313,130.2188 Q256.2188,129.8906 255.6563,129.7031 Q255.0938,129.5 254.5313,129.5 Q253.8281,129.5 253.2344,129.7813 Q252.6563,130.0625 252.2031,130.6875 Q251.75,131.3125 251.75,132.1719 L251.75,133.0938 Q251.75,134.125 252.5938,134.8125 Q253.4375,135.5 254.9375,135.5 Q255.8281,135.5 256.4531,135.2969 Q256.8125,135.1875 257.2188,134.8281 Q257.4844,134.625 257.625,134.5625 Q257.7656,134.5 257.9375,134.5 Q258.2656,134.5 258.5,134.7656 Q258.75,135.0156 258.75,135.375 Q258.75,135.7188 258.4063,136.125 Q257.9063,136.7188 257.1094,137.0469 Q256.0625,137.5 254.7813,137.5 Q253.2813,137.5 252.0781,136.9063 Q251.1094,136.4375 250.4219,135.4219 Q249.75,134.4063 249.75,133.2031 L249.75,132.1094 Q249.75,130.8594 250.3438,129.7656 Q250.9531,128.6719 252,128.0938 Q253.0625,127.5 254.25,127.5 Q254.9688,127.5 255.5938,127.75 Q256.2188,128 256.75,128.5 Z " fill="#000000"/><text fill="#000000" font-family="sans-serif" font-size="12" lengthAdjust="spacing" textLength="116" x="275.25" y="136.9102">CreateEMPController</text><line style="stroke:#A80036;stroke-width:1.5;" x1="119.5" x2="514.5" y1="148" y2="148"/><line style="stroke:#A80036;stroke-width:1.5;" x1="119.5" x2="514.5" y1="156" y2="156"/><text fill="#000000" font-family="sans-serif" font-size="11" lengthAdjust="spacing" textLength="385" x="124.5" y="171.4189">+createEMP(empID, organizationRole, name, address, email, phoneNumber, soc)</text><text fill="#000000" font-family="sans-serif" font-size="11" lengthAdjust="spacing" textLength="58" x="124.5" y="185.2549">+saveEMP()</text><!--MD5=[01dad400aa9b2c24487f24ac2d78c837]
class CreateEMPUI--><rect codeLine="50" fill="#FEFECE" filter="url(#f1gl1k02r8cqds)" height="48" id="CreateEMPUI" style="stroke:#A80036;stroke-width:1.5;" width="106" x="264" y="7"/><ellipse cx="279" cy="23" fill="#ADD1B2" rx="11" ry="11" style="stroke:#A80036;stroke-width:1.0;"/><path d="M281,19.5 Q281.2031,19 281.4375,18.75 Q281.6719,18.5 281.9375,18.5 Q282.4063,18.5 282.7031,18.7813 Q283,19.0625 283,19.7188 L283,21.2813 Q283,21.9375 282.7188,22.2188 Q282.4375,22.5 282,22.5 Q281.6094,22.5 281.3594,22.3281 Q281.1094,22.1563 281,21.7031 Q280.9531,21.3906 280.7813,21.2188 Q280.4688,20.8906 279.9063,20.7031 Q279.3438,20.5 278.7813,20.5 Q278.0781,20.5 277.4844,20.7813 Q276.9063,21.0625 276.4531,21.6875 Q276,22.3125 276,23.1719 L276,24.0938 Q276,25.125 276.8438,25.8125 Q277.6875,26.5 279.1875,26.5 Q280.0781,26.5 280.7031,26.2969 Q281.0625,26.1875 281.4688,25.8281 Q281.7344,25.625 281.875,25.5625 Q282.0156,25.5 282.1875,25.5 Q282.5156,25.5 282.75,25.7656 Q283,26.0156 283,26.375 Q283,26.7188 282.6563,27.125 Q282.1563,27.7188 281.3594,28.0469 Q280.3125,28.5 279.0313,28.5 Q277.5313,28.5 276.3281,27.9063 Q275.3594,27.4375 274.6719,26.4219 Q274,25.4063 274,24.2031 L274,23.1094 Q274,21.8594 274.5938,20.7656 Q275.2031,19.6719 276.25,19.0938 Q277.3125,18.5 278.5,18.5 Q279.2188,18.5 279.8438,18.75 Q280.4688,19 281,19.5 Z " fill="#000000"/><text fill="#000000" font-family="sans-serif" font-size="12" lengthAdjust="spacing" textLength="74" x="293" y="27.9102">CreateEMPUI</text><line style="stroke:#A80036;stroke-width:1.5;" x1="265" x2="369" y1="39" y2="39"/><line style="stroke:#A80036;stroke-width:1.5;" x1="265" x2="369" y1="47" y2="47"/><!--MD5=[08c9be45fe50d7d023a509d5f0f73bd3]
link CreateEMPUI to CreateEMPController--><path codeLine="54" d="M317,55.04 C317,70.71 317,91.91 317,110.58 " fill="none" id="CreateEMPUI-to-CreateEMPController" style="stroke:#A80036;stroke-width:1.0;stroke-dasharray:7.0,7.0;"/><polygon fill="#A80036" points="317,115.77,321,106.77,317,110.77,313,106.77,317,115.77" style="stroke:#A80036;stroke-width:1.0;"/><!--MD5=[ac7d3382f80d2b56eaaf4ae6984ade65]
link CreateEMPController to Administrator--><path codeLine="55" d="M515.76,173.58 C601.92,187.36 701.89,211.32 785,253 C789.4,255.21 793.75,257.71 798.02,260.43 " fill="none" id="CreateEMPController-to-Administrator" style="stroke:#A80036;stroke-width:1.0;stroke-dasharray:7.0,7.0;"/><polygon fill="#A80036" points="802.25,263.22,796.9474,254.9204,798.0788,260.463,792.5362,261.5944,802.25,263.22" style="stroke:#A80036;stroke-width:1.0;"/><!--MD5=[22c5070f95e67fafcaf3e828d8b2f7bc]
link CreateEMPController to EMP--><path codeLine="56" d="M319.7,192.23 C324.29,255.37 333.69,384.98 339.92,470.81 " fill="none" id="CreateEMPController-to-EMP" style="stroke:#A80036;stroke-width:1.0;stroke-dasharray:7.0,7.0;"/><polygon fill="#A80036" points="340.29,475.89,343.6103,466.6177,339.9185,470.9038,335.6324,467.212,340.29,475.89" style="stroke:#A80036;stroke-width:1.0;"/><!--MD5=[81e95a48499b49a13577dfb5091d2385]
link CreateEMPController to Company--><path codeLine="57" d="M372.3,192.2 C400.52,211.18 435.73,234.86 468.53,256.92 " fill="none" id="CreateEMPController-to-Company" style="stroke:#A80036;stroke-width:1.0;stroke-dasharray:7.0,7.0;"/><polygon fill="#A80036" points="472.93,259.88,467.6801,251.547,468.7763,257.0966,463.2267,258.1928,472.93,259.88" style="stroke:#A80036;stroke-width:1.0;"/><!--MD5=[a8af5b18c3df18f86e4dd974b1a840a4]
link CreateEMPController to ApplicationPOT--><path codeLine="58" d="M240.86,192.11 C208.91,209 172.05,230.29 141,253 C128.52,262.13 115.91,273.12 104.65,283.71 " fill="none" id="CreateEMPController-to-ApplicationPOT" style="stroke:#A80036;stroke-width:1.0;stroke-dasharray:7.0,7.0;"/><polygon fill="#A80036" points="100.89,287.29,110.172,283.997,104.5171,283.8485,104.6656,278.1936,100.89,287.29" style="stroke:#A80036;stroke-width:1.0;"/><!--MD5=[393c79dae1579f7bfd683c9b77bc6737]
link CreateEMPController to UserSession--><path codeLine="59" d="M293.74,192.2 C275.52,221.34 250.36,261.56 232.58,289.99 " fill="none" id="CreateEMPController-to-UserSession" style="stroke:#A80036;stroke-width:1.0;stroke-dasharray:7.0,7.0;"/><polygon fill="#A80036" points="229.79,294.45,237.9436,288.9257,232.4336,290.206,231.1532,284.6959,229.79,294.45" style="stroke:#A80036;stroke-width:1.0;"/><!--MD5=[2f8528cc66064ffd3842f2eb9a4489f2]
link Company to EMP--><path codeLine="62" d="M505.69,391.23 C481.05,416.43 452.51,445.6 426.44,472.26 " fill="none" id="Company-to-EMP" style="stroke:#A80036;stroke-width:1.0;"/><polygon fill="#A80036" points="422.94,475.84,432.0815,472.1748,426.4252,472.2548,426.3452,466.5985,422.94,475.84" style="stroke:#A80036;stroke-width:1.0;"/><text fill="#000000" font-family="sans-serif" font-size="13" lengthAdjust="spacing" textLength="30" x="466" y="442.4951">owns</text><text fill="#000000" font-family="sans-serif" font-size="13" lengthAdjust="spacing" textLength="7" x="491.8002" y="412.3458">1</text><text fill="#000000" font-family="sans-serif" font-size="13" lengthAdjust="spacing" textLength="5" x="425.0351" y="465.0117">*</text><!--MD5=[eb8393a94502f294a70c9113918e1a85]
@startuml
skinparam classAttributeIconSize 0

class ApplicationPOT
{
  +static getInstance()
  +getCurrentSession()
}

class UserSession
{
  +getUserEmail()
}

class EMP {
  -String empID
  -String organizationRole
  -String name
  -String address
  -String email
  -Integer phoneNumber
  -Integer soc
  +EMP(empID, organizationRole, name, address, email, phoneNumber, soc)
}


class Company {
  -String designation
  +Company(designation)
  +createEMP(empID, organizationRole, name, address, email, phoneNumber, soc)
  +saveEMP(EMP)
  -addEMP(EMP)
  -validateEMP(EMP)
}

class Administrator {
  -String empID
  -String organizationRole
  -String name
  -String address
  -String email
  -Integer phoneNumber
  -Integer soc
}

class CreateEMPController {
  +createEMP(empID, organizationRole, name, address, email, phoneNumber, soc)
  +saveEMP()
}

class CreateEMPUI {

}

CreateEMPUI ..> CreateEMPController
CreateEMPController ..> Administrator
CreateEMPController ..> EMP
CreateEMPController ..> Company
CreateEMPController ..> ApplicationPOT
CreateEMPController ..> UserSession


Company "1" - -> "*" EMP : owns

@enduml

PlantUML version 1.2021.5(Sun Apr 25 12:20:28 BST 2021)
(GPL source distribution)
Java Runtime: OpenJDK Runtime Environment
JVM: Dynamic Code Evolution 64-Bit Server VM
Default Encoding: Cp1252
Language: en
Country: GB
--></g></svg>