<?xml version="1.0" encoding="UTF-8" standalone="no"?><svg xmlns="http://www.w3.org/2000/svg" xmlns:xlink="http://www.w3.org/1999/xlink" contentScriptType="application/ecmascript" contentStyleType="text/css" height="289px" preserveAspectRatio="none" style="width:267px;height:289px;" version="1.1" viewBox="0 0 267 289" width="267px" zoomAndPan="magnify"><defs><filter height="300%" id="f13ckljjwwq3j9" width="300%" x="-1" y="-1"><feGaussianBlur result="blurOut" stdDeviation="2.0"/><feColorMatrix in="blurOut" result="blurOut2" type="matrix" values="0 0 0 0 0 0 0 0 0 0 0 0 0 0 0 0 0 0 .4 0"/><feOffset dx="4.0" dy="4.0" in="blurOut2" result="blurOut3"/><feBlend in="SourceGraphic" in2="blurOut3" mode="normal"/></filter></defs><g><!--MD5=[052425de1c0eb6cc1c1b48342b0bb88f]
class LaboratoryCoordinator--><rect codeLine="7" fill="#FEFECE" filter="url(#f13ckljjwwq3j9)" height="136.8516" id="LaboratoryCoordinator" style="stroke:#A80036;stroke-width:1.5;" width="155" x="7" y="139"/><ellipse cx="22" cy="155" fill="#ADD1B2" rx="11" ry="11" style="stroke:#A80036;stroke-width:1.0;"/><path d="M24,151.5 Q24.2031,151 24.4375,150.75 Q24.6719,150.5 24.9375,150.5 Q25.4063,150.5 25.7031,150.7813 Q26,151.0625 26,151.7188 L26,153.2813 Q26,153.9375 25.7188,154.2188 Q25.4375,154.5 25,154.5 Q24.6094,154.5 24.3594,154.3281 Q24.1094,154.1563 24,153.7031 Q23.9531,153.3906 23.7813,153.2188 Q23.4688,152.8906 22.9063,152.7031 Q22.3438,152.5 21.7813,152.5 Q21.0781,152.5 20.4844,152.7813 Q19.9063,153.0625 19.4531,153.6875 Q19,154.3125 19,155.1719 L19,156.0938 Q19,157.125 19.8438,157.8125 Q20.6875,158.5 22.1875,158.5 Q23.0781,158.5 23.7031,158.2969 Q24.0625,158.1875 24.4688,157.8281 Q24.7344,157.625 24.875,157.5625 Q25.0156,157.5 25.1875,157.5 Q25.5156,157.5 25.75,157.7656 Q26,158.0156 26,158.375 Q26,158.7188 25.6563,159.125 Q25.1563,159.7188 24.3594,160.0469 Q23.3125,160.5 22.0313,160.5 Q20.5313,160.5 19.3281,159.9063 Q18.3594,159.4375 17.6719,158.4219 Q17,157.4063 17,156.2031 L17,155.1094 Q17,153.8594 17.5938,152.7656 Q18.2031,151.6719 19.25,151.0938 Q20.3125,150.5 21.5,150.5 Q22.2188,150.5 22.8438,150.75 Q23.4688,151 24,151.5 Z " fill="#000000"/><text fill="#000000" font-family="sans-serif" font-size="12" lengthAdjust="spacing" textLength="123" x="36" y="159.9102">LaboratoryCoordinator</text><line style="stroke:#A80036;stroke-width:1.5;" x1="8" x2="161" y1="171" y2="171"/><text fill="#000000" font-family="sans-serif" font-size="11" lengthAdjust="spacing" textLength="59" x="13" y="186.4189">-employeeID</text><text fill="#000000" font-family="sans-serif" font-size="11" lengthAdjust="spacing" textLength="84" x="13" y="200.2549">-organizationRole</text><text fill="#000000" font-family="sans-serif" font-size="11" lengthAdjust="spacing" textLength="30" x="13" y="214.0908">-name</text><text fill="#000000" font-family="sans-serif" font-size="11" lengthAdjust="spacing" textLength="44" x="13" y="227.9268">-address</text><text fill="#000000" font-family="sans-serif" font-size="11" lengthAdjust="spacing" textLength="71" x="13" y="241.7627">-phoneNumber</text><text fill="#000000" font-family="sans-serif" font-size="11" lengthAdjust="spacing" textLength="28" x="13" y="255.5986">-email</text><text fill="#000000" font-family="sans-serif" font-size="11" lengthAdjust="spacing" textLength="22" x="13" y="269.4346">-soc</text><!--MD5=[c18fe2235af84d27f50ab7ae87a88372]
class TestValidation--><rect codeLine="17" fill="#FEFECE" filter="url(#f13ckljjwwq3j9)" height="53.8359" id="TestValidation" style="stroke:#A80036;stroke-width:1.5;" width="110" x="99.5" y="7"/><ellipse cx="114.5" cy="23" fill="#ADD1B2" rx="11" ry="11" style="stroke:#A80036;stroke-width:1.0;"/><path d="M116.5,19.5 Q116.7031,19 116.9375,18.75 Q117.1719,18.5 117.4375,18.5 Q117.9063,18.5 118.2031,18.7813 Q118.5,19.0625 118.5,19.7188 L118.5,21.2813 Q118.5,21.9375 118.2188,22.2188 Q117.9375,22.5 117.5,22.5 Q117.1094,22.5 116.8594,22.3281 Q116.6094,22.1563 116.5,21.7031 Q116.4531,21.3906 116.2813,21.2188 Q115.9688,20.8906 115.4063,20.7031 Q114.8438,20.5 114.2813,20.5 Q113.5781,20.5 112.9844,20.7813 Q112.4063,21.0625 111.9531,21.6875 Q111.5,22.3125 111.5,23.1719 L111.5,24.0938 Q111.5,25.125 112.3438,25.8125 Q113.1875,26.5 114.6875,26.5 Q115.5781,26.5 116.2031,26.2969 Q116.5625,26.1875 116.9688,25.8281 Q117.2344,25.625 117.375,25.5625 Q117.5156,25.5 117.6875,25.5 Q118.0156,25.5 118.25,25.7656 Q118.5,26.0156 118.5,26.375 Q118.5,26.7188 118.1563,27.125 Q117.6563,27.7188 116.8594,28.0469 Q115.8125,28.5 114.5313,28.5 Q113.0313,28.5 111.8281,27.9063 Q110.8594,27.4375 110.1719,26.4219 Q109.5,25.4063 109.5,24.2031 L109.5,23.1094 Q109.5,21.8594 110.0938,20.7656 Q110.7031,19.6719 111.75,19.0938 Q112.8125,18.5 114,18.5 Q114.7188,18.5 115.3438,18.75 Q115.9688,19 116.5,19.5 Z " fill="#000000"/><text fill="#000000" font-family="sans-serif" font-size="12" lengthAdjust="spacing" textLength="78" x="128.5" y="27.9102">TestValidation</text><line style="stroke:#A80036;stroke-width:1.5;" x1="100.5" x2="208.5" y1="39" y2="39"/><text fill="#000000" font-family="sans-serif" font-size="11" lengthAdjust="spacing" textLength="52" x="105.5" y="54.4189">-createdAt</text><!--MD5=[df38be88ccee13e832d6fafd6288a4ca]
class Test--><rect codeLine="21" fill="#FEFECE" filter="url(#f13ckljjwwq3j9)" height="67.6719" id="Test" style="stroke:#A80036;stroke-width:1.5;" width="56" x="197.5" y="173.5"/><ellipse cx="212.5" cy="189.5" fill="#ADD1B2" rx="11" ry="11" style="stroke:#A80036;stroke-width:1.0;"/><path d="M214.5,186 Q214.7031,185.5 214.9375,185.25 Q215.1719,185 215.4375,185 Q215.9063,185 216.2031,185.2813 Q216.5,185.5625 216.5,186.2188 L216.5,187.7813 Q216.5,188.4375 216.2188,188.7188 Q215.9375,189 215.5,189 Q215.1094,189 214.8594,188.8281 Q214.6094,188.6563 214.5,188.2031 Q214.4531,187.8906 214.2813,187.7188 Q213.9688,187.3906 213.4063,187.2031 Q212.8438,187 212.2813,187 Q211.5781,187 210.9844,187.2813 Q210.4063,187.5625 209.9531,188.1875 Q209.5,188.8125 209.5,189.6719 L209.5,190.5938 Q209.5,191.625 210.3438,192.3125 Q211.1875,193 212.6875,193 Q213.5781,193 214.2031,192.7969 Q214.5625,192.6875 214.9688,192.3281 Q215.2344,192.125 215.375,192.0625 Q215.5156,192 215.6875,192 Q216.0156,192 216.25,192.2656 Q216.5,192.5156 216.5,192.875 Q216.5,193.2188 216.1563,193.625 Q215.6563,194.2188 214.8594,194.5469 Q213.8125,195 212.5313,195 Q211.0313,195 209.8281,194.4063 Q208.8594,193.9375 208.1719,192.9219 Q207.5,191.9063 207.5,190.7031 L207.5,189.6094 Q207.5,188.3594 208.0938,187.2656 Q208.7031,186.1719 209.75,185.5938 Q210.8125,185 212,185 Q212.7188,185 213.3438,185.25 Q213.9688,185.5 214.5,186 Z " fill="#000000"/><text fill="#000000" font-family="sans-serif" font-size="12" lengthAdjust="spacing" textLength="24" x="226.5" y="194.4102">Test</text><line style="stroke:#A80036;stroke-width:1.5;" x1="198.5" x2="252.5" y1="205.5" y2="205.5"/><text fill="#000000" font-family="sans-serif" font-size="11" lengthAdjust="spacing" textLength="28" x="203.5" y="220.9189">-code</text><text fill="#000000" font-family="sans-serif" font-size="11" lengthAdjust="spacing" textLength="30" x="203.5" y="234.7549">-name</text><!--MD5=[5835476d31b76d5a9ae4609a49bfb021]
reverse link TestValidation to LaboratoryCoordinator--><path codeLine="26" d="M141,66.1 C137.54,74.19 133.85,82.9 130.5,91 C124.11,106.46 117.37,123.14 111.09,138.89 " fill="none" id="TestValidation-backto-LaboratoryCoordinator" style="stroke:#A80036;stroke-width:1.0;"/><polygon fill="#A80036" points="143.13,61.15,135.9006,67.8385,141.1552,65.7435,143.2502,70.9981,143.13,61.15" style="stroke:#A80036;stroke-width:1.0;"/><text fill="#000000" font-family="sans-serif" font-size="13" lengthAdjust="spacing" textLength="50" x="131.5" y="105.4951">performs</text><!--MD5=[92468ae0ace0274684b76b0a8ea8f1fd]
link TestValidation to Test--><path codeLine="27" d="M170.88,61.23 C176.26,70.44 182,80.99 186.5,91 C197.79,116.13 207.68,145.56 214.68,168.42 " fill="none" id="TestValidation-to-Test" style="stroke:#A80036;stroke-width:1.0;"/><polygon fill="#A80036" points="216.22,173.49,217.4251,163.7151,214.7636,168.7068,209.772,166.0453,216.22,173.49" style="stroke:#A80036;stroke-width:1.0;"/><text fill="#000000" font-family="sans-serif" font-size="13" lengthAdjust="spacing" textLength="50" x="193.5" y="105.4951">validates</text><!--MD5=[946389cdac04cd455c0ac6d48ee67efd]
@startuml
'https://plantuml.com/class-diagram

hide methods

skinparam classAttributeIconSize 0

class LaboratoryCoordinator {
-employeeID
-organizationRole
-name
-address
-phoneNumber
-email
-soc
}

class TestValidation {
-createdAt
}

class Test {
-code
-name
}

TestValidation <- - LaboratoryCoordinator: performs
TestValidation - -> Test: validates

@enduml

@startuml

hide methods

skinparam classAttributeIconSize 0

class LaboratoryCoordinator {
-employeeID
-organizationRole
-name
-address
-phoneNumber
-email
-soc
}

class TestValidation {
-createdAt
}

class Test {
-code
-name
}

TestValidation <- - LaboratoryCoordinator: performs
TestValidation - -> Test: validates

@enduml

PlantUML version 1.2021.5(Sun Apr 25 12:20:28 BST 2021)
(GPL source distribution)
Java Runtime: OpenJDK Runtime Environment
JVM: OpenJDK 64-Bit Server VM
Default Encoding: Cp1252
Language: pt
Country: PT
--></g></svg>