<?xml version="1.0" encoding="UTF-8" standalone="no"?><svg xmlns="http://www.w3.org/2000/svg" xmlns:xlink="http://www.w3.org/1999/xlink" contentScriptType="application/ecmascript" contentStyleType="text/css" height="1235.2px" preserveAspectRatio="none" style="width:1187px;height:1235px;" version="1.1" viewBox="0 0 1187 1235" width="1187.2px" zoomAndPan="magnify"><defs><filter height="300%" id="fx6po4vhbv477" width="300%" x="-1" y="-1"><feGaussianBlur result="blurOut" stdDeviation="1.6000000000000003"/><feColorMatrix in="blurOut" result="blurOut2" type="matrix" values="0 0 0 0 0 0 0 0 0 0 0 0 0 0 0 0 0 0 .4 0"/><feOffset dx="3.2000000000000006" dy="3.2000000000000006" in="blurOut2" result="blurOut3"/><feBlend in="SourceGraphic" in2="blurOut3" mode="normal"/></filter></defs><g><!--MD5=[0f6f7964b844a64b0496af0dda7914bd]
class TestStore--><rect codeLine="5" fill="#FEFECE" filter="url(#fx6po4vhbv477)" height="82.675" id="TestStore" style="stroke:#A80036;stroke-width:1.2000000000000002;" width="376.8" x="343.176" y="369.6"/><ellipse cx="506.976" cy="382.4" fill="#ADD1B2" rx="8.8" ry="8.8" style="stroke:#A80036;stroke-width:0.8000000000000002;"/><path d="M508.576,379.6 Q508.7385,379.2 508.926,379 Q509.1135,378.8 509.326,378.8 Q509.701,378.8 509.9385,379.025 Q510.176,379.25 510.176,379.775 L510.176,381.025 Q510.176,381.55 509.951,381.775 Q509.726,382 509.376,382 Q509.0635,382 508.8635,381.8625 Q508.6635,381.725 508.576,381.3625 Q508.5385,381.1125 508.401,380.975 Q508.151,380.7125 507.701,380.5625 Q507.251,380.4 506.801,380.4 Q506.2385,380.4 505.7635,380.625 Q505.301,380.85 504.9385,381.35 Q504.576,381.85 504.576,382.5375 L504.576,383.275 Q504.576,384.1 505.251,384.65 Q505.926,385.2 507.126,385.2 Q507.8385,385.2 508.3385,385.0375 Q508.626,384.95 508.951,384.6625 Q509.1635,384.5 509.276,384.45 Q509.3885,384.4 509.526,384.4 Q509.7885,384.4 509.976,384.6125 Q510.176,384.8125 510.176,385.1 Q510.176,385.375 509.901,385.7 Q509.501,386.175 508.8635,386.4375 Q508.026,386.8 507.001,386.8 Q505.801,386.8 504.8385,386.325 Q504.0635,385.95 503.5135,385.1375 Q502.976,384.325 502.976,383.3625 L502.976,382.4875 Q502.976,381.4875 503.451,380.6125 Q503.9385,379.7375 504.776,379.275 Q505.626,378.8 506.576,378.8 Q507.151,378.8 507.651,379 Q508.151,379.2 508.576,379.6 Z " fill="#000000"/><text fill="#000000" font-family="sans-serif" font-size="9.6" lengthAdjust="spacing" textLength="42.4" x="523.376" y="386.3281">TestStore</text><line style="stroke:#A80036;stroke-width:1.2000000000000002;" x1="343.976" x2="719.176" y1="395.2" y2="395.2"/><line style="stroke:#A80036;stroke-width:1.2000000000000002;" x1="343.976" x2="719.176" y1="401.6" y2="401.6"/><text fill="#000000" font-family="sans-serif" font-size="8.8" lengthAdjust="spacing" textLength="367.2" x="347.976" y="413.9352">+createTest(testCode, nhsCode, ClientID, TestTypeDesignation, CategoryID, ParameterID) : Test</text><text fill="#000000" font-family="sans-serif" font-size="8.8" lengthAdjust="spacing" textLength="84.8" x="347.976" y="425.0039">+saveTest(test) : bool</text><text fill="#000000" font-family="sans-serif" font-size="8.8" lengthAdjust="spacing" textLength="93.6" x="347.976" y="436.0727">-validateTest(test) : bool</text><text fill="#000000" font-family="sans-serif" font-size="8.8" lengthAdjust="spacing" textLength="133.6" x="347.976" y="447.1414">+getTestByCode(testCode) : string</text><!--MD5=[df38be88ccee13e832d6fafd6288a4ca]
class Test--><rect codeLine="12" fill="#FEFECE" filter="url(#fx6po4vhbv477)" height="71.6063" id="Test" style="stroke:#A80036;stroke-width:1.2000000000000002;" width="328" x="645.176" y="582.4"/><ellipse cx="796.176" cy="595.2" fill="#ADD1B2" rx="8.8" ry="8.8" style="stroke:#A80036;stroke-width:0.8000000000000002;"/><path d="M797.776,592.4 Q797.9385,592 798.126,591.8 Q798.3135,591.6 798.526,591.6 Q798.901,591.6 799.1385,591.825 Q799.376,592.05 799.376,592.575 L799.376,593.825 Q799.376,594.35 799.151,594.575 Q798.926,594.8 798.576,594.8 Q798.2635,594.8 798.0635,594.6625 Q797.8635,594.525 797.776,594.1625 Q797.7385,593.9125 797.601,593.775 Q797.351,593.5125 796.901,593.3625 Q796.451,593.2 796.001,593.2 Q795.4385,593.2 794.9635,593.425 Q794.501,593.65 794.1385,594.15 Q793.776,594.65 793.776,595.3375 L793.776,596.075 Q793.776,596.9 794.451,597.45 Q795.126,598 796.326,598 Q797.0385,598 797.5385,597.8375 Q797.826,597.75 798.151,597.4625 Q798.3635,597.3 798.476,597.25 Q798.5885,597.2 798.726,597.2 Q798.9885,597.2 799.176,597.4125 Q799.376,597.6125 799.376,597.9 Q799.376,598.175 799.101,598.5 Q798.701,598.975 798.0635,599.2375 Q797.226,599.6 796.201,599.6 Q795.001,599.6 794.0385,599.125 Q793.2635,598.75 792.7135,597.9375 Q792.176,597.125 792.176,596.1625 L792.176,595.2875 Q792.176,594.2875 792.651,593.4125 Q793.1385,592.5375 793.976,592.075 Q794.826,591.6 795.776,591.6 Q796.351,591.6 796.851,591.8 Q797.351,592 797.776,592.4 Z " fill="#000000"/><text fill="#000000" font-family="sans-serif" font-size="9.6" lengthAdjust="spacing" textLength="19.2" x="812.576" y="599.1281">Test</text><line style="stroke:#A80036;stroke-width:1.2000000000000002;" x1="645.976" x2="972.376" y1="608" y2="608"/><text fill="#000000" font-family="sans-serif" font-size="8.8" lengthAdjust="spacing" textLength="66.4" x="649.976" y="620.3352">-Integer testCode</text><text fill="#000000" font-family="sans-serif" font-size="8.8" lengthAdjust="spacing" textLength="66.4" x="649.976" y="631.4039">-Integer nhsCode</text><line style="stroke:#A80036;stroke-width:1.2000000000000002;" x1="645.976" x2="972.376" y1="636.5375" y2="636.5375"/><text fill="#000000" font-family="sans-serif" font-size="8.8" lengthAdjust="spacing" textLength="318.4" x="649.976" y="648.8727">+Test(testCode, nhsCode, ClientID, TestTypeDesignation, CategoryID, ParameterID)</text><!--MD5=[6ba72ddf03822b91e8d41ca71de58ed3]
class TestTypeStore--><rect codeLine="18" fill="#FEFECE" filter="url(#fx6po4vhbv477)" height="71.6063" id="TestTypeStore" style="stroke:#A80036;stroke-width:1.2000000000000002;" width="128" x="49.976" y="374.8"/><ellipse cx="79.616" cy="387.6" fill="#ADD1B2" rx="8.8" ry="8.8" style="stroke:#A80036;stroke-width:0.8000000000000002;"/><path d="M81.216,384.8 Q81.3785,384.4 81.566,384.2 Q81.7535,384 81.966,384 Q82.341,384 82.5785,384.225 Q82.816,384.45 82.816,384.975 L82.816,386.225 Q82.816,386.75 82.591,386.975 Q82.366,387.2 82.016,387.2 Q81.7035,387.2 81.5035,387.0625 Q81.3035,386.925 81.216,386.5625 Q81.1785,386.3125 81.041,386.175 Q80.791,385.9125 80.341,385.7625 Q79.891,385.6 79.441,385.6 Q78.8785,385.6 78.4035,385.825 Q77.941,386.05 77.5785,386.55 Q77.216,387.05 77.216,387.7375 L77.216,388.475 Q77.216,389.3 77.891,389.85 Q78.566,390.4 79.766,390.4 Q80.4785,390.4 80.9785,390.2375 Q81.266,390.15 81.591,389.8625 Q81.8035,389.7 81.916,389.65 Q82.0285,389.6 82.166,389.6 Q82.4285,389.6 82.616,389.8125 Q82.816,390.0125 82.816,390.3 Q82.816,390.575 82.541,390.9 Q82.141,391.375 81.5035,391.6375 Q80.666,392 79.641,392 Q78.441,392 77.4785,391.525 Q76.7035,391.15 76.1535,390.3375 Q75.616,389.525 75.616,388.5625 L75.616,387.6875 Q75.616,386.6875 76.091,385.8125 Q76.5785,384.9375 77.416,384.475 Q78.266,384 79.216,384 Q79.791,384 80.291,384.2 Q80.791,384.4 81.216,384.8 Z " fill="#000000"/><text fill="#000000" font-family="sans-serif" font-size="9.6" lengthAdjust="spacing" textLength="63.2" x="94.736" y="391.5281">TestTypeStore</text><line style="stroke:#A80036;stroke-width:1.2000000000000002;" x1="50.776" x2="177.176" y1="400.4" y2="400.4"/><line style="stroke:#A80036;stroke-width:1.2000000000000002;" x1="50.776" x2="177.176" y1="406.8" y2="406.8"/><text fill="#000000" font-family="sans-serif" font-size="8.8" lengthAdjust="spacing" textLength="118.4" x="54.776" y="419.1352">+createTestType() : Parameter</text><text fill="#000000" font-family="sans-serif" font-size="8.8" lengthAdjust="spacing" textLength="94.4" x="54.776" y="430.2039">+saveTestType(tt) : bool</text><text fill="#000000" font-family="sans-serif" font-size="8.8" lengthAdjust="spacing" textLength="103.2" x="54.776" y="441.2727">-validateTestType(tt) : bool</text><!--MD5=[aeb3272166074d8737a70b61b1e71682]
class TestType--><rect codeLine="24" fill="#FEFECE" filter="url(#fx6po4vhbv477)" height="49.4688" id="TestType" style="stroke:#A80036;stroke-width:1.2000000000000002;" width="81.6" x="13.176" y="593.6"/><ellipse cx="32.376" cy="606.4" fill="#ADD1B2" rx="8.8" ry="8.8" style="stroke:#A80036;stroke-width:0.8000000000000002;"/><path d="M33.976,603.6 Q34.1385,603.2 34.326,603 Q34.5135,602.8 34.726,602.8 Q35.101,602.8 35.3385,603.025 Q35.576,603.25 35.576,603.775 L35.576,605.025 Q35.576,605.55 35.351,605.775 Q35.126,606 34.776,606 Q34.4635,606 34.2635,605.8625 Q34.0635,605.725 33.976,605.3625 Q33.9385,605.1125 33.801,604.975 Q33.551,604.7125 33.101,604.5625 Q32.651,604.4 32.201,604.4 Q31.6385,604.4 31.1635,604.625 Q30.701,604.85 30.3385,605.35 Q29.976,605.85 29.976,606.5375 L29.976,607.275 Q29.976,608.1 30.651,608.65 Q31.326,609.2 32.526,609.2 Q33.2385,609.2 33.7385,609.0375 Q34.026,608.95 34.351,608.6625 Q34.5635,608.5 34.676,608.45 Q34.7885,608.4 34.926,608.4 Q35.1885,608.4 35.376,608.6125 Q35.576,608.8125 35.576,609.1 Q35.576,609.375 35.301,609.7 Q34.901,610.175 34.2635,610.4375 Q33.426,610.8 32.401,610.8 Q31.201,610.8 30.2385,610.325 Q29.4635,609.95 28.9135,609.1375 Q28.376,608.325 28.376,607.3625 L28.376,606.4875 Q28.376,605.4875 28.851,604.6125 Q29.3385,603.7375 30.176,603.275 Q31.026,602.8 31.976,602.8 Q32.551,602.8 33.051,603 Q33.551,603.2 33.976,603.6 Z " fill="#000000"/><text fill="#000000" font-family="sans-serif" font-size="9.6" lengthAdjust="spacing" textLength="40" x="45.176" y="610.3281">TestType</text><line style="stroke:#A80036;stroke-width:1.2000000000000002;" x1="13.976" x2="93.976" y1="619.2" y2="619.2"/><text fill="#000000" font-family="sans-serif" font-size="8.8" lengthAdjust="spacing" textLength="72" x="17.976" y="631.5352">-String designation</text><line style="stroke:#A80036;stroke-width:1.2000000000000002;" x1="13.976" x2="93.976" y1="636.6688" y2="636.6688"/><!--MD5=[be7802b157a16874d39c59ca0e2b25be]
class ParameterStore--><rect codeLine="28" fill="#FEFECE" filter="url(#fx6po4vhbv477)" height="82.675" id="ParameterStore" style="stroke:#A80036;stroke-width:1.2000000000000002;" width="131.2" x="256.376" y="678.4"/><ellipse cx="284.576" cy="691.2" fill="#ADD1B2" rx="8.8" ry="8.8" style="stroke:#A80036;stroke-width:0.8000000000000002;"/><path d="M286.176,688.4 Q286.3385,688 286.526,687.8 Q286.7135,687.6 286.926,687.6 Q287.301,687.6 287.5385,687.825 Q287.776,688.05 287.776,688.575 L287.776,689.825 Q287.776,690.35 287.551,690.575 Q287.326,690.8 286.976,690.8 Q286.6635,690.8 286.4635,690.6625 Q286.2635,690.525 286.176,690.1625 Q286.1385,689.9125 286.001,689.775 Q285.751,689.5125 285.301,689.3625 Q284.851,689.2 284.401,689.2 Q283.8385,689.2 283.3635,689.425 Q282.901,689.65 282.5385,690.15 Q282.176,690.65 282.176,691.3375 L282.176,692.075 Q282.176,692.9 282.851,693.45 Q283.526,694 284.726,694 Q285.4385,694 285.9385,693.8375 Q286.226,693.75 286.551,693.4625 Q286.7635,693.3 286.876,693.25 Q286.9885,693.2 287.126,693.2 Q287.3885,693.2 287.576,693.4125 Q287.776,693.6125 287.776,693.9 Q287.776,694.175 287.501,694.5 Q287.101,694.975 286.4635,695.2375 Q285.626,695.6 284.601,695.6 Q283.401,695.6 282.4385,695.125 Q281.6635,694.75 281.1135,693.9375 Q280.576,693.125 280.576,692.1625 L280.576,691.2875 Q280.576,690.2875 281.051,689.4125 Q281.5385,688.5375 282.376,688.075 Q283.226,687.6 284.176,687.6 Q284.751,687.6 285.251,687.8 Q285.751,688 286.176,688.4 Z " fill="#000000"/><text fill="#000000" font-family="sans-serif" font-size="9.6" lengthAdjust="spacing" textLength="69.6" x="299.376" y="695.1281">ParameterStore</text><line style="stroke:#A80036;stroke-width:1.2000000000000002;" x1="257.176" x2="386.776" y1="704" y2="704"/><line style="stroke:#A80036;stroke-width:1.2000000000000002;" x1="257.176" x2="386.776" y1="710.4" y2="710.4"/><text fill="#000000" font-family="sans-serif" font-size="8.8" lengthAdjust="spacing" textLength="121.6" x="261.176" y="722.7352">+createParameter() : Parameter</text><text fill="#000000" font-family="sans-serif" font-size="8.8" lengthAdjust="spacing" textLength="97.6" x="261.176" y="733.8039">+saveParameter(p) : bool</text><text fill="#000000" font-family="sans-serif" font-size="8.8" lengthAdjust="spacing" textLength="106.4" x="261.176" y="744.8727">-validateParameter(p) : bool</text><text fill="#000000" font-family="sans-serif" font-size="8.8" lengthAdjust="spacing" textLength="120.8" x="261.176" y="755.9414">+getParameterByID(pID) : string</text><!--MD5=[1f6362a5c8f21d8d6a0fce68f3a92a4e]
class Parameter--><rect codeLine="35" fill="#FEFECE" filter="url(#fx6po4vhbv477)" height="49.4688" id="Parameter" style="stroke:#A80036;stroke-width:1.2000000000000002;" width="81.6" x="391.576" y="1024.4"/><ellipse cx="407.896" cy="1037.2" fill="#ADD1B2" rx="8.8" ry="8.8" style="stroke:#A80036;stroke-width:0.8000000000000002;"/><path d="M409.496,1034.4 Q409.6585,1034 409.846,1033.8 Q410.0335,1033.6 410.246,1033.6 Q410.621,1033.6 410.8585,1033.825 Q411.096,1034.05 411.096,1034.575 L411.096,1035.825 Q411.096,1036.35 410.871,1036.575 Q410.646,1036.8 410.296,1036.8 Q409.9835,1036.8 409.7835,1036.6625 Q409.5835,1036.525 409.496,1036.1625 Q409.4585,1035.9125 409.321,1035.775 Q409.071,1035.5125 408.621,1035.3625 Q408.171,1035.2 407.721,1035.2 Q407.1585,1035.2 406.6835,1035.425 Q406.221,1035.65 405.8585,1036.15 Q405.496,1036.65 405.496,1037.3375 L405.496,1038.075 Q405.496,1038.9 406.171,1039.45 Q406.846,1040 408.046,1040 Q408.7585,1040 409.2585,1039.8375 Q409.546,1039.75 409.871,1039.4625 Q410.0835,1039.3 410.196,1039.25 Q410.3085,1039.2 410.446,1039.2 Q410.7085,1039.2 410.896,1039.4125 Q411.096,1039.6125 411.096,1039.9 Q411.096,1040.175 410.821,1040.5 Q410.421,1040.975 409.7835,1041.2375 Q408.946,1041.6 407.921,1041.6 Q406.721,1041.6 405.7585,1041.125 Q404.9835,1040.75 404.4335,1039.9375 Q403.896,1039.125 403.896,1038.1625 L403.896,1037.2875 Q403.896,1036.2875 404.371,1035.4125 Q404.8585,1034.5375 405.696,1034.075 Q406.546,1033.6 407.496,1033.6 Q408.071,1033.6 408.571,1033.8 Q409.071,1034 409.496,1034.4 Z " fill="#000000"/><text fill="#000000" font-family="sans-serif" font-size="9.6" lengthAdjust="spacing" textLength="46.4" x="420.056" y="1041.1281">Parameter</text><line style="stroke:#A80036;stroke-width:1.2000000000000002;" x1="392.376" x2="472.376" y1="1050" y2="1050"/><text fill="#000000" font-family="sans-serif" font-size="8.8" lengthAdjust="spacing" textLength="72" x="396.376" y="1062.3352">-String designation</text><line style="stroke:#A80036;stroke-width:1.2000000000000002;" x1="392.376" x2="472.376" y1="1067.4688" y2="1067.4688"/><!--MD5=[d802db621b5b215a6f0466f93cefcb42]
class ParameterCategoryStore--><rect codeLine="39" fill="#FEFECE" filter="url(#fx6po4vhbv477)" height="82.675" id="ParameterCategoryStore" style="stroke:#A80036;stroke-width:1.2000000000000002;" width="201.6" x="101.976" y="476"/><ellipse cx="144.976" cy="488.8" fill="#ADD1B2" rx="8.8" ry="8.8" style="stroke:#A80036;stroke-width:0.8000000000000002;"/><path d="M146.576,486 Q146.7385,485.6 146.926,485.4 Q147.1135,485.2 147.326,485.2 Q147.701,485.2 147.9385,485.425 Q148.176,485.65 148.176,486.175 L148.176,487.425 Q148.176,487.95 147.951,488.175 Q147.726,488.4 147.376,488.4 Q147.0635,488.4 146.8635,488.2625 Q146.6635,488.125 146.576,487.7625 Q146.5385,487.5125 146.401,487.375 Q146.151,487.1125 145.701,486.9625 Q145.251,486.8 144.801,486.8 Q144.2385,486.8 143.7635,487.025 Q143.301,487.25 142.9385,487.75 Q142.576,488.25 142.576,488.9375 L142.576,489.675 Q142.576,490.5 143.251,491.05 Q143.926,491.6 145.126,491.6 Q145.8385,491.6 146.3385,491.4375 Q146.626,491.35 146.951,491.0625 Q147.1635,490.9 147.276,490.85 Q147.3885,490.8 147.526,490.8 Q147.7885,490.8 147.976,491.0125 Q148.176,491.2125 148.176,491.5 Q148.176,491.775 147.901,492.1 Q147.501,492.575 146.8635,492.8375 Q146.026,493.2 145.001,493.2 Q143.801,493.2 142.8385,492.725 Q142.0635,492.35 141.5135,491.5375 Q140.976,490.725 140.976,489.7625 L140.976,488.8875 Q140.976,487.8875 141.451,487.0125 Q141.9385,486.1375 142.776,485.675 Q143.626,485.2 144.576,485.2 Q145.151,485.2 145.651,485.4 Q146.151,485.6 146.576,486 Z " fill="#000000"/><text fill="#000000" font-family="sans-serif" font-size="9.6" lengthAdjust="spacing" textLength="108.8" x="161.376" y="492.7281">ParameterCategoryStore</text><line style="stroke:#A80036;stroke-width:1.2000000000000002;" x1="102.776" x2="302.776" y1="501.6" y2="501.6"/><line style="stroke:#A80036;stroke-width:1.2000000000000002;" x1="102.776" x2="302.776" y1="508" y2="508"/><text fill="#000000" font-family="sans-serif" font-size="8.8" lengthAdjust="spacing" textLength="192" x="106.776" y="520.3352">+createParameterCategory() : ParameterCategory</text><text fill="#000000" font-family="sans-serif" font-size="8.8" lengthAdjust="spacing" textLength="137.6" x="106.776" y="531.4039">+saveParameterCategory(pc) : bool</text><text fill="#000000" font-family="sans-serif" font-size="8.8" lengthAdjust="spacing" textLength="146.4" x="106.776" y="542.4727">-validateParameterCategory(pc) : bool</text><text fill="#000000" font-family="sans-serif" font-size="8.8" lengthAdjust="spacing" textLength="160.8" x="106.776" y="553.5414">+getParameterCategoryByID(pcID) : string</text><!--MD5=[36afb6bbd95a8ac778c4537c55a683d5]
class ParameterCategory--><rect codeLine="46" fill="#FEFECE" filter="url(#fx6po4vhbv477)" height="49.4688" id="ParameterCategory" style="stroke:#A80036;stroke-width:1.2000000000000002;" width="111.2" x="287.176" y="1175.2"/><ellipse cx="299.176" cy="1188" fill="#ADD1B2" rx="8.8" ry="8.8" style="stroke:#A80036;stroke-width:0.8000000000000002;"/><path d="M300.776,1185.2 Q300.9385,1184.8 301.126,1184.6 Q301.3135,1184.4 301.526,1184.4 Q301.901,1184.4 302.1385,1184.625 Q302.376,1184.85 302.376,1185.375 L302.376,1186.625 Q302.376,1187.15 302.151,1187.375 Q301.926,1187.6 301.576,1187.6 Q301.2635,1187.6 301.0635,1187.4625 Q300.8635,1187.325 300.776,1186.9625 Q300.7385,1186.7125 300.601,1186.575 Q300.351,1186.3125 299.901,1186.1625 Q299.451,1186 299.001,1186 Q298.4385,1186 297.9635,1186.225 Q297.501,1186.45 297.1385,1186.95 Q296.776,1187.45 296.776,1188.1375 L296.776,1188.875 Q296.776,1189.7 297.451,1190.25 Q298.126,1190.8 299.326,1190.8 Q300.0385,1190.8 300.5385,1190.6375 Q300.826,1190.55 301.151,1190.2625 Q301.3635,1190.1 301.476,1190.05 Q301.5885,1190 301.726,1190 Q301.9885,1190 302.176,1190.2125 Q302.376,1190.4125 302.376,1190.7 Q302.376,1190.975 302.101,1191.3 Q301.701,1191.775 301.0635,1192.0375 Q300.226,1192.4 299.201,1192.4 Q298.001,1192.4 297.0385,1191.925 Q296.2635,1191.55 295.7135,1190.7375 Q295.176,1189.925 295.176,1188.9625 L295.176,1188.0875 Q295.176,1187.0875 295.651,1186.2125 Q296.1385,1185.3375 296.976,1184.875 Q297.826,1184.4 298.776,1184.4 Q299.351,1184.4 299.851,1184.6 Q300.351,1184.8 300.776,1185.2 Z " fill="#000000"/><text fill="#000000" font-family="sans-serif" font-size="9.6" lengthAdjust="spacing" textLength="85.6" x="310.376" y="1191.9281">ParameterCategory</text><line style="stroke:#A80036;stroke-width:1.2000000000000002;" x1="287.976" x2="397.576" y1="1200.8" y2="1200.8"/><text fill="#000000" font-family="sans-serif" font-size="8.8" lengthAdjust="spacing" textLength="72" x="291.976" y="1213.1352">-String designation</text><line style="stroke:#A80036;stroke-width:1.2000000000000002;" x1="287.976" x2="397.576" y1="1218.2688" y2="1218.2688"/><!--MD5=[ed6624c6556d5e7b1bd23032162d20b7]
class Client--><rect codeLine="50" fill="#FEFECE" filter="url(#fx6po4vhbv477)" height="138.0188" id="Client" style="stroke:#A80036;stroke-width:1.2000000000000002;" width="312" x="653.176" y="784.8"/><ellipse cx="792.976" cy="797.6" fill="#ADD1B2" rx="8.8" ry="8.8" style="stroke:#A80036;stroke-width:0.8000000000000002;"/><path d="M794.576,794.8 Q794.7385,794.4 794.926,794.2 Q795.1135,794 795.326,794 Q795.701,794 795.9385,794.225 Q796.176,794.45 796.176,794.975 L796.176,796.225 Q796.176,796.75 795.951,796.975 Q795.726,797.2 795.376,797.2 Q795.0635,797.2 794.8635,797.0625 Q794.6635,796.925 794.576,796.5625 Q794.5385,796.3125 794.401,796.175 Q794.151,795.9125 793.701,795.7625 Q793.251,795.6 792.801,795.6 Q792.2385,795.6 791.7635,795.825 Q791.301,796.05 790.9385,796.55 Q790.576,797.05 790.576,797.7375 L790.576,798.475 Q790.576,799.3 791.251,799.85 Q791.926,800.4 793.126,800.4 Q793.8385,800.4 794.3385,800.2375 Q794.626,800.15 794.951,799.8625 Q795.1635,799.7 795.276,799.65 Q795.3885,799.6 795.526,799.6 Q795.7885,799.6 795.976,799.8125 Q796.176,800.0125 796.176,800.3 Q796.176,800.575 795.901,800.9 Q795.501,801.375 794.8635,801.6375 Q794.026,802 793.001,802 Q791.801,802 790.8385,801.525 Q790.0635,801.15 789.5135,800.3375 Q788.976,799.525 788.976,798.5625 L788.976,797.6875 Q788.976,796.6875 789.451,795.8125 Q789.9385,794.9375 790.776,794.475 Q791.626,794 792.576,794 Q793.151,794 793.651,794.2 Q794.151,794.4 794.576,794.8 Z " fill="#000000"/><text fill="#000000" font-family="sans-serif" font-size="9.6" lengthAdjust="spacing" textLength="25.6" x="809.376" y="801.5281">Client</text><line style="stroke:#A80036;stroke-width:1.2000000000000002;" x1="653.976" x2="964.376" y1="810.4" y2="810.4"/><text fill="#000000" font-family="sans-serif" font-size="8.8" lengthAdjust="spacing" textLength="48.8" x="657.976" y="822.7352">-String name</text><text fill="#000000" font-family="sans-serif" font-size="8.8" lengthAdjust="spacing" textLength="71.2" x="657.976" y="833.8039">-Integer ccNumber</text><text fill="#000000" font-family="sans-serif" font-size="8.8" lengthAdjust="spacing" textLength="76" x="657.976" y="844.8727">-Integer nhsNumber</text><text fill="#000000" font-family="sans-serif" font-size="8.8" lengthAdjust="spacing" textLength="62.4" x="657.976" y="855.9414">-String birthDate</text><text fill="#000000" font-family="sans-serif" font-size="8.8" lengthAdjust="spacing" textLength="42.4" x="657.976" y="867.0102">-String sex</text><text fill="#000000" font-family="sans-serif" font-size="8.8" lengthAdjust="spacing" textLength="43.2" x="657.976" y="878.0789">-Integer TIF</text><text fill="#000000" font-family="sans-serif" font-size="8.8" lengthAdjust="spacing" textLength="85.6" x="657.976" y="889.1477">-Integer phoneNumber</text><text fill="#000000" font-family="sans-serif" font-size="8.8" lengthAdjust="spacing" textLength="47.2" x="657.976" y="900.2164">-String email</text><line style="stroke:#A80036;stroke-width:1.2000000000000002;" x1="653.976" x2="964.376" y1="905.35" y2="905.35"/><text fill="#000000" font-family="sans-serif" font-size="8.8" lengthAdjust="spacing" textLength="302.4" x="657.976" y="917.6852">+Client(name, ccNumber, nhsNumber, birthDate, sex, TIF, phoneNumber, email)</text><!--MD5=[02e4b9b7573f1156f41e60aa5b4e25a4]
class Company--><rect codeLine="62" fill="#FEFECE" filter="url(#fx6po4vhbv477)" height="104.8125" id="Company" style="stroke:#A80036;stroke-width:1.2000000000000002;" width="209.6" x="185.976" y="202.4"/><ellipse cx="266.176" cy="215.2" fill="#ADD1B2" rx="8.8" ry="8.8" style="stroke:#A80036;stroke-width:0.8000000000000002;"/><path d="M267.776,212.4 Q267.9385,212 268.126,211.8 Q268.3135,211.6 268.526,211.6 Q268.901,211.6 269.1385,211.825 Q269.376,212.05 269.376,212.575 L269.376,213.825 Q269.376,214.35 269.151,214.575 Q268.926,214.8 268.576,214.8 Q268.2635,214.8 268.0635,214.6625 Q267.8635,214.525 267.776,214.1625 Q267.7385,213.9125 267.601,213.775 Q267.351,213.5125 266.901,213.3625 Q266.451,213.2 266.001,213.2 Q265.4385,213.2 264.9635,213.425 Q264.501,213.65 264.1385,214.15 Q263.776,214.65 263.776,215.3375 L263.776,216.075 Q263.776,216.9 264.451,217.45 Q265.126,218 266.326,218 Q267.0385,218 267.5385,217.8375 Q267.826,217.75 268.151,217.4625 Q268.3635,217.3 268.476,217.25 Q268.5885,217.2 268.726,217.2 Q268.9885,217.2 269.176,217.4125 Q269.376,217.6125 269.376,217.9 Q269.376,218.175 269.101,218.5 Q268.701,218.975 268.0635,219.2375 Q267.226,219.6 266.201,219.6 Q265.001,219.6 264.0385,219.125 Q263.2635,218.75 262.7135,217.9375 Q262.176,217.125 262.176,216.1625 L262.176,215.2875 Q262.176,214.2875 262.651,213.4125 Q263.1385,212.5375 263.976,212.075 Q264.826,211.6 265.776,211.6 Q266.351,211.6 266.851,211.8 Q267.351,212 267.776,212.4 Z " fill="#000000"/><text fill="#000000" font-family="sans-serif" font-size="9.6" lengthAdjust="spacing" textLength="42.4" x="282.576" y="219.1281">Company</text><line style="stroke:#A80036;stroke-width:1.2000000000000002;" x1="186.776" x2="394.776" y1="228" y2="228"/><text fill="#000000" font-family="sans-serif" font-size="8.8" lengthAdjust="spacing" textLength="72" x="190.776" y="240.3352">-String designation</text><line style="stroke:#A80036;stroke-width:1.2000000000000002;" x1="186.776" x2="394.776" y1="245.4688" y2="245.4688"/><text fill="#000000" font-family="sans-serif" font-size="8.8" lengthAdjust="spacing" textLength="91.2" x="190.776" y="257.8039">+Company(designation)</text><text fill="#000000" font-family="sans-serif" font-size="8.8" lengthAdjust="spacing" textLength="84.8" x="190.776" y="268.8727">+getTestStore() : Test</text><text fill="#000000" font-family="sans-serif" font-size="8.8" lengthAdjust="spacing" textLength="129.6" x="190.776" y="279.9414">+getParameterStore() : Parameter</text><text fill="#000000" font-family="sans-serif" font-size="8.8" lengthAdjust="spacing" textLength="123.2" x="190.776" y="291.0102">+getTestTypeStore() : TestType</text><text fill="#000000" font-family="sans-serif" font-size="8.8" lengthAdjust="spacing" textLength="200" x="190.776" y="302.0789">+getParameterCategoryStore() : ParameterCategory</text><!--MD5=[03960189e81aa2c066c762ffabbee709]
class Receptionist--><rect codeLine="71" fill="#FEFECE" filter="url(#fx6po4vhbv477)" height="126.95" id="Receptionist" style="stroke:#A80036;stroke-width:1.2000000000000002;" width="344.8" x="794.376" y="985.6"/><ellipse cx="935.776" cy="998.4" fill="#ADD1B2" rx="8.8" ry="8.8" style="stroke:#A80036;stroke-width:0.8000000000000002;"/><path d="M937.376,995.6 Q937.5385,995.2 937.726,995 Q937.9135,994.8 938.126,994.8 Q938.501,994.8 938.7385,995.025 Q938.976,995.25 938.976,995.775 L938.976,997.025 Q938.976,997.55 938.751,997.775 Q938.526,998 938.176,998 Q937.8635,998 937.6635,997.8625 Q937.4635,997.725 937.376,997.3625 Q937.3385,997.1125 937.201,996.975 Q936.951,996.7125 936.501,996.5625 Q936.051,996.4 935.601,996.4 Q935.0385,996.4 934.5635,996.625 Q934.101,996.85 933.7385,997.35 Q933.376,997.85 933.376,998.5375 L933.376,999.275 Q933.376,1000.1 934.051,1000.65 Q934.726,1001.2 935.926,1001.2 Q936.6385,1001.2 937.1385,1001.0375 Q937.426,1000.95 937.751,1000.6625 Q937.9635,1000.5 938.076,1000.45 Q938.1885,1000.4 938.326,1000.4 Q938.5885,1000.4 938.776,1000.6125 Q938.976,1000.8125 938.976,1001.1 Q938.976,1001.375 938.701,1001.7 Q938.301,1002.175 937.6635,1002.4375 Q936.826,1002.8 935.801,1002.8 Q934.601,1002.8 933.6385,1002.325 Q932.8635,1001.95 932.3135,1001.1375 Q931.776,1000.325 931.776,999.3625 L931.776,998.4875 Q931.776,997.4875 932.251,996.6125 Q932.7385,995.7375 933.576,995.275 Q934.426,994.8 935.376,994.8 Q935.951,994.8 936.451,995 Q936.951,995.2 937.376,995.6 Z " fill="#000000"/><text fill="#000000" font-family="sans-serif" font-size="9.6" lengthAdjust="spacing" textLength="55.2" x="952.176" y="1002.3281">Receptionist</text><line style="stroke:#A80036;stroke-width:1.2000000000000002;" x1="795.176" x2="1138.376" y1="1011.2" y2="1011.2"/><text fill="#000000" font-family="sans-serif" font-size="8.8" lengthAdjust="spacing" textLength="72" x="799.176" y="1023.5352">-String employeeID</text><text fill="#000000" font-family="sans-serif" font-size="8.8" lengthAdjust="spacing" textLength="92" x="799.176" y="1034.6039">-String organizationRole</text><text fill="#000000" font-family="sans-serif" font-size="8.8" lengthAdjust="spacing" textLength="48.8" x="799.176" y="1045.6727">-String name</text><text fill="#000000" font-family="sans-serif" font-size="8.8" lengthAdjust="spacing" textLength="60" x="799.176" y="1056.7414">-String address</text><text fill="#000000" font-family="sans-serif" font-size="8.8" lengthAdjust="spacing" textLength="85.6" x="799.176" y="1067.8102">-Integer phoneNumber</text><text fill="#000000" font-family="sans-serif" font-size="8.8" lengthAdjust="spacing" textLength="47.2" x="799.176" y="1078.8789">-String email</text><text fill="#000000" font-family="sans-serif" font-size="8.8" lengthAdjust="spacing" textLength="46.4" x="799.176" y="1089.9477">-Integer soc</text><line style="stroke:#A80036;stroke-width:1.2000000000000002;" x1="795.176" x2="1138.376" y1="1095.0813" y2="1095.0813"/><text fill="#000000" font-family="sans-serif" font-size="8.8" lengthAdjust="spacing" textLength="335.2" x="799.176" y="1107.4164">+Receptionist(employeeID, organizationRole, name, address, phoneNumber, email, soc)</text><!--MD5=[5e1e8a05fc56bf5d2b271193c1a467fb]
class CreateTestController--><rect codeLine="82" fill="#FEFECE" filter="url(#fx6po4vhbv477)" height="60.5375" id="CreateTestController" style="stroke:#A80036;stroke-width:1.2000000000000002;" width="376" x="602.776" y="92.8"/><ellipse cx="741.376" cy="105.6" fill="#ADD1B2" rx="8.8" ry="8.8" style="stroke:#A80036;stroke-width:0.8000000000000002;"/><path d="M742.976,102.8 Q743.1385,102.4 743.326,102.2 Q743.5135,102 743.726,102 Q744.101,102 744.3385,102.225 Q744.576,102.45 744.576,102.975 L744.576,104.225 Q744.576,104.75 744.351,104.975 Q744.126,105.2 743.776,105.2 Q743.4635,105.2 743.2635,105.0625 Q743.0635,104.925 742.976,104.5625 Q742.9385,104.3125 742.801,104.175 Q742.551,103.9125 742.101,103.7625 Q741.651,103.6 741.201,103.6 Q740.6385,103.6 740.1635,103.825 Q739.701,104.05 739.3385,104.55 Q738.976,105.05 738.976,105.7375 L738.976,106.475 Q738.976,107.3 739.651,107.85 Q740.326,108.4 741.526,108.4 Q742.2385,108.4 742.7385,108.2375 Q743.026,108.15 743.351,107.8625 Q743.5635,107.7 743.676,107.65 Q743.7885,107.6 743.926,107.6 Q744.1885,107.6 744.376,107.8125 Q744.576,108.0125 744.576,108.3 Q744.576,108.575 744.301,108.9 Q743.901,109.375 743.2635,109.6375 Q742.426,110 741.401,110 Q740.201,110 739.2385,109.525 Q738.4635,109.15 737.9135,108.3375 Q737.376,107.525 737.376,106.5625 L737.376,105.6875 Q737.376,104.6875 737.851,103.8125 Q738.3385,102.9375 739.176,102.475 Q740.026,102 740.976,102 Q741.551,102 742.051,102.2 Q742.551,102.4 742.976,102.8 Z " fill="#000000"/><text fill="#000000" font-family="sans-serif" font-size="9.6" lengthAdjust="spacing" textLength="92" x="757.776" y="109.5281">CreateTestController</text><line style="stroke:#A80036;stroke-width:1.2000000000000002;" x1="603.576" x2="977.976" y1="118.4" y2="118.4"/><line style="stroke:#A80036;stroke-width:1.2000000000000002;" x1="603.576" x2="977.976" y1="124.8" y2="124.8"/><text fill="#000000" font-family="sans-serif" font-size="8.8" lengthAdjust="spacing" textLength="366.4" x="607.576" y="137.1352">+createTest(testCode, nhsCode, ClientID, TestTypeDesignation, CategoryID, ParameterID) : bool</text><text fill="#000000" font-family="sans-serif" font-size="8.8" lengthAdjust="spacing" textLength="70.4" x="607.576" y="148.2039">+saveTest() : bool</text><!--MD5=[92f70f89e9f3cc4b172fe964212d1829]
class CreateTestUI--><rect codeLine="87" fill="#FEFECE" filter="url(#fx6po4vhbv477)" height="38.4" id="CreateTestUI" style="stroke:#A80036;stroke-width:1.2000000000000002;" width="84" x="748.776" y="5.6"/><ellipse cx="760.776" cy="18.4" fill="#ADD1B2" rx="8.8" ry="8.8" style="stroke:#A80036;stroke-width:0.8000000000000002;"/><path d="M762.376,15.6 Q762.5385,15.2 762.726,15 Q762.9135,14.8 763.126,14.8 Q763.501,14.8 763.7385,15.025 Q763.976,15.25 763.976,15.775 L763.976,17.025 Q763.976,17.55 763.751,17.775 Q763.526,18 763.176,18 Q762.8635,18 762.6635,17.8625 Q762.4635,17.725 762.376,17.3625 Q762.3385,17.1125 762.201,16.975 Q761.951,16.7125 761.501,16.5625 Q761.051,16.4 760.601,16.4 Q760.0385,16.4 759.5635,16.625 Q759.101,16.85 758.7385,17.35 Q758.376,17.85 758.376,18.5375 L758.376,19.275 Q758.376,20.1 759.051,20.65 Q759.726,21.2 760.926,21.2 Q761.6385,21.2 762.1385,21.0375 Q762.426,20.95 762.751,20.6625 Q762.9635,20.5 763.076,20.45 Q763.1885,20.4 763.326,20.4 Q763.5885,20.4 763.776,20.6125 Q763.976,20.8125 763.976,21.1 Q763.976,21.375 763.701,21.7 Q763.301,22.175 762.6635,22.4375 Q761.826,22.8 760.801,22.8 Q759.601,22.8 758.6385,22.325 Q757.8635,21.95 757.3135,21.1375 Q756.776,20.325 756.776,19.3625 L756.776,18.4875 Q756.776,17.4875 757.251,16.6125 Q757.7385,15.7375 758.576,15.275 Q759.426,14.8 760.376,14.8 Q760.951,14.8 761.451,15 Q761.951,15.2 762.376,15.6 Z " fill="#000000"/><text fill="#000000" font-family="sans-serif" font-size="9.6" lengthAdjust="spacing" textLength="58.4" x="771.976" y="22.3281">CreateTestUI</text><line style="stroke:#A80036;stroke-width:1.2000000000000002;" x1="749.576" x2="831.976" y1="31.2" y2="31.2"/><line style="stroke:#A80036;stroke-width:1.2000000000000002;" x1="749.576" x2="831.976" y1="37.6" y2="37.6"/><!--MD5=[530b2bbbe0543e9500e772e9984c0ae9]
link CreateTestUI to CreateTestController--><path codeLine="91" d="M790.776,44.032 C790.776,56.568 790.776,73.528 790.776,88.464 " fill="none" id="CreateTestUI-to-CreateTestController" style="stroke:#A80036;stroke-width:0.8000000000000002;stroke-dasharray:7.0,7.0;"/><polygon fill="#A80036" points="790.776,92.616,793.976,85.416,790.776,88.616,787.576,85.416,790.776,92.616" style="stroke:#A80036;stroke-width:0.8000000000000002;"/><!--MD5=[9754160bfb11b7de6290787333153186]
link CreateTestController to Receptionist--><path codeLine="92" d="M936.96,153.64 C1026.944,176.232 1125.176,210.784 1125.176,254 C1125.176,254 1125.176,254 1125.176,854.8 C1125.176,904.96 1092.928,949.264 1057.536,982.792 " fill="none" id="CreateTestController-to-Receptionist" style="stroke:#A80036;stroke-width:0.8000000000000002;stroke-dasharray:7.0,7.0;"/><polygon fill="#A80036" points="1054.544,985.592,1061.9856,983.0031,1057.4625,982.8566,1057.609,978.3335,1054.544,985.592" style="stroke:#A80036;stroke-width:0.8000000000000002;"/><!--MD5=[0b2580daa188b08071b0eca08db739ca]
link CreateTestController to Test--><path codeLine="93" d="M791.888,153.768 C795.048,238.688 804.128,482.184 807.704,578.096 " fill="none" id="CreateTestController-to-Test" style="stroke:#A80036;stroke-width:0.8000000000000002;stroke-dasharray:7.0,7.0;"/><polygon fill="#A80036" points="807.856,582.272,810.7866,574.9582,807.7075,578.2748,804.391,575.1957,807.856,582.272" style="stroke:#A80036;stroke-width:0.8000000000000002;"/><!--MD5=[cde0d64425ff256a449e2daa2fff683c]
link CreateTestController to Parameter--><path codeLine="94" d="M787.32,153.64 C778.888,223.728 756.296,397.832 733.976,452 C711.992,505.352 698.616,515.912 659.576,558.4 C648.304,570.672 642.184,570.256 630.776,582.4 C594.544,620.952 590.744,635.072 560.376,678.4 C527.72,725 511.384,732.416 489.176,784.8 C454.696,866.128 440.184,970.776 434.936,1020.184 " fill="none" id="CreateTestController-to-Parameter" style="stroke:#A80036;stroke-width:0.8000000000000002;stroke-dasharray:7.0,7.0;"/><polygon fill="#A80036" points="434.52,1024.216,438.4439,1017.3835,434.9316,1020.2372,432.0779,1016.7249,434.52,1024.216" style="stroke:#A80036;stroke-width:0.8000000000000002;"/><!--MD5=[240750ce300fd88dd677d97996afe842]
link CreateTestController to ParameterCategory--><path codeLine="95" d="M978.928,153.064 C1079.144,174.056 1181.976,207.032 1181.976,254 C1181.976,254 1181.976,254 1181.976,1050 C1181.976,1080.704 1178.104,1094.872 1153.176,1112.8 C1092.488,1156.448 579.712,1186.912 402.632,1196.216 " fill="none" id="CreateTestController-to-ParameterCategory" style="stroke:#A80036;stroke-width:0.8000000000000002;stroke-dasharray:7.0,7.0;"/><polygon fill="#A80036" points="398.512,1196.432,405.8673,1199.2569,402.5067,1196.226,405.5376,1192.8654,398.512,1196.432" style="stroke:#A80036;stroke-width:0.8000000000000002;"/><!--MD5=[b9fed4734f1f538a18fdff15b36d9ce7]
link CreateTestController to TestType--><path codeLine="96" d="M602.496,132.536 C448.024,142.312 243.512,162.448 171.576,202.4 C87.832,248.904 70.68,280.472 35.576,369.6 C4.8,447.728 11.36,476.168 28.376,558.4 C30.576,569.048 34.792,580.136 39.176,589.8 " fill="none" id="CreateTestController-to-TestType" style="stroke:#A80036;stroke-width:0.8000000000000002;stroke-dasharray:7.0,7.0;"/><polygon fill="#A80036" points="40.928,593.568,40.8021,585.6899,39.2452,589.9392,34.996,588.3823,40.928,593.568" style="stroke:#A80036;stroke-width:0.8000000000000002;"/><!--MD5=[1e599a7b02367bd15a30ec01145a73b9]
link CreateTestController to Company--><path codeLine="97" d="M676.696,153.664 C593.488,175.296 481.432,204.432 399.512,225.728 " fill="none" id="CreateTestController-to-Company" style="stroke:#A80036;stroke-width:0.8000000000000002;stroke-dasharray:7.0,7.0;"/><polygon fill="#A80036" points="395.632,226.736,403.4051,228.0243,399.5037,225.731,401.797,221.8296,395.632,226.736" style="stroke:#A80036;stroke-width:0.8000000000000002;"/><!--MD5=[10af4306acabee641eea198ac06587b8]
link Test to Receptionist--><path codeLine="99" d="M864.872,654.512 C905.296,683.8 956.616,729.504 978.776,784.8 C1004.064,847.896 996.008,926.408 984.76,981.272 " fill="none" id="Test-to-Receptionist" style="stroke:#A80036;stroke-width:0.8000000000000002;"/><polygon fill="#A80036" points="983.88,985.504,988.4909,979.115,984.7017,981.5893,982.2274,977.8002,983.88,985.504" style="stroke:#A80036;stroke-width:0.8000000000000002;"/><text fill="#000000" font-family="sans-serif" font-size="10.4" lengthAdjust="spacing" textLength="60" x="996.376" y="858.3961">registered by</text><text fill="#000000" font-family="sans-serif" font-size="10.4" lengthAdjust="spacing" textLength="4" x="868.423" y="671.3338">*</text><text fill="#000000" font-family="sans-serif" font-size="10.4" lengthAdjust="spacing" textLength="5.6" x="979.6434" y="976.8444">1</text><!--MD5=[3994f36c72829dbcddd1cf7021dddf61]
link Test to Client--><path codeLine="100" d="M809.176,654.488 C809.176,687.76 809.176,738.64 809.176,780.584 " fill="none" id="Test-to-Client" style="stroke:#A80036;stroke-width:0.8000000000000002;"/><polygon fill="#A80036" points="809.176,784.616,812.376,777.416,809.176,780.616,805.976,777.416,809.176,784.616" style="stroke:#A80036;stroke-width:0.8000000000000002;"/><text fill="#000000" font-family="sans-serif" font-size="10.4" lengthAdjust="spacing" textLength="60" x="809.976" y="723.9961">requested by</text><text fill="#000000" font-family="sans-serif" font-size="10.4" lengthAdjust="spacing" textLength="4" x="804.8948" y="671.3064">*</text><text fill="#000000" font-family="sans-serif" font-size="10.4" lengthAdjust="spacing" textLength="5.6" x="803.3354" y="776.1279">1</text><!--MD5=[a0992dda039fed1bb57aff5aacace800]
link ParameterStore to Parameter--><path codeLine="102" d="M320.368,761.04 C320.048,803 323.352,869.712 343.576,923.2 C357.736,960.656 385.864,997.272 406.688,1021.128 " fill="none" id="ParameterStore-to-Parameter" style="stroke:#A80036;stroke-width:0.8000000000000002;"/><polygon fill="#A80036" points="409.448,1024.264,407.0848,1016.7477,406.8019,1021.2643,402.2853,1020.9815,409.448,1024.264" style="stroke:#A80036;stroke-width:0.8000000000000002;"/><text fill="#000000" font-family="sans-serif" font-size="10.4" lengthAdjust="spacing" textLength="94.4" x="344.376" y="858.3961">capable of analysing</text><text fill="#000000" font-family="sans-serif" font-size="10.4" lengthAdjust="spacing" textLength="5.6" x="314.1757" y="778.265">1</text><text fill="#000000" font-family="sans-serif" font-size="10.4" lengthAdjust="spacing" textLength="4" x="400.3066" y="1015.8396">*</text><!--MD5=[3eebf0e5f359806b77b30e9524c37676]
link TestTypeStore to TestType--><path codeLine="103" d="M64.248,447.024 C55.84,455.488 48.32,465.24 43.576,476 C27.408,512.704 35.992,559.944 44.392,589.504 " fill="none" id="TestTypeStore-to-TestType" style="stroke:#A80036;stroke-width:0.8000000000000002;"/><polygon fill="#A80036" points="45.528,593.376,46.584,585.568,44.408,589.536,40.44,587.36,45.528,593.376" style="stroke:#A80036;stroke-width:0.8000000000000002;"/><text fill="#000000" font-family="sans-serif" font-size="10.4" lengthAdjust="spacing" textLength="42.4" x="44.376" y="521.5961">conducts</text><text fill="#000000" font-family="sans-serif" font-size="10.4" lengthAdjust="spacing" textLength="5.6" x="51.5896" y="463.593">1</text><text fill="#000000" font-family="sans-serif" font-size="10.4" lengthAdjust="spacing" textLength="4" x="39.3731" y="584.9334">*</text><!--MD5=[d6274e3b73b5bc8f467c6cfbf5bf003e]
link ParameterCategoryStore to ParameterCategory--><path codeLine="104" d="M211.272,558.56 C218.992,598.976 229.176,662.896 229.176,718.8 C229.176,718.8 229.176,718.8 229.176,1050 C229.176,1101.096 271.872,1145.616 304.912,1172.416 " fill="none" id="ParameterCategoryStore-to-ParameterCategory" style="stroke:#A80036;stroke-width:0.8000000000000002;"/><polygon fill="#A80036" points="308.072,1174.96,304.4581,1167.9586,304.9519,1172.457,300.4534,1172.9508,308.072,1174.96" style="stroke:#A80036;stroke-width:0.8000000000000002;"/><text fill="#000000" font-family="sans-serif" font-size="10.4" lengthAdjust="spacing" textLength="31.2" x="229.976" y="858.3961">adopts</text><text fill="#000000" font-family="sans-serif" font-size="10.4" lengthAdjust="spacing" textLength="5.6" x="206.4374" y="575.7743">1</text><text fill="#000000" font-family="sans-serif" font-size="10.4" lengthAdjust="spacing" textLength="4" x="296.5018" y="1166.5141">*</text><!--MD5=[b0f4f6db8206580012ef9cd998ed01c5]
link TestStore to Test--><path codeLine="105" d="M586.088,452.056 C636.048,489.128 709.456,543.6 758.256,579.808 " fill="none" id="TestStore-to-Test" style="stroke:#A80036;stroke-width:0.8000000000000002;"/><polygon fill="#A80036" points="761.72,582.384,757.8368,575.5283,758.505,580.0042,754.0291,580.6724,761.72,582.384" style="stroke:#A80036;stroke-width:0.8000000000000002;"/><text fill="#000000" font-family="sans-serif" font-size="10.4" lengthAdjust="spacing" textLength="40" x="728.376" y="521.5961">performs</text><text fill="#000000" font-family="sans-serif" font-size="10.4" lengthAdjust="spacing" textLength="5.6" x="587.76" y="469.5542">1</text><text fill="#000000" font-family="sans-serif" font-size="10.4" lengthAdjust="spacing" textLength="4" x="749.838" y="573.6738">*</text><!--MD5=[7f6cf7f175eae0af66201860de5de971]
link Company to TestStore--><path codeLine="107" d="M371.296,307.224 C401.64,326.688 435.8,348.592 464.768,367.16 " fill="none" id="Company-to-TestStore" style="stroke:#A80036;stroke-width:0.8000000000000002;"/><polygon fill="#A80036" points="468.272,369.408,463.9358,362.8295,464.904,367.2502,460.4832,368.2183,468.272,369.408" style="stroke:#A80036;stroke-width:0.8000000000000002;"/><text fill="#000000" font-family="sans-serif" font-size="10.4" lengthAdjust="spacing" textLength="22.4" x="426.776" y="342.7961">uses</text><text fill="#000000" font-family="sans-serif" font-size="10.4" lengthAdjust="spacing" textLength="5.6" x="374.1966" y="324.4687">1</text><text fill="#000000" font-family="sans-serif" font-size="10.4" lengthAdjust="spacing" textLength="5.6" x="453.7893" y="360.9825">1</text><!--MD5=[141c3afa12b2b3c0a39ffce56dbd5f19]
link Company to TestTypeStore--><path codeLine="108" d="M190.776,307.4 C180.504,314.696 170.664,322.656 161.976,331.2 C150.392,342.6 140.448,357.336 132.664,370.984 " fill="none" id="Company-to-TestTypeStore" style="stroke:#A80036;stroke-width:0.8000000000000002;"/><polygon fill="#A80036" points="130.528,374.8,136.8403,370.0846,132.4842,371.311,131.2578,366.9548,130.528,374.8" style="stroke:#A80036;stroke-width:0.8000000000000002;"/><text fill="#000000" font-family="sans-serif" font-size="10.4" lengthAdjust="spacing" textLength="22.4" x="162.776" y="342.7961">uses</text><text fill="#000000" font-family="sans-serif" font-size="10.4" lengthAdjust="spacing" textLength="5.6" x="174.5748" y="324.2943">1</text><text fill="#000000" font-family="sans-serif" font-size="10.4" lengthAdjust="spacing" textLength="5.6" x="127.1197" y="366.0924">1</text><!--MD5=[daf3d7412afa2c7651483be0b6e971d1]
link Company to ParameterStore--><path codeLine="109" d="M294.264,307.384 C300.432,398.944 313.16,587.872 318.968,674.112 " fill="none" id="Company-to-ParameterStore" style="stroke:#A80036;stroke-width:0.8000000000000002;"/><polygon fill="#A80036" points="319.24,678.136,321.9399,670.734,318.9664,674.1454,315.5549,671.1718,319.24,678.136" style="stroke:#A80036;stroke-width:0.8000000000000002;"/><text fill="#000000" font-family="sans-serif" font-size="10.4" lengthAdjust="spacing" textLength="22.4" x="305.176" y="415.1961">uses</text><text fill="#000000" font-family="sans-serif" font-size="10.4" lengthAdjust="spacing" textLength="5.6" x="288.735" y="324.2767">1</text><text fill="#000000" font-family="sans-serif" font-size="10.4" lengthAdjust="spacing" textLength="5.6" x="312.8961" y="669.7008">1</text><!--MD5=[d53d7490e5836ca5709858d7326f212b]
link Company to ParameterCategoryStore--><path codeLine="110" d="M257.416,307.208 C253.168,315.048 249.192,323.2 245.976,331.2 C227.392,377.456 215.696,433.576 209.24,471.832 " fill="none" id="Company-to-ParameterCategoryStore" style="stroke:#A80036;stroke-width:0.8000000000000002;"/><polygon fill="#A80036" points="208.552,475.944,212.9014,469.3742,209.2152,471.9994,206.59,468.3131,208.552,475.944" style="stroke:#A80036;stroke-width:0.8000000000000002;"/><text fill="#000000" font-family="sans-serif" font-size="10.4" lengthAdjust="spacing" textLength="22.4" x="246.776" y="342.7961">uses</text><text fill="#000000" font-family="sans-serif" font-size="10.4" lengthAdjust="spacing" textLength="5.6" x="247.861" y="324.4509">1</text><text fill="#000000" font-family="sans-serif" font-size="10.4" lengthAdjust="spacing" textLength="5.6" x="203.3705" y="467.2389">1</text><!--MD5=[8aaf0efd5e2f3824be7ea3e488dcc283]
link TestType to ParameterCategory--><path codeLine="112" d="M49.632,643.36 C40.384,700.648 22.688,848.368 62.776,961.6 C98.24,1061.752 122.496,1088.648 208.376,1151.2 C230.432,1167.264 258.376,1178.384 283.064,1185.848 " fill="none" id="TestType-to-ParameterCategory" style="stroke:#A80036;stroke-width:0.8000000000000002;"/><polygon fill="#A80036" points="287,1187.016,280.998,1181.9115,283.1631,1185.8855,279.1891,1188.0506,287,1187.016" style="stroke:#A80036;stroke-width:0.8000000000000002;"/><text fill="#000000" font-family="sans-serif" font-size="10.4" lengthAdjust="spacing" textLength="144" x="63.576" y="958.7961">can measure parameters under</text><text fill="#000000" font-family="sans-serif" font-size="10.4" lengthAdjust="spacing" textLength="5.6" x="42.6702" y="660.1734">1</text><text fill="#000000" font-family="sans-serif" font-size="10.4" lengthAdjust="spacing" textLength="16" x="264.7221" y="1183.1243">1..*</text><!--MD5=[6df8849671cb880f6936e94aa30db6f9]
link Parameter to ParameterCategory--><path codeLine="113" d="M417.784,1074.304 C401.784,1100.936 376.184,1143.576 359.416,1171.488 " fill="none" id="Parameter-to-ParameterCategory" style="stroke:#A80036;stroke-width:0.8000000000000002;"/><polygon fill="#A80036" points="357.216,1175.152,363.6577,1170.615,359.2689,1171.719,358.1649,1167.3303,357.216,1175.152" style="stroke:#A80036;stroke-width:0.8000000000000002;"/><text fill="#000000" font-family="sans-serif" font-size="10.4" lengthAdjust="spacing" textLength="74.4" x="380.376" y="1148.3961">presented under</text><text fill="#000000" font-family="sans-serif" font-size="10.4" lengthAdjust="spacing" textLength="4" x="410.6212" y="1091.1449">*</text><text fill="#000000" font-family="sans-serif" font-size="10.4" lengthAdjust="spacing" textLength="5.6" x="354.1623" y="1166.3577">1</text><!--MD5=[c23963f6e403fc3ebec8dae22c30ade6]
link Test to Parameter--><path codeLine="114" d="M723.72,654.408 C665.904,682.152 591.712,725.976 544.376,784.8 C492.056,849.808 515.792,885.672 481.176,961.6 C471.872,982.016 459.456,1004.032 449.48,1020.792 " fill="none" id="Test-to-Parameter" style="stroke:#A80036;stroke-width:0.8000000000000002;"/><polygon fill="#A80036" points="447.392,1024.28,453.8403,1019.7524,449.45,1020.85,448.3524,1016.4597,447.392,1024.28" style="stroke:#A80036;stroke-width:0.8000000000000002;"/><text fill="#000000" font-family="sans-serif" font-size="10.4" lengthAdjust="spacing" textLength="92.8" x="545.176" y="858.3961">requests analysis of</text><text fill="#000000" font-family="sans-serif" font-size="10.4" lengthAdjust="spacing" textLength="16" x="694.5778" y="671.2152">1..*</text><text fill="#000000" font-family="sans-serif" font-size="10.4" lengthAdjust="spacing" textLength="4" x="446.0766" y="1015.8589">*</text><!--MD5=[7048eb257bae2750d747ca61a113ed73]
link Client to Receptionist--><path codeLine="115" d="M864.96,923.328 C880.528,942.456 897.416,963.192 912.872,982.184 " fill="none" id="Client-to-Receptionist" style="stroke:#A80036;stroke-width:0.8000000000000002;"/><polygon fill="#A80036" points="915.544,985.464,913.4873,977.8581,913.0216,982.3595,908.5202,981.8939,915.544,985.464" style="stroke:#A80036;stroke-width:0.8000000000000002;"/><text fill="#000000" font-family="sans-serif" font-size="10.4" lengthAdjust="spacing" textLength="60" x="893.976" y="958.7961">registered by</text><text fill="#000000" font-family="sans-serif" font-size="10.4" lengthAdjust="spacing" textLength="4" x="865.0778" y="939.9474">*</text><text fill="#000000" font-family="sans-serif" font-size="10.4" lengthAdjust="spacing" textLength="5.6" x="904.9629" y="977.0189">1</text><!--MD5=[af6672937baab845fd6b1cc620846c34]
@startuml
skinparam classAttributeIconSize 0
top to bottom direction


class TestStore {
  +createTest(testCode, nhsCode, ClientID, TestTypeDesignation, CategoryID, ParameterID) : Test
  +saveTest(test) : bool
  -validateTest(test) : bool
  +getTestByCode(testCode) : string
}

class Test {
  -Integer testCode
  -Integer nhsCode
  +Test(testCode, nhsCode, ClientID, TestTypeDesignation, CategoryID, ParameterID)
}

class TestTypeStore {
  +createTestType() : Parameter
  +saveTestType(tt) : bool
  -validateTestType(tt) : bool
}

class TestType {
  -String designation
}

class ParameterStore {
  +createParameter() : Parameter
  +saveParameter(p) : bool
  -validateParameter(p) : bool
  +getParameterByID(pID) : string
}

class Parameter {
  -String designation
}

class ParameterCategoryStore {
  +createParameterCategory() : ParameterCategory
  +saveParameterCategory(pc) : bool
  -validateParameterCategory(pc) : bool
  +getParameterCategoryByID(pcID) : string
}

class ParameterCategory {
  -String designation
}

class Client {
  -String name
  -Integer ccNumber
  -Integer nhsNumber
  -String birthDate
  -String sex
  -Integer TIF
  -Integer phoneNumber
  -String email
  +Client(name, ccNumber, nhsNumber, birthDate, sex, TIF, phoneNumber, email)
}

class Company {
  -String designation
  +Company(designation)
  +getTestStore() : Test
  +getParameterStore() : Parameter
  +getTestTypeStore() : TestType
  +getParameterCategoryStore() : ParameterCategory
}

class Receptionist {
  -String employeeID
  -String organizationRole
  -String name
  -String address
  -Integer phoneNumber
  -String email
  -Integer soc
  +Receptionist(employeeID, organizationRole, name, address, phoneNumber, email, soc)
}

class CreateTestController {
  +createTest(testCode, nhsCode, ClientID, TestTypeDesignation, CategoryID, ParameterID) : bool
  +saveTest() : bool
}

class CreateTestUI {

}

CreateTestUI ..> CreateTestController
CreateTestController ..> Receptionist
CreateTestController ..> Test
CreateTestController ..> Parameter
CreateTestController ..> ParameterCategory
CreateTestController ..> TestType
CreateTestController ..> Company

Test "*" - -> "1" Receptionist : registered by
Test "*" - -> "1" Client : requested by

ParameterStore "1" - -> "*" Parameter : capable of analysing
TestTypeStore "1" - -> "*" TestType : conducts
ParameterCategoryStore "1" - -> "*" ParameterCategory : adopts
TestStore "1" - -> "*" Test : performs

Company "1" - -> "1" TestStore : uses
Company "1" - -> "1" TestTypeStore : uses
Company "1" - -> "1" ParameterStore : uses
Company "1" - -> "1" ParameterCategoryStore : uses

TestType "1" - -> "1..*" ParameterCategory : can measure parameters under
Parameter "*" - -> "1" ParameterCategory : presented under
Test "1..*" - - -> "*" Parameter : requests analysis of
Client "*" - -> "1" Receptionist : registered by

@enduml

PlantUML version 1.2021.5(Sun Apr 25 12:20:28 BST 2021)
(GPL source distribution)
Java Runtime: OpenJDK Runtime Environment
JVM: Dynamic Code Evolution 64-Bit Server VM
Default Encoding: Cp1252
Language: pt
Country: PT
--></g></svg>