<?xml version="1.0" encoding="UTF-8" standalone="no"?><svg xmlns="http://www.w3.org/2000/svg" xmlns:xlink="http://www.w3.org/1999/xlink" contentScriptType="application/ecmascript" contentStyleType="text/css" height="744px" preserveAspectRatio="none" style="width:577px;height:744px;background:#FFFFFF;" version="1.1" viewBox="0 0 577 744" width="577px" zoomAndPan="magnify"><defs><filter height="300%" id="fz3xfxvnq11ob" width="300%" x="-1" y="-1"><feGaussianBlur result="blurOut" stdDeviation="2.0"/><feColorMatrix in="blurOut" result="blurOut2" type="matrix" values="0 0 0 0 0 0 0 0 0 0 0 0 0 0 0 0 0 0 .4 0"/><feOffset dx="4.0" dy="4.0" in="blurOut2" result="blurOut3"/><feBlend in="SourceGraphic" in2="blurOut3" mode="normal"/></filter></defs><g><!--MD5=[df38be88ccee13e832d6fafd6288a4ca]
class Test--><rect codeLine="3" fill="#FEFECE" filter="url(#fz3xfxvnq11ob)" height="172.5234" id="Test" style="stroke:#A80036;stroke-width:1.5;" width="174" x="55" y="558"/><ellipse cx="125.75" cy="574" fill="#ADD1B2" rx="11" ry="11" style="stroke:#A80036;stroke-width:1.0;"/><path d="M127.75,570.5 Q127.9531,570 128.1875,569.75 Q128.4219,569.5 128.6875,569.5 Q129.1563,569.5 129.4531,569.7813 Q129.75,570.0625 129.75,570.7188 L129.75,572.2813 Q129.75,572.9375 129.4688,573.2188 Q129.1875,573.5 128.75,573.5 Q128.3594,573.5 128.1094,573.3281 Q127.8594,573.1563 127.75,572.7031 Q127.7031,572.3906 127.5313,572.2188 Q127.2188,571.8906 126.6563,571.7031 Q126.0938,571.5 125.5313,571.5 Q124.8281,571.5 124.2344,571.7813 Q123.6563,572.0625 123.2031,572.6875 Q122.75,573.3125 122.75,574.1719 L122.75,575.0938 Q122.75,576.125 123.5938,576.8125 Q124.4375,577.5 125.9375,577.5 Q126.8281,577.5 127.4531,577.2969 Q127.8125,577.1875 128.2188,576.8281 Q128.4844,576.625 128.625,576.5625 Q128.7656,576.5 128.9375,576.5 Q129.2656,576.5 129.5,576.7656 Q129.75,577.0156 129.75,577.375 Q129.75,577.7188 129.4063,578.125 Q128.9063,578.7188 128.1094,579.0469 Q127.0625,579.5 125.7813,579.5 Q124.2813,579.5 123.0781,578.9063 Q122.1094,578.4375 121.4219,577.4219 Q120.75,576.4063 120.75,575.2031 L120.75,574.1094 Q120.75,572.8594 121.3438,571.7656 Q121.9531,570.6719 123,570.0938 Q124.0625,569.5 125.25,569.5 Q125.9688,569.5 126.5938,569.75 Q127.2188,570 127.75,570.5 Z " fill="#000000"/><text fill="#000000" font-family="sans-serif" font-size="12" lengthAdjust="spacing" textLength="24" x="146.25" y="578.9102">Test</text><line style="stroke:#A80036;stroke-width:1.5;" x1="56" x2="228" y1="590" y2="590"/><text fill="#000000" font-family="sans-serif" font-size="11" lengthAdjust="spacing" textLength="70" x="61" y="605.4189">-long testCode</text><text fill="#000000" font-family="sans-serif" font-size="11" lengthAdjust="spacing" textLength="78" x="61" y="619.2549">-String nhsCode</text><text fill="#000000" font-family="sans-serif" font-size="11" lengthAdjust="spacing" textLength="109" x="61" y="633.0908">-String testDesignation</text><text fill="#000000" font-family="sans-serif" font-size="11" lengthAdjust="spacing" textLength="76" x="61" y="646.9268">-long ccNumber</text><text fill="#000000" font-family="sans-serif" font-size="11" lengthAdjust="spacing" textLength="77" x="61" y="660.7627">-String testType</text><text fill="#000000" font-family="sans-serif" font-size="11" lengthAdjust="spacing" textLength="162" x="61" y="674.5986">-ArrayList parameterCategoryList</text><text fill="#000000" font-family="sans-serif" font-size="11" lengthAdjust="spacing" textLength="118" x="61" y="688.4346">-ArrayList parameterList</text><text fill="#000000" font-family="sans-serif" font-size="11" lengthAdjust="spacing" textLength="59" x="61" y="702.2705">-String state</text><text fill="#000000" font-family="sans-serif" font-size="11" lengthAdjust="spacing" textLength="50" x="61" y="716.1064">-Date date</text><line style="stroke:#A80036;stroke-width:1.5;" x1="56" x2="228" y1="722.5234" y2="722.5234"/><!--MD5=[ed6624c6556d5e7b1bd23032162d20b7]
class Client--><rect codeLine="15" fill="#FEFECE" filter="url(#fz3xfxvnq11ob)" height="158.6875" id="Client" style="stroke:#A80036;stroke-width:1.5;" width="128" x="341" y="565"/><ellipse cx="384.8" cy="581" fill="#ADD1B2" rx="11" ry="11" style="stroke:#A80036;stroke-width:1.0;"/><path d="M386.8,577.5 Q387.0031,577 387.2375,576.75 Q387.4719,576.5 387.7375,576.5 Q388.2063,576.5 388.5031,576.7813 Q388.8,577.0625 388.8,577.7188 L388.8,579.2813 Q388.8,579.9375 388.5188,580.2188 Q388.2375,580.5 387.8,580.5 Q387.4094,580.5 387.1594,580.3281 Q386.9094,580.1563 386.8,579.7031 Q386.7531,579.3906 386.5813,579.2188 Q386.2688,578.8906 385.7063,578.7031 Q385.1438,578.5 384.5813,578.5 Q383.8781,578.5 383.2844,578.7813 Q382.7063,579.0625 382.2531,579.6875 Q381.8,580.3125 381.8,581.1719 L381.8,582.0938 Q381.8,583.125 382.6438,583.8125 Q383.4875,584.5 384.9875,584.5 Q385.8781,584.5 386.5031,584.2969 Q386.8625,584.1875 387.2688,583.8281 Q387.5344,583.625 387.675,583.5625 Q387.8156,583.5 387.9875,583.5 Q388.3156,583.5 388.55,583.7656 Q388.8,584.0156 388.8,584.375 Q388.8,584.7188 388.4563,585.125 Q387.9563,585.7188 387.1594,586.0469 Q386.1125,586.5 384.8313,586.5 Q383.3313,586.5 382.1281,585.9063 Q381.1594,585.4375 380.4719,584.4219 Q379.8,583.4063 379.8,582.2031 L379.8,581.1094 Q379.8,579.8594 380.3938,578.7656 Q381.0031,577.6719 382.05,577.0938 Q383.1125,576.5 384.3,576.5 Q385.0188,576.5 385.6438,576.75 Q386.2688,577 386.8,577.5 Z " fill="#000000"/><text fill="#000000" font-family="sans-serif" font-size="12" lengthAdjust="spacing" textLength="32" x="405.2" y="585.9102">Client</text><line style="stroke:#A80036;stroke-width:1.5;" x1="342" x2="468" y1="597" y2="597"/><text fill="#000000" font-family="sans-serif" font-size="11" lengthAdjust="spacing" textLength="61" x="347" y="612.4189">-String name</text><text fill="#000000" font-family="sans-serif" font-size="11" lengthAdjust="spacing" textLength="116" x="347" y="626.2549">-long citizencardnumber</text><text fill="#000000" font-family="sans-serif" font-size="11" lengthAdjust="spacing" textLength="89" x="347" y="640.0908">-String nhsnumber</text><text fill="#000000" font-family="sans-serif" font-size="11" lengthAdjust="spacing" textLength="71" x="347" y="653.9268">-Date birthdate</text><text fill="#000000" font-family="sans-serif" font-size="11" lengthAdjust="spacing" textLength="53" x="347" y="667.7627">-String sex</text><text fill="#000000" font-family="sans-serif" font-size="11" lengthAdjust="spacing" textLength="38" x="347" y="681.5986">-long tin</text><text fill="#000000" font-family="sans-serif" font-size="11" lengthAdjust="spacing" textLength="93" x="347" y="695.4346">-long phonenumber</text><text fill="#000000" font-family="sans-serif" font-size="11" lengthAdjust="spacing" textLength="55" x="347" y="709.2705">-Email email</text><line style="stroke:#A80036;stroke-width:1.5;" x1="342" x2="468" y1="715.6875" y2="715.6875"/><!--MD5=[012ee2a8bf3ae2b319009b06f951c2e5]
class ClinicalChemistryTechnologist--><rect codeLine="26" fill="#FEFECE" filter="url(#fz3xfxvnq11ob)" height="144.8516" id="ClinicalChemistryTechnologist" style="stroke:#A80036;stroke-width:1.5;" width="200" x="7" y="307.5"/><ellipse cx="22" cy="323.5" fill="#ADD1B2" rx="11" ry="11" style="stroke:#A80036;stroke-width:1.0;"/><path d="M24,320 Q24.2031,319.5 24.4375,319.25 Q24.6719,319 24.9375,319 Q25.4063,319 25.7031,319.2813 Q26,319.5625 26,320.2188 L26,321.7813 Q26,322.4375 25.7188,322.7188 Q25.4375,323 25,323 Q24.6094,323 24.3594,322.8281 Q24.1094,322.6563 24,322.2031 Q23.9531,321.8906 23.7813,321.7188 Q23.4688,321.3906 22.9063,321.2031 Q22.3438,321 21.7813,321 Q21.0781,321 20.4844,321.2813 Q19.9063,321.5625 19.4531,322.1875 Q19,322.8125 19,323.6719 L19,324.5938 Q19,325.625 19.8438,326.3125 Q20.6875,327 22.1875,327 Q23.0781,327 23.7031,326.7969 Q24.0625,326.6875 24.4688,326.3281 Q24.7344,326.125 24.875,326.0625 Q25.0156,326 25.1875,326 Q25.5156,326 25.75,326.2656 Q26,326.5156 26,326.875 Q26,327.2188 25.6563,327.625 Q25.1563,328.2188 24.3594,328.5469 Q23.3125,329 22.0313,329 Q20.5313,329 19.3281,328.4063 Q18.3594,327.9375 17.6719,326.9219 Q17,325.9063 17,324.7031 L17,323.6094 Q17,322.3594 17.5938,321.2656 Q18.2031,320.1719 19.25,319.5938 Q20.3125,319 21.5,319 Q22.2188,319 22.8438,319.25 Q23.4688,319.5 24,320 Z " fill="#000000"/><text fill="#000000" font-family="sans-serif" font-size="12" lengthAdjust="spacing" textLength="168" x="36" y="328.4102">ClinicalChemistryTechnologist</text><line style="stroke:#A80036;stroke-width:1.5;" x1="8" x2="206" y1="339.5" y2="339.5"/><text fill="#000000" font-family="sans-serif" font-size="11" lengthAdjust="spacing" textLength="90" x="13" y="354.9189">-String employeeID</text><text fill="#000000" font-family="sans-serif" font-size="11" lengthAdjust="spacing" textLength="115" x="13" y="368.7549">-String organizationRole</text><text fill="#000000" font-family="sans-serif" font-size="11" lengthAdjust="spacing" textLength="61" x="13" y="382.5908">-String name</text><text fill="#000000" font-family="sans-serif" font-size="11" lengthAdjust="spacing" textLength="75" x="13" y="396.4268">-String address</text><text fill="#000000" font-family="sans-serif" font-size="11" lengthAdjust="spacing" textLength="107" x="13" y="410.2627">-Integer phoneNumber</text><text fill="#000000" font-family="sans-serif" font-size="11" lengthAdjust="spacing" textLength="59" x="13" y="424.0986">-String email</text><text fill="#000000" font-family="sans-serif" font-size="11" lengthAdjust="spacing" textLength="58" x="13" y="437.9346">-Integer soc</text><line style="stroke:#A80036;stroke-width:1.5;" x1="8" x2="206" y1="444.3516" y2="444.3516"/><!--MD5=[03960189e81aa2c066c762ffabbee709]
class Receptionist--><rect codeLine="36" fill="#FEFECE" filter="url(#fz3xfxvnq11ob)" height="200.1953" id="Receptionist" style="stroke:#A80036;stroke-width:1.5;" width="179" x="384.5" y="280"/><ellipse cx="435.25" cy="296" fill="#ADD1B2" rx="11" ry="11" style="stroke:#A80036;stroke-width:1.0;"/><path d="M437.25,292.5 Q437.4531,292 437.6875,291.75 Q437.9219,291.5 438.1875,291.5 Q438.6563,291.5 438.9531,291.7813 Q439.25,292.0625 439.25,292.7188 L439.25,294.2813 Q439.25,294.9375 438.9688,295.2188 Q438.6875,295.5 438.25,295.5 Q437.8594,295.5 437.6094,295.3281 Q437.3594,295.1563 437.25,294.7031 Q437.2031,294.3906 437.0313,294.2188 Q436.7188,293.8906 436.1563,293.7031 Q435.5938,293.5 435.0313,293.5 Q434.3281,293.5 433.7344,293.7813 Q433.1563,294.0625 432.7031,294.6875 Q432.25,295.3125 432.25,296.1719 L432.25,297.0938 Q432.25,298.125 433.0938,298.8125 Q433.9375,299.5 435.4375,299.5 Q436.3281,299.5 436.9531,299.2969 Q437.3125,299.1875 437.7188,298.8281 Q437.9844,298.625 438.125,298.5625 Q438.2656,298.5 438.4375,298.5 Q438.7656,298.5 439,298.7656 Q439.25,299.0156 439.25,299.375 Q439.25,299.7188 438.9063,300.125 Q438.4063,300.7188 437.6094,301.0469 Q436.5625,301.5 435.2813,301.5 Q433.7813,301.5 432.5781,300.9063 Q431.6094,300.4375 430.9219,299.4219 Q430.25,298.4063 430.25,297.2031 L430.25,296.1094 Q430.25,294.8594 430.8438,293.7656 Q431.4531,292.6719 432.5,292.0938 Q433.5625,291.5 434.75,291.5 Q435.4688,291.5 436.0938,291.75 Q436.7188,292 437.25,292.5 Z " fill="#000000"/><text fill="#000000" font-family="sans-serif" font-size="12" lengthAdjust="spacing" textLength="69" x="455.75" y="300.9102">Receptionist</text><line style="stroke:#A80036;stroke-width:1.5;" x1="385.5" x2="562.5" y1="312" y2="312"/><text fill="#000000" font-family="sans-serif" font-size="11" lengthAdjust="spacing" textLength="90" x="390.5" y="327.4189">-String employeeID</text><text fill="#000000" font-family="sans-serif" font-size="11" lengthAdjust="spacing" textLength="115" x="390.5" y="341.2549">-String organizationRole</text><text fill="#000000" font-family="sans-serif" font-size="11" lengthAdjust="spacing" textLength="61" x="390.5" y="355.0908">-String name</text><text fill="#000000" font-family="sans-serif" font-size="11" lengthAdjust="spacing" textLength="75" x="390.5" y="368.9268">-String address</text><text fill="#000000" font-family="sans-serif" font-size="11" lengthAdjust="spacing" textLength="107" x="390.5" y="382.7627">-Integer phoneNumber</text><text fill="#000000" font-family="sans-serif" font-size="11" lengthAdjust="spacing" textLength="59" x="390.5" y="396.5986">-String email</text><text fill="#000000" font-family="sans-serif" font-size="11" lengthAdjust="spacing" textLength="58" x="390.5" y="410.4346">-Integer soc</text><line style="stroke:#A80036;stroke-width:1.5;" x1="385.5" x2="562.5" y1="416.8516" y2="416.8516"/><text fill="#000000" font-family="sans-serif" font-size="11" lengthAdjust="spacing" textLength="92" x="390.5" y="432.2705">+getTests() : string</text><text fill="#000000" font-family="sans-serif" font-size="11" lengthAdjust="spacing" textLength="167" x="390.5" y="446.1064">+getTestByCode(testCode) : string</text><text fill="#000000" font-family="sans-serif" font-size="11" lengthAdjust="spacing" textLength="97" x="390.5" y="459.9424">+getClients() : string</text><text fill="#000000" font-family="sans-serif" font-size="11" lengthAdjust="spacing" textLength="148" x="390.5" y="473.7783">+getClientByID(ClientID) : string</text><!--MD5=[ddcb8c0799d680b2c2bd26a8cec68c3e]
class ConsultHistoricalTestsController--><rect codeLine="50" fill="#FEFECE" filter="url(#fz3xfxvnq11ob)" height="103.3438" id="ConsultHistoricalTestsController" style="stroke:#A80036;stroke-width:1.5;" width="212" x="189" y="116"/><ellipse cx="204" cy="132" fill="#ADD1B2" rx="11" ry="11" style="stroke:#A80036;stroke-width:1.0;"/><path d="M206,128.5 Q206.2031,128 206.4375,127.75 Q206.6719,127.5 206.9375,127.5 Q207.4063,127.5 207.7031,127.7813 Q208,128.0625 208,128.7188 L208,130.2813 Q208,130.9375 207.7188,131.2188 Q207.4375,131.5 207,131.5 Q206.6094,131.5 206.3594,131.3281 Q206.1094,131.1563 206,130.7031 Q205.9531,130.3906 205.7813,130.2188 Q205.4688,129.8906 204.9063,129.7031 Q204.3438,129.5 203.7813,129.5 Q203.0781,129.5 202.4844,129.7813 Q201.9063,130.0625 201.4531,130.6875 Q201,131.3125 201,132.1719 L201,133.0938 Q201,134.125 201.8438,134.8125 Q202.6875,135.5 204.1875,135.5 Q205.0781,135.5 205.7031,135.2969 Q206.0625,135.1875 206.4688,134.8281 Q206.7344,134.625 206.875,134.5625 Q207.0156,134.5 207.1875,134.5 Q207.5156,134.5 207.75,134.7656 Q208,135.0156 208,135.375 Q208,135.7188 207.6563,136.125 Q207.1563,136.7188 206.3594,137.0469 Q205.3125,137.5 204.0313,137.5 Q202.5313,137.5 201.3281,136.9063 Q200.3594,136.4375 199.6719,135.4219 Q199,134.4063 199,133.2031 L199,132.1094 Q199,130.8594 199.5938,129.7656 Q200.2031,128.6719 201.25,128.0938 Q202.3125,127.5 203.5,127.5 Q204.2188,127.5 204.8438,127.75 Q205.4688,128 206,128.5 Z " fill="#000000"/><text fill="#000000" font-family="sans-serif" font-size="12" lengthAdjust="spacing" textLength="180" x="218" y="136.9102">ConsultHistoricalTestsController</text><line style="stroke:#A80036;stroke-width:1.5;" x1="190" x2="400" y1="148" y2="148"/><line style="stroke:#A80036;stroke-width:1.5;" x1="190" x2="400" y1="156" y2="156"/><text fill="#000000" font-family="sans-serif" font-size="11" lengthAdjust="spacing" textLength="92" x="195" y="171.4189">+getTests() : string</text><text fill="#000000" font-family="sans-serif" font-size="11" lengthAdjust="spacing" textLength="167" x="195" y="185.2549">+getTestByCode(testCode) : string</text><text fill="#000000" font-family="sans-serif" font-size="11" lengthAdjust="spacing" textLength="97" x="195" y="199.0908">+getClients() : string</text><text fill="#000000" font-family="sans-serif" font-size="11" lengthAdjust="spacing" textLength="148" x="195" y="212.9268">+getClientByID(ClientID) : string</text><!--MD5=[17e6a3a90de8af2ef73594cf1c51626d]
class ConsultHistoricalTestsUI--><rect codeLine="57" fill="#FEFECE" filter="url(#fz3xfxvnq11ob)" height="48" id="ConsultHistoricalTestsUI" style="stroke:#A80036;stroke-width:1.5;" width="170" x="210" y="7"/><ellipse cx="225" cy="23" fill="#ADD1B2" rx="11" ry="11" style="stroke:#A80036;stroke-width:1.0;"/><path d="M227,19.5 Q227.2031,19 227.4375,18.75 Q227.6719,18.5 227.9375,18.5 Q228.4063,18.5 228.7031,18.7813 Q229,19.0625 229,19.7188 L229,21.2813 Q229,21.9375 228.7188,22.2188 Q228.4375,22.5 228,22.5 Q227.6094,22.5 227.3594,22.3281 Q227.1094,22.1563 227,21.7031 Q226.9531,21.3906 226.7813,21.2188 Q226.4688,20.8906 225.9063,20.7031 Q225.3438,20.5 224.7813,20.5 Q224.0781,20.5 223.4844,20.7813 Q222.9063,21.0625 222.4531,21.6875 Q222,22.3125 222,23.1719 L222,24.0938 Q222,25.125 222.8438,25.8125 Q223.6875,26.5 225.1875,26.5 Q226.0781,26.5 226.7031,26.2969 Q227.0625,26.1875 227.4688,25.8281 Q227.7344,25.625 227.875,25.5625 Q228.0156,25.5 228.1875,25.5 Q228.5156,25.5 228.75,25.7656 Q229,26.0156 229,26.375 Q229,26.7188 228.6563,27.125 Q228.1563,27.7188 227.3594,28.0469 Q226.3125,28.5 225.0313,28.5 Q223.5313,28.5 222.3281,27.9063 Q221.3594,27.4375 220.6719,26.4219 Q220,25.4063 220,24.2031 L220,23.1094 Q220,21.8594 220.5938,20.7656 Q221.2031,19.6719 222.25,19.0938 Q223.3125,18.5 224.5,18.5 Q225.2188,18.5 225.8438,18.75 Q226.4688,19 227,19.5 Z " fill="#000000"/><text fill="#000000" font-family="sans-serif" font-size="12" lengthAdjust="spacing" textLength="138" x="239" y="27.9102">ConsultHistoricalTestsUI</text><line style="stroke:#A80036;stroke-width:1.5;" x1="211" x2="379" y1="39" y2="39"/><line style="stroke:#A80036;stroke-width:1.5;" x1="211" x2="379" y1="47" y2="47"/><!--MD5=[93b2b78327238b63684f7aad1cee7cc0]
link ConsultHistoricalTestsUI to ConsultHistoricalTestsController--><path codeLine="61" d="M295,55.12 C295,70.36 295,91.02 295,110.4 " fill="none" id="ConsultHistoricalTestsUI-to-ConsultHistoricalTestsController" style="stroke:#A80036;stroke-width:1.0;stroke-dasharray:7.0,7.0;"/><polygon fill="#A80036" points="295,115.83,299,106.83,295,110.83,291,106.83,295,115.83" style="stroke:#A80036;stroke-width:1.0;"/><!--MD5=[d585d8792d7a6096d6fe3d0ed1d6545e]
link ConsultHistoricalTestsController to Receptionist--><path codeLine="62" d="M338.1,219.19 C352.65,236.3 369.46,256.06 386.19,275.73 " fill="none" id="ConsultHistoricalTestsController-to-Receptionist" style="stroke:#A80036;stroke-width:1.0;stroke-dasharray:7.0,7.0;"/><polygon fill="#A80036" points="389.53,279.67,386.7479,270.2223,386.2913,275.8607,380.6529,275.4041,389.53,279.67" style="stroke:#A80036;stroke-width:1.0;"/><!--MD5=[4bddeb47d3006959f65604d0e66fb499]
link ConsultHistoricalTestsController to Client--><path codeLine="63" d="M306.7,219.22 C320.93,280.87 345.69,388.08 367,480 C373.01,505.95 379.58,534.21 385.53,559.83 " fill="none" id="ConsultHistoricalTestsController-to-Client" style="stroke:#A80036;stroke-width:1.0;stroke-dasharray:7.0,7.0;"/><polygon fill="#A80036" points="386.72,564.92,388.5855,555.2494,385.5915,560.049,380.792,557.055,386.72,564.92" style="stroke:#A80036;stroke-width:1.0;"/><!--MD5=[8c94a4b48289c7409208eaba12ad7943]
link ConsultHistoricalTestsController to Test--><path codeLine="64" d="M287.31,219.19 C276.95,281.73 256.03,390.72 224,480 C215.25,504.38 203.76,529.82 192.15,553.17 " fill="none" id="ConsultHistoricalTestsController-to-Test" style="stroke:#A80036;stroke-width:1.0;stroke-dasharray:7.0,7.0;"/><polygon fill="#A80036" points="189.83,557.81,197.4246,551.5393,192.0603,553.335,190.2646,547.9707,189.83,557.81" style="stroke:#A80036;stroke-width:1.0;"/><!--MD5=[2b60272c6c66c143dcf57e5571093299]
link ConsultHistoricalTestsController to ClinicalChemistryTechnologist--><path codeLine="65" d="M249.73,219.19 C227.17,244.45 199.42,275.51 174.42,303.51 " fill="none" id="ConsultHistoricalTestsController-to-ClinicalChemistryTechnologist" style="stroke:#A80036;stroke-width:1.0;stroke-dasharray:7.0,7.0;"/><polygon fill="#A80036" points="171.07,307.27,180.0476,303.2199,174.3998,303.5401,174.0797,297.8923,171.07,307.27" style="stroke:#A80036;stroke-width:1.0;"/><!--MD5=[3994f36c72829dbcddd1cf7021dddf61]
link Test to Client--><path codeLine="66" d="M229.21,644.5 C263.84,644.5 303.11,644.5 335.74,644.5 " fill="none" id="Test-to-Client" style="stroke:#A80036;stroke-width:1.0;"/><polygon fill="#A80036" points="340.92,644.5,331.92,640.5,335.92,644.5,331.92,648.5,340.92,644.5" style="stroke:#A80036;stroke-width:1.0;"/><text fill="#000000" font-family="sans-serif" font-size="13" lengthAdjust="spacing" textLength="75" x="247.5" y="637.9951">requested by</text><text fill="#000000" font-family="sans-serif" font-size="13" lengthAdjust="spacing" textLength="5" x="236.9195" y="641.3432">*</text><text fill="#000000" font-family="sans-serif" font-size="13" lengthAdjust="spacing" textLength="5" x="327.8056" y="641.0606">*</text><!--MD5=[6a35157f4c730bda767e7c9f1b8b7f73]
link Receptionist to Client--><path codeLine="67" d="M447.91,480.24 C441.01,506.51 433.62,534.6 426.96,559.95 " fill="none" id="Receptionist-to-Client" style="stroke:#A80036;stroke-width:1.0;"/><polygon fill="#A80036" points="425.64,564.98,431.7999,557.2952,426.9132,560.1448,424.0636,555.2581,425.64,564.98" style="stroke:#A80036;stroke-width:1.0;"/><text fill="#000000" font-family="sans-serif" font-size="13" lengthAdjust="spacing" textLength="50" x="440" y="524.4951">registers</text><text fill="#000000" font-family="sans-serif" font-size="13" lengthAdjust="spacing" textLength="7" x="438.737" y="501.6897">1</text><text fill="#000000" font-family="sans-serif" font-size="13" lengthAdjust="spacing" textLength="5" x="422.369" y="554.165">*</text><!--MD5=[c2cdc35a6c3e9c49df1db829c2169a58]
link ClinicalChemistryTechnologist to Test--><path codeLine="68" d="M116.56,452.73 C120.68,483.56 125.53,519.96 129.89,552.65 " fill="none" id="ClinicalChemistryTechnologist-to-Test" style="stroke:#A80036;stroke-width:1.0;"/><polygon fill="#A80036" points="130.58,557.87,133.3626,548.4224,129.9229,552.9134,125.432,549.4737,130.58,557.87" style="stroke:#A80036;stroke-width:1.0;"/><text fill="#000000" font-family="sans-serif" font-size="13" lengthAdjust="spacing" textLength="31" x="128" y="524.4951">views</text><text fill="#000000" font-family="sans-serif" font-size="13" lengthAdjust="spacing" textLength="7" x="110.1376" y="473.9435">1</text><text fill="#000000" font-family="sans-serif" font-size="13" lengthAdjust="spacing" textLength="5" x="124.3837" y="547.2684">*</text><!--MD5=[ff5475d9e5e4a5f7dc0855e415199008]
@startuml
skinparam classAttributeIconSize 0

class Test {
  -long testCode
  -String nhsCode
  -String testDesignation
  -long ccNumber
  -String testType
  -ArrayList parameterCategoryList
  -ArrayList parameterList
  -String state
  -Date date
}

class Client {
  -String name
  -long citizencardnumber
  -String nhsnumber
  -Date birthdate
  -String sex
  -long tin
  -long phonenumber
  -Email email
}

class ClinicalChemistryTechnologist {
  -String employeeID
  -String organizationRole
  -String name
  -String address
  -Integer phoneNumber
  -String email
  -Integer soc
}

class Receptionist {
  -String employeeID
  -String organizationRole
  -String name
  -String address
  -Integer phoneNumber
  -String email
  -Integer soc
  +getTests() : string
  +getTestByCode(testCode) : string
  +getClients() : string
  +getClientByID(ClientID) : string
}

class ConsultHistoricalTestsController {
  +getTests() : string
  +getTestByCode(testCode) : string
  +getClients() : string
  +getClientByID(ClientID) : string
}

class ConsultHistoricalTestsUI {

}

ConsultHistoricalTestsUI ..> ConsultHistoricalTestsController
ConsultHistoricalTestsController ..> Receptionist
ConsultHistoricalTestsController ..> Client
ConsultHistoricalTestsController ..> Test
ConsultHistoricalTestsController ..> ClinicalChemistryTechnologist
Test "*" -> "*" Client : requested by
Receptionist "1" - -> "*" Client : registers
ClinicalChemistryTechnologist "1" - -> "*" Test : views

@enduml

PlantUML version 1.2021.7(Sun May 23 13:40:07 BST 2021)
(GPL source distribution)
Java Runtime: OpenJDK Runtime Environment
JVM: Dynamic Code Evolution 64-Bit Server VM
Default Encoding: Cp1252
Language: en
Country: GB
--></g></svg>