<?xml version="1.0" encoding="UTF-8" standalone="no"?><svg xmlns="http://www.w3.org/2000/svg" xmlns:xlink="http://www.w3.org/1999/xlink" contentScriptType="application/ecmascript" contentStyleType="text/css" height="644px" preserveAspectRatio="none" style="width:434px;height:644px;" version="1.1" viewBox="0 0 434 644" width="434px" zoomAndPan="magnify"><defs><filter height="300%" id="ff146ey8lz3ar" width="300%" x="-1" y="-1"><feGaussianBlur result="blurOut" stdDeviation="2.0"/><feColorMatrix in="blurOut" result="blurOut2" type="matrix" values="0 0 0 0 0 0 0 0 0 0 0 0 0 0 0 0 0 0 .4 0"/><feOffset dx="4.0" dy="4.0" in="blurOut2" result="blurOut3"/><feBlend in="SourceGraphic" in2="blurOut3" mode="normal"/></filter></defs><g><ellipse cx="193.5" cy="20" fill="#000000" filter="url(#ff146ey8lz3ar)" rx="10" ry="10" style="stroke:none;stroke-width:1.0;"/><rect fill="#FEFECE" filter="url(#ff146ey8lz3ar)" height="35.0938" rx="12.5" ry="12.5" style="stroke:#A80036;stroke-width:1.5;" width="365" x="11" y="50"/><text fill="#000000" font-family="sans-serif" font-size="12" lengthAdjust="spacing" textLength="345" x="21" y="72.457">Administrator asks to specify a new parameter and categorize it</text><rect fill="#FEFECE" filter="url(#ff146ey8lz3ar)" height="35.0938" rx="12.5" ry="12.5" style="stroke:#A80036;stroke-width:1.5;" width="241" x="73" y="105.0938"/><text fill="#000000" font-family="sans-serif" font-size="12" lengthAdjust="spacing" textLength="221" x="83" y="127.5508">System requests parameter designation</text><rect fill="#FEFECE" filter="url(#ff146ey8lz3ar)" height="35.0938" rx="12.5" ry="12.5" style="stroke:#A80036;stroke-width:1.5;" width="222" x="82.5" y="209.1055"/><text fill="#000000" font-family="sans-serif" font-size="12" lengthAdjust="spacing" textLength="202" x="92.5" y="231.5625">System shows parameter categories</text><rect fill="#FEFECE" filter="url(#ff146ey8lz3ar)" height="35.0938" rx="12.5" ry="12.5" style="stroke:#A80036;stroke-width:1.5;" width="360" x="13.5" y="313.1172"/><text fill="#000000" font-family="sans-serif" font-size="12" lengthAdjust="spacing" textLength="340" x="23.5" y="335.5742">System shows existing parameters and requests confirmation</text><rect fill="#FEFECE" filter="url(#ff146ey8lz3ar)" height="35.0938" rx="12.5" ry="12.5" style="stroke:#A80036;stroke-width:1.5;" width="336" x="25.5" y="420.7578"/><text fill="#000000" font-family="sans-serif" font-size="12" lengthAdjust="spacing" textLength="316" x="35.5" y="443.2148">System saves information and informs operation success</text><polygon fill="#FEFECE" filter="url(#ff146ey8lz3ar)" points="139,371.8398,248,371.8398,260,383.8398,248,395.8398,139,395.8398,127,383.8398,139,371.8398" style="stroke:#A80036;stroke-width:1.5;"/><text fill="#000000" font-family="sans-serif" font-size="11" lengthAdjust="spacing" textLength="19" x="197.5" y="407.2588">true</text><text fill="#000000" font-family="sans-serif" font-size="11" lengthAdjust="spacing" textLength="109" x="139" y="388.3408">Administrator confirms</text><text fill="#000000" font-family="sans-serif" font-size="11" lengthAdjust="spacing" textLength="24" x="260" y="381.4229">false</text><polygon fill="#FEFECE" filter="url(#ff146ey8lz3ar)" points="193.5,475.8516,205.5,487.8516,193.5,499.8516,181.5,487.8516,193.5,475.8516" style="stroke:#A80036;stroke-width:1.5;"/><polygon fill="#FEFECE" filter="url(#ff146ey8lz3ar)" points="93.5,264.1992,293.5,264.1992,305.5,276.1992,293.5,288.1992,93.5,288.1992,81.5,276.1992,93.5,264.1992" style="stroke:#A80036;stroke-width:1.5;"/><text fill="#000000" font-family="sans-serif" font-size="11" lengthAdjust="spacing" textLength="19" x="197.5" y="299.6182">true</text><text fill="#000000" font-family="sans-serif" font-size="11" lengthAdjust="spacing" textLength="200" x="93.5" y="280.7002">Administrator selects parameter category</text><text fill="#000000" font-family="sans-serif" font-size="11" lengthAdjust="spacing" textLength="24" x="305.5" y="273.7822">false</text><polygon fill="#FEFECE" filter="url(#ff146ey8lz3ar)" points="193.5,519.8516,205.5,531.8516,193.5,543.8516,181.5,531.8516,193.5,519.8516" style="stroke:#A80036;stroke-width:1.5;"/><polygon fill="#FEFECE" filter="url(#ff146ey8lz3ar)" points="91.5,160.1875,295.5,160.1875,307.5,172.1875,295.5,184.1875,91.5,184.1875,79.5,172.1875,91.5,160.1875" style="stroke:#A80036;stroke-width:1.5;"/><text fill="#000000" font-family="sans-serif" font-size="11" lengthAdjust="spacing" textLength="19" x="197.5" y="195.6064">true</text><text fill="#000000" font-family="sans-serif" font-size="11" lengthAdjust="spacing" textLength="204" x="91.5" y="176.6885">Administrator types parameter designation</text><text fill="#000000" font-family="sans-serif" font-size="11" lengthAdjust="spacing" textLength="24" x="307.5" y="169.7705">false</text><polygon fill="#FEFECE" filter="url(#ff146ey8lz3ar)" points="193.5,563.8516,205.5,575.8516,193.5,587.8516,181.5,575.8516,193.5,563.8516" style="stroke:#A80036;stroke-width:1.5;"/><ellipse cx="193.5" cy="617.8516" fill="#FFFFFF" filter="url(#ff146ey8lz3ar)" rx="10" ry="10" style="stroke:#000000;stroke-width:1.5;"/><line style="stroke:#000000;stroke-width:2.5;" x1="187.3128" x2="199.6872" y1="611.6644" y2="624.0387"/><line style="stroke:#000000;stroke-width:2.5;" x1="199.6872" x2="187.3128" y1="611.6644" y2="624.0387"/><line style="stroke:#A80036;stroke-width:1.5;" x1="193.5" x2="193.5" y1="30" y2="50"/><polygon fill="#A80036" points="189.5,40,193.5,50,197.5,40,193.5,44" style="stroke:#A80036;stroke-width:1.0;"/><line style="stroke:#A80036;stroke-width:1.5;" x1="193.5" x2="193.5" y1="85.0938" y2="105.0938"/><polygon fill="#A80036" points="189.5,95.0938,193.5,105.0938,197.5,95.0938,193.5,99.0938" style="stroke:#A80036;stroke-width:1.0;"/><line style="stroke:#A80036;stroke-width:1.5;" x1="193.5" x2="193.5" y1="395.8398" y2="420.7578"/><polygon fill="#A80036" points="189.5,410.7578,193.5,420.7578,197.5,410.7578,193.5,414.7578" style="stroke:#A80036;stroke-width:1.0;"/><line style="stroke:#A80036;stroke-width:1.5;" x1="260" x2="371.5" y1="383.8398" y2="383.8398"/><polygon fill="#A80036" points="367.5,428.3047,371.5,438.3047,375.5,428.3047,371.5,432.3047" style="stroke:#A80036;stroke-width:1.5;"/><line style="stroke:#A80036;stroke-width:1.5;" x1="371.5" x2="371.5" y1="383.8398" y2="487.8516"/><line style="stroke:#A80036;stroke-width:1.5;" x1="371.5" x2="205.5" y1="487.8516" y2="487.8516"/><polygon fill="#A80036" points="215.5,483.8516,205.5,487.8516,215.5,491.8516,211.5,487.8516" style="stroke:#A80036;stroke-width:1.0;"/><line style="stroke:#A80036;stroke-width:1.5;" x1="193.5" x2="193.5" y1="455.8516" y2="475.8516"/><polygon fill="#A80036" points="189.5,465.8516,193.5,475.8516,197.5,465.8516,193.5,469.8516" style="stroke:#A80036;stroke-width:1.0;"/><line style="stroke:#A80036;stroke-width:1.5;" x1="193.5" x2="193.5" y1="348.2109" y2="371.8398"/><polygon fill="#A80036" points="189.5,361.8398,193.5,371.8398,197.5,361.8398,193.5,365.8398" style="stroke:#A80036;stroke-width:1.0;"/><line style="stroke:#A80036;stroke-width:1.5;" x1="193.5" x2="193.5" y1="288.1992" y2="313.1172"/><polygon fill="#A80036" points="189.5,303.1172,193.5,313.1172,197.5,303.1172,193.5,307.1172" style="stroke:#A80036;stroke-width:1.0;"/><line style="stroke:#A80036;stroke-width:1.5;" x1="305.5" x2="390" y1="276.1992" y2="276.1992"/><polygon fill="#A80036" points="386,393.2578,390,403.2578,394,393.2578,390,397.2578" style="stroke:#A80036;stroke-width:1.5;"/><line style="stroke:#A80036;stroke-width:1.5;" x1="390" x2="390" y1="276.1992" y2="531.8516"/><line style="stroke:#A80036;stroke-width:1.5;" x1="390" x2="205.5" y1="531.8516" y2="531.8516"/><polygon fill="#A80036" points="215.5,527.8516,205.5,531.8516,215.5,535.8516,211.5,531.8516" style="stroke:#A80036;stroke-width:1.0;"/><line style="stroke:#A80036;stroke-width:1.5;" x1="193.5" x2="193.5" y1="499.8516" y2="519.8516"/><polygon fill="#A80036" points="189.5,509.8516,193.5,519.8516,197.5,509.8516,193.5,513.8516" style="stroke:#A80036;stroke-width:1.0;"/><line style="stroke:#A80036;stroke-width:1.5;" x1="193.5" x2="193.5" y1="244.1992" y2="264.1992"/><polygon fill="#A80036" points="189.5,254.1992,193.5,264.1992,197.5,254.1992,193.5,258.1992" style="stroke:#A80036;stroke-width:1.0;"/><line style="stroke:#A80036;stroke-width:1.5;" x1="193.5" x2="193.5" y1="184.1875" y2="209.1055"/><polygon fill="#A80036" points="189.5,199.1055,193.5,209.1055,197.5,199.1055,193.5,203.1055" style="stroke:#A80036;stroke-width:1.0;"/><line style="stroke:#A80036;stroke-width:1.5;" x1="307.5" x2="408" y1="172.1875" y2="172.1875"/><polygon fill="#A80036" points="404,358.2109,408,368.2109,412,358.2109,408,362.2109" style="stroke:#A80036;stroke-width:1.5;"/><line style="stroke:#A80036;stroke-width:1.5;" x1="408" x2="408" y1="172.1875" y2="575.8516"/><line style="stroke:#A80036;stroke-width:1.5;" x1="408" x2="205.5" y1="575.8516" y2="575.8516"/><polygon fill="#A80036" points="215.5,571.8516,205.5,575.8516,215.5,579.8516,211.5,575.8516" style="stroke:#A80036;stroke-width:1.0;"/><line style="stroke:#A80036;stroke-width:1.5;" x1="193.5" x2="193.5" y1="543.8516" y2="563.8516"/><polygon fill="#A80036" points="189.5,553.8516,193.5,563.8516,197.5,553.8516,193.5,557.8516" style="stroke:#A80036;stroke-width:1.0;"/><line style="stroke:#A80036;stroke-width:1.5;" x1="193.5" x2="193.5" y1="140.1875" y2="160.1875"/><polygon fill="#A80036" points="189.5,150.1875,193.5,160.1875,197.5,150.1875,193.5,154.1875" style="stroke:#A80036;stroke-width:1.0;"/><line style="stroke:#A80036;stroke-width:1.5;" x1="193.5" x2="193.5" y1="587.8516" y2="607.8516"/><polygon fill="#A80036" points="189.5,597.8516,193.5,607.8516,197.5,597.8516,193.5,601.8516" style="stroke:#A80036;stroke-width:1.0;"/><!--MD5=[822907aa06cc5b48a54cf77e1e598700]
@startuml
'https://plantuml.com/activity-diagram-beta

start
:Administrator asks to specify a new parameter and categorize it;
:System requests parameter designation;
if (Administrator types parameter designation) then (false)
    else (true)
:System shows parameter categories;
if (Administrator selects parameter category) then (false)
    else (true)
:System shows existing parameters and requests confirmation;
if (Administrator confirms) then (false)
else (true)
:System saves information and informs operation success;
endif
endif
endif
end

@enduml

@startuml

start
:Administrator asks to specify a new parameter and categorize it;
:System requests parameter designation;
if (Administrator types parameter designation) then (false)
    else (true)
:System shows parameter categories;
if (Administrator selects parameter category) then (false)
    else (true)
:System shows existing parameters and requests confirmation;
if (Administrator confirms) then (false)
else (true)
:System saves information and informs operation success;
endif
endif
endif
end

@enduml

PlantUML version 1.2021.5(Sun Apr 25 12:20:28 BST 2021)
(GPL source distribution)
Java Runtime: OpenJDK Runtime Environment
JVM: OpenJDK 64-Bit Server VM
Default Encoding: Cp1252
Language: pt
Country: PT
--></g></svg>