<?xml version="1.0" encoding="UTF-8" standalone="no"?><svg xmlns="http://www.w3.org/2000/svg" xmlns:xlink="http://www.w3.org/1999/xlink" contentScriptType="application/ecmascript" contentStyleType="text/css" height="2045px" preserveAspectRatio="none" style="width:1046px;height:2045px;background:#FFFFFF;" version="1.1" viewBox="0 0 1046 2045" width="1046px" zoomAndPan="magnify"><defs><filter height="300%" id="fiqwngf8okbg1" width="300%" x="-1" y="-1"><feGaussianBlur result="blurOut" stdDeviation="2.0"/><feColorMatrix in="blurOut" result="blurOut2" type="matrix" values="0 0 0 0 0 0 0 0 0 0 0 0 0 0 0 0 0 0 .4 0"/><feOffset dx="4.0" dy="4.0" in="blurOut2" result="blurOut3"/><feBlend in="SourceGraphic" in2="blurOut3" mode="normal"/></filter></defs><g><!--MD5=[207efb57440880fded874d300cf6844c]
entity Many Labs company--><ellipse cx="104.5" cy="1949" fill="#FEFECE" filter="url(#fiqwngf8okbg1)" rx="8" ry="8" style="stroke:#A80036;stroke-width:1.5;"/><path d="M104.5,1957 L104.5,1984 M91.5,1965 L117.5,1965 M104.5,1984 L91.5,1999 M104.5,1984 L117.5,1999 " fill="none" filter="url(#fiqwngf8okbg1)" style="stroke:#A80036;stroke-width:1.5;"/><text fill="#000000" font-family="sans-serif" font-size="14" lengthAdjust="spacing" textLength="130" x="39.5" y="2019.0332">Many Labs company</text><ellipse cx="648.4396" cy="1981.0879" fill="#FEFECE" filter="url(#fiqwngf8okbg1)" rx="250.9396" ry="52.5879" style="stroke:#A80036;stroke-width:1.5;"/><text fill="#000000" font-family="sans-serif" font-size="14" lengthAdjust="spacing" textLength="476" x="410.4396" y="1984.8164">UC19 - Send everyday at 6:00 am to the NHS daily reports of Covid-19 data</text><!--MD5=[1a0ff44a601722ffef7405dd923fd24f]
entity Laboratory Coordinator--><ellipse cx="104.5" cy="1682" fill="#FEFECE" filter="url(#fiqwngf8okbg1)" rx="8" ry="8" style="stroke:#A80036;stroke-width:1.5;"/><path d="M104.5,1690 L104.5,1717 M91.5,1698 L117.5,1698 M104.5,1717 L91.5,1732 M104.5,1717 L117.5,1732 " fill="none" filter="url(#fiqwngf8okbg1)" style="stroke:#A80036;stroke-width:1.5;"/><text fill="#000000" font-family="sans-serif" font-size="14" lengthAdjust="spacing" textLength="148" x="30.5" y="1752.0332">Laboratory Coordinator</text><ellipse cx="648.3742" cy="1537.7748" fill="#FEFECE" filter="url(#fiqwngf8okbg1)" rx="291.8742" ry="60.7748" style="stroke:#A80036;stroke-width:1.5;"/><text fill="#000000" font-family="sans-serif" font-size="14" lengthAdjust="spacing" textLength="559" x="368.8742" y="1541.5034">UC15 - Validate the work done by the clinical chemistry technologist and specialist doctor</text><ellipse cx="648.5416" cy="1714.0083" fill="#FEFECE" filter="url(#fiqwngf8okbg1)" rx="385.5416" ry="79.5083" style="stroke:#A80036;stroke-width:1.5;"/><text fill="#000000" font-family="sans-serif" font-size="14" lengthAdjust="spacing" textLength="748" x="274.5416" y="1717.7368">UC16 - Have an overview of all the tests performed by Many Labs and analyse the overall performance of the company</text><ellipse cx="648.3283" cy="1861.0657" fill="#FEFECE" filter="url(#fiqwngf8okbg1)" rx="148.3283" ry="32.0657" style="stroke:#A80036;stroke-width:1.5;"/><text fill="#000000" font-family="sans-serif" font-size="14" lengthAdjust="spacing" textLength="265" x="515.8283" y="1864.7942">UC17 - Import clinical tests from a CSV file</text><!--MD5=[5c107df4c3a6612dd5cfe4282a9cf4f8]
entity Specialist Doctor--><ellipse cx="104.5" cy="1366" fill="#FEFECE" filter="url(#fiqwngf8okbg1)" rx="8" ry="8" style="stroke:#A80036;stroke-width:1.5;"/><path d="M104.5,1374 L104.5,1401 M91.5,1382 L117.5,1382 M104.5,1401 L91.5,1416 M104.5,1401 L117.5,1416 " fill="none" filter="url(#fiqwngf8okbg1)" style="stroke:#A80036;stroke-width:1.5;"/><text fill="#000000" font-family="sans-serif" font-size="14" lengthAdjust="spacing" textLength="106" x="51.5" y="1436.0332">Specialist Doctor</text><ellipse cx="648.347" cy="1397.9694" fill="#FEFECE" filter="url(#fiqwngf8okbg1)" rx="205.347" ry="43.4694" style="stroke:#A80036;stroke-width:1.5;"/><text fill="#000000" font-family="sans-serif" font-size="14" lengthAdjust="spacing" textLength="383" x="456.847" y="1401.6979">UC14 - Make the diagnosis and write a report for a given test</text><!--MD5=[b6d71c7b5a3b5919d10eb67fbf297455]
entity Clinical Chemistry Technologist--><ellipse cx="104.5" cy="1146" fill="#FEFECE" filter="url(#fiqwngf8okbg1)" rx="8" ry="8" style="stroke:#A80036;stroke-width:1.5;"/><path d="M104.5,1154 L104.5,1181 M91.5,1162 L117.5,1162 M104.5,1181 L91.5,1196 M104.5,1181 L117.5,1196 " fill="none" filter="url(#fiqwngf8okbg1)" style="stroke:#A80036;stroke-width:1.5;"/><text fill="#000000" font-family="sans-serif" font-size="14" lengthAdjust="spacing" textLength="197" x="6" y="1216.0332">Clinical Chemistry Technologist</text><ellipse cx="648.5214" cy="1107.8043" fill="#FEFECE" filter="url(#fiqwngf8okbg1)" rx="144.5214" ry="31.3043" style="stroke:#A80036;stroke-width:1.5;"/><text fill="#000000" font-family="sans-serif" font-size="14" lengthAdjust="spacing" textLength="257" x="520.0214" y="1111.5328">UC12 - Record the results of a given test</text><ellipse cx="648.3096" cy="1246.7619" fill="#FEFECE" filter="url(#fiqwngf8okbg1)" rx="349.3096" ry="72.2619" style="stroke:#A80036;stroke-width:1.5;"/><text fill="#000000" font-family="sans-serif" font-size="14" lengthAdjust="spacing" textLength="675" x="310.8096" y="1250.4904">UC13 - Consult the historical tests performed by a particular client and be able to check tests details/results</text><!--MD5=[62529e7d5259bf274c3bf3e446350d88]
entity Administrator--><ellipse cx="104.5" cy="700" fill="#FEFECE" filter="url(#fiqwngf8okbg1)" rx="8" ry="8" style="stroke:#A80036;stroke-width:1.5;"/><path d="M104.5,708 L104.5,735 M91.5,716 L117.5,716 M104.5,735 L91.5,750 M104.5,735 L117.5,750 " fill="none" filter="url(#fiqwngf8okbg1)" style="stroke:#A80036;stroke-width:1.5;"/><text fill="#000000" font-family="sans-serif" font-size="14" lengthAdjust="spacing" textLength="83" x="63" y="770.0332">Administrator</text><ellipse cx="648.7046" cy="466.9409" fill="#FEFECE" filter="url(#fiqwngf8okbg1)" rx="107.7046" ry="23.9409" style="stroke:#A80036;stroke-width:1.5;"/><text fill="#000000" font-family="sans-serif" font-size="14" lengthAdjust="spacing" textLength="178" x="559.7046" y="470.6694">UC7 - Register an employee</text><ellipse cx="648.5369" cy="562.2074" fill="#FEFECE" filter="url(#fiqwngf8okbg1)" rx="166.5369" ry="35.7074" style="stroke:#A80036;stroke-width:1.5;"/><text fill="#000000" font-family="sans-serif" font-size="14" lengthAdjust="spacing" textLength="303" x="497.0369" y="565.9359">UC8 - Register a new clinical analysis laboratory</text><ellipse cx="648.5335" cy="675.0067" fill="#FEFECE" filter="url(#fiqwngf8okbg1)" rx="198.0335" ry="42.0067" style="stroke:#A80036;stroke-width:1.5;"/><text fill="#000000" font-family="sans-serif" font-size="14" lengthAdjust="spacing" textLength="368" x="464.5335" y="678.7352">UC9 - Specify a new type of test and its collecting methods</text><ellipse cx="648.3751" cy="789.075" fill="#FEFECE" filter="url(#fiqwngf8okbg1)" rx="170.8751" ry="36.575" style="stroke:#A80036;stroke-width:1.5;"/><text fill="#000000" font-family="sans-serif" font-size="14" lengthAdjust="spacing" textLength="312" x="492.3751" y="792.8035">UC10 - Specify a new parameter and categorize it</text><ellipse cx="648.3756" cy="892.8751" fill="#FEFECE" filter="url(#fiqwngf8okbg1)" rx="147.3756" ry="31.8751" style="stroke:#A80036;stroke-width:1.5;"/><text fill="#000000" font-family="sans-serif" font-size="14" lengthAdjust="spacing" textLength="263" x="516.8756" y="896.6036">UC11 - Specify a new parameter category</text><ellipse cx="648.7487" cy="1000.9497" fill="#FEFECE" filter="url(#fiqwngf8okbg1)" rx="190.2487" ry="40.4497" style="stroke:#A80036;stroke-width:1.5;"/><text fill="#000000" font-family="sans-serif" font-size="14" lengthAdjust="spacing" textLength="352" x="472.7487" y="1004.6782">UC18 - Send the Covid-19 report to the NHS at any time</text><!--MD5=[9884406be06f71c6442cc0d4e009fb6d]
entity Medical Lab Technician--><ellipse cx="104.5" cy="347" fill="#FEFECE" filter="url(#fiqwngf8okbg1)" rx="8" ry="8" style="stroke:#A80036;stroke-width:1.5;"/><path d="M104.5,355 L104.5,382 M91.5,363 L117.5,363 M104.5,382 L91.5,397 M104.5,382 L117.5,397 " fill="none" filter="url(#fiqwngf8okbg1)" style="stroke:#A80036;stroke-width:1.5;"/><text fill="#000000" font-family="sans-serif" font-size="14" lengthAdjust="spacing" textLength="149" x="30" y="417.0332">Medical Lab Technician</text><ellipse cx="648.3821" cy="378.8764" fill="#FEFECE" filter="url(#fiqwngf8okbg1)" rx="129.8821" ry="28.3764" style="stroke:#A80036;stroke-width:1.5;"/><text fill="#000000" font-family="sans-serif" font-size="14" lengthAdjust="spacing" textLength="226" x="535.3821" y="382.6049">UC5 - Record the samples collected</text><!--MD5=[87a04b683345c3cce94ac9a6e159ab2f]
entity Receptionist--><ellipse cx="104.5" cy="197" fill="#FEFECE" filter="url(#fiqwngf8okbg1)" rx="8" ry="8" style="stroke:#A80036;stroke-width:1.5;"/><path d="M104.5,205 L104.5,232 M91.5,213 L117.5,213 M104.5,232 L91.5,247 M104.5,232 L117.5,247 " fill="none" filter="url(#fiqwngf8okbg1)" style="stroke:#A80036;stroke-width:1.5;"/><text fill="#000000" font-family="sans-serif" font-size="14" lengthAdjust="spacing" textLength="78" x="65.5" y="267.0332">Receptionist</text><ellipse cx="648.6965" cy="219.2393" fill="#FEFECE" filter="url(#fiqwngf8okbg1)" rx="91.6965" ry="20.7393" style="stroke:#A80036;stroke-width:1.5;"/><text fill="#000000" font-family="sans-serif" font-size="14" lengthAdjust="spacing" textLength="142" x="577.6965" y="222.9678">UC3 - Register a client</text><ellipse cx="648.3923" cy="294.8785" fill="#FEFECE" filter="url(#fiqwngf8okbg1)" rx="87.3923" ry="19.8785" style="stroke:#A80036;stroke-width:1.5;"/><text fill="#000000" font-family="sans-serif" font-size="14" lengthAdjust="spacing" textLength="132" x="582.3923" y="298.607">UC4 - Register a test</text><!--MD5=[0ba5ee7700168656dc1b457c6fe9fdac]
entity Client--><ellipse cx="104.5" cy="77" fill="#FEFECE" filter="url(#fiqwngf8okbg1)" rx="8" ry="8" style="stroke:#A80036;stroke-width:1.5;"/><path d="M104.5,85 L104.5,112 M91.5,93 L117.5,93 M104.5,112 L91.5,127 M104.5,112 L117.5,127 " fill="none" filter="url(#fiqwngf8okbg1)" style="stroke:#A80036;stroke-width:1.5;"/><text fill="#000000" font-family="sans-serif" font-size="14" lengthAdjust="spacing" textLength="36" x="86.5" y="147.0332">Client</text><ellipse cx="648.3069" cy="33.1614" fill="#FEFECE" filter="url(#fiqwngf8okbg1)" rx="123.8069" ry="27.1614" style="stroke:#A80036;stroke-width:1.5;"/><text fill="#000000" font-family="sans-serif" font-size="14" lengthAdjust="spacing" textLength="213" x="541.8069" y="36.8899">UC1 - View the results of the tests</text><ellipse cx="648.2982" cy="118.7596" fill="#FEFECE" filter="url(#fiqwngf8okbg1)" rx="106.7982" ry="23.7596" style="stroke:#A80036;stroke-width:1.5;"/><text fill="#000000" font-family="sans-serif" font-size="14" lengthAdjust="spacing" textLength="176" x="560.2982" y="122.4882">UC2 - Update personal data</text><!--MD5=[76d95ff118eca0ef520ba8e667097f52]
link Many Labs company to UC19--><path d="M169.54,1981 C225.18,1981 309.59,1981 392.07,1981 " fill="none" id="Many Labs company-to-UC19" style="stroke:#A80036;stroke-width:1.0;"/><polygon fill="#A80036" points="397.5,1981,388.5,1977,392.5,1981,388.5,1985,397.5,1981" style="stroke:#A80036;stroke-width:1.0;"/><!--MD5=[017e3fee72cc41998d72f57a2d616e39]
link Laboratory Coordinator to UC15--><path d="M162.02,1672.49 C190.94,1653.03 227.47,1631.08 263,1617 C307.79,1599.25 357.16,1585.28 405.18,1574.35 " fill="none" id="Laboratory Coordinator-to-UC15" style="stroke:#A80036;stroke-width:1.0;"/><polygon fill="#A80036" points="410.12,1573.24,400.46,1571.3206,405.2428,1574.3413,402.2221,1579.1241,410.12,1573.24" style="stroke:#A80036;stroke-width:1.0;"/><!--MD5=[106f9ff830e4432c3e60a76247e9a2f4]
link Laboratory Coordinator to UC16--><path d="M178.6,1714 C201.47,1714 228.49,1714 257.81,1714 " fill="none" id="Laboratory Coordinator-to-UC16" style="stroke:#A80036;stroke-width:1.0;"/><polygon fill="#A80036" points="262.92,1714,253.92,1710,257.92,1714,253.92,1718,262.92,1714" style="stroke:#A80036;stroke-width:1.0;"/><!--MD5=[3b6c80c1ef34f629cf25c92c4cb84edd]
link Laboratory Coordinator to UC17--><path d="M160.15,1755.64 C189.19,1775.64 226.38,1798.02 263,1811 C337.2,1837.3 423.84,1850.01 496.08,1856.05 " fill="none" id="Laboratory Coordinator-to-UC17" style="stroke:#A80036;stroke-width:1.0;"/><polygon fill="#A80036" points="501.25,1856.47,492.5987,1851.7631,496.266,1856.0701,491.9589,1859.7374,501.25,1856.47" style="stroke:#A80036;stroke-width:1.0;"/><!--MD5=[3f995608b789f6e8a7e9d9f910a682af]
link Specialist Doctor to UC14--><path d="M157.96,1398 C222.56,1398 336.2,1398 437.74,1398 " fill="none" id="Specialist Doctor-to-UC14" style="stroke:#A80036;stroke-width:1.0;"/><polygon fill="#A80036" points="442.88,1398,433.88,1394,437.88,1398,433.88,1402,442.88,1398" style="stroke:#A80036;stroke-width:1.0;"/><!--MD5=[ea852e4c7db50752bc43f155d9bfc2cb]
link Clinical Chemistry Technologist to UC12--><path d="M203.37,1164.86 C223.11,1162.24 243.72,1159.51 263,1157 C347.71,1145.95 442.97,1133.81 517.47,1124.38 " fill="none" id="Clinical Chemistry Technologist-to-UC12" style="stroke:#A80036;stroke-width:1.0;"/><polygon fill="#A80036" points="522.8,1123.71,513.3683,1120.8739,517.8397,1124.339,514.3747,1128.8104,522.8,1123.71" style="stroke:#A80036;stroke-width:1.0;"/><!--MD5=[af7570263750598b85e7fbe5268d8b18]
link Clinical Chemistry Technologist to UC13--><path d="M203.02,1190.42 C243.84,1195.61 293.72,1201.96 345.12,1208.51 " fill="none" id="Clinical Chemistry Technologist-to-UC13" style="stroke:#A80036;stroke-width:1.0;"/><polygon fill="#A80036" points="350.1,1209.14,341.6747,1204.0396,345.1397,1208.511,340.6683,1211.9761,350.1,1209.14" style="stroke:#A80036;stroke-width:1.0;"/><!--MD5=[e7236cf91a525d40d7e31eb13cfc0f87]
link Administrator to UC7--><path d="M121.95,690.45 C144.99,638.33 192.14,550.74 263,509 C348.91,458.39 464.52,452.36 546.48,456.22 " fill="none" id="Administrator-to-UC7" style="stroke:#A80036;stroke-width:1.0;"/><polygon fill="#A80036" points="551.82,456.49,543.0373,452.033,546.8266,456.2332,542.6264,460.0225,551.82,456.49" style="stroke:#A80036;stroke-width:1.0;"/><!--MD5=[8e45005a60fc83257062595f690dd308]
link Administrator to UC8--><path d="M146.09,693.19 C176,666.96 218.98,633.95 263,616 C330.37,588.53 409.29,574.62 478.03,567.73 " fill="none" id="Administrator-to-UC8" style="stroke:#A80036;stroke-width:1.0;"/><polygon fill="#A80036" points="483.39,567.2,474.0437,564.0941,478.4137,567.6862,474.8216,572.0562,483.39,567.2" style="stroke:#A80036;stroke-width:1.0;"/><!--MD5=[072e7224fc1cc1ccfbf1faef44ac74bd]
link Administrator to UC9--><path d="M146.24,727.72 C213.43,720.65 351.44,706.14 465.66,694.12 " fill="none" id="Administrator-to-UC9" style="stroke:#A80036;stroke-width:1.0;"/><polygon fill="#A80036" points="470.74,693.59,461.3675,690.564,465.768,694.1186,462.2133,698.5191,470.74,693.59" style="stroke:#A80036;stroke-width:1.0;"/><!--MD5=[ab99f48932216074116544fd3550588e]
link Administrator to UC10--><path d="M146.24,736.28 C218.16,743.85 371.22,759.94 489.4,772.37 " fill="none" id="Administrator-to-UC10" style="stroke:#A80036;stroke-width:1.0;"/><polygon fill="#A80036" points="494.64,772.92,486.0994,768.0151,489.6665,772.4055,485.2762,775.9727,494.64,772.92" style="stroke:#A80036;stroke-width:1.0;"/><!--MD5=[be3998c72b87ba5e57ce49034da4d178]
link Administrator to UC11--><path d="M146.01,768.97 C176.04,794.17 219.21,825.93 263,843 C336.65,871.7 423.64,884.6 496.23,890.14 " fill="none" id="Administrator-to-UC11" style="stroke:#A80036;stroke-width:1.0;"/><polygon fill="#A80036" points="501.43,890.53,492.752,885.8724,496.4438,890.1585,492.1577,893.8503,501.43,890.53" style="stroke:#A80036;stroke-width:1.0;"/><!--MD5=[edf0fa2247230cb752dfbed77be1e6b9]
link Administrator to UC18--><path d="M124.31,773.92 C148.75,823.13 196.33,903.07 263,943 C319.59,976.89 388.99,993.36 453.18,1000.77 " fill="none" id="Administrator-to-UC18" style="stroke:#A80036;stroke-width:1.0;"/><polygon fill="#A80036" points="458.18,1001.33,449.6831,996.3498,453.2113,1000.7716,448.7896,1004.2998,458.18,1001.33" style="stroke:#A80036;stroke-width:1.0;"/><!--MD5=[f3519bf8acfc18d67cd823383e1bb3f8]
link Medical Lab Technician to UC5--><path d="M179.16,379 C264.69,379 407.51,379 512.99,379 " fill="none" id="Medical Lab Technician-to-UC5" style="stroke:#A80036;stroke-width:1.0;"/><polygon fill="#A80036" points="518.3,379,509.3,375,513.3,379,509.3,383,518.3,379" style="stroke:#A80036;stroke-width:1.0;"/><!--MD5=[2f1b394e2924067056fccacd5d16a564]
link Receptionist to UC3--><path d="M143.61,228.3 C227.6,226.75 430.78,223 551.93,220.76 " fill="none" id="Receptionist-to-UC3" style="stroke:#A80036;stroke-width:1.0;"/><polygon fill="#A80036" points="557.27,220.66,548.1918,216.8408,552.271,220.76,548.3518,224.8392,557.27,220.66" style="stroke:#A80036;stroke-width:1.0;"/><!--MD5=[580bd904bf5bb4915d508c6693e85430]
link Receptionist to UC4--><path d="M143.56,236.62 C175.38,242.78 222.01,251.34 263,257 C364.59,271.03 481.99,281.86 560.07,288.3 " fill="none" id="Receptionist-to-UC4" style="stroke:#A80036;stroke-width:1.0;"/><polygon fill="#A80036" points="565.15,288.72,556.4987,284.0131,560.166,288.3201,555.8589,291.9874,565.15,288.72" style="stroke:#A80036;stroke-width:1.0;"/><!--MD5=[d67561ca03e24b92f033d35be8fc0abf]
link Client to UC1--><path d="M122.89,104.95 C151.82,98.34 211.74,85.12 263,77 C351.8,62.93 452.82,51.54 529.02,43.88 " fill="none" id="Client-to-UC1" style="stroke:#A80036;stroke-width:1.0;"/><polygon fill="#A80036" points="534.01,43.38,524.6549,40.3007,529.0351,43.8803,525.4555,48.2606,534.01,43.38" style="stroke:#A80036;stroke-width:1.0;"/><!--MD5=[10977eb1210c195d7a7c6d2b7f195dd5]
link Client to UC2--><path d="M122.62,109.32 C184.75,110.46 401.82,114.47 536.58,116.95 " fill="none" id="Client-to-UC2" style="stroke:#A80036;stroke-width:1.0;"/><polygon fill="#A80036" points="541.74,117.05,532.8099,112.8963,536.7407,116.9643,532.6728,120.8951,541.74,117.05" style="stroke:#A80036;stroke-width:1.0;"/><!--MD5=[e64426c69d8330d715e91be6d9d73c15]
@startuml
left to right direction
'https://plantuml.com/use-case-diagram

:Many Labs company: - -> (UC19)
"UC19 - Send everyday at 6:00 am to the NHS daily reports of Covid-19 data" as (UC19)

:Laboratory Coordinator: - -> (UC15)
"UC15 - Validate the work done by the clinical chemistry technologist and specialist doctor" as (UC15)

:Laboratory Coordinator: - -> (UC16)
"UC16 - Have an overview of all the tests performed by Many Labs and analyse the overall performance of the company" as (UC16)

:Laboratory Coordinator: - -> (UC17)
"UC17 - Import clinical tests from a CSV file" as (UC17)

:Specialist Doctor: - -> (UC14)
"UC14 - Make the diagnosis and write a report for a given test" as (UC14)

:Clinical Chemistry Technologist: - -> (UC12)
"UC12 - Record the results of a given test" as (UC12)

:Clinical Chemistry Technologist: - -> (UC13)
"UC13 - Consult the historical tests performed by a particular client and be able to check tests details/results" as (UC13)

:Administrator: - -> (UC7)
"UC7 - Register an employee" as (UC7)

:Administrator: - -> (UC8)
"UC8 - Register a new clinical analysis laboratory" as (UC8)

:Administrator: - -> (UC9)
"UC9 - Specify a new type of test and its collecting methods" as (UC9)

:Administrator: - -> (UC10)
"UC10 - Specify a new parameter and categorize it" as (UC10)

:Administrator: - -> (UC11)
"UC11 - Specify a new parameter category" as (UC11)

:Administrator: - -> (UC18)
"UC18 - Send the Covid-19 report to the NHS at any time" as (UC18)

:Medical Lab Technician: - -> (UC5)
"UC5 - Record the samples collected" as (UC5)

:Receptionist: - -> (UC3)
"UC3 - Register a client" as (UC3)

:Receptionist: - -> (UC4)
"UC4 - Register a test" as (UC4)

:Client: - -> (UC1)
"UC1 - View the results of the tests" as (UC1)

:Client: - -> (UC2)
"UC2 - Update personal data" as (UC2)


@enduml

@startuml
left to right direction

:Many Labs company: - -> (UC19)
"UC19 - Send everyday at 6:00 am to the NHS daily reports of Covid-19 data" as (UC19)

:Laboratory Coordinator: - -> (UC15)
"UC15 - Validate the work done by the clinical chemistry technologist and specialist doctor" as (UC15)

:Laboratory Coordinator: - -> (UC16)
"UC16 - Have an overview of all the tests performed by Many Labs and analyse the overall performance of the company" as (UC16)

:Laboratory Coordinator: - -> (UC17)
"UC17 - Import clinical tests from a CSV file" as (UC17)

:Specialist Doctor: - -> (UC14)
"UC14 - Make the diagnosis and write a report for a given test" as (UC14)

:Clinical Chemistry Technologist: - -> (UC12)
"UC12 - Record the results of a given test" as (UC12)

:Clinical Chemistry Technologist: - -> (UC13)
"UC13 - Consult the historical tests performed by a particular client and be able to check tests details/results" as (UC13)

:Administrator: - -> (UC7)
"UC7 - Register an employee" as (UC7)

:Administrator: - -> (UC8)
"UC8 - Register a new clinical analysis laboratory" as (UC8)

:Administrator: - -> (UC9)
"UC9 - Specify a new type of test and its collecting methods" as (UC9)

:Administrator: - -> (UC10)
"UC10 - Specify a new parameter and categorize it" as (UC10)

:Administrator: - -> (UC11)
"UC11 - Specify a new parameter category" as (UC11)

:Administrator: - -> (UC18)
"UC18 - Send the Covid-19 report to the NHS at any time" as (UC18)

:Medical Lab Technician: - -> (UC5)
"UC5 - Record the samples collected" as (UC5)

:Receptionist: - -> (UC3)
"UC3 - Register a client" as (UC3)

:Receptionist: - -> (UC4)
"UC4 - Register a test" as (UC4)

:Client: - -> (UC1)
"UC1 - View the results of the tests" as (UC1)

:Client: - -> (UC2)
"UC2 - Update personal data" as (UC2)


@enduml

PlantUML version 1.2021.7(Sun May 23 13:40:07 BST 2021)
(GPL source distribution)
Java Runtime: OpenJDK Runtime Environment
JVM: Dynamic Code Evolution 64-Bit Server VM
Default Encoding: Cp1252
Language: en
Country: GB
--></g></svg>