<?xml version="1.0" encoding="UTF-8" standalone="no"?><svg xmlns="http://www.w3.org/2000/svg" xmlns:xlink="http://www.w3.org/1999/xlink" contentScriptType="application/ecmascript" contentStyleType="text/css" height="2007px" preserveAspectRatio="none" style="width:870px;height:2007px;" version="1.1" viewBox="0 0 870 2007" width="870px" zoomAndPan="magnify"><defs><filter height="300%" id="fkrel4m0n2ezo" width="300%" x="-1" y="-1"><feGaussianBlur result="blurOut" stdDeviation="3.0"/><feColorMatrix in="blurOut" result="blurOut2" type="matrix" values="0 0 0 0 0 0 0 0 0 0 0 0 0 0 0 0 0 0 .4 0"/><feOffset dx="6.0" dy="6.0" in="blurOut2" result="blurOut3"/><feBlend in="SourceGraphic" in2="blurOut3" mode="normal"/></filter></defs><g><!--MD5=[62529e7d5259bf274c3bf3e446350d88]
entity Administrator--><ellipse cx="160.5" cy="1636.5" fill="#FEFECE" filter="url(#fkrel4m0n2ezo)" rx="12" ry="12" style="stroke:#A80036;stroke-width:2.25;"/><path d="M160.5,1648.5 L160.5,1689 M141,1660.5 L180,1660.5 M160.5,1689 L141,1711.5 M160.5,1689 L180,1711.5 " fill="none" filter="url(#fkrel4m0n2ezo)" style="stroke:#A80036;stroke-width:2.25;"/><text fill="#000000" font-family="sans-serif" font-size="21" lengthAdjust="spacing" textLength="124.5" x="98.25" y="1741.5498">Administrator</text><ellipse cx="627.2115" cy="1423.6923" fill="#FEFECE" filter="url(#fkrel4m0n2ezo)" rx="200.4615" ry="43.6923" style="stroke:#A80036;stroke-width:2.25;"/><text fill="#000000" font-family="sans-serif" font-size="21" lengthAdjust="spacing" textLength="351" x="451.7115" y="1429.2851">UC11 - Create a parameter Category</text><ellipse cx="626.7251" cy="1558.295" fill="#FEFECE" filter="url(#fkrel4m0n2ezo)" rx="175.9751" ry="38.795" style="stroke:#A80036;stroke-width:2.25;"/><text fill="#000000" font-family="sans-serif" font-size="21" lengthAdjust="spacing" textLength="298.5" x="477.4751" y="1563.8878">UC10 - Create a test parameter</text><ellipse cx="627.2093" cy="1684.6919" fill="#FEFECE" filter="url(#fkrel4m0n2ezo)" rx="155.4593" ry="34.6919" style="stroke:#A80036;stroke-width:2.25;"/><text fill="#000000" font-family="sans-serif" font-size="21" lengthAdjust="spacing" textLength="253.5" x="500.4593" y="1690.2846">UC9 - Create a type of test</text><ellipse cx="627.3534" cy="1820.9207" fill="#FEFECE" filter="url(#fkrel4m0n2ezo)" rx="225.3534" ry="48.6707" style="stroke:#A80036;stroke-width:2.25;"/><text fill="#000000" font-family="sans-serif" font-size="21" lengthAdjust="spacing" textLength="403.5" x="425.6034" y="1826.5134">UC8 - Create a ClinicalAnalysis Laboratory</text><ellipse cx="627.2522" cy="1956.3504" fill="#FEFECE" filter="url(#fkrel4m0n2ezo)" rx="148.7522" ry="33.3504" style="stroke:#A80036;stroke-width:2.25;"/><text fill="#000000" font-family="sans-serif" font-size="21" lengthAdjust="spacing" textLength="238.5" x="508.0022" y="1961.9432">UC7 - Register Employee</text><!--MD5=[0ba5ee7700168656dc1b457c6fe9fdac]
entity Client--><ellipse cx="160.5" cy="1243.5" fill="#FEFECE" filter="url(#fkrel4m0n2ezo)" rx="12" ry="12" style="stroke:#A80036;stroke-width:2.25;"/><path d="M160.5,1255.5 L160.5,1296 M141,1267.5 L180,1267.5 M160.5,1296 L141,1318.5 M160.5,1296 L180,1318.5 " fill="none" filter="url(#fkrel4m0n2ezo)" style="stroke:#A80036;stroke-width:2.25;"/><text fill="#000000" font-family="sans-serif" font-size="21" lengthAdjust="spacing" textLength="54" x="133.5" y="1348.5498">Client</text><ellipse cx="627.2378" cy="1291.5476" fill="#FEFECE" filter="url(#fkrel4m0n2ezo)" rx="162.2378" ry="36.0476" style="stroke:#A80036;stroke-width:2.25;"/><text fill="#000000" font-family="sans-serif" font-size="21" lengthAdjust="spacing" textLength="268.5" x="492.9878" y="1297.1403">UC????? - View test Results</text><!--MD5=[87a04b683345c3cce94ac9a6e159ab2f]
entity Receptionist--><ellipse cx="160.5" cy="1027.5" fill="#FEFECE" filter="url(#fkrel4m0n2ezo)" rx="12" ry="12" style="stroke:#A80036;stroke-width:2.25;"/><path d="M160.5,1039.5 L160.5,1080 M141,1051.5 L180,1051.5 M160.5,1080 L141,1102.5 M160.5,1080 L180,1102.5 " fill="none" filter="url(#fkrel4m0n2ezo)" style="stroke:#A80036;stroke-width:2.25;"/><text fill="#000000" font-family="sans-serif" font-size="21" lengthAdjust="spacing" textLength="117" x="102" y="1132.5498">Receptionist</text><ellipse cx="627.0026" cy="1044.0005" fill="#FEFECE" filter="url(#fkrel4m0n2ezo)" rx="139.5026" ry="31.5005" style="stroke:#A80036;stroke-width:2.25;"/><text fill="#000000" font-family="sans-serif" font-size="21" lengthAdjust="spacing" textLength="217.5" x="518.2526" y="1049.5933">UC3 - Register a Client</text><ellipse cx="627.0339" cy="1165.2068" fill="#FEFECE" filter="url(#fkrel4m0n2ezo)" rx="164.2839" ry="36.4568" style="stroke:#A80036;stroke-width:2.25;"/><text fill="#000000" font-family="sans-serif" font-size="21" lengthAdjust="spacing" textLength="273" x="490.5339" y="1170.7996">UC4 - Register Test Request</text><!--MD5=[1a0ff44a601722ffef7405dd923fd24f]
entity Laboratory Coordinator--><ellipse cx="160.5" cy="307.5" fill="#FEFECE" filter="url(#fkrel4m0n2ezo)" rx="12" ry="12" style="stroke:#A80036;stroke-width:2.25;"/><path d="M160.5,319.5 L160.5,360 M141,331.5 L180,331.5 M160.5,360 L141,382.5 M160.5,360 L180,382.5 " fill="none" filter="url(#fkrel4m0n2ezo)" style="stroke:#A80036;stroke-width:2.25;"/><text fill="#000000" font-family="sans-serif" font-size="21" lengthAdjust="spacing" textLength="222" x="49.5" y="412.5498">Laboratory Coordinator</text><ellipse cx="626.7885" cy="208.6077" fill="#FEFECE" filter="url(#fkrel4m0n2ezo)" rx="207.5385" ry="45.1077" style="stroke:#A80036;stroke-width:2.25;"/><text fill="#000000" font-family="sans-serif" font-size="21" lengthAdjust="spacing" textLength="366" x="443.7885" y="214.2005">UC???? - Evaluate Tests Waiting Time</text><ellipse cx="626.6724" cy="355.1345" fill="#FEFECE" filter="url(#fkrel4m0n2ezo)" rx="223.9224" ry="48.3845" style="stroke:#A80036;stroke-width:2.25;"/><text fill="#000000" font-family="sans-serif" font-size="21" lengthAdjust="spacing" textLength="400.5" x="426.4224" y="360.7273">UC??? - Validate Test Procedures/Results</text><!--MD5=[5c107df4c3a6612dd5cfe4282a9cf4f8]
entity Specialist Doctor--><ellipse cx="160.5" cy="486" fill="#FEFECE" filter="url(#fkrel4m0n2ezo)" rx="12" ry="12" style="stroke:#A80036;stroke-width:2.25;"/><path d="M160.5,498 L160.5,538.5 M141,510 L180,510 M160.5,538.5 L141,561 M160.5,538.5 L180,561 " fill="none" filter="url(#fkrel4m0n2ezo)" style="stroke:#A80036;stroke-width:2.25;"/><text fill="#000000" font-family="sans-serif" font-size="21" lengthAdjust="spacing" textLength="159" x="81" y="591.0498">Specialist Doctor</text><ellipse cx="627.1092" cy="499.2218" fill="#FEFECE" filter="url(#fkrel4m0n2ezo)" rx="190.6092" ry="41.7218" style="stroke:#A80036;stroke-width:2.25;"/><text fill="#000000" font-family="sans-serif" font-size="21" lengthAdjust="spacing" textLength="330" x="462.1092" y="504.8146">UC??????? - Makes test diagnosis</text><ellipse cx="627.0874" cy="628.3675" fill="#FEFECE" filter="url(#fkrel4m0n2ezo)" rx="150.0874" ry="33.6175" style="stroke:#A80036;stroke-width:2.25;"/><text fill="#000000" font-family="sans-serif" font-size="21" lengthAdjust="spacing" textLength="241.5" x="506.3374" y="633.9603">UC?? - Check test results</text><!--MD5=[998b2d7d84f0f58eafaf67c14556feee]
entity Clinical Chemestry Technologist--><ellipse cx="160.5" cy="664.5" fill="#FEFECE" filter="url(#fkrel4m0n2ezo)" rx="12" ry="12" style="stroke:#A80036;stroke-width:2.25;"/><path d="M160.5,676.5 L160.5,717 M141,688.5 L180,688.5 M160.5,717 L141,739.5 M160.5,717 L180,739.5 " fill="none" filter="url(#fkrel4m0n2ezo)" style="stroke:#A80036;stroke-width:2.25;"/><text fill="#000000" font-family="sans-serif" font-size="21" lengthAdjust="spacing" textLength="303" x="9" y="769.5498">Clinical Chemestry Technologist</text><ellipse cx="626.7306" cy="757.5961" fill="#FEFECE" filter="url(#fkrel4m0n2ezo)" rx="196.2306" ry="42.8461" style="stroke:#A80036;stroke-width:2.25;"/><text fill="#000000" font-family="sans-serif" font-size="21" lengthAdjust="spacing" textLength="342" x="455.7306" y="763.1889">UC?????? - Record Sample Results</text><!--MD5=[9884406be06f71c6442cc0d4e009fb6d]
entity Medical Lab Technician--><ellipse cx="160.5" cy="843" fill="#FEFECE" filter="url(#fkrel4m0n2ezo)" rx="12" ry="12" style="stroke:#A80036;stroke-width:2.25;"/><path d="M160.5,855 L160.5,895.5 M141,867 L180,867 M160.5,895.5 L141,918 M160.5,895.5 L180,918 " fill="none" filter="url(#fkrel4m0n2ezo)" style="stroke:#A80036;stroke-width:2.25;"/><text fill="#000000" font-family="sans-serif" font-size="21" lengthAdjust="spacing" textLength="223.5" x="48.75" y="948.0498">Medical Lab Technician</text><ellipse cx="627.0205" cy="890.8541" fill="#FEFECE" filter="url(#fkrel4m0n2ezo)" rx="172.5205" ry="38.1041" style="stroke:#A80036;stroke-width:2.25;"/><text fill="#000000" font-family="sans-serif" font-size="21" lengthAdjust="spacing" textLength="291" x="481.5205" y="896.4469">UC5 - Collect samples of a test</text><!--MD5=[18af4c473deb443d534770acb31d39fc]
entity AutoTimer--><ellipse cx="160.5" cy="21" fill="#FEFECE" filter="url(#fkrel4m0n2ezo)" rx="12" ry="12" style="stroke:#A80036;stroke-width:2.25;"/><path d="M160.5,33 L160.5,73.5 M141,45 L180,45 M160.5,73.5 L141,96 M160.5,73.5 L180,96 " fill="none" filter="url(#fkrel4m0n2ezo)" style="stroke:#A80036;stroke-width:2.25;"/><text fill="#000000" font-family="sans-serif" font-size="21" lengthAdjust="spacing" textLength="97.5" x="111.75" y="126.0498">AutoTimer</text><ellipse cx="627.2573" cy="69.0515" fill="#FEFECE" filter="url(#fkrel4m0n2ezo)" rx="188.5073" ry="41.3015" style="stroke:#A80036;stroke-width:2.25;"/><text fill="#000000" font-family="sans-serif" font-size="21" lengthAdjust="spacing" textLength="325.5" x="464.5073" y="74.6442">UC? - Generate/Send NHS reports</text><!--MD5=[be3998c72b87ba5e57ce49034da4d178]
link Administrator to UC11--><path d="M223.185,1625.46 C269.205,1583.79 335.52,1529.31 402,1494 C428.34,1480.02 457.905,1468.26 486.705,1458.6 " fill="none" id="Administrator-to-UC11" style="stroke:#A80036;stroke-width:1.5;"/><polygon fill="#A80036" points="494.01,1456.185,479.312,1454.6955,486.8842,1458.5245,483.0552,1466.0967,494.01,1456.185" style="stroke:#A80036;stroke-width:1.5;"/><!--MD5=[ab99f48932216074116544fd3550588e]
link Administrator to UC10--><path d="M223.065,1667.895 C295.035,1648.335 416.28,1615.38 506.925,1590.735 " fill="none" id="Administrator-to-UC10" style="stroke:#A80036;stroke-width:1.5;"/><polygon fill="#A80036" points="514.5,1588.68,499.8981,1586.4362,507.2633,1590.6498,503.0497,1598.0149,514.5,1588.68" style="stroke:#A80036;stroke-width:1.5;"/><!--MD5=[072e7224fc1cc1ccfbf1faef44ac74bd]
link Administrator to UC9--><path d="M223.065,1684.5 C284.04,1684.5 380.355,1684.5 463.485,1684.5 " fill="none" id="Administrator-to-UC9" style="stroke:#A80036;stroke-width:1.5;"/><polygon fill="#A80036" points="471.48,1684.5,457.98,1678.5,463.98,1684.5,457.98,1690.5,471.48,1684.5" style="stroke:#A80036;stroke-width:1.5;"/><!--MD5=[8e45005a60fc83257062595f690dd308]
link Administrator to UC8--><path d="M223.065,1702.485 C289.425,1722.03 397.65,1753.905 485.175,1779.675 " fill="none" id="Administrator-to-UC8" style="stroke:#A80036;stroke-width:1.5;"/><polygon fill="#A80036" points="492.51,1781.835,481.2639,1772.255,485.3175,1779.7095,477.8631,1783.763,492.51,1781.835" style="stroke:#A80036;stroke-width:1.5;"/><!--MD5=[e7236cf91a525d40d7e31eb13cfc0f87]
link Administrator to UC7--><path d="M217.275,1746.855 C262.53,1794.27 330.54,1857.675 402,1896 C432.78,1912.5 468.42,1924.725 502.08,1933.65 " fill="none" id="Administrator-to-UC7" style="stroke:#A80036;stroke-width:1.5;"/><polygon fill="#A80036" points="509.685,1935.63,498.1256,1926.4305,502.4256,1933.7456,495.1105,1938.0455,509.685,1935.63" style="stroke:#A80036;stroke-width:1.5;"/><!--MD5=[1206fa78f124f2145e10db95e6cda278]
link Client to UC?????--><path d="M187.575,1291.5 C238.53,1291.5 356.49,1291.5 457.14,1291.5 " fill="none" id="Client-to-UC?????" style="stroke:#A80036;stroke-width:1.5;"/><polygon fill="#A80036" points="464.97,1291.5,451.47,1285.5,457.47,1291.5,451.47,1297.5,464.97,1291.5" style="stroke:#A80036;stroke-width:1.5;"/><!--MD5=[2f1b394e2924067056fccacd5d16a564]
link Receptionist to UC3--><path d="M219.3,1071.6 C285.255,1067.13 395.925,1059.6 485.115,1053.54 " fill="none" id="Receptionist-to-UC3" style="stroke:#A80036;stroke-width:1.5;"/><polygon fill="#A80036" points="493.14,1053,479.2602,1047.9403,485.6577,1053.5145,480.0834,1059.912,493.14,1053" style="stroke:#A80036;stroke-width:1.5;"/><!--MD5=[580bd904bf5bb4915d508c6693e85430]
link Receptionist to UC4--><path d="M219.3,1086.63 C287.625,1099.89 403.95,1122.48 494.655,1140.09 " fill="none" id="Receptionist-to-UC4" style="stroke:#A80036;stroke-width:1.5;"/><polygon fill="#A80036" points="502.245,1141.56,490.141,1133.0898,494.8833,1140.1262,487.8469,1144.8685,502.245,1141.56" style="stroke:#A80036;stroke-width:1.5;"/><!--MD5=[8647f4aa24e4735bdabbc21c8a855e81]
link Laboratory Coordinator to UC????--><path d="M271.845,320.67 C340.815,298.785 429.93,270.525 501.45,247.845 " fill="none" id="Laboratory Coordinator-to-UC????" style="stroke:#A80036;stroke-width:1.5;"/><polygon fill="#A80036" points="508.755,245.52,494.0711,243.8975,501.6083,247.7949,497.7109,255.3322,508.755,245.52" style="stroke:#A80036;stroke-width:1.5;"/><!--MD5=[93c048a75871c0c0384061363f4cf51d]
link Laboratory Coordinator to UC???--><path d="M271.845,355.5 C308.895,355.5 351.75,355.5 394.56,355.5 " fill="none" id="Laboratory Coordinator-to-UC???" style="stroke:#A80036;stroke-width:1.5;"/><polygon fill="#A80036" points="402.555,355.5,389.055,349.5,395.055,355.5,389.055,361.5,402.555,355.5" style="stroke:#A80036;stroke-width:1.5;"/><!--MD5=[636c89b31f59b5ce1c01985b3bb21b06]
link Specialist Doctor to UC???????--><path d="M240.105,528.18 C294.495,524.145 369.435,518.565 438.78,513.405 " fill="none" id="Specialist Doctor-to-UC???????" style="stroke:#A80036;stroke-width:1.5;"/><polygon fill="#A80036" points="446.34,512.835,432.4316,507.8545,438.8607,513.3922,433.3231,519.8214,446.34,512.835" style="stroke:#A80036;stroke-width:1.5;"/><!--MD5=[8c6f37ecfb9c146d07d101424c18a54c]
link Specialist Doctor to UC??--><path d="M240.105,549.93 C313.23,564.84 423.51,587.31 507.39,604.425 " fill="none" id="Specialist Doctor-to-UC??" style="stroke:#A80036;stroke-width:1.5;"/><polygon fill="#A80036" points="514.905,605.955,502.8774,597.3767,507.5565,604.4553,500.4779,609.1344,514.905,605.955" style="stroke:#A80036;stroke-width:1.5;"/><!--MD5=[300369490672056c9fc2112bdeadf8b9]
link Clinical Chemestry Technologist to UC??????--><path d="M312.48,727.11 C352.92,731.04 397.14,735.33 439.275,739.425 " fill="none" id="Clinical Chemestry Technologist-to-UC??????" style="stroke:#A80036;stroke-width:1.5;"/><polygon fill="#A80036" points="447.105,740.175,434.2317,732.9273,439.6385,739.467,433.0989,744.8737,447.105,740.175" style="stroke:#A80036;stroke-width:1.5;"/><!--MD5=[e455aecf4bb2d472b203e426e8851312]
link Clinical Chemestry Technologist to UC??--><path d="M312.48,685.23 C373.71,674.13 443.595,661.47 501.765,650.925 " fill="none" id="Clinical Chemestry Technologist-to-UC??" style="stroke:#A80036;stroke-width:1.5;"/><polygon fill="#A80036" points="509.535,649.515,495.1848,646.0047,502.1539,650.8453,497.3133,657.8144,509.535,649.515" style="stroke:#A80036;stroke-width:1.5;"/><!--MD5=[515cde7edfcc7c3c02a6a3eaae6b8e91]
link Laboratory Coordinator to UC??--><path d="M271.71,414.33 C285.9,423.915 299.745,434.385 312,445.5 C361.77,490.65 346.575,529.005 402,567 C429.315,585.72 462.15,598.755 494.145,607.83 " fill="none" id="Laboratory Coordinator-to-UC??" style="stroke:#A80036;stroke-width:1.5;"/><polygon fill="#A80036" points="501.39,609.825,489.9726,600.4499,494.1602,607.8298,486.7803,612.0175,501.39,609.825" style="stroke:#A80036;stroke-width:1.5;"/><!--MD5=[c0c3f4e40a86a5bcafc9f91950e9df97]
link Medical Lab Technician to UC??--><path d="M272.505,830.955 C286.35,821.655 299.88,811.59 312,801 C360.21,758.865 348.405,723.54 402,688.5 C429.39,670.59 461.985,657.99 493.695,649.155 " fill="none" id="Medical Lab Technician-to-UC??" style="stroke:#A80036;stroke-width:1.5;"/><polygon fill="#A80036" points="501.3,647.1,486.7043,644.8159,494.0579,649.0498,489.824,656.4033,501.3,647.1" style="stroke:#A80036;stroke-width:1.5;"/><!--MD5=[f3519bf8acfc18d67cd823383e1bb3f8]
link Medical Lab Technician to UC5--><path d="M272.43,891 C324.45,891 387.825,891 446.46,891 " fill="none" id="Medical Lab Technician-to-UC5" style="stroke:#A80036;stroke-width:1.5;"/><polygon fill="#A80036" points="454.32,891,440.82,885,446.82,891,440.82,897,454.32,891" style="stroke:#A80036;stroke-width:1.5;"/><!--MD5=[f2709bba71a9b7f55594dd9e0f6faa8d]
link AutoTimer to UC?--><path d="M209.43,69 C261.72,69 349.275,69 430.605,69 " fill="none" id="AutoTimer-to-UC?" style="stroke:#A80036;stroke-width:1.5;"/><polygon fill="#A80036" points="438.465,69,424.965,63,430.965,69,424.965,75,438.465,69" style="stroke:#A80036;stroke-width:1.5;"/><!--MD5=[07ccc6be4fc33eedad8625d9242ff6fd]
@startuml
left to right direction
'https://plantuml.com/use-case-diagram

:Administrator: - -> (UC11)
"UC11 - Create a parameter Category" as (UC11)

:Administrator: - -> (UC10)
"UC10 - Create a test parameter" as (UC10)

:Administrator: - -> (UC9)
"UC9 - Create a type of test" as (UC9)

:Administrator: - -> (UC8)
"UC8 - Create a ClinicalAnalysis Laboratory" as (UC8)

:Administrator: - -> (UC7)
"UC7 - Register Employee" as (UC7)

:Client: - -> (UC?????)
"UC????? - View test Results" as (UC?????)

:Receptionist: - -> (UC3)
"UC3 - Register a Client" as (UC3)

:Receptionist: - -> (UC4)
"UC4 - Register Test Request" as (UC4)

:Laboratory Coordinator: - -> (UC????)
"UC???? - Evaluate Tests Waiting Time" as (UC????)

:Laboratory Coordinator: - -> (UC???)
"UC??? - Validate Test Procedures/Results" as (UC???)

:Specialist Doctor: - -> (UC???????)
"UC??????? - Makes test diagnosis" as (UC???????)

:Specialist Doctor: - -> (UC??)
"UC?? - Check test results" as (UC??)

:Clinical Chemestry Technologist: - -> (UC??????)
"UC?????? - Record Sample Results" as (UC??????)

:Clinical Chemestry Technologist: - -> (UC??)
"UC?? - Check test results" as (UC??)

:Laboratory Coordinator: - -> (UC??)
"UC?? - Check test results" as (UC??)

:Medical Lab Technician: - -> (UC??)
"UC?? - Check test results" as (UC??)

:Medical Lab Technician: - -> (UC5)
"UC5 - Collect samples of a test" as (UC5)


:AutoTimer: - -> (UC?)
"UC? - Generate/Send NHS reports" as (UC?)
@enduml

@startuml
left to right direction

:Administrator: - -> (UC11)
"UC11 - Create a parameter Category" as (UC11)

:Administrator: - -> (UC10)
"UC10 - Create a test parameter" as (UC10)

:Administrator: - -> (UC9)
"UC9 - Create a type of test" as (UC9)

:Administrator: - -> (UC8)
"UC8 - Create a ClinicalAnalysis Laboratory" as (UC8)

:Administrator: - -> (UC7)
"UC7 - Register Employee" as (UC7)

:Client: - -> (UC?????)
"UC????? - View test Results" as (UC?????)

:Receptionist: - -> (UC3)
"UC3 - Register a Client" as (UC3)

:Receptionist: - -> (UC4)
"UC4 - Register Test Request" as (UC4)

:Laboratory Coordinator: - -> (UC????)
"UC???? - Evaluate Tests Waiting Time" as (UC????)

:Laboratory Coordinator: - -> (UC???)
"UC??? - Validate Test Procedures/Results" as (UC???)

:Specialist Doctor: - -> (UC???????)
"UC??????? - Makes test diagnosis" as (UC???????)

:Specialist Doctor: - -> (UC??)
"UC?? - Check test results" as (UC??)

:Clinical Chemestry Technologist: - -> (UC??????)
"UC?????? - Record Sample Results" as (UC??????)

:Clinical Chemestry Technologist: - -> (UC??)
"UC?? - Check test results" as (UC??)

:Laboratory Coordinator: - -> (UC??)
"UC?? - Check test results" as (UC??)

:Medical Lab Technician: - -> (UC??)
"UC?? - Check test results" as (UC??)

:Medical Lab Technician: - -> (UC5)
"UC5 - Collect samples of a test" as (UC5)


:AutoTimer: - -> (UC?)
"UC? - Generate/Send NHS reports" as (UC?)
@enduml

PlantUML version 1.2021.00(Sun Jan 10 10:25:05 GMT 2021)
(GPL source distribution)
Java Runtime: OpenJDK Runtime Environment
JVM: OpenJDK 64-Bit Server VM
Default Encoding: Cp1252
Language: pt
Country: PT
--></g></svg>