<?xml version="1.0" encoding="UTF-8" standalone="no"?><svg xmlns="http://www.w3.org/2000/svg" xmlns:xlink="http://www.w3.org/1999/xlink" contentScriptType="application/ecmascript" contentStyleType="text/css" height="459px" preserveAspectRatio="none" style="width:423px;height:459px;" version="1.1" viewBox="0 0 423 459" width="423px" zoomAndPan="magnify"><defs><filter height="300%" id="f1i21xqqp3qaw7" width="300%" x="-1" y="-1"><feGaussianBlur result="blurOut" stdDeviation="2.0"/><feColorMatrix in="blurOut" result="blurOut2" type="matrix" values="0 0 0 0 0 0 0 0 0 0 0 0 0 0 0 0 0 0 .4 0"/><feOffset dx="4.0" dy="4.0" in="blurOut2" result="blurOut3"/><feBlend in="SourceGraphic" in2="blurOut3" mode="normal"/></filter></defs><g><!--MD5=[12e90e92236ca84f203192a07d84ec5e]
class OrganizationRole--><rect codeLine="4" fill="#FEFECE" filter="url(#f1i21xqqp3qaw7)" height="61.8359" id="OrganizationRole" style="stroke:#A80036;stroke-width:1.5;" width="127" x="7" y="181.5"/><ellipse cx="22" cy="197.5" fill="#ADD1B2" rx="11" ry="11" style="stroke:#A80036;stroke-width:1.0;"/><path d="M24,194 Q24.2031,193.5 24.4375,193.25 Q24.6719,193 24.9375,193 Q25.4063,193 25.7031,193.2813 Q26,193.5625 26,194.2188 L26,195.7813 Q26,196.4375 25.7188,196.7188 Q25.4375,197 25,197 Q24.6094,197 24.3594,196.8281 Q24.1094,196.6563 24,196.2031 Q23.9531,195.8906 23.7813,195.7188 Q23.4688,195.3906 22.9063,195.2031 Q22.3438,195 21.7813,195 Q21.0781,195 20.4844,195.2813 Q19.9063,195.5625 19.4531,196.1875 Q19,196.8125 19,197.6719 L19,198.5938 Q19,199.625 19.8438,200.3125 Q20.6875,201 22.1875,201 Q23.0781,201 23.7031,200.7969 Q24.0625,200.6875 24.4688,200.3281 Q24.7344,200.125 24.875,200.0625 Q25.0156,200 25.1875,200 Q25.5156,200 25.75,200.2656 Q26,200.5156 26,200.875 Q26,201.2188 25.6563,201.625 Q25.1563,202.2188 24.3594,202.5469 Q23.3125,203 22.0313,203 Q20.5313,203 19.3281,202.4063 Q18.3594,201.9375 17.6719,200.9219 Q17,199.9063 17,198.7031 L17,197.6094 Q17,196.3594 17.5938,195.2656 Q18.2031,194.1719 19.25,193.5938 Q20.3125,193 21.5,193 Q22.2188,193 22.8438,193.25 Q23.4688,193.5 24,194 Z " fill="#000000"/><text fill="#000000" font-family="sans-serif" font-size="12" lengthAdjust="spacing" textLength="95" x="36" y="202.4102">OrganizationRole</text><line style="stroke:#A80036;stroke-width:1.5;" x1="8" x2="133" y1="213.5" y2="213.5"/><text fill="#000000" font-family="sans-serif" font-size="11" lengthAdjust="spacing" textLength="57" x="13" y="228.9189">-description</text><line style="stroke:#A80036;stroke-width:1.5;" x1="8" x2="133" y1="235.3359" y2="235.3359"/><!--MD5=[3fd616f346a44cd59a91eb10b19e157c]
class User--><rect codeLine="7" fill="#FEFECE" filter="url(#f1i21xqqp3qaw7)" height="89.5078" id="User" style="stroke:#A80036;stroke-width:1.5;" width="66" x="186.5" y="356"/><ellipse cx="204.65" cy="372" fill="#ADD1B2" rx="11" ry="11" style="stroke:#A80036;stroke-width:1.0;"/><path d="M206.65,368.5 Q206.8531,368 207.0875,367.75 Q207.3219,367.5 207.5875,367.5 Q208.0563,367.5 208.3531,367.7813 Q208.65,368.0625 208.65,368.7188 L208.65,370.2813 Q208.65,370.9375 208.3688,371.2188 Q208.0875,371.5 207.65,371.5 Q207.2594,371.5 207.0094,371.3281 Q206.7594,371.1563 206.65,370.7031 Q206.6031,370.3906 206.4313,370.2188 Q206.1188,369.8906 205.5563,369.7031 Q204.9938,369.5 204.4313,369.5 Q203.7281,369.5 203.1344,369.7813 Q202.5563,370.0625 202.1031,370.6875 Q201.65,371.3125 201.65,372.1719 L201.65,373.0938 Q201.65,374.125 202.4938,374.8125 Q203.3375,375.5 204.8375,375.5 Q205.7281,375.5 206.3531,375.2969 Q206.7125,375.1875 207.1188,374.8281 Q207.3844,374.625 207.525,374.5625 Q207.6656,374.5 207.8375,374.5 Q208.1656,374.5 208.4,374.7656 Q208.65,375.0156 208.65,375.375 Q208.65,375.7188 208.3063,376.125 Q207.8063,376.7188 207.0094,377.0469 Q205.9625,377.5 204.6813,377.5 Q203.1813,377.5 201.9781,376.9063 Q201.0094,376.4375 200.3219,375.4219 Q199.65,374.4063 199.65,373.2031 L199.65,372.1094 Q199.65,370.8594 200.2438,369.7656 Q200.8531,368.6719 201.9,368.0938 Q202.9625,367.5 204.15,367.5 Q204.8688,367.5 205.4938,367.75 Q206.1188,368 206.65,368.5 Z " fill="#000000"/><text fill="#000000" font-family="sans-serif" font-size="12" lengthAdjust="spacing" textLength="27" x="219.35" y="376.9102">User</text><line style="stroke:#A80036;stroke-width:1.5;" x1="187.5" x2="251.5" y1="388" y2="388"/><text fill="#000000" font-family="sans-serif" font-size="11" lengthAdjust="spacing" textLength="30" x="192.5" y="403.4189">-name</text><text fill="#000000" font-family="sans-serif" font-size="11" lengthAdjust="spacing" textLength="28" x="192.5" y="417.2549">-email</text><text fill="#000000" font-family="sans-serif" font-size="11" lengthAdjust="spacing" textLength="54" x="192.5" y="431.0908">-password</text><line style="stroke:#A80036;stroke-width:1.5;" x1="187.5" x2="251.5" y1="437.5078" y2="437.5078"/><!--MD5=[7421f545a0d8420c5bec41e74b387d9c]
class Employee--><rect codeLine="12" fill="#FEFECE" filter="url(#f1i21xqqp3qaw7)" height="131.0156" id="Employee" style="stroke:#A80036;stroke-width:1.5;" width="87" x="240" y="147"/><ellipse cx="255" cy="163" fill="#ADD1B2" rx="11" ry="11" style="stroke:#A80036;stroke-width:1.0;"/><path d="M257,159.5 Q257.2031,159 257.4375,158.75 Q257.6719,158.5 257.9375,158.5 Q258.4063,158.5 258.7031,158.7813 Q259,159.0625 259,159.7188 L259,161.2813 Q259,161.9375 258.7188,162.2188 Q258.4375,162.5 258,162.5 Q257.6094,162.5 257.3594,162.3281 Q257.1094,162.1563 257,161.7031 Q256.9531,161.3906 256.7813,161.2188 Q256.4688,160.8906 255.9063,160.7031 Q255.3438,160.5 254.7813,160.5 Q254.0781,160.5 253.4844,160.7813 Q252.9063,161.0625 252.4531,161.6875 Q252,162.3125 252,163.1719 L252,164.0938 Q252,165.125 252.8438,165.8125 Q253.6875,166.5 255.1875,166.5 Q256.0781,166.5 256.7031,166.2969 Q257.0625,166.1875 257.4688,165.8281 Q257.7344,165.625 257.875,165.5625 Q258.0156,165.5 258.1875,165.5 Q258.5156,165.5 258.75,165.7656 Q259,166.0156 259,166.375 Q259,166.7188 258.6563,167.125 Q258.1563,167.7188 257.3594,168.0469 Q256.3125,168.5 255.0313,168.5 Q253.5313,168.5 252.3281,167.9063 Q251.3594,167.4375 250.6719,166.4219 Q250,165.4063 250,164.2031 L250,163.1094 Q250,161.8594 250.5938,160.7656 Q251.2031,159.6719 252.25,159.0938 Q253.3125,158.5 254.5,158.5 Q255.2188,158.5 255.8438,158.75 Q256.4688,159 257,159.5 Z " fill="#000000"/><text fill="#000000" font-family="sans-serif" font-size="12" lengthAdjust="spacing" textLength="55" x="269" y="167.9102">Employee</text><line style="stroke:#A80036;stroke-width:1.5;" x1="241" x2="326" y1="179" y2="179"/><text fill="#000000" font-family="sans-serif" font-size="11" lengthAdjust="spacing" textLength="33" x="246" y="194.4189">-empID</text><text fill="#000000" font-family="sans-serif" font-size="11" lengthAdjust="spacing" textLength="30" x="246" y="208.2549">-name</text><text fill="#000000" font-family="sans-serif" font-size="11" lengthAdjust="spacing" textLength="44" x="246" y="222.0908">-address</text><text fill="#000000" font-family="sans-serif" font-size="11" lengthAdjust="spacing" textLength="71" x="246" y="235.9268">-phoneNumber</text><text fill="#000000" font-family="sans-serif" font-size="11" lengthAdjust="spacing" textLength="28" x="246" y="249.7627">-email</text><text fill="#000000" font-family="sans-serif" font-size="11" lengthAdjust="spacing" textLength="22" x="246" y="263.5986">-soc</text><line style="stroke:#A80036;stroke-width:1.5;" x1="241" x2="326" y1="270.0156" y2="270.0156"/><!--MD5=[02e4b9b7573f1156f41e60aa5b4e25a4]
class Company--><rect codeLine="20" fill="#FEFECE" filter="url(#f1i21xqqp3qaw7)" height="61.8359" id="Company" style="stroke:#A80036;stroke-width:1.5;" width="85" x="134" y="7"/><ellipse cx="149" cy="23" fill="#ADD1B2" rx="11" ry="11" style="stroke:#A80036;stroke-width:1.0;"/><path d="M151,19.5 Q151.2031,19 151.4375,18.75 Q151.6719,18.5 151.9375,18.5 Q152.4063,18.5 152.7031,18.7813 Q153,19.0625 153,19.7188 L153,21.2813 Q153,21.9375 152.7188,22.2188 Q152.4375,22.5 152,22.5 Q151.6094,22.5 151.3594,22.3281 Q151.1094,22.1563 151,21.7031 Q150.9531,21.3906 150.7813,21.2188 Q150.4688,20.8906 149.9063,20.7031 Q149.3438,20.5 148.7813,20.5 Q148.0781,20.5 147.4844,20.7813 Q146.9063,21.0625 146.4531,21.6875 Q146,22.3125 146,23.1719 L146,24.0938 Q146,25.125 146.8438,25.8125 Q147.6875,26.5 149.1875,26.5 Q150.0781,26.5 150.7031,26.2969 Q151.0625,26.1875 151.4688,25.8281 Q151.7344,25.625 151.875,25.5625 Q152.0156,25.5 152.1875,25.5 Q152.5156,25.5 152.75,25.7656 Q153,26.0156 153,26.375 Q153,26.7188 152.6563,27.125 Q152.1563,27.7188 151.3594,28.0469 Q150.3125,28.5 149.0313,28.5 Q147.5313,28.5 146.3281,27.9063 Q145.3594,27.4375 144.6719,26.4219 Q144,25.4063 144,24.2031 L144,23.1094 Q144,21.8594 144.5938,20.7656 Q145.2031,19.6719 146.25,19.0938 Q147.3125,18.5 148.5,18.5 Q149.2188,18.5 149.8438,18.75 Q150.4688,19 151,19.5 Z " fill="#000000"/><text fill="#000000" font-family="sans-serif" font-size="12" lengthAdjust="spacing" textLength="53" x="163" y="27.9102">Company</text><line style="stroke:#A80036;stroke-width:1.5;" x1="135" x2="218" y1="39" y2="39"/><text fill="#000000" font-family="sans-serif" font-size="11" lengthAdjust="spacing" textLength="59" x="140" y="54.4189">-designation</text><line style="stroke:#A80036;stroke-width:1.5;" x1="135" x2="218" y1="60.8359" y2="60.8359"/><!--MD5=[7d96fd15f3014691d2fcaf89c5791e2a]
class SpecialistDoctor--><rect codeLine="23" fill="#FEFECE" filter="url(#f1i21xqqp3qaw7)" height="61.8359" id="SpecialistDoctor" style="stroke:#A80036;stroke-width:1.5;" width="122" x="287.5" y="370"/><ellipse cx="302.5" cy="386" fill="#ADD1B2" rx="11" ry="11" style="stroke:#A80036;stroke-width:1.0;"/><path d="M304.5,382.5 Q304.7031,382 304.9375,381.75 Q305.1719,381.5 305.4375,381.5 Q305.9063,381.5 306.2031,381.7813 Q306.5,382.0625 306.5,382.7188 L306.5,384.2813 Q306.5,384.9375 306.2188,385.2188 Q305.9375,385.5 305.5,385.5 Q305.1094,385.5 304.8594,385.3281 Q304.6094,385.1563 304.5,384.7031 Q304.4531,384.3906 304.2813,384.2188 Q303.9688,383.8906 303.4063,383.7031 Q302.8438,383.5 302.2813,383.5 Q301.5781,383.5 300.9844,383.7813 Q300.4063,384.0625 299.9531,384.6875 Q299.5,385.3125 299.5,386.1719 L299.5,387.0938 Q299.5,388.125 300.3438,388.8125 Q301.1875,389.5 302.6875,389.5 Q303.5781,389.5 304.2031,389.2969 Q304.5625,389.1875 304.9688,388.8281 Q305.2344,388.625 305.375,388.5625 Q305.5156,388.5 305.6875,388.5 Q306.0156,388.5 306.25,388.7656 Q306.5,389.0156 306.5,389.375 Q306.5,389.7188 306.1563,390.125 Q305.6563,390.7188 304.8594,391.0469 Q303.8125,391.5 302.5313,391.5 Q301.0313,391.5 299.8281,390.9063 Q298.8594,390.4375 298.1719,389.4219 Q297.5,388.4063 297.5,387.2031 L297.5,386.1094 Q297.5,384.8594 298.0938,383.7656 Q298.7031,382.6719 299.75,382.0938 Q300.8125,381.5 302,381.5 Q302.7188,381.5 303.3438,381.75 Q303.9688,382 304.5,382.5 Z " fill="#000000"/><text fill="#000000" font-family="sans-serif" font-size="12" lengthAdjust="spacing" textLength="90" x="316.5" y="390.9102">SpecialistDoctor</text><line style="stroke:#A80036;stroke-width:1.5;" x1="288.5" x2="408.5" y1="402" y2="402"/><text fill="#000000" font-family="sans-serif" font-size="11" lengthAdjust="spacing" textLength="98" x="293.5" y="417.4189">-doctorIndexNumber</text><line style="stroke:#A80036;stroke-width:1.5;" x1="288.5" x2="408.5" y1="423.8359" y2="423.8359"/><!--MD5=[372bd27a178b4208a6d241b4516ac7e6]
reverse link Employee to SpecialistDoctor--><path codeLine="28" d="M322.46,296.85 C323.88,300.6 325.24,304.32 326.5,308 C333.44,328.19 339,351.6 342.8,369.75 " fill="none" id="Employee-backto-SpecialistDoctor" style="stroke:#A80036;stroke-width:1.0;"/><polygon fill="none" points="315.91,299.32,314.89,278.16,328.89,294.07,315.91,299.32" style="stroke:#A80036;stroke-width:1.0;"/><!--MD5=[9abf40ff36e4aa94ac761b2803c1dce8]
link Company to OrganizationRole--><path codeLine="29" d="M149.74,69.17 C142.12,78.43 134.1,88.85 127.5,99 C110.18,125.61 94.2,158.17 83.59,181.4 " fill="none" id="Company-OrganizationRole" style="stroke:#A80036;stroke-width:1.0;"/><polygon fill="#000000" points="129.9611,112.4832,137.0858,106.1833,132.0221,103.1987,129.9611,112.4832" style="stroke:#000000;stroke-width:1.0;"/><text fill="#000000" font-family="sans-serif" font-size="13" lengthAdjust="spacing" textLength="78" x="141.5" y="113.4951">comprehends</text><text fill="#000000" font-family="sans-serif" font-size="13" lengthAdjust="spacing" textLength="7" x="136.7826" y="90.4275">1</text><text fill="#000000" font-family="sans-serif" font-size="13" lengthAdjust="spacing" textLength="5" x="80.7742" y="170.8839">*</text><!--MD5=[22fb9506fac029fc1d2ae00f0eb8d606]
link Employee to User--><path codeLine="30" d="M261.3,278.21 C252.49,303.88 242.58,332.74 234.63,355.92 " fill="none" id="Employee-User" style="stroke:#A80036;stroke-width:1.0;"/><polygon fill="#000000" points="253.8769,321.905,259.5929,314.3038,254.0333,312.3957,253.8769,321.905" style="stroke:#000000;stroke-width:1.0;"/><text fill="#000000" font-family="sans-serif" font-size="13" lengthAdjust="spacing" textLength="54" x="264.5" y="322.4951">relates to</text><text fill="#000000" font-family="sans-serif" font-size="13" lengthAdjust="spacing" textLength="22" x="227.4638" y="299.3238">0..1</text><text fill="#000000" font-family="sans-serif" font-size="13" lengthAdjust="spacing" textLength="7" x="229.4835" y="345.0227">1</text><!--MD5=[09366576ee87d48d594df10cacc83f45]
link Company to Employee--><path codeLine="32" d="M202.59,69.29 C210.05,78.55 217.93,88.95 224.5,99 C234.33,114.05 243.89,130.91 252.34,146.92 " fill="none" id="Company-Employee" style="stroke:#A80036;stroke-width:1.0;"/><polygon fill="#000000" points="243.1978,112.3855,240.7918,103.1843,235.843,106.3558,243.1978,112.3855" style="stroke:#000000;stroke-width:1.0;"/><text fill="#000000" font-family="sans-serif" font-size="13" lengthAdjust="spacing" textLength="42" x="249.5" y="113.4951">employ</text><text fill="#000000" font-family="sans-serif" font-size="13" lengthAdjust="spacing" textLength="7" x="199.8962" y="90.3239">1</text><text fill="#000000" font-family="sans-serif" font-size="13" lengthAdjust="spacing" textLength="5" x="243.4481" y="135.9269">*</text><!--MD5=[9ebc047b0a6ee45af99af6abddb47db1]
link OrganizationRole to Employee--><path codeLine="33" d="M134.12,212.5 C168.2,212.5 209.31,212.5 239.77,212.5 " fill="none" id="OrganizationRole-Employee" style="stroke:#A80036;stroke-width:1.0;"/><polygon fill="#000000" points="151.5,200.6758,160.5451,203.6147,160.5451,197.7369,151.5,200.6758" style="stroke:#000000;stroke-width:1.0;"/><text fill="#000000" font-family="sans-serif" font-size="13" lengthAdjust="spacing" textLength="56" x="165.5" y="205.9951">has/plays</text><text fill="#000000" font-family="sans-serif" font-size="13" lengthAdjust="spacing" textLength="7" x="141.8808" y="209.0999">1</text><text fill="#000000" font-family="sans-serif" font-size="13" lengthAdjust="spacing" textLength="5" x="227.1132" y="208.6979">*</text><!--MD5=[c9c7f82cb7efc067772b6b63e604f196]
@startuml
'https://plantuml.com/class-diagram
skinparam classAttributeIconSize 0

class OrganizationRole{
    -description
}
class User{
    -name
    -email
    -password
}
class Employee{
    -empID
    -name
    -address
    -phoneNumber
    -email
    -soc
}
class Company{
    -designation
}
class SpecialistDoctor{
    -doctorIndexNumber
}


Employee <|- - SpecialistDoctor
Company "1" - - "*" OrganizationRole : > comprehends
Employee "0..1  " - - "1" User :  > relates to

Company "1" - "*" Employee : > employ
OrganizationRole "1" - "*" Employee : < has/plays




@enduml

@startuml
skinparam classAttributeIconSize 0

class OrganizationRole{
    -description
}
class User{
    -name
    -email
    -password
}
class Employee{
    -empID
    -name
    -address
    -phoneNumber
    -email
    -soc
}
class Company{
    -designation
}
class SpecialistDoctor{
    -doctorIndexNumber
}


Employee <|- - SpecialistDoctor
Company "1" - - "*" OrganizationRole : > comprehends
Employee "0..1  " - - "1" User :  > relates to

Company "1" - "*" Employee : > employ
OrganizationRole "1" - "*" Employee : < has/plays




@enduml

PlantUML version 1.2021.5(Sun Apr 25 12:20:28 BST 2021)
(GPL source distribution)
Java Runtime: OpenJDK Runtime Environment
JVM: OpenJDK 64-Bit Server VM
Default Encoding: Cp1252
Language: pt
Country: PT
--></g></svg>