<?xml version="1.0" encoding="UTF-8" standalone="no"?><svg xmlns="http://www.w3.org/2000/svg" xmlns:xlink="http://www.w3.org/1999/xlink" contentScriptType="application/ecmascript" contentStyleType="text/css" height="663px" preserveAspectRatio="none" style="width:975px;height:663px;background:#FFFFFF;" version="1.1" viewBox="0 0 975 663" width="975px" zoomAndPan="magnify"><defs><filter height="300%" id="f1olli2o01cngp" width="300%" x="-1" y="-1"><feGaussianBlur result="blurOut" stdDeviation="2.0"/><feColorMatrix in="blurOut" result="blurOut2" type="matrix" values="0 0 0 0 0 0 0 0 0 0 0 0 0 0 0 0 0 0 .4 0"/><feOffset dx="4.0" dy="4.0" in="blurOut2" result="blurOut3"/><feBlend in="SourceGraphic" in2="blurOut3" mode="normal"/></filter></defs><g><!--MD5=[b2a694e6474a2a9b22a2e31fbfd4909a]
class Rep--><rect codeLine="3" fill="#FEFECE" filter="url(#f1olli2o01cngp)" height="131.0156" id="Rep" style="stroke:#A80036;stroke-width:1.5;" width="518" x="109.5" y="518"/><ellipse cx="352.75" cy="534" fill="#ADD1B2" rx="11" ry="11" style="stroke:#A80036;stroke-width:1.0;"/><path d="M354.75,530.5 Q354.9531,530 355.1875,529.75 Q355.4219,529.5 355.6875,529.5 Q356.1563,529.5 356.4531,529.7813 Q356.75,530.0625 356.75,530.7188 L356.75,532.2813 Q356.75,532.9375 356.4688,533.2188 Q356.1875,533.5 355.75,533.5 Q355.3594,533.5 355.1094,533.3281 Q354.8594,533.1563 354.75,532.7031 Q354.7031,532.3906 354.5313,532.2188 Q354.2188,531.8906 353.6563,531.7031 Q353.0938,531.5 352.5313,531.5 Q351.8281,531.5 351.2344,531.7813 Q350.6563,532.0625 350.2031,532.6875 Q349.75,533.3125 349.75,534.1719 L349.75,535.0938 Q349.75,536.125 350.5938,536.8125 Q351.4375,537.5 352.9375,537.5 Q353.8281,537.5 354.4531,537.2969 Q354.8125,537.1875 355.2188,536.8281 Q355.4844,536.625 355.625,536.5625 Q355.7656,536.5 355.9375,536.5 Q356.2656,536.5 356.5,536.7656 Q356.75,537.0156 356.75,537.375 Q356.75,537.7188 356.4063,538.125 Q355.9063,538.7188 355.1094,539.0469 Q354.0625,539.5 352.7813,539.5 Q351.2813,539.5 350.0781,538.9063 Q349.1094,538.4375 348.4219,537.4219 Q347.75,536.4063 347.75,535.2031 L347.75,534.1094 Q347.75,532.8594 348.3438,531.7656 Q348.9531,530.6719 350,530.0938 Q351.0625,529.5 352.25,529.5 Q352.9688,529.5 353.5938,529.75 Q354.2188,530 354.75,530.5 Z " fill="#000000"/><text fill="#000000" font-family="sans-serif" font-size="12" lengthAdjust="spacing" textLength="23" x="373.25" y="538.9102">Rep</text><line style="stroke:#A80036;stroke-width:1.5;" x1="110.5" x2="626.5" y1="550" y2="550"/><text fill="#000000" font-family="sans-serif" font-size="11" lengthAdjust="spacing" textLength="112" x="115.5" y="565.4189">-Integer historicalPoints</text><text fill="#000000" font-family="sans-serif" font-size="11" lengthAdjust="spacing" textLength="104" x="115.5" y="579.2549">-Date intervalOfDates</text><text fill="#000000" font-family="sans-serif" font-size="11" lengthAdjust="spacing" textLength="115" x="115.5" y="593.0908">-String regressionModel</text><text fill="#000000" font-family="sans-serif" font-size="11" lengthAdjust="spacing" textLength="155" x="115.5" y="606.9268">-Double [] independentVariableX</text><text fill="#000000" font-family="sans-serif" font-size="11" lengthAdjust="spacing" textLength="156" x="115.5" y="620.7627">-Double [] independentVariableY</text><line style="stroke:#A80036;stroke-width:1.5;" x1="110.5" x2="626.5" y1="627.1797" y2="627.1797"/><text fill="#000000" font-family="sans-serif" font-size="11" lengthAdjust="spacing" textLength="506" x="115.5" y="642.5986">+Rep(historical points, interval of dates, regression model, independentVariableX, independentVariableY)</text><!--MD5=[df38be88ccee13e832d6fafd6288a4ca]
class Test--><rect codeLine="12" fill="#FEFECE" filter="url(#f1olli2o01cngp)" height="75.6719" id="Test" style="stroke:#A80036;stroke-width:1.5;" width="76" x="732.5" y="545.5"/><ellipse cx="756.5" cy="561.5" fill="#ADD1B2" rx="11" ry="11" style="stroke:#A80036;stroke-width:1.0;"/><path d="M758.5,558 Q758.7031,557.5 758.9375,557.25 Q759.1719,557 759.4375,557 Q759.9063,557 760.2031,557.2813 Q760.5,557.5625 760.5,558.2188 L760.5,559.7813 Q760.5,560.4375 760.2188,560.7188 Q759.9375,561 759.5,561 Q759.1094,561 758.8594,560.8281 Q758.6094,560.6563 758.5,560.2031 Q758.4531,559.8906 758.2813,559.7188 Q757.9688,559.3906 757.4063,559.2031 Q756.8438,559 756.2813,559 Q755.5781,559 754.9844,559.2813 Q754.4063,559.5625 753.9531,560.1875 Q753.5,560.8125 753.5,561.6719 L753.5,562.5938 Q753.5,563.625 754.3438,564.3125 Q755.1875,565 756.6875,565 Q757.5781,565 758.2031,564.7969 Q758.5625,564.6875 758.9688,564.3281 Q759.2344,564.125 759.375,564.0625 Q759.5156,564 759.6875,564 Q760.0156,564 760.25,564.2656 Q760.5,564.5156 760.5,564.875 Q760.5,565.2188 760.1563,565.625 Q759.6563,566.2188 758.8594,566.5469 Q757.8125,567 756.5313,567 Q755.0313,567 753.8281,566.4063 Q752.8594,565.9375 752.1719,564.9219 Q751.5,563.9063 751.5,562.7031 L751.5,561.6094 Q751.5,560.3594 752.0938,559.2656 Q752.7031,558.1719 753.75,557.5938 Q754.8125,557 756,557 Q756.7188,557 757.3438,557.25 Q757.9688,557.5 758.5,558 Z " fill="#000000"/><text fill="#000000" font-family="sans-serif" font-size="12" lengthAdjust="spacing" textLength="24" x="772.5" y="566.4102">Test</text><line style="stroke:#A80036;stroke-width:1.5;" x1="733.5" x2="807.5" y1="577.5" y2="577.5"/><text fill="#000000" font-family="sans-serif" font-size="11" lengthAdjust="spacing" textLength="64" x="738.5" y="592.9189">-Integer code</text><text fill="#000000" font-family="sans-serif" font-size="11" lengthAdjust="spacing" textLength="61" x="738.5" y="606.7549">-String name</text><line style="stroke:#A80036;stroke-width:1.5;" x1="733.5" x2="807.5" y1="613.1719" y2="613.1719"/><!--MD5=[02e4b9b7573f1156f41e60aa5b4e25a4]
class Company--><rect codeLine="17" fill="#FEFECE" filter="url(#f1olli2o01cngp)" height="131.0156" id="Company" style="stroke:#A80036;stroke-width:1.5;" width="577" x="7" y="288"/><ellipse cx="264.75" cy="304" fill="#ADD1B2" rx="11" ry="11" style="stroke:#A80036;stroke-width:1.0;"/><path d="M266.75,300.5 Q266.9531,300 267.1875,299.75 Q267.4219,299.5 267.6875,299.5 Q268.1563,299.5 268.4531,299.7813 Q268.75,300.0625 268.75,300.7188 L268.75,302.2813 Q268.75,302.9375 268.4688,303.2188 Q268.1875,303.5 267.75,303.5 Q267.3594,303.5 267.1094,303.3281 Q266.8594,303.1563 266.75,302.7031 Q266.7031,302.3906 266.5313,302.2188 Q266.2188,301.8906 265.6563,301.7031 Q265.0938,301.5 264.5313,301.5 Q263.8281,301.5 263.2344,301.7813 Q262.6563,302.0625 262.2031,302.6875 Q261.75,303.3125 261.75,304.1719 L261.75,305.0938 Q261.75,306.125 262.5938,306.8125 Q263.4375,307.5 264.9375,307.5 Q265.8281,307.5 266.4531,307.2969 Q266.8125,307.1875 267.2188,306.8281 Q267.4844,306.625 267.625,306.5625 Q267.7656,306.5 267.9375,306.5 Q268.2656,306.5 268.5,306.7656 Q268.75,307.0156 268.75,307.375 Q268.75,307.7188 268.4063,308.125 Q267.9063,308.7188 267.1094,309.0469 Q266.0625,309.5 264.7813,309.5 Q263.2813,309.5 262.0781,308.9063 Q261.1094,308.4375 260.4219,307.4219 Q259.75,306.4063 259.75,305.2031 L259.75,304.1094 Q259.75,302.8594 260.3438,301.7656 Q260.9531,300.6719 262,300.0938 Q263.0625,299.5 264.25,299.5 Q264.9688,299.5 265.5938,299.75 Q266.2188,300 266.75,300.5 Z " fill="#000000"/><text fill="#000000" font-family="sans-serif" font-size="12" lengthAdjust="spacing" textLength="53" x="285.25" y="308.9102">Company</text><line style="stroke:#A80036;stroke-width:1.5;" x1="8" x2="583" y1="320" y2="320"/><text fill="#000000" font-family="sans-serif" font-size="11" lengthAdjust="spacing" textLength="90" x="13" y="335.4189">-String designation</text><line style="stroke:#A80036;stroke-width:1.5;" x1="8" x2="583" y1="341.8359" y2="341.8359"/><text fill="#000000" font-family="sans-serif" font-size="11" lengthAdjust="spacing" textLength="114" x="13" y="357.2549">+Company(designation)</text><text fill="#000000" font-family="sans-serif" font-size="11" lengthAdjust="spacing" textLength="565" x="13" y="371.0908">+createRep(historical points, interval of dates, regression model, independentVariableX, independentVariableY) : Rep</text><text fill="#000000" font-family="sans-serif" font-size="11" lengthAdjust="spacing" textLength="105" x="13" y="384.9268">+saveRep(Rep) : bool</text><text fill="#000000" font-family="sans-serif" font-size="11" lengthAdjust="spacing" textLength="116" x="13" y="398.7627">-validateRep(Rep) : bool</text><text fill="#000000" font-family="sans-serif" font-size="11" lengthAdjust="spacing" textLength="97" x="13" y="412.5986">-addRep(Rep) : bool</text><!--MD5=[da547346deef918ea16944ba046651ef]
class Administrator--><rect codeLine="26" fill="#FEFECE" filter="url(#f1olli2o01cngp)" height="172.5234" id="Administrator" style="stroke:#A80036;stroke-width:1.5;" width="179" x="762" y="267"/><ellipse cx="810.75" cy="283" fill="#ADD1B2" rx="11" ry="11" style="stroke:#A80036;stroke-width:1.0;"/><path d="M812.75,279.5 Q812.9531,279 813.1875,278.75 Q813.4219,278.5 813.6875,278.5 Q814.1563,278.5 814.4531,278.7813 Q814.75,279.0625 814.75,279.7188 L814.75,281.2813 Q814.75,281.9375 814.4688,282.2188 Q814.1875,282.5 813.75,282.5 Q813.3594,282.5 813.1094,282.3281 Q812.8594,282.1563 812.75,281.7031 Q812.7031,281.3906 812.5313,281.2188 Q812.2188,280.8906 811.6563,280.7031 Q811.0938,280.5 810.5313,280.5 Q809.8281,280.5 809.2344,280.7813 Q808.6563,281.0625 808.2031,281.6875 Q807.75,282.3125 807.75,283.1719 L807.75,284.0938 Q807.75,285.125 808.5938,285.8125 Q809.4375,286.5 810.9375,286.5 Q811.8281,286.5 812.4531,286.2969 Q812.8125,286.1875 813.2188,285.8281 Q813.4844,285.625 813.625,285.5625 Q813.7656,285.5 813.9375,285.5 Q814.2656,285.5 814.5,285.7656 Q814.75,286.0156 814.75,286.375 Q814.75,286.7188 814.4063,287.125 Q813.9063,287.7188 813.1094,288.0469 Q812.0625,288.5 810.7813,288.5 Q809.2813,288.5 808.0781,287.9063 Q807.1094,287.4375 806.4219,286.4219 Q805.75,285.4063 805.75,284.2031 L805.75,283.1094 Q805.75,281.8594 806.3438,280.7656 Q806.9531,279.6719 808,279.0938 Q809.0625,278.5 810.25,278.5 Q810.9688,278.5 811.5938,278.75 Q812.2188,279 812.75,279.5 Z " fill="#000000"/><text fill="#000000" font-family="sans-serif" font-size="12" lengthAdjust="spacing" textLength="73" x="831.25" y="287.9102">Administrator</text><line style="stroke:#A80036;stroke-width:1.5;" x1="763" x2="940" y1="299" y2="299"/><text fill="#000000" font-family="sans-serif" font-size="11" lengthAdjust="spacing" textLength="90" x="768" y="314.4189">-String employeeID</text><text fill="#000000" font-family="sans-serif" font-size="11" lengthAdjust="spacing" textLength="115" x="768" y="328.2549">-String organizationRole</text><text fill="#000000" font-family="sans-serif" font-size="11" lengthAdjust="spacing" textLength="61" x="768" y="342.0908">-String name</text><text fill="#000000" font-family="sans-serif" font-size="11" lengthAdjust="spacing" textLength="75" x="768" y="355.9268">-String address</text><text fill="#000000" font-family="sans-serif" font-size="11" lengthAdjust="spacing" textLength="107" x="768" y="369.7627">-Integer phoneNumber</text><text fill="#000000" font-family="sans-serif" font-size="11" lengthAdjust="spacing" textLength="59" x="768" y="383.5986">-String email</text><text fill="#000000" font-family="sans-serif" font-size="11" lengthAdjust="spacing" textLength="58" x="768" y="397.4346">-Integer soc</text><line style="stroke:#A80036;stroke-width:1.5;" x1="763" x2="940" y1="403.8516" y2="403.8516"/><text fill="#000000" font-family="sans-serif" font-size="11" lengthAdjust="spacing" textLength="92" x="768" y="419.2705">+getTests() : string</text><text fill="#000000" font-family="sans-serif" font-size="11" lengthAdjust="spacing" textLength="167" x="768" y="433.1064">+getTestByCode(testCode) : string</text><!--MD5=[15ed9a3b232f5496241237c797d12826]
class CreateRepController--><rect codeLine="38" fill="#FEFECE" filter="url(#f1olli2o01cngp)" height="89.5078" id="CreateRepController" style="stroke:#A80036;stroke-width:1.5;" width="578" x="383.5" y="116"/><ellipse cx="611.25" cy="132" fill="#ADD1B2" rx="11" ry="11" style="stroke:#A80036;stroke-width:1.0;"/><path d="M613.25,128.5 Q613.4531,128 613.6875,127.75 Q613.9219,127.5 614.1875,127.5 Q614.6563,127.5 614.9531,127.7813 Q615.25,128.0625 615.25,128.7188 L615.25,130.2813 Q615.25,130.9375 614.9688,131.2188 Q614.6875,131.5 614.25,131.5 Q613.8594,131.5 613.6094,131.3281 Q613.3594,131.1563 613.25,130.7031 Q613.2031,130.3906 613.0313,130.2188 Q612.7188,129.8906 612.1563,129.7031 Q611.5938,129.5 611.0313,129.5 Q610.3281,129.5 609.7344,129.7813 Q609.1563,130.0625 608.7031,130.6875 Q608.25,131.3125 608.25,132.1719 L608.25,133.0938 Q608.25,134.125 609.0938,134.8125 Q609.9375,135.5 611.4375,135.5 Q612.3281,135.5 612.9531,135.2969 Q613.3125,135.1875 613.7188,134.8281 Q613.9844,134.625 614.125,134.5625 Q614.2656,134.5 614.4375,134.5 Q614.7656,134.5 615,134.7656 Q615.25,135.0156 615.25,135.375 Q615.25,135.7188 614.9063,136.125 Q614.4063,136.7188 613.6094,137.0469 Q612.5625,137.5 611.2813,137.5 Q609.7813,137.5 608.5781,136.9063 Q607.6094,136.4375 606.9219,135.4219 Q606.25,134.4063 606.25,133.2031 L606.25,132.1094 Q606.25,130.8594 606.8438,129.7656 Q607.4531,128.6719 608.5,128.0938 Q609.5625,127.5 610.75,127.5 Q611.4688,127.5 612.0938,127.75 Q612.7188,128 613.25,128.5 Z " fill="#000000"/><text fill="#000000" font-family="sans-serif" font-size="12" lengthAdjust="spacing" textLength="114" x="631.75" y="136.9102">CreateRepController</text><line style="stroke:#A80036;stroke-width:1.5;" x1="384.5" x2="960.5" y1="148" y2="148"/><line style="stroke:#A80036;stroke-width:1.5;" x1="384.5" x2="960.5" y1="156" y2="156"/><text fill="#000000" font-family="sans-serif" font-size="11" lengthAdjust="spacing" textLength="92" x="389.5" y="171.4189">+getTests() : string</text><text fill="#000000" font-family="sans-serif" font-size="11" lengthAdjust="spacing" textLength="566" x="389.5" y="185.2549">+createRep(historical points, interval of dates, regression model, independentVariableX, independentVariableY) : bool</text><text fill="#000000" font-family="sans-serif" font-size="11" lengthAdjust="spacing" textLength="86" x="389.5" y="199.0908">+saveRep() : bool</text><!--MD5=[94aa1383d4b6ae82108f04f8bf5ad458]
class CreateRepUI--><rect codeLine="44" fill="#FEFECE" filter="url(#f1olli2o01cngp)" height="48" id="CreateRepUI" style="stroke:#A80036;stroke-width:1.5;" width="104" x="620.5" y="7"/><ellipse cx="635.5" cy="23" fill="#ADD1B2" rx="11" ry="11" style="stroke:#A80036;stroke-width:1.0;"/><path d="M637.5,19.5 Q637.7031,19 637.9375,18.75 Q638.1719,18.5 638.4375,18.5 Q638.9063,18.5 639.2031,18.7813 Q639.5,19.0625 639.5,19.7188 L639.5,21.2813 Q639.5,21.9375 639.2188,22.2188 Q638.9375,22.5 638.5,22.5 Q638.1094,22.5 637.8594,22.3281 Q637.6094,22.1563 637.5,21.7031 Q637.4531,21.3906 637.2813,21.2188 Q636.9688,20.8906 636.4063,20.7031 Q635.8438,20.5 635.2813,20.5 Q634.5781,20.5 633.9844,20.7813 Q633.4063,21.0625 632.9531,21.6875 Q632.5,22.3125 632.5,23.1719 L632.5,24.0938 Q632.5,25.125 633.3438,25.8125 Q634.1875,26.5 635.6875,26.5 Q636.5781,26.5 637.2031,26.2969 Q637.5625,26.1875 637.9688,25.8281 Q638.2344,25.625 638.375,25.5625 Q638.5156,25.5 638.6875,25.5 Q639.0156,25.5 639.25,25.7656 Q639.5,26.0156 639.5,26.375 Q639.5,26.7188 639.1563,27.125 Q638.6563,27.7188 637.8594,28.0469 Q636.8125,28.5 635.5313,28.5 Q634.0313,28.5 632.8281,27.9063 Q631.8594,27.4375 631.1719,26.4219 Q630.5,25.4063 630.5,24.2031 L630.5,23.1094 Q630.5,21.8594 631.0938,20.7656 Q631.7031,19.6719 632.75,19.0938 Q633.8125,18.5 635,18.5 Q635.7188,18.5 636.3438,18.75 Q636.9688,19 637.5,19.5 Z " fill="#000000"/><text fill="#000000" font-family="sans-serif" font-size="12" lengthAdjust="spacing" textLength="72" x="649.5" y="27.9102">CreateRepUI</text><line style="stroke:#A80036;stroke-width:1.5;" x1="621.5" x2="723.5" y1="39" y2="39"/><line style="stroke:#A80036;stroke-width:1.5;" x1="621.5" x2="723.5" y1="47" y2="47"/><!--MD5=[1f800980922b52dadfa736c7d979343f]
link CreateRepUI to CreateRepController--><path codeLine="48" d="M672.5,55.18 C672.5,70.59 672.5,91.42 672.5,110.45 " fill="none" id="CreateRepUI-to-CreateRepController" style="stroke:#A80036;stroke-width:1.0;stroke-dasharray:7.0,7.0;"/><polygon fill="#A80036" points="672.5,115.76,676.5,106.76,672.5,110.76,668.5,106.76,672.5,115.76" style="stroke:#A80036;stroke-width:1.0;"/><!--MD5=[84aaa2ca519e1c200d4d7c1494175173]
link CreateRepController to Administrator--><path codeLine="49" d="M714.02,206.18 C729.99,223.19 748.86,243.27 767.42,263.02 " fill="none" id="CreateRepController-to-Administrator" style="stroke:#A80036;stroke-width:1.0;stroke-dasharray:7.0,7.0;"/><polygon fill="#A80036" points="771.13,266.97,767.8745,257.6747,767.7032,263.329,762.0489,263.1577,771.13,266.97" style="stroke:#A80036;stroke-width:1.0;"/><!--MD5=[e4da69b3ba3d33c539fe8c98b8b2e4c8]
link CreateRepController to Test--><path codeLine="50" d="M682.8,206.21 C701.77,287.6 741.99,460.16 760.63,540.15 " fill="none" id="CreateRepController-to-Test" style="stroke:#A80036;stroke-width:1.0;stroke-dasharray:7.0,7.0;"/><polygon fill="#A80036" points="761.83,545.29,763.6955,535.6194,760.7015,540.419,755.902,537.425,761.83,545.29" style="stroke:#A80036;stroke-width:1.0;"/><!--MD5=[c459a0efffd132a8faf526a08a8f1897]
link CreateRepController to Rep--><path codeLine="51" d="M671.27,206.06 C667.56,264.82 653.5,369.57 601.5,440 C579.4,469.94 548.95,494.91 517.35,515.15 " fill="none" id="CreateRepController-to-Rep" style="stroke:#A80036;stroke-width:1.0;stroke-dasharray:7.0,7.0;"/><polygon fill="#A80036" points="513.09,517.85,522.8352,516.4248,517.3171,515.1795,518.5624,509.6614,513.09,517.85" style="stroke:#A80036;stroke-width:1.0;"/><!--MD5=[9d32949397e56ab95a82c62802edcb1b]
link CreateRepController to Company--><path codeLine="52" d="M585.06,206.18 C538.4,229.76 480,259.27 427.9,285.6 " fill="none" id="CreateRepController-to-Company" style="stroke:#A80036;stroke-width:1.0;stroke-dasharray:7.0,7.0;"/><polygon fill="#A80036" points="423.2,287.97,433.0363,287.4725,427.6606,285.7111,429.422,280.3354,423.2,287.97" style="stroke:#A80036;stroke-width:1.0;"/><!--MD5=[c401600f479b7e6749d6cb5f5f2f4425]
link Rep to Test--><path codeLine="53" d="M627.64,583.5 C666.09,583.5 701.44,583.5 727.36,583.5 " fill="none" id="Rep-to-Test" style="stroke:#A80036;stroke-width:1.0;"/><polygon fill="#A80036" points="732.41,583.5,723.41,579.5,727.41,583.5,723.41,587.5,732.41,583.5" style="stroke:#A80036;stroke-width:1.0;"/><text fill="#000000" font-family="sans-serif" font-size="13" lengthAdjust="spacing" textLength="68" x="646" y="576.9951">classified in</text><text fill="#000000" font-family="sans-serif" font-size="13" lengthAdjust="spacing" textLength="5" x="635.4074" y="580.7626">*</text><text fill="#000000" font-family="sans-serif" font-size="13" lengthAdjust="spacing" textLength="5" x="719.4188" y="579.487">*</text><!--MD5=[f0cf61b3d44ca7b4a714aa4fb0975b4b]
link Administrator to Test--><path codeLine="54" d="M821.11,440.05 C808.89,474.45 795.35,512.54 785.36,540.68 " fill="none" id="Administrator-to-Test" style="stroke:#A80036;stroke-width:1.0;"/><polygon fill="#A80036" points="783.66,545.46,790.4444,538.3205,785.3353,540.749,782.9068,535.64,783.66,545.46" style="stroke:#A80036;stroke-width:1.0;"/><text fill="#000000" font-family="sans-serif" font-size="13" lengthAdjust="spacing" textLength="41" x="809.5" y="484.4951">defines</text><text fill="#000000" font-family="sans-serif" font-size="13" lengthAdjust="spacing" textLength="7" x="811.4094" y="461.1126">1</text><text fill="#000000" font-family="sans-serif" font-size="13" lengthAdjust="spacing" textLength="5" x="780.6254" y="534.5292">*</text><!--MD5=[4e0b73f3bfccd588025ff08a6e8d7de2]
link Company to Rep--><path codeLine="55" d="M316.22,419.23 C325.55,448.35 336.57,482.78 346.09,512.5 " fill="none" id="Company-to-Rep" style="stroke:#A80036;stroke-width:1.0;"/><polygon fill="#A80036" points="347.72,517.61,348.8101,507.8217,346.2075,512.8442,341.1849,510.2416,347.72,517.61" style="stroke:#A80036;stroke-width:1.0;"/><text fill="#000000" font-family="sans-serif" font-size="13" lengthAdjust="spacing" textLength="30" x="337.5" y="484.4951">owns</text><text fill="#000000" font-family="sans-serif" font-size="13" lengthAdjust="spacing" textLength="7" x="310.9958" y="440.3458">1</text><text fill="#000000" font-family="sans-serif" font-size="13" lengthAdjust="spacing" textLength="5" x="340.1738" y="507.0418">*</text><!--MD5=[e4ef1efd5d5c5d26c1a842ed0a79df8b]
@startuml
skinparam classAttributeIconSize 0

class Rep {
  -Integer historicalPoints
  -Date intervalOfDates
  -String regressionModel
  -Double [] independentVariableX
  -Double [] independentVariableY
  +Rep(historical points, interval of dates, regression model, independentVariableX, independentVariableY)
}

class Test {
  -Integer code
  -String name
}

class Company {
  -String designation
  +Company(designation)
  +createRep(historical points, interval of dates, regression model, independentVariableX, independentVariableY) : Rep
  +saveRep(Rep) : bool
  -validateRep(Rep) : bool
  -addRep(Rep) : bool
}

class Administrator {
  -String employeeID
  -String organizationRole
  -String name
  -String address
  -Integer phoneNumber
  -String email
  -Integer soc
  +getTests() : string
  +getTestByCode(testCode) : string
}

class CreateRepController {
  +getTests() : string
  +createRep(historical points, interval of dates, regression model, independentVariableX, independentVariableY) : bool
  +saveRep() : bool
}

class CreateRepUI {

}

CreateRepUI ..> CreateRepController
CreateRepController ..> Administrator
CreateRepController ..> Test
CreateRepController ..> Rep
CreateRepController ..> Company
Rep "*" -> "*" Test : classified in
Administrator "1" - -> "*" Test : defines
Company "1" - -> "*" Rep : owns

@enduml

PlantUML version 1.2021.7(Sun May 23 13:40:07 BST 2021)
(GPL source distribution)
Java Runtime: OpenJDK Runtime Environment
JVM: Dynamic Code Evolution 64-Bit Server VM
Default Encoding: Cp1252
Language: pt
Country: PT
--></g></svg>