<?xml version="1.0" encoding="UTF-8" standalone="no"?><svg xmlns="http://www.w3.org/2000/svg" xmlns:xlink="http://www.w3.org/1999/xlink" contentScriptType="application/ecmascript" contentStyleType="text/css" height="663px" preserveAspectRatio="none" style="width:1049px;height:663px;" version="1.1" viewBox="0 0 1049 663" width="1049px" zoomAndPan="magnify"><defs><filter height="300%" id="fpb6johdpyquk" width="300%" x="-1" y="-1"><feGaussianBlur result="blurOut" stdDeviation="2.0"/><feColorMatrix in="blurOut" result="blurOut2" type="matrix" values="0 0 0 0 0 0 0 0 0 0 0 0 0 0 0 0 0 0 .4 0"/><feOffset dx="4.0" dy="4.0" in="blurOut2" result="blurOut3"/><feBlend in="SourceGraphic" in2="blurOut3" mode="normal"/></filter></defs><g><!--MD5=[e45a4727c47b726c25e081782e8bc183]
class ApplicationPOT--><rect codeLine="3" fill="#FEFECE" filter="url(#fpb6johdpyquk)" height="75.6719" id="ApplicationPOT" style="stroke:#A80036;stroke-width:1.5;" width="116" x="493" y="315.5"/><ellipse cx="508" cy="331.5" fill="#ADD1B2" rx="11" ry="11" style="stroke:#A80036;stroke-width:1.0;"/><path d="M510,328 Q510.2031,327.5 510.4375,327.25 Q510.6719,327 510.9375,327 Q511.4063,327 511.7031,327.2813 Q512,327.5625 512,328.2188 L512,329.7813 Q512,330.4375 511.7188,330.7188 Q511.4375,331 511,331 Q510.6094,331 510.3594,330.8281 Q510.1094,330.6563 510,330.2031 Q509.9531,329.8906 509.7813,329.7188 Q509.4688,329.3906 508.9063,329.2031 Q508.3438,329 507.7813,329 Q507.0781,329 506.4844,329.2813 Q505.9063,329.5625 505.4531,330.1875 Q505,330.8125 505,331.6719 L505,332.5938 Q505,333.625 505.8438,334.3125 Q506.6875,335 508.1875,335 Q509.0781,335 509.7031,334.7969 Q510.0625,334.6875 510.4688,334.3281 Q510.7344,334.125 510.875,334.0625 Q511.0156,334 511.1875,334 Q511.5156,334 511.75,334.2656 Q512,334.5156 512,334.875 Q512,335.2188 511.6563,335.625 Q511.1563,336.2188 510.3594,336.5469 Q509.3125,337 508.0313,337 Q506.5313,337 505.3281,336.4063 Q504.3594,335.9375 503.6719,334.9219 Q503,333.9063 503,332.7031 L503,331.6094 Q503,330.3594 503.5938,329.2656 Q504.2031,328.1719 505.25,327.5938 Q506.3125,327 507.5,327 Q508.2188,327 508.8438,327.25 Q509.4688,327.5 510,328 Z " fill="#000000"/><text fill="#000000" font-family="sans-serif" font-size="12" lengthAdjust="spacing" textLength="84" x="522" y="336.4102">ApplicationPOT</text><line style="stroke:#A80036;stroke-width:1.5;" x1="494" x2="608" y1="347.5" y2="347.5"/><line style="stroke:#A80036;stroke-width:1.5;" x1="494" x2="608" y1="355.5" y2="355.5"/><text fill="#000000" font-family="sans-serif" font-size="11" lengthAdjust="spacing" textLength="99" x="499" y="370.9189">+static getInstance()</text><text fill="#000000" font-family="sans-serif" font-size="11" lengthAdjust="spacing" textLength="104" x="499" y="384.7549">+getCurrentSession()</text><!--MD5=[c5b08e60048ef1bcd788d24cf324082e]
class UserSession--><rect codeLine="9" fill="#FEFECE" filter="url(#fpb6johdpyquk)" height="61.8359" id="UserSession" style="stroke:#A80036;stroke-width:1.5;" width="105" x="644.5" y="322.5"/><ellipse cx="659.5" cy="338.5" fill="#ADD1B2" rx="11" ry="11" style="stroke:#A80036;stroke-width:1.0;"/><path d="M661.5,335 Q661.7031,334.5 661.9375,334.25 Q662.1719,334 662.4375,334 Q662.9063,334 663.2031,334.2813 Q663.5,334.5625 663.5,335.2188 L663.5,336.7813 Q663.5,337.4375 663.2188,337.7188 Q662.9375,338 662.5,338 Q662.1094,338 661.8594,337.8281 Q661.6094,337.6563 661.5,337.2031 Q661.4531,336.8906 661.2813,336.7188 Q660.9688,336.3906 660.4063,336.2031 Q659.8438,336 659.2813,336 Q658.5781,336 657.9844,336.2813 Q657.4063,336.5625 656.9531,337.1875 Q656.5,337.8125 656.5,338.6719 L656.5,339.5938 Q656.5,340.625 657.3438,341.3125 Q658.1875,342 659.6875,342 Q660.5781,342 661.2031,341.7969 Q661.5625,341.6875 661.9688,341.3281 Q662.2344,341.125 662.375,341.0625 Q662.5156,341 662.6875,341 Q663.0156,341 663.25,341.2656 Q663.5,341.5156 663.5,341.875 Q663.5,342.2188 663.1563,342.625 Q662.6563,343.2188 661.8594,343.5469 Q660.8125,344 659.5313,344 Q658.0313,344 656.8281,343.4063 Q655.8594,342.9375 655.1719,341.9219 Q654.5,340.9063 654.5,339.7031 L654.5,338.6094 Q654.5,337.3594 655.0938,336.2656 Q655.7031,335.1719 656.75,334.5938 Q657.8125,334 659,334 Q659.7188,334 660.3438,334.25 Q660.9688,334.5 661.5,335 Z " fill="#000000"/><text fill="#000000" font-family="sans-serif" font-size="12" lengthAdjust="spacing" textLength="73" x="673.5" y="343.4102">UserSession</text><line style="stroke:#A80036;stroke-width:1.5;" x1="645.5" x2="748.5" y1="354.5" y2="354.5"/><line style="stroke:#A80036;stroke-width:1.5;" x1="645.5" x2="748.5" y1="362.5" y2="362.5"/><text fill="#000000" font-family="sans-serif" font-size="11" lengthAdjust="spacing" textLength="76" x="650.5" y="377.9189">+getUserEmail()</text><!--MD5=[f4f2dbc6fdb443856f07c075b00fcd9d]
class CAL--><rect codeLine="14" fill="#FEFECE" filter="url(#fpb6johdpyquk)" height="131.0156" id="CAL" style="stroke:#A80036;stroke-width:1.5;" width="319" x="280.5" y="518"/><ellipse cx="424.25" cy="534" fill="#ADD1B2" rx="11" ry="11" style="stroke:#A80036;stroke-width:1.0;"/><path d="M426.25,530.5 Q426.4531,530 426.6875,529.75 Q426.9219,529.5 427.1875,529.5 Q427.6563,529.5 427.9531,529.7813 Q428.25,530.0625 428.25,530.7188 L428.25,532.2813 Q428.25,532.9375 427.9688,533.2188 Q427.6875,533.5 427.25,533.5 Q426.8594,533.5 426.6094,533.3281 Q426.3594,533.1563 426.25,532.7031 Q426.2031,532.3906 426.0313,532.2188 Q425.7188,531.8906 425.1563,531.7031 Q424.5938,531.5 424.0313,531.5 Q423.3281,531.5 422.7344,531.7813 Q422.1563,532.0625 421.7031,532.6875 Q421.25,533.3125 421.25,534.1719 L421.25,535.0938 Q421.25,536.125 422.0938,536.8125 Q422.9375,537.5 424.4375,537.5 Q425.3281,537.5 425.9531,537.2969 Q426.3125,537.1875 426.7188,536.8281 Q426.9844,536.625 427.125,536.5625 Q427.2656,536.5 427.4375,536.5 Q427.7656,536.5 428,536.7656 Q428.25,537.0156 428.25,537.375 Q428.25,537.7188 427.9063,538.125 Q427.4063,538.7188 426.6094,539.0469 Q425.5625,539.5 424.2813,539.5 Q422.7813,539.5 421.5781,538.9063 Q420.6094,538.4375 419.9219,537.4219 Q419.25,536.4063 419.25,535.2031 L419.25,534.1094 Q419.25,532.8594 419.8438,531.7656 Q420.4531,530.6719 421.5,530.0938 Q422.5625,529.5 423.75,529.5 Q424.4688,529.5 425.0938,529.75 Q425.7188,530 426.25,530.5 Z " fill="#000000"/><text fill="#000000" font-family="sans-serif" font-size="12" lengthAdjust="spacing" textLength="23" x="444.75" y="538.9102">CAL</text><line style="stroke:#A80036;stroke-width:1.5;" x1="281.5" x2="598.5" y1="550" y2="550"/><text fill="#000000" font-family="sans-serif" font-size="11" lengthAdjust="spacing" textLength="93" x="286.5" y="565.4189">-String laboratoryID</text><text fill="#000000" font-family="sans-serif" font-size="11" lengthAdjust="spacing" textLength="61" x="286.5" y="579.2549">-String name</text><text fill="#000000" font-family="sans-serif" font-size="11" lengthAdjust="spacing" textLength="75" x="286.5" y="593.0908">-String address</text><text fill="#000000" font-family="sans-serif" font-size="11" lengthAdjust="spacing" textLength="107" x="286.5" y="606.9268">-Integer phoneNumber</text><text fill="#000000" font-family="sans-serif" font-size="11" lengthAdjust="spacing" textLength="88" x="286.5" y="620.7627">-Integer tinNumber</text><line style="stroke:#A80036;stroke-width:1.5;" x1="281.5" x2="598.5" y1="627.1797" y2="627.1797"/><text fill="#000000" font-family="sans-serif" font-size="11" lengthAdjust="spacing" textLength="307" x="286.5" y="642.5986">+CAL(laboratoryID,name,address,phoneNumber,tinNumber,test)</text><!--MD5=[df38be88ccee13e832d6fafd6288a4ca]
class Test--><rect codeLine="23" fill="#FEFECE" filter="url(#fpb6johdpyquk)" height="75.6719" id="Test" style="stroke:#A80036;stroke-width:1.5;" width="76" x="765" y="545.5"/><ellipse cx="789" cy="561.5" fill="#ADD1B2" rx="11" ry="11" style="stroke:#A80036;stroke-width:1.0;"/><path d="M791,558 Q791.2031,557.5 791.4375,557.25 Q791.6719,557 791.9375,557 Q792.4063,557 792.7031,557.2813 Q793,557.5625 793,558.2188 L793,559.7813 Q793,560.4375 792.7188,560.7188 Q792.4375,561 792,561 Q791.6094,561 791.3594,560.8281 Q791.1094,560.6563 791,560.2031 Q790.9531,559.8906 790.7813,559.7188 Q790.4688,559.3906 789.9063,559.2031 Q789.3438,559 788.7813,559 Q788.0781,559 787.4844,559.2813 Q786.9063,559.5625 786.4531,560.1875 Q786,560.8125 786,561.6719 L786,562.5938 Q786,563.625 786.8438,564.3125 Q787.6875,565 789.1875,565 Q790.0781,565 790.7031,564.7969 Q791.0625,564.6875 791.4688,564.3281 Q791.7344,564.125 791.875,564.0625 Q792.0156,564 792.1875,564 Q792.5156,564 792.75,564.2656 Q793,564.5156 793,564.875 Q793,565.2188 792.6563,565.625 Q792.1563,566.2188 791.3594,566.5469 Q790.3125,567 789.0313,567 Q787.5313,567 786.3281,566.4063 Q785.3594,565.9375 784.6719,564.9219 Q784,563.9063 784,562.7031 L784,561.6094 Q784,560.3594 784.5938,559.2656 Q785.2031,558.1719 786.25,557.5938 Q787.3125,557 788.5,557 Q789.2188,557 789.8438,557.25 Q790.4688,557.5 791,558 Z " fill="#000000"/><text fill="#000000" font-family="sans-serif" font-size="12" lengthAdjust="spacing" textLength="24" x="805" y="566.4102">Test</text><line style="stroke:#A80036;stroke-width:1.5;" x1="766" x2="840" y1="577.5" y2="577.5"/><text fill="#000000" font-family="sans-serif" font-size="11" lengthAdjust="spacing" textLength="64" x="771" y="592.9189">-Integer code</text><text fill="#000000" font-family="sans-serif" font-size="11" lengthAdjust="spacing" textLength="61" x="771" y="606.7549">-String name</text><line style="stroke:#A80036;stroke-width:1.5;" x1="766" x2="840" y1="613.1719" y2="613.1719"/><!--MD5=[02e4b9b7573f1156f41e60aa5b4e25a4]
class Company--><rect codeLine="28" fill="#FEFECE" filter="url(#fpb6johdpyquk)" height="131.0156" id="Company" style="stroke:#A80036;stroke-width:1.5;" width="380" x="7" y="288"/><ellipse cx="166.25" cy="304" fill="#ADD1B2" rx="11" ry="11" style="stroke:#A80036;stroke-width:1.0;"/><path d="M168.25,300.5 Q168.4531,300 168.6875,299.75 Q168.9219,299.5 169.1875,299.5 Q169.6563,299.5 169.9531,299.7813 Q170.25,300.0625 170.25,300.7188 L170.25,302.2813 Q170.25,302.9375 169.9688,303.2188 Q169.6875,303.5 169.25,303.5 Q168.8594,303.5 168.6094,303.3281 Q168.3594,303.1563 168.25,302.7031 Q168.2031,302.3906 168.0313,302.2188 Q167.7188,301.8906 167.1563,301.7031 Q166.5938,301.5 166.0313,301.5 Q165.3281,301.5 164.7344,301.7813 Q164.1563,302.0625 163.7031,302.6875 Q163.25,303.3125 163.25,304.1719 L163.25,305.0938 Q163.25,306.125 164.0938,306.8125 Q164.9375,307.5 166.4375,307.5 Q167.3281,307.5 167.9531,307.2969 Q168.3125,307.1875 168.7188,306.8281 Q168.9844,306.625 169.125,306.5625 Q169.2656,306.5 169.4375,306.5 Q169.7656,306.5 170,306.7656 Q170.25,307.0156 170.25,307.375 Q170.25,307.7188 169.9063,308.125 Q169.4063,308.7188 168.6094,309.0469 Q167.5625,309.5 166.2813,309.5 Q164.7813,309.5 163.5781,308.9063 Q162.6094,308.4375 161.9219,307.4219 Q161.25,306.4063 161.25,305.2031 L161.25,304.1094 Q161.25,302.8594 161.8438,301.7656 Q162.4531,300.6719 163.5,300.0938 Q164.5625,299.5 165.75,299.5 Q166.4688,299.5 167.0938,299.75 Q167.7188,300 168.25,300.5 Z " fill="#000000"/><text fill="#000000" font-family="sans-serif" font-size="12" lengthAdjust="spacing" textLength="53" x="186.75" y="308.9102">Company</text><line style="stroke:#A80036;stroke-width:1.5;" x1="8" x2="386" y1="320" y2="320"/><text fill="#000000" font-family="sans-serif" font-size="11" lengthAdjust="spacing" textLength="90" x="13" y="335.4189">-String designation</text><line style="stroke:#A80036;stroke-width:1.5;" x1="8" x2="386" y1="341.8359" y2="341.8359"/><text fill="#000000" font-family="sans-serif" font-size="11" lengthAdjust="spacing" textLength="114" x="13" y="357.2549">+Company(designation)</text><text fill="#000000" font-family="sans-serif" font-size="11" lengthAdjust="spacing" textLength="368" x="13" y="371.0908">+createCAL(laboratoryID,name,address,phoneNumber,tinNumber,test) : CAL</text><text fill="#000000" font-family="sans-serif" font-size="11" lengthAdjust="spacing" textLength="102" x="13" y="384.9268">+saveCAL(cal) : bool</text><text fill="#000000" font-family="sans-serif" font-size="11" lengthAdjust="spacing" textLength="113" x="13" y="398.7627">-validateCAL(cal) : bool</text><text fill="#000000" font-family="sans-serif" font-size="11" lengthAdjust="spacing" textLength="94" x="13" y="412.5986">-addCAL(cal) : bool</text><!--MD5=[da547346deef918ea16944ba046651ef]
class Administrator--><rect codeLine="37" fill="#FEFECE" filter="url(#fpb6johdpyquk)" height="172.5234" id="Administrator" style="stroke:#A80036;stroke-width:1.5;" width="179" x="856.5" y="267"/><ellipse cx="905.25" cy="283" fill="#ADD1B2" rx="11" ry="11" style="stroke:#A80036;stroke-width:1.0;"/><path d="M907.25,279.5 Q907.4531,279 907.6875,278.75 Q907.9219,278.5 908.1875,278.5 Q908.6563,278.5 908.9531,278.7813 Q909.25,279.0625 909.25,279.7188 L909.25,281.2813 Q909.25,281.9375 908.9688,282.2188 Q908.6875,282.5 908.25,282.5 Q907.8594,282.5 907.6094,282.3281 Q907.3594,282.1563 907.25,281.7031 Q907.2031,281.3906 907.0313,281.2188 Q906.7188,280.8906 906.1563,280.7031 Q905.5938,280.5 905.0313,280.5 Q904.3281,280.5 903.7344,280.7813 Q903.1563,281.0625 902.7031,281.6875 Q902.25,282.3125 902.25,283.1719 L902.25,284.0938 Q902.25,285.125 903.0938,285.8125 Q903.9375,286.5 905.4375,286.5 Q906.3281,286.5 906.9531,286.2969 Q907.3125,286.1875 907.7188,285.8281 Q907.9844,285.625 908.125,285.5625 Q908.2656,285.5 908.4375,285.5 Q908.7656,285.5 909,285.7656 Q909.25,286.0156 909.25,286.375 Q909.25,286.7188 908.9063,287.125 Q908.4063,287.7188 907.6094,288.0469 Q906.5625,288.5 905.2813,288.5 Q903.7813,288.5 902.5781,287.9063 Q901.6094,287.4375 900.9219,286.4219 Q900.25,285.4063 900.25,284.2031 L900.25,283.1094 Q900.25,281.8594 900.8438,280.7656 Q901.4531,279.6719 902.5,279.0938 Q903.5625,278.5 904.75,278.5 Q905.4688,278.5 906.0938,278.75 Q906.7188,279 907.25,279.5 Z " fill="#000000"/><text fill="#000000" font-family="sans-serif" font-size="12" lengthAdjust="spacing" textLength="73" x="925.75" y="287.9102">Administrator</text><line style="stroke:#A80036;stroke-width:1.5;" x1="857.5" x2="1034.5" y1="299" y2="299"/><text fill="#000000" font-family="sans-serif" font-size="11" lengthAdjust="spacing" textLength="90" x="862.5" y="314.4189">-String employeeID</text><text fill="#000000" font-family="sans-serif" font-size="11" lengthAdjust="spacing" textLength="115" x="862.5" y="328.2549">-String organizationRole</text><text fill="#000000" font-family="sans-serif" font-size="11" lengthAdjust="spacing" textLength="61" x="862.5" y="342.0908">-String name</text><text fill="#000000" font-family="sans-serif" font-size="11" lengthAdjust="spacing" textLength="75" x="862.5" y="355.9268">-String address</text><text fill="#000000" font-family="sans-serif" font-size="11" lengthAdjust="spacing" textLength="107" x="862.5" y="369.7627">-Integer phoneNumber</text><text fill="#000000" font-family="sans-serif" font-size="11" lengthAdjust="spacing" textLength="59" x="862.5" y="383.5986">-String email</text><text fill="#000000" font-family="sans-serif" font-size="11" lengthAdjust="spacing" textLength="58" x="862.5" y="397.4346">-Integer soc</text><line style="stroke:#A80036;stroke-width:1.5;" x1="857.5" x2="1034.5" y1="403.8516" y2="403.8516"/><text fill="#000000" font-family="sans-serif" font-size="11" lengthAdjust="spacing" textLength="92" x="862.5" y="419.2705">+getTests() : string</text><text fill="#000000" font-family="sans-serif" font-size="11" lengthAdjust="spacing" textLength="167" x="862.5" y="433.1064">+getTestByCode(testCode) : string</text><!--MD5=[1117a136f37a356d061cc903139c7d76]
class CreateCALController--><rect codeLine="49" fill="#FEFECE" filter="url(#fpb6johdpyquk)" height="89.5078" id="CreateCALController" style="stroke:#A80036;stroke-width:1.5;" width="379" x="434.5" y="116"/><ellipse cx="562.75" cy="132" fill="#ADD1B2" rx="11" ry="11" style="stroke:#A80036;stroke-width:1.0;"/><path d="M564.75,128.5 Q564.9531,128 565.1875,127.75 Q565.4219,127.5 565.6875,127.5 Q566.1563,127.5 566.4531,127.7813 Q566.75,128.0625 566.75,128.7188 L566.75,130.2813 Q566.75,130.9375 566.4688,131.2188 Q566.1875,131.5 565.75,131.5 Q565.3594,131.5 565.1094,131.3281 Q564.8594,131.1563 564.75,130.7031 Q564.7031,130.3906 564.5313,130.2188 Q564.2188,129.8906 563.6563,129.7031 Q563.0938,129.5 562.5313,129.5 Q561.8281,129.5 561.2344,129.7813 Q560.6563,130.0625 560.2031,130.6875 Q559.75,131.3125 559.75,132.1719 L559.75,133.0938 Q559.75,134.125 560.5938,134.8125 Q561.4375,135.5 562.9375,135.5 Q563.8281,135.5 564.4531,135.2969 Q564.8125,135.1875 565.2188,134.8281 Q565.4844,134.625 565.625,134.5625 Q565.7656,134.5 565.9375,134.5 Q566.2656,134.5 566.5,134.7656 Q566.75,135.0156 566.75,135.375 Q566.75,135.7188 566.4063,136.125 Q565.9063,136.7188 565.1094,137.0469 Q564.0625,137.5 562.7813,137.5 Q561.2813,137.5 560.0781,136.9063 Q559.1094,136.4375 558.4219,135.4219 Q557.75,134.4063 557.75,133.2031 L557.75,132.1094 Q557.75,130.8594 558.3438,129.7656 Q558.9531,128.6719 560,128.0938 Q561.0625,127.5 562.25,127.5 Q562.9688,127.5 563.5938,127.75 Q564.2188,128 564.75,128.5 Z " fill="#000000"/><text fill="#000000" font-family="sans-serif" font-size="12" lengthAdjust="spacing" textLength="114" x="583.25" y="136.9102">CreateCALController</text><line style="stroke:#A80036;stroke-width:1.5;" x1="435.5" x2="812.5" y1="148" y2="148"/><line style="stroke:#A80036;stroke-width:1.5;" x1="435.5" x2="812.5" y1="156" y2="156"/><text fill="#000000" font-family="sans-serif" font-size="11" lengthAdjust="spacing" textLength="92" x="440.5" y="171.4189">+getTests() : string</text><text fill="#000000" font-family="sans-serif" font-size="11" lengthAdjust="spacing" textLength="367" x="440.5" y="185.2549">+createCAL(laboratoryID,name,address,phoneNumber,tinNumber,test) : bool</text><text fill="#000000" font-family="sans-serif" font-size="11" lengthAdjust="spacing" textLength="88" x="440.5" y="199.0908">+saveCAL() : bool</text><!--MD5=[06f0cf4e8fb2f7493cd876161db39d2c]
class CreateCALUI--><rect codeLine="55" fill="#FEFECE" filter="url(#fpb6johdpyquk)" height="48" id="CreateCALUI" style="stroke:#A80036;stroke-width:1.5;" width="104" x="572" y="7"/><ellipse cx="587" cy="23" fill="#ADD1B2" rx="11" ry="11" style="stroke:#A80036;stroke-width:1.0;"/><path d="M589,19.5 Q589.2031,19 589.4375,18.75 Q589.6719,18.5 589.9375,18.5 Q590.4063,18.5 590.7031,18.7813 Q591,19.0625 591,19.7188 L591,21.2813 Q591,21.9375 590.7188,22.2188 Q590.4375,22.5 590,22.5 Q589.6094,22.5 589.3594,22.3281 Q589.1094,22.1563 589,21.7031 Q588.9531,21.3906 588.7813,21.2188 Q588.4688,20.8906 587.9063,20.7031 Q587.3438,20.5 586.7813,20.5 Q586.0781,20.5 585.4844,20.7813 Q584.9063,21.0625 584.4531,21.6875 Q584,22.3125 584,23.1719 L584,24.0938 Q584,25.125 584.8438,25.8125 Q585.6875,26.5 587.1875,26.5 Q588.0781,26.5 588.7031,26.2969 Q589.0625,26.1875 589.4688,25.8281 Q589.7344,25.625 589.875,25.5625 Q590.0156,25.5 590.1875,25.5 Q590.5156,25.5 590.75,25.7656 Q591,26.0156 591,26.375 Q591,26.7188 590.6563,27.125 Q590.1563,27.7188 589.3594,28.0469 Q588.3125,28.5 587.0313,28.5 Q585.5313,28.5 584.3281,27.9063 Q583.3594,27.4375 582.6719,26.4219 Q582,25.4063 582,24.2031 L582,23.1094 Q582,21.8594 582.5938,20.7656 Q583.2031,19.6719 584.25,19.0938 Q585.3125,18.5 586.5,18.5 Q587.2188,18.5 587.8438,18.75 Q588.4688,19 589,19.5 Z " fill="#000000"/><text fill="#000000" font-family="sans-serif" font-size="12" lengthAdjust="spacing" textLength="72" x="601" y="27.9102">CreateCALUI</text><line style="stroke:#A80036;stroke-width:1.5;" x1="573" x2="675" y1="39" y2="39"/><line style="stroke:#A80036;stroke-width:1.5;" x1="573" x2="675" y1="47" y2="47"/><!--MD5=[1d07e85017a7f2dc2a4af458f68cbb4c]
link CreateCALUI to CreateCALController--><path codeLine="59" d="M624,55.18 C624,70.59 624,91.42 624,110.45 " fill="none" id="CreateCALUI-to-CreateCALController" style="stroke:#A80036;stroke-width:1.0;stroke-dasharray:7.0,7.0;"/><polygon fill="#A80036" points="624,115.76,628,106.76,624,110.76,620,106.76,624,115.76" style="stroke:#A80036;stroke-width:1.0;"/><!--MD5=[2c665853d9fa0a4fbee9974d7766665c]
link CreateCALController to Administrator--><path codeLine="60" d="M770.82,206.04 C791.05,214.65 811.02,224.61 829,236 C841.51,243.93 853.73,253.4 865.28,263.47 " fill="none" id="CreateCALController-to-Administrator" style="stroke:#A80036;stroke-width:1.0;stroke-dasharray:7.0,7.0;"/><polygon fill="#A80036" points="869.17,266.91,865.0668,257.9566,865.4204,263.6024,859.7746,263.9559,869.17,266.91" style="stroke:#A80036;stroke-width:1.0;"/><!--MD5=[f1f6fc0d9b105e06f8c4ef6daa0151d0]
link CreateCALController to Test--><path codeLine="61" d="M707.74,206.15 C730.56,222.26 752.86,242.62 767,267 C817.17,353.51 814.32,475.83 808.39,539.78 " fill="none" id="CreateCALController-to-Test" style="stroke:#A80036;stroke-width:1.0;stroke-dasharray:7.0,7.0;"/><polygon fill="#A80036" points="807.89,545.03,812.7195,536.4465,808.3607,540.0522,804.755,535.6934,807.89,545.03" style="stroke:#A80036;stroke-width:1.0;"/><!--MD5=[8cfcaf509de039f516f9f63d0591ad93]
link CreateCALController to CAL--><path codeLine="62" d="M535.58,206.26 C512.21,222.22 489.49,242.48 475,267 C430.6,342.14 427.74,445.06 432.02,512.63 " fill="none" id="CreateCALController-to-CAL" style="stroke:#A80036;stroke-width:1.0;stroke-dasharray:7.0,7.0;"/><polygon fill="#A80036" points="432.36,517.84,435.7349,508.5874,432.0179,512.8517,427.7537,509.1347,432.36,517.84" style="stroke:#A80036;stroke-width:1.0;"/><!--MD5=[3caf45b24b1b56b3b2562c00e1478f45]
link CreateCALController to Company--><path codeLine="63" d="M489.21,206.04 C463.94,215.26 437.96,225.42 414,236 C380.91,250.61 346,268.28 314.08,285.4 " fill="none" id="CreateCALController-to-Company" style="stroke:#A80036;stroke-width:1.0;stroke-dasharray:7.0,7.0;"/><polygon fill="#A80036" points="309.39,287.92,319.2114,287.1845,313.7946,285.5538,315.4254,280.137,309.39,287.92" style="stroke:#A80036;stroke-width:1.0;"/><!--MD5=[c5ca89fa2bec8decaa36ad797a6cecd0]
link CreateCALController to ApplicationPOT--><path codeLine="64" d="M607.07,206.18 C595.03,237.59 578.97,279.51 567.12,310.42 " fill="none" id="CreateCALController-to-ApplicationPOT" style="stroke:#A80036;stroke-width:1.0;stroke-dasharray:7.0,7.0;"/><polygon fill="#A80036" points="565.26,315.29,572.2285,308.3301,567.0578,310.6244,564.7635,305.4537,565.26,315.29" style="stroke:#A80036;stroke-width:1.0;"/><!--MD5=[adb7792558c2fd109b24cc9b748e550c]
link CreateCALController to UserSession--><path codeLine="65" d="M640.93,206.18 C653.92,240.09 671.62,286.26 683.63,317.6 " fill="none" id="CreateCALController-to-UserSession" style="stroke:#A80036;stroke-width:1.0;stroke-dasharray:7.0,7.0;"/><polygon fill="#A80036" points="685.5,322.5,685.9965,312.6637,683.7022,317.8344,678.5315,315.5401,685.5,322.5" style="stroke:#A80036;stroke-width:1.0;"/><!--MD5=[55b9a2f79355a2909ec4a2c917355a30]
link CAL to Test--><path codeLine="66" d="M599.75,583.5 C658.18,583.5 719.67,583.5 759.5,583.5 " fill="none" id="CAL-to-Test" style="stroke:#A80036;stroke-width:1.0;"/><polygon fill="#A80036" points="764.74,583.5,755.74,579.5,759.74,583.5,755.74,587.5,764.74,583.5" style="stroke:#A80036;stroke-width:1.0;"/><text fill="#000000" font-family="sans-serif" font-size="13" lengthAdjust="spacing" textLength="68" x="648.25" y="576.9951">classified in</text><text fill="#000000" font-family="sans-serif" font-size="13" lengthAdjust="spacing" textLength="5" x="607.609" y="580.6158">*</text><text fill="#000000" font-family="sans-serif" font-size="13" lengthAdjust="spacing" textLength="5" x="751.9701" y="579.5349">*</text><!--MD5=[f0cf61b3d44ca7b4a714aa4fb0975b4b]
link Administrator to Test--><path codeLine="67" d="M892.35,440.05 C870.68,474.59 846.68,512.86 829.01,541.02 " fill="none" id="Administrator-to-Test" style="stroke:#A80036;stroke-width:1.0;"/><polygon fill="#A80036" points="826.23,545.46,834.4053,539.9678,828.8903,541.2264,827.6316,535.7114,826.23,545.46" style="stroke:#A80036;stroke-width:1.0;"/><text fill="#000000" font-family="sans-serif" font-size="13" lengthAdjust="spacing" textLength="41" x="871" y="484.4951">defines</text><text fill="#000000" font-family="sans-serif" font-size="13" lengthAdjust="spacing" textLength="7" x="880.7959" y="461.1126">1</text><text fill="#000000" font-family="sans-serif" font-size="13" lengthAdjust="spacing" textLength="5" x="825.0521" y="534.5292">*</text><!--MD5=[a9adb198dae6fecfed0b43a9f78eab8c]
link Company to CAL--><path codeLine="68" d="M265.98,419.23 C297.54,448.83 334.94,483.92 366.96,513.97 " fill="none" id="Company-to-CAL" style="stroke:#A80036;stroke-width:1.0;"/><polygon fill="#A80036" points="370.84,517.61,366.991,508.5444,367.1852,514.1979,361.5317,514.3921,370.84,517.61" style="stroke:#A80036;stroke-width:1.0;"/><text fill="#000000" font-family="sans-serif" font-size="13" lengthAdjust="spacing" textLength="30" x="335" y="484.4951">owns</text><text fill="#000000" font-family="sans-serif" font-size="13" lengthAdjust="spacing" textLength="7" x="265.7326" y="440.3458">1</text><text fill="#000000" font-family="sans-serif" font-size="13" lengthAdjust="spacing" textLength="5" x="358.0022" y="507.0418">*</text><!--MD5=[d83b88470a863da22d63f90a91295d35]
@startuml
skinparam classAttributeIconSize 0

class ApplicationPOT
{
  +static getInstance()
  +getCurrentSession()
}

class UserSession
{
  +getUserEmail()
}

class CAL {
  -String laboratoryID
  -String name
  -String address
  -Integer phoneNumber
  -Integer tinNumber
  +CAL(laboratoryID,name,address,phoneNumber,tinNumber,test)
}

class Test {
  -Integer code
  -String name
}

class Company {
  -String designation
  +Company(designation)
  +createCAL(laboratoryID,name,address,phoneNumber,tinNumber,test) : CAL
  +saveCAL(cal) : bool
  -validateCAL(cal) : bool
  -addCAL(cal) : bool
}

class Administrator {
  -String employeeID
  -String organizationRole
  -String name
  -String address
  -Integer phoneNumber
  -String email
  -Integer soc
  +getTests() : string
  +getTestByCode(testCode) : string
}

class CreateCALController {
  +getTests() : string
  +createCAL(laboratoryID,name,address,phoneNumber,tinNumber,test) : bool
  +saveCAL() : bool
}

class CreateCALUI {

}

CreateCALUI ..> CreateCALController
CreateCALController ..> Administrator
CreateCALController ..> Test
CreateCALController ..> CAL
CreateCALController ..> Company
CreateCALController ..> ApplicationPOT
CreateCALController ..> UserSession
CAL "*" -> "*" Test : classified in
Administrator "1" - -> "*" Test : defines
Company "1" - -> "*" CAL : owns

@enduml

PlantUML version 1.2021.5(Sun Apr 25 12:20:28 BST 2021)
(GPL source distribution)
Java Runtime: OpenJDK Runtime Environment
JVM: Dynamic Code Evolution 64-Bit Server VM
Default Encoding: Cp1252
Language: en
Country: GB
--></g></svg>