<?xml version="1.0" encoding="UTF-8" standalone="no"?><svg xmlns="http://www.w3.org/2000/svg" xmlns:xlink="http://www.w3.org/1999/xlink" contentScriptType="application/ecmascript" contentStyleType="text/css" height="398px" preserveAspectRatio="none" style="width:662px;height:398px;" version="1.1" viewBox="0 0 662 398" width="662px" zoomAndPan="magnify"><defs><filter height="300%" id="f1bvkin0umd3es" width="300%" x="-1" y="-1"><feGaussianBlur result="blurOut" stdDeviation="2.0"/><feColorMatrix in="blurOut" result="blurOut2" type="matrix" values="0 0 0 0 0 0 0 0 0 0 0 0 0 0 0 0 0 0 .4 0"/><feOffset dx="4.0" dy="4.0" in="blurOut2" result="blurOut3"/><feBlend in="SourceGraphic" in2="blurOut3" mode="normal"/></filter></defs><g><!--MD5=[02e4b9b7573f1156f41e60aa5b4e25a4]
class Company--><rect codeLine="7" fill="#FEFECE" filter="url(#f1bvkin0umd3es)" height="53.8359" id="Company" style="stroke:#A80036;stroke-width:1.5;" width="85" x="375.83" y="7"/><ellipse cx="390.83" cy="23" fill="#ADD1B2" rx="11" ry="11" style="stroke:#A80036;stroke-width:1.0;"/><path d="M392.83,19.5 Q393.0331,19 393.2675,18.75 Q393.5019,18.5 393.7675,18.5 Q394.2363,18.5 394.5331,18.7813 Q394.83,19.0625 394.83,19.7188 L394.83,21.2813 Q394.83,21.9375 394.5488,22.2188 Q394.2675,22.5 393.83,22.5 Q393.4394,22.5 393.1894,22.3281 Q392.9394,22.1563 392.83,21.7031 Q392.7831,21.3906 392.6113,21.2188 Q392.2988,20.8906 391.7363,20.7031 Q391.1738,20.5 390.6113,20.5 Q389.9081,20.5 389.3144,20.7813 Q388.7363,21.0625 388.2831,21.6875 Q387.83,22.3125 387.83,23.1719 L387.83,24.0938 Q387.83,25.125 388.6738,25.8125 Q389.5175,26.5 391.0175,26.5 Q391.9081,26.5 392.5331,26.2969 Q392.8925,26.1875 393.2988,25.8281 Q393.5644,25.625 393.705,25.5625 Q393.8456,25.5 394.0175,25.5 Q394.3456,25.5 394.58,25.7656 Q394.83,26.0156 394.83,26.375 Q394.83,26.7188 394.4863,27.125 Q393.9863,27.7188 393.1894,28.0469 Q392.1425,28.5 390.8613,28.5 Q389.3613,28.5 388.1581,27.9063 Q387.1894,27.4375 386.5019,26.4219 Q385.83,25.4063 385.83,24.2031 L385.83,23.1094 Q385.83,21.8594 386.4238,20.7656 Q387.0331,19.6719 388.08,19.0938 Q389.1425,18.5 390.33,18.5 Q391.0488,18.5 391.6738,18.75 Q392.2988,19 392.83,19.5 Z " fill="#000000"/><text fill="#000000" font-family="sans-serif" font-size="12" lengthAdjust="spacing" textLength="53" x="404.83" y="27.9102">Company</text><line style="stroke:#A80036;stroke-width:1.5;" x1="376.83" x2="459.83" y1="39" y2="39"/><text fill="#000000" font-family="sans-serif" font-size="11" lengthAdjust="spacing" textLength="59" x="381.83" y="54.4189">-designation</text><!--MD5=[1934a092c0e7d4da7dc7075b6f4b6b03]
class ClinicalAnalysisLaboratory--><rect codeLine="11" fill="#FEFECE" filter="url(#f1bvkin0umd3es)" height="109.1797" id="ClinicalAnalysisLaboratory" style="stroke:#A80036;stroke-width:1.5;" width="177" x="206.83" y="262"/><ellipse cx="221.83" cy="278" fill="#ADD1B2" rx="11" ry="11" style="stroke:#A80036;stroke-width:1.0;"/><path d="M223.83,274.5 Q224.0331,274 224.2675,273.75 Q224.5019,273.5 224.7675,273.5 Q225.2363,273.5 225.5331,273.7813 Q225.83,274.0625 225.83,274.7188 L225.83,276.2813 Q225.83,276.9375 225.5488,277.2188 Q225.2675,277.5 224.83,277.5 Q224.4394,277.5 224.1894,277.3281 Q223.9394,277.1563 223.83,276.7031 Q223.7831,276.3906 223.6113,276.2188 Q223.2988,275.8906 222.7363,275.7031 Q222.1738,275.5 221.6113,275.5 Q220.9081,275.5 220.3144,275.7813 Q219.7363,276.0625 219.2831,276.6875 Q218.83,277.3125 218.83,278.1719 L218.83,279.0938 Q218.83,280.125 219.6738,280.8125 Q220.5175,281.5 222.0175,281.5 Q222.9081,281.5 223.5331,281.2969 Q223.8925,281.1875 224.2988,280.8281 Q224.5644,280.625 224.705,280.5625 Q224.8456,280.5 225.0175,280.5 Q225.3456,280.5 225.58,280.7656 Q225.83,281.0156 225.83,281.375 Q225.83,281.7188 225.4863,282.125 Q224.9863,282.7188 224.1894,283.0469 Q223.1425,283.5 221.8613,283.5 Q220.3613,283.5 219.1581,282.9063 Q218.1894,282.4375 217.5019,281.4219 Q216.83,280.4063 216.83,279.2031 L216.83,278.1094 Q216.83,276.8594 217.4238,275.7656 Q218.0331,274.6719 219.08,274.0938 Q220.1425,273.5 221.33,273.5 Q222.0488,273.5 222.6738,273.75 Q223.2988,274 223.83,274.5 Z " fill="#000000"/><text fill="#000000" font-family="sans-serif" font-size="12" lengthAdjust="spacing" textLength="145" x="235.83" y="282.9102">ClinicalAnalysisLaboratory</text><line style="stroke:#A80036;stroke-width:1.5;" x1="207.83" x2="382.83" y1="294" y2="294"/><text fill="#000000" font-family="sans-serif" font-size="11" lengthAdjust="spacing" textLength="62" x="212.83" y="309.4189">-laboratoryID</text><text fill="#000000" font-family="sans-serif" font-size="11" lengthAdjust="spacing" textLength="30" x="212.83" y="323.2549">-name</text><text fill="#000000" font-family="sans-serif" font-size="11" lengthAdjust="spacing" textLength="44" x="212.83" y="337.0908">-address</text><text fill="#000000" font-family="sans-serif" font-size="11" lengthAdjust="spacing" textLength="71" x="212.83" y="350.9268">-phoneNumber</text><text fill="#000000" font-family="sans-serif" font-size="11" lengthAdjust="spacing" textLength="52" x="212.83" y="364.7627">-tinNumber</text><!--MD5=[aeb3272166074d8737a70b61b1e71682]
class TestType--><rect codeLine="19" fill="#FEFECE" filter="url(#f1bvkin0umd3es)" height="53.8359" id="TestType" style="stroke:#A80036;stroke-width:1.5;" width="82" x="54.33" y="289.5"/><ellipse cx="69.33" cy="305.5" fill="#ADD1B2" rx="11" ry="11" style="stroke:#A80036;stroke-width:1.0;"/><path d="M71.33,302 Q71.5331,301.5 71.7675,301.25 Q72.0019,301 72.2675,301 Q72.7363,301 73.0331,301.2813 Q73.33,301.5625 73.33,302.2188 L73.33,303.7813 Q73.33,304.4375 73.0488,304.7188 Q72.7675,305 72.33,305 Q71.9394,305 71.6894,304.8281 Q71.4394,304.6563 71.33,304.2031 Q71.2831,303.8906 71.1113,303.7188 Q70.7988,303.3906 70.2363,303.2031 Q69.6738,303 69.1113,303 Q68.4081,303 67.8144,303.2813 Q67.2363,303.5625 66.7831,304.1875 Q66.33,304.8125 66.33,305.6719 L66.33,306.5938 Q66.33,307.625 67.1738,308.3125 Q68.0175,309 69.5175,309 Q70.4081,309 71.0331,308.7969 Q71.3925,308.6875 71.7988,308.3281 Q72.0644,308.125 72.205,308.0625 Q72.3456,308 72.5175,308 Q72.8456,308 73.08,308.2656 Q73.33,308.5156 73.33,308.875 Q73.33,309.2188 72.9863,309.625 Q72.4863,310.2188 71.6894,310.5469 Q70.6425,311 69.3613,311 Q67.8613,311 66.6581,310.4063 Q65.6894,309.9375 65.0019,308.9219 Q64.33,307.9063 64.33,306.7031 L64.33,305.6094 Q64.33,304.3594 64.9238,303.2656 Q65.5331,302.1719 66.58,301.5938 Q67.6425,301 68.83,301 Q69.5488,301 70.1738,301.25 Q70.7988,301.5 71.33,302 Z " fill="#000000"/><text fill="#000000" font-family="sans-serif" font-size="12" lengthAdjust="spacing" textLength="50" x="83.33" y="310.4102">TestType</text><line style="stroke:#A80036;stroke-width:1.5;" x1="55.33" x2="135.33" y1="321.5" y2="321.5"/><text fill="#000000" font-family="sans-serif" font-size="11" lengthAdjust="spacing" textLength="59" x="60.33" y="336.9189">-designation</text><!--MD5=[df38be88ccee13e832d6fafd6288a4ca]
class Test--><rect codeLine="23" fill="#FEFECE" filter="url(#f1bvkin0umd3es)" height="67.6719" id="Test" style="stroke:#A80036;stroke-width:1.5;" width="59" x="151.83" y="112"/><ellipse cx="168.18" cy="128" fill="#ADD1B2" rx="11" ry="11" style="stroke:#A80036;stroke-width:1.0;"/><path d="M170.18,124.5 Q170.3831,124 170.6175,123.75 Q170.8519,123.5 171.1175,123.5 Q171.5862,123.5 171.8831,123.7813 Q172.18,124.0625 172.18,124.7188 L172.18,126.2813 Q172.18,126.9375 171.8987,127.2188 Q171.6175,127.5 171.18,127.5 Q170.7894,127.5 170.5394,127.3281 Q170.2894,127.1563 170.18,126.7031 Q170.1331,126.3906 169.9612,126.2188 Q169.6487,125.8906 169.0862,125.7031 Q168.5237,125.5 167.9612,125.5 Q167.2581,125.5 166.6644,125.7813 Q166.0862,126.0625 165.6331,126.6875 Q165.18,127.3125 165.18,128.1719 L165.18,129.0938 Q165.18,130.125 166.0237,130.8125 Q166.8675,131.5 168.3675,131.5 Q169.2581,131.5 169.8831,131.2969 Q170.2425,131.1875 170.6487,130.8281 Q170.9144,130.625 171.055,130.5625 Q171.1956,130.5 171.3675,130.5 Q171.6956,130.5 171.93,130.7656 Q172.18,131.0156 172.18,131.375 Q172.18,131.7188 171.8362,132.125 Q171.3362,132.7188 170.5394,133.0469 Q169.4925,133.5 168.2112,133.5 Q166.7112,133.5 165.5081,132.9063 Q164.5394,132.4375 163.8519,131.4219 Q163.18,130.4063 163.18,129.2031 L163.18,128.1094 Q163.18,126.8594 163.7737,125.7656 Q164.3831,124.6719 165.43,124.0938 Q166.4925,123.5 167.68,123.5 Q168.3987,123.5 169.0237,123.75 Q169.6487,124 170.18,124.5 Z " fill="#000000"/><text fill="#000000" font-family="sans-serif" font-size="12" lengthAdjust="spacing" textLength="24" x="182.48" y="132.9102">Test</text><line style="stroke:#A80036;stroke-width:1.5;" x1="152.83" x2="209.83" y1="144" y2="144"/><text fill="#000000" font-family="sans-serif" font-size="11" lengthAdjust="spacing" textLength="47" x="157.83" y="159.4189">-testCode</text><text fill="#000000" font-family="sans-serif" font-size="11" lengthAdjust="spacing" textLength="30" x="157.83" y="173.2549">-name</text><!--MD5=[da547346deef918ea16944ba046651ef]
class Administrator--><rect codeLine="28" fill="#FEFECE" filter="url(#f1bvkin0umd3es)" height="136.8516" id="Administrator" style="stroke:#A80036;stroke-width:1.5;" width="105" x="543.83" y="248"/><ellipse cx="558.83" cy="264" fill="#ADD1B2" rx="11" ry="11" style="stroke:#A80036;stroke-width:1.0;"/><path d="M560.83,260.5 Q561.0331,260 561.2675,259.75 Q561.5019,259.5 561.7675,259.5 Q562.2363,259.5 562.5331,259.7813 Q562.83,260.0625 562.83,260.7188 L562.83,262.2813 Q562.83,262.9375 562.5488,263.2188 Q562.2675,263.5 561.83,263.5 Q561.4394,263.5 561.1894,263.3281 Q560.9394,263.1563 560.83,262.7031 Q560.7831,262.3906 560.6113,262.2188 Q560.2988,261.8906 559.7363,261.7031 Q559.1738,261.5 558.6113,261.5 Q557.9081,261.5 557.3144,261.7813 Q556.7363,262.0625 556.2831,262.6875 Q555.83,263.3125 555.83,264.1719 L555.83,265.0938 Q555.83,266.125 556.6738,266.8125 Q557.5175,267.5 559.0175,267.5 Q559.9081,267.5 560.5331,267.2969 Q560.8925,267.1875 561.2988,266.8281 Q561.5644,266.625 561.705,266.5625 Q561.8456,266.5 562.0175,266.5 Q562.3456,266.5 562.58,266.7656 Q562.83,267.0156 562.83,267.375 Q562.83,267.7188 562.4863,268.125 Q561.9863,268.7188 561.1894,269.0469 Q560.1425,269.5 558.8613,269.5 Q557.3613,269.5 556.1581,268.9063 Q555.1894,268.4375 554.5019,267.4219 Q553.83,266.4063 553.83,265.2031 L553.83,264.1094 Q553.83,262.8594 554.4238,261.7656 Q555.0331,260.6719 556.08,260.0938 Q557.1425,259.5 558.33,259.5 Q559.0488,259.5 559.6738,259.75 Q560.2988,260 560.83,260.5 Z " fill="#000000"/><text fill="#000000" font-family="sans-serif" font-size="12" lengthAdjust="spacing" textLength="73" x="572.83" y="268.9102">Administrator</text><line style="stroke:#A80036;stroke-width:1.5;" x1="544.83" x2="647.83" y1="280" y2="280"/><text fill="#000000" font-family="sans-serif" font-size="11" lengthAdjust="spacing" textLength="59" x="549.83" y="295.4189">-employeeID</text><text fill="#000000" font-family="sans-serif" font-size="11" lengthAdjust="spacing" textLength="84" x="549.83" y="309.2549">-organizationRole</text><text fill="#000000" font-family="sans-serif" font-size="11" lengthAdjust="spacing" textLength="30" x="549.83" y="323.0908">-name</text><text fill="#000000" font-family="sans-serif" font-size="11" lengthAdjust="spacing" textLength="44" x="549.83" y="336.9268">-address</text><text fill="#000000" font-family="sans-serif" font-size="11" lengthAdjust="spacing" textLength="71" x="549.83" y="350.7627">-phoneNumber</text><text fill="#000000" font-family="sans-serif" font-size="11" lengthAdjust="spacing" textLength="28" x="549.83" y="364.5986">-email</text><text fill="#000000" font-family="sans-serif" font-size="11" lengthAdjust="spacing" textLength="22" x="549.83" y="378.4346">-soc</text><!--MD5=[aafc5d8a5829a6a8d6dc892cb1ff5d24]
link Company to ClinicalAnalysisLaboratory--><path codeLine="38" d="M417.02,61.03 C414.22,98.66 405.48,169.61 378.33,223 C371.39,236.65 361.91,249.85 351.84,261.79 " fill="none" id="Company-ClinicalAnalysisLaboratory" style="stroke:#A80036;stroke-width:1.0;"/><polygon fill="#000000" points="414.786,150.9314,420.3744,143.2359,414.7838,141.4209,414.786,150.9314" style="stroke:#000000;stroke-width:1.0;"/><text fill="#000000" font-family="sans-serif" font-size="13" lengthAdjust="spacing" textLength="30" x="425.33" y="151.4951">owns</text><text fill="#000000" font-family="sans-serif" font-size="13" lengthAdjust="spacing" textLength="7" x="408.9678" y="82.2443">1</text><text fill="#000000" font-family="sans-serif" font-size="13" lengthAdjust="spacing" textLength="5" x="353.76" y="251.2614">*</text><!--MD5=[742a261f27a3dcd734c626287d811acd]
link Company to TestType--><path codeLine="39" d="M375.6,37.35 C287.24,43.2 89.21,61.73 48.33,112 C6,164.04 49.4,247.14 76.72,289.23 " fill="none" id="Company-TestType" style="stroke:#A80036;stroke-width:1.0;"/><polygon fill="#000000" points="49.5067,149.3979,58.3171,145.8163,54.5292,141.3217,49.5067,149.3979" style="stroke:#000000;stroke-width:1.0;"/><text fill="#000000" font-family="sans-serif" font-size="13" lengthAdjust="spacing" textLength="53" x="62.33" y="151.4951">conducts</text><text fill="#000000" font-family="sans-serif" font-size="13" lengthAdjust="spacing" textLength="7" x="360.9432" y="34.1177">1</text><text fill="#000000" font-family="sans-serif" font-size="13" lengthAdjust="spacing" textLength="5" x="66.8383" y="278.6285">*</text><!--MD5=[eaea43e34e45c5b9d20b595fc78f1f20]
link Company to Administrator--><path codeLine="40" d="M446.49,61.04 C454.03,68.7 461.87,77.36 468.33,86 C506.45,136.97 541.03,200.53 564.61,247.84 " fill="none" id="Company-Administrator" style="stroke:#A80036;stroke-width:1.0;"/><polygon fill="#000000" points="535.0022,150.4018,532.6521,141.1862,527.6841,144.3276,535.0022,150.4018" style="stroke:#000000;stroke-width:1.0;"/><text fill="#000000" font-family="sans-serif" font-size="13" lengthAdjust="spacing" textLength="37" x="541.33" y="151.4951">knows</text><text fill="#000000" font-family="sans-serif" font-size="13" lengthAdjust="spacing" textLength="7" x="444.8844" y="82.2565">1</text><text fill="#000000" font-family="sans-serif" font-size="13" lengthAdjust="spacing" textLength="7" x="553.7578" y="236.9778">1</text><!--MD5=[e981d4f96c4342412d1e68160b30cf70]
link Test to TestType--><path codeLine="42" d="M151.46,155.69 C128.31,164.17 97.82,179.58 83.33,205 C68.61,230.82 75.94,265.56 84.12,289.15 " fill="none" id="Test-TestType" style="stroke:#A80036;stroke-width:1.0;"/><polygon fill="#000000" points="86.0776,218.6397,92.7761,211.8883,87.5284,209.2405,86.0776,218.6397" style="stroke:#000000;stroke-width:1.0;"/><text fill="#000000" font-family="sans-serif" font-size="13" lengthAdjust="spacing" textLength="24" x="97.33" y="219.4951">is of</text><text fill="#000000" font-family="sans-serif" font-size="13" lengthAdjust="spacing" textLength="5" x="138.9744" y="153.6545">*</text><text fill="#000000" font-family="sans-serif" font-size="13" lengthAdjust="spacing" textLength="7" x="73.7183" y="278.53">1</text><!--MD5=[ca29482912e344ebd5dc9db2d1c2ccab]
link Test to ClinicalAnalysisLaboratory--><path codeLine="43" d="M183.93,180.34 C186.11,194.21 190.08,210.06 197.33,223 C205.17,236.98 215.83,250.1 227.24,261.82 " fill="none" id="Test-ClinicalAnalysisLaboratory" style="stroke:#A80036;stroke-width:1.0;"/><polygon fill="#000000" points="204.6768,218.5908,203.0265,209.2245,197.8363,211.9833,204.6768,218.5908" style="stroke:#000000;stroke-width:1.0;"/><text fill="#000000" font-family="sans-serif" font-size="13" lengthAdjust="spacing" textLength="72" x="211.33" y="219.4951">registered at</text><text fill="#000000" font-family="sans-serif" font-size="13" lengthAdjust="spacing" textLength="5" x="178.9472" y="201.1707">*</text><text fill="#000000" font-family="sans-serif" font-size="13" lengthAdjust="spacing" textLength="7" x="211.0675" y="251.2953">1</text><!--MD5=[e085e9076fa70efda8e354b6fbedc66c]
link ClinicalAnalysisLaboratory to Administrator--><path codeLine="45" d="M384.01,316.5 C435.86,316.5 499.56,316.5 543.59,316.5 " fill="none" id="ClinicalAnalysisLaboratory-Administrator" style="stroke:#A80036;stroke-width:1.0;"/><polygon fill="#000000" points="428.83,304.6758,419.7849,301.7369,419.7849,307.6147,428.83,304.6758" style="stroke:#000000;stroke-width:1.0;"/><text fill="#000000" font-family="sans-serif" font-size="13" lengthAdjust="spacing" textLength="75" x="432.83" y="309.9951">registered by</text><text fill="#000000" font-family="sans-serif" font-size="13" lengthAdjust="spacing" textLength="5" x="391.8458" y="313.315">*</text><text fill="#000000" font-family="sans-serif" font-size="13" lengthAdjust="spacing" textLength="7" x="528.6813" y="312.9053">1</text><!--MD5=[0985ee834cc881275852ed47ce1e01f6]
link TestType to Administrator--><path codeLine="47" d="M118.75,289.22 C132.61,274.8 151.33,258.05 171.33,248 C253.8,206.58 286.96,203.33 377.33,222 C436.94,234.31 500.31,263.64 543.46,286.39 " fill="none" id="TestType-Administrator" style="stroke:#A80036;stroke-width:1.0;"/><polygon fill="#000000" points="311.3299,214.1425,302.2654,211.2639,302.3046,217.1416,311.3299,214.1425" style="stroke:#000000;stroke-width:1.0;"/><text fill="#000000" font-family="sans-serif" font-size="13" lengthAdjust="spacing" textLength="61" x="315.33" y="219.4951">created by</text><text fill="#000000" font-family="sans-serif" font-size="13" lengthAdjust="spacing" textLength="5" x="118.5878" y="278.6162">*</text><text fill="#000000" font-family="sans-serif" font-size="13" lengthAdjust="spacing" textLength="7" x="528.8853" y="278.7977">1</text><!--MD5=[cb7b76bb9a6f9b2d7cc7593fc9e39c0f]
@startuml
'https://plantuml.com/class-diagram
hide methods
skinparam classAttributeIconSize 0
skinparam nodesep 70
skinparam ranksep 50

class Company {
-designation
}

class ClinicalAnalysisLaboratory {
-laboratoryID
-name
-address
-phoneNumber
-tinNumber
}

class TestType {
-designation
}

class Test {
-testCode
-name
}

class Administrator {
-employeeID
-organizationRole
-name
-address
-phoneNumber
-email
-soc
}

Company "1" - - - "*" ClinicalAnalysisLaboratory : owns >
Company "1" - "*" TestType : conducts >
Company "1" - "1" Administrator : knows >

Test "*" - - "1" TestType :  is of >
Test "*" - "1" ClinicalAnalysisLaboratory : registered at >

ClinicalAnalysisLaboratory "*" - "1" Administrator : registered by >

TestType "*" - "1" Administrator : created by >

@enduml

@startuml
hide methods
skinparam classAttributeIconSize 0
skinparam nodesep 70
skinparam ranksep 50

class Company {
-designation
}

class ClinicalAnalysisLaboratory {
-laboratoryID
-name
-address
-phoneNumber
-tinNumber
}

class TestType {
-designation
}

class Test {
-testCode
-name
}

class Administrator {
-employeeID
-organizationRole
-name
-address
-phoneNumber
-email
-soc
}

Company "1" - - - "*" ClinicalAnalysisLaboratory : owns >
Company "1" - "*" TestType : conducts >
Company "1" - "1" Administrator : knows >

Test "*" - - "1" TestType :  is of >
Test "*" - "1" ClinicalAnalysisLaboratory : registered at >

ClinicalAnalysisLaboratory "*" - "1" Administrator : registered by >

TestType "*" - "1" Administrator : created by >

@enduml

PlantUML version 1.2021.5(Sun Apr 25 12:20:28 BST 2021)
(GPL source distribution)
Java Runtime: OpenJDK Runtime Environment
JVM: Dynamic Code Evolution 64-Bit Server VM
Default Encoding: Cp1252
Language: en
Country: GB
--></g></svg>