<?xml version="1.0" encoding="UTF-8" standalone="no"?><svg xmlns="http://www.w3.org/2000/svg" xmlns:xlink="http://www.w3.org/1999/xlink" contentScriptType="application/ecmascript" contentStyleType="text/css" height="740px" preserveAspectRatio="none" style="width:1314px;height:740px;background:#FFFFFF;" version="1.1" viewBox="0 0 1314 740" width="1314px" zoomAndPan="magnify"><defs><filter height="300%" id="f163nezc4gj53b" width="300%" x="-1" y="-1"><feGaussianBlur result="blurOut" stdDeviation="2.0"/><feColorMatrix in="blurOut" result="blurOut2" type="matrix" values="0 0 0 0 0 0 0 0 0 0 0 0 0 0 0 0 0 0 .4 0"/><feOffset dx="4.0" dy="4.0" in="blurOut2" result="blurOut3"/><feBlend in="SourceGraphic" in2="blurOut3" mode="normal"/></filter></defs><g><!--MD5=[c51f33223a76eeb547a91c18d6705213]
class NhsContract--><rect codeLine="4" fill="#FEFECE" filter="url(#f163nezc4gj53b)" height="48" id="NhsContract" style="stroke:#A80036;stroke-width:1.5;" width="101" x="935.1428" y="168"/><ellipse cx="950.1428" cy="184" fill="#ADD1B2" rx="11" ry="11" style="stroke:#A80036;stroke-width:1.0;"/><path d="M952.1428,180.5 Q952.3459,180 952.5803,179.75 Q952.8146,179.5 953.0803,179.5 Q953.549,179.5 953.8459,179.7813 Q954.1428,180.0625 954.1428,180.7188 L954.1428,182.2813 Q954.1428,182.9375 953.8615,183.2188 Q953.5803,183.5 953.1428,183.5 Q952.7521,183.5 952.5021,183.3281 Q952.2521,183.1563 952.1428,182.7031 Q952.0959,182.3906 951.924,182.2188 Q951.6115,181.8906 951.049,181.7031 Q950.4865,181.5 949.924,181.5 Q949.2209,181.5 948.6271,181.7813 Q948.049,182.0625 947.5959,182.6875 Q947.1428,183.3125 947.1428,184.1719 L947.1428,185.0938 Q947.1428,186.125 947.9865,186.8125 Q948.8303,187.5 950.3303,187.5 Q951.2209,187.5 951.8459,187.2969 Q952.2053,187.1875 952.6115,186.8281 Q952.8771,186.625 953.0178,186.5625 Q953.1584,186.5 953.3303,186.5 Q953.6584,186.5 953.8928,186.7656 Q954.1428,187.0156 954.1428,187.375 Q954.1428,187.7188 953.799,188.125 Q953.299,188.7188 952.5021,189.0469 Q951.4553,189.5 950.174,189.5 Q948.674,189.5 947.4709,188.9063 Q946.5021,188.4375 945.8146,187.4219 Q945.1428,186.4063 945.1428,185.2031 L945.1428,184.1094 Q945.1428,182.8594 945.7365,181.7656 Q946.3459,180.6719 947.3928,180.0938 Q948.4553,179.5 949.6428,179.5 Q950.3615,179.5 950.9865,179.75 Q951.6115,180 952.1428,180.5 Z " fill="#000000"/><text fill="#000000" font-family="sans-serif" font-size="12" lengthAdjust="spacing" textLength="69" x="964.1428" y="188.9102">NhsContract</text><line style="stroke:#A80036;stroke-width:1.5;" x1="936.1428" x2="1035.1428" y1="200" y2="200"/><line style="stroke:#A80036;stroke-width:1.5;" x1="936.1428" x2="1035.1428" y1="208" y2="208"/><!--MD5=[02e4b9b7573f1156f41e60aa5b4e25a4]
class Company--><rect codeLine="5" fill="#FEFECE" filter="url(#f163nezc4gj53b)" height="61.8359" id="Company" style="stroke:#A80036;stroke-width:1.5;" width="85" x="270.1428" y="7"/><ellipse cx="285.1428" cy="23" fill="#ADD1B2" rx="11" ry="11" style="stroke:#A80036;stroke-width:1.0;"/><path d="M287.1428,19.5 Q287.3459,19 287.5803,18.75 Q287.8146,18.5 288.0803,18.5 Q288.549,18.5 288.8459,18.7813 Q289.1428,19.0625 289.1428,19.7188 L289.1428,21.2813 Q289.1428,21.9375 288.8615,22.2188 Q288.5803,22.5 288.1428,22.5 Q287.7521,22.5 287.5021,22.3281 Q287.2521,22.1563 287.1428,21.7031 Q287.0959,21.3906 286.924,21.2188 Q286.6115,20.8906 286.049,20.7031 Q285.4865,20.5 284.924,20.5 Q284.2209,20.5 283.6271,20.7813 Q283.049,21.0625 282.5959,21.6875 Q282.1428,22.3125 282.1428,23.1719 L282.1428,24.0938 Q282.1428,25.125 282.9865,25.8125 Q283.8303,26.5 285.3303,26.5 Q286.2209,26.5 286.8459,26.2969 Q287.2053,26.1875 287.6115,25.8281 Q287.8771,25.625 288.0178,25.5625 Q288.1584,25.5 288.3303,25.5 Q288.6584,25.5 288.8928,25.7656 Q289.1428,26.0156 289.1428,26.375 Q289.1428,26.7188 288.799,27.125 Q288.299,27.7188 287.5021,28.0469 Q286.4553,28.5 285.174,28.5 Q283.674,28.5 282.4709,27.9063 Q281.5021,27.4375 280.8146,26.4219 Q280.1428,25.4063 280.1428,24.2031 L280.1428,23.1094 Q280.1428,21.8594 280.7365,20.7656 Q281.3459,19.6719 282.3928,19.0938 Q283.4553,18.5 284.6428,18.5 Q285.3615,18.5 285.9865,18.75 Q286.6115,19 287.1428,19.5 Z " fill="#000000"/><text fill="#000000" font-family="sans-serif" font-size="12" lengthAdjust="spacing" textLength="53" x="299.1428" y="27.9102">Company</text><line style="stroke:#A80036;stroke-width:1.5;" x1="271.1428" x2="354.1428" y1="39" y2="39"/><rect fill="none" height="6" style="stroke:#C82930;stroke-width:1.0;" width="6" x="278.1428" y="47"/><text fill="#000000" font-family="sans-serif" font-size="11" lengthAdjust="spacing" textLength="55" x="290.1428" y="54.4189">designation</text><line style="stroke:#A80036;stroke-width:1.5;" x1="271.1428" x2="354.1428" y1="60.8359" y2="60.8359"/><!--MD5=[1e7f750a71b4b33f3f946f8af010cd04]
class Nhs--><rect codeLine="8" fill="#FEFECE" filter="url(#f163nezc4gj53b)" height="48" id="Nhs" style="stroke:#A80036;stroke-width:1.5;" width="55" x="1149.1428" y="14"/><ellipse cx="1164.1428" cy="30" fill="#ADD1B2" rx="11" ry="11" style="stroke:#A80036;stroke-width:1.0;"/><path d="M1166.1428,26.5 Q1166.3459,26 1166.5803,25.75 Q1166.8146,25.5 1167.0803,25.5 Q1167.549,25.5 1167.8459,25.7813 Q1168.1428,26.0625 1168.1428,26.7188 L1168.1428,28.2813 Q1168.1428,28.9375 1167.8615,29.2188 Q1167.5803,29.5 1167.1428,29.5 Q1166.7521,29.5 1166.5021,29.3281 Q1166.2521,29.1563 1166.1428,28.7031 Q1166.0959,28.3906 1165.924,28.2188 Q1165.6115,27.8906 1165.049,27.7031 Q1164.4865,27.5 1163.924,27.5 Q1163.2209,27.5 1162.6271,27.7813 Q1162.049,28.0625 1161.5959,28.6875 Q1161.1428,29.3125 1161.1428,30.1719 L1161.1428,31.0938 Q1161.1428,32.125 1161.9865,32.8125 Q1162.8303,33.5 1164.3303,33.5 Q1165.2209,33.5 1165.8459,33.2969 Q1166.2053,33.1875 1166.6115,32.8281 Q1166.8771,32.625 1167.0178,32.5625 Q1167.1584,32.5 1167.3303,32.5 Q1167.6584,32.5 1167.8928,32.7656 Q1168.1428,33.0156 1168.1428,33.375 Q1168.1428,33.7188 1167.799,34.125 Q1167.299,34.7188 1166.5021,35.0469 Q1165.4553,35.5 1164.174,35.5 Q1162.674,35.5 1161.4709,34.9063 Q1160.5021,34.4375 1159.8146,33.4219 Q1159.1428,32.4063 1159.1428,31.2031 L1159.1428,30.1094 Q1159.1428,28.8594 1159.7365,27.7656 Q1160.3459,26.6719 1161.3928,26.0938 Q1162.4553,25.5 1163.6428,25.5 Q1164.3615,25.5 1164.9865,25.75 Q1165.6115,26 1166.1428,26.5 Z " fill="#000000"/><text fill="#000000" font-family="sans-serif" font-size="12" lengthAdjust="spacing" textLength="23" x="1178.1428" y="34.9102">Nhs</text><line style="stroke:#A80036;stroke-width:1.5;" x1="1150.1428" x2="1203.1428" y1="46" y2="46"/><line style="stroke:#A80036;stroke-width:1.5;" x1="1150.1428" x2="1203.1428" y1="54" y2="54"/><!--MD5=[6b613c47955d26261bf1ca67a1458210]
class NhsApi--><rect codeLine="10" fill="#FEFECE" filter="url(#f163nezc4gj53b)" height="48" id="NhsApi" style="stroke:#A80036;stroke-width:1.5;" width="72" x="1228.6428" y="336"/><ellipse cx="1243.6428" cy="352" fill="#ADD1B2" rx="11" ry="11" style="stroke:#A80036;stroke-width:1.0;"/><path d="M1245.6428,348.5 Q1245.8459,348 1246.0803,347.75 Q1246.3146,347.5 1246.5803,347.5 Q1247.049,347.5 1247.3459,347.7813 Q1247.6428,348.0625 1247.6428,348.7188 L1247.6428,350.2813 Q1247.6428,350.9375 1247.3615,351.2188 Q1247.0803,351.5 1246.6428,351.5 Q1246.2521,351.5 1246.0021,351.3281 Q1245.7521,351.1563 1245.6428,350.7031 Q1245.5959,350.3906 1245.424,350.2188 Q1245.1115,349.8906 1244.549,349.7031 Q1243.9865,349.5 1243.424,349.5 Q1242.7209,349.5 1242.1271,349.7813 Q1241.549,350.0625 1241.0959,350.6875 Q1240.6428,351.3125 1240.6428,352.1719 L1240.6428,353.0938 Q1240.6428,354.125 1241.4865,354.8125 Q1242.3303,355.5 1243.8303,355.5 Q1244.7209,355.5 1245.3459,355.2969 Q1245.7053,355.1875 1246.1115,354.8281 Q1246.3771,354.625 1246.5178,354.5625 Q1246.6584,354.5 1246.8303,354.5 Q1247.1584,354.5 1247.3928,354.7656 Q1247.6428,355.0156 1247.6428,355.375 Q1247.6428,355.7188 1247.299,356.125 Q1246.799,356.7188 1246.0021,357.0469 Q1244.9553,357.5 1243.674,357.5 Q1242.174,357.5 1240.9709,356.9063 Q1240.0021,356.4375 1239.3146,355.4219 Q1238.6428,354.4063 1238.6428,353.2031 L1238.6428,352.1094 Q1238.6428,350.8594 1239.2365,349.7656 Q1239.8459,348.6719 1240.8928,348.0938 Q1241.9553,347.5 1243.1428,347.5 Q1243.8615,347.5 1244.4865,347.75 Q1245.1115,348 1245.6428,348.5 Z " fill="#000000"/><text fill="#000000" font-family="sans-serif" font-size="12" lengthAdjust="spacing" textLength="40" x="1257.6428" y="356.9102">NhsApi</text><line style="stroke:#A80036;stroke-width:1.5;" x1="1229.6428" x2="1299.6428" y1="368" y2="368"/><line style="stroke:#A80036;stroke-width:1.5;" x1="1229.6428" x2="1299.6428" y1="376" y2="376"/><!--MD5=[56d6420f80bd2070802a539ccf438c63]
class NhsReportType--><rect codeLine="12" fill="#FEFECE" filter="url(#f163nezc4gj53b)" height="61.8359" id="NhsReportType" style="stroke:#A80036;stroke-width:1.5;" width="118" x="1060.6428" y="329"/><ellipse cx="1075.6428" cy="345" fill="#ADD1B2" rx="11" ry="11" style="stroke:#A80036;stroke-width:1.0;"/><path d="M1077.6428,341.5 Q1077.8459,341 1078.0803,340.75 Q1078.3146,340.5 1078.5803,340.5 Q1079.049,340.5 1079.3459,340.7813 Q1079.6428,341.0625 1079.6428,341.7188 L1079.6428,343.2813 Q1079.6428,343.9375 1079.3615,344.2188 Q1079.0803,344.5 1078.6428,344.5 Q1078.2521,344.5 1078.0021,344.3281 Q1077.7521,344.1563 1077.6428,343.7031 Q1077.5959,343.3906 1077.424,343.2188 Q1077.1115,342.8906 1076.549,342.7031 Q1075.9865,342.5 1075.424,342.5 Q1074.7209,342.5 1074.1271,342.7813 Q1073.549,343.0625 1073.0959,343.6875 Q1072.6428,344.3125 1072.6428,345.1719 L1072.6428,346.0938 Q1072.6428,347.125 1073.4865,347.8125 Q1074.3303,348.5 1075.8303,348.5 Q1076.7209,348.5 1077.3459,348.2969 Q1077.7053,348.1875 1078.1115,347.8281 Q1078.3771,347.625 1078.5178,347.5625 Q1078.6584,347.5 1078.8303,347.5 Q1079.1584,347.5 1079.3928,347.7656 Q1079.6428,348.0156 1079.6428,348.375 Q1079.6428,348.7188 1079.299,349.125 Q1078.799,349.7188 1078.0021,350.0469 Q1076.9553,350.5 1075.674,350.5 Q1074.174,350.5 1072.9709,349.9063 Q1072.0021,349.4375 1071.3146,348.4219 Q1070.6428,347.4063 1070.6428,346.2031 L1070.6428,345.1094 Q1070.6428,343.8594 1071.2365,342.7656 Q1071.8459,341.6719 1072.8928,341.0938 Q1073.9553,340.5 1075.1428,340.5 Q1075.8615,340.5 1076.4865,340.75 Q1077.1115,341 1077.6428,341.5 Z " fill="#000000"/><text fill="#000000" font-family="sans-serif" font-size="12" lengthAdjust="spacing" textLength="86" x="1089.6428" y="349.9102">NhsReportType</text><line style="stroke:#A80036;stroke-width:1.5;" x1="1061.6428" x2="1177.6428" y1="361" y2="361"/><rect fill="none" height="6" style="stroke:#C82930;stroke-width:1.0;" width="6" x="1068.6428" y="369"/><text fill="#000000" font-family="sans-serif" font-size="11" lengthAdjust="spacing" textLength="53" x="1080.6428" y="376.4189">description</text><line style="stroke:#A80036;stroke-width:1.5;" x1="1061.6428" x2="1177.6428" y1="382.8359" y2="382.8359"/><!--MD5=[aeb3272166074d8737a70b61b1e71682]
class TestType--><rect codeLine="16" fill="#FEFECE" filter="url(#f163nezc4gj53b)" height="89.5078" id="TestType" style="stroke:#A80036;stroke-width:1.5;" width="82" x="250.6428" y="315"/><ellipse cx="265.6428" cy="331" fill="#ADD1B2" rx="11" ry="11" style="stroke:#A80036;stroke-width:1.0;"/><path d="M267.6428,327.5 Q267.8459,327 268.0803,326.75 Q268.3146,326.5 268.5803,326.5 Q269.049,326.5 269.3459,326.7813 Q269.6428,327.0625 269.6428,327.7188 L269.6428,329.2813 Q269.6428,329.9375 269.3615,330.2188 Q269.0803,330.5 268.6428,330.5 Q268.2521,330.5 268.0021,330.3281 Q267.7521,330.1563 267.6428,329.7031 Q267.5959,329.3906 267.424,329.2188 Q267.1115,328.8906 266.549,328.7031 Q265.9865,328.5 265.424,328.5 Q264.7209,328.5 264.1271,328.7813 Q263.549,329.0625 263.0959,329.6875 Q262.6428,330.3125 262.6428,331.1719 L262.6428,332.0938 Q262.6428,333.125 263.4865,333.8125 Q264.3303,334.5 265.8303,334.5 Q266.7209,334.5 267.3459,334.2969 Q267.7053,334.1875 268.1115,333.8281 Q268.3771,333.625 268.5178,333.5625 Q268.6584,333.5 268.8303,333.5 Q269.1584,333.5 269.3928,333.7656 Q269.6428,334.0156 269.6428,334.375 Q269.6428,334.7188 269.299,335.125 Q268.799,335.7188 268.0021,336.0469 Q266.9553,336.5 265.674,336.5 Q264.174,336.5 262.9709,335.9063 Q262.0021,335.4375 261.3146,334.4219 Q260.6428,333.4063 260.6428,332.2031 L260.6428,331.1094 Q260.6428,329.8594 261.2365,328.7656 Q261.8459,327.6719 262.8928,327.0938 Q263.9553,326.5 265.1428,326.5 Q265.8615,326.5 266.4865,326.75 Q267.1115,327 267.6428,327.5 Z " fill="#000000"/><text fill="#000000" font-family="sans-serif" font-size="12" lengthAdjust="spacing" textLength="50" x="279.6428" y="335.9102">TestType</text><line style="stroke:#A80036;stroke-width:1.5;" x1="251.6428" x2="331.6428" y1="347" y2="347"/><rect fill="none" height="6" style="stroke:#C82930;stroke-width:1.0;" width="6" x="258.6428" y="355"/><text fill="#000000" font-family="sans-serif" font-size="11" lengthAdjust="spacing" textLength="24" x="270.6428" y="362.4189">code</text><rect fill="none" height="6" style="stroke:#C82930;stroke-width:1.0;" width="6" x="258.6428" y="368.8359"/><text fill="#000000" font-family="sans-serif" font-size="11" lengthAdjust="spacing" textLength="53" x="270.6428" y="376.2549">description</text><rect fill="none" height="6" style="stroke:#C82930;stroke-width:1.0;" width="6" x="258.6428" y="382.6719"/><text fill="#000000" font-family="sans-serif" font-size="11" lengthAdjust="spacing" textLength="45" x="270.6428" y="390.0908">collection</text><line style="stroke:#A80036;stroke-width:1.5;" x1="251.6428" x2="331.6428" y1="396.5078" y2="396.5078"/><!--MD5=[36afb6bbd95a8ac778c4537c55a683d5]
class ParameterCategory--><rect codeLine="22" fill="#FEFECE" filter="url(#f163nezc4gj53b)" height="75.6719" id="ParameterCategory" style="stroke:#A80036;stroke-width:1.5;" width="139" x="70.1428" y="651"/><ellipse cx="85.1428" cy="667" fill="#ADD1B2" rx="11" ry="11" style="stroke:#A80036;stroke-width:1.0;"/><path d="M87.1428,663.5 Q87.3459,663 87.5803,662.75 Q87.8146,662.5 88.0803,662.5 Q88.549,662.5 88.8459,662.7813 Q89.1428,663.0625 89.1428,663.7188 L89.1428,665.2813 Q89.1428,665.9375 88.8615,666.2188 Q88.5803,666.5 88.1428,666.5 Q87.7521,666.5 87.5021,666.3281 Q87.2521,666.1563 87.1428,665.7031 Q87.0959,665.3906 86.924,665.2188 Q86.6115,664.8906 86.049,664.7031 Q85.4865,664.5 84.924,664.5 Q84.2209,664.5 83.6271,664.7813 Q83.049,665.0625 82.5959,665.6875 Q82.1428,666.3125 82.1428,667.1719 L82.1428,668.0938 Q82.1428,669.125 82.9865,669.8125 Q83.8303,670.5 85.3303,670.5 Q86.2209,670.5 86.8459,670.2969 Q87.2053,670.1875 87.6115,669.8281 Q87.8771,669.625 88.0178,669.5625 Q88.1584,669.5 88.3303,669.5 Q88.6584,669.5 88.8928,669.7656 Q89.1428,670.0156 89.1428,670.375 Q89.1428,670.7188 88.799,671.125 Q88.299,671.7188 87.5021,672.0469 Q86.4553,672.5 85.174,672.5 Q83.674,672.5 82.4709,671.9063 Q81.5021,671.4375 80.8146,670.4219 Q80.1428,669.4063 80.1428,668.2031 L80.1428,667.1094 Q80.1428,665.8594 80.7365,664.7656 Q81.3459,663.6719 82.3928,663.0938 Q83.4553,662.5 84.6428,662.5 Q85.3615,662.5 85.9865,662.75 Q86.6115,663 87.1428,663.5 Z " fill="#000000"/><text fill="#000000" font-family="sans-serif" font-size="12" lengthAdjust="spacing" textLength="107" x="99.1428" y="671.9102">ParameterCategory</text><line style="stroke:#A80036;stroke-width:1.5;" x1="71.1428" x2="208.1428" y1="683" y2="683"/><rect fill="none" height="6" style="stroke:#C82930;stroke-width:1.0;" width="6" x="78.1428" y="691"/><text fill="#000000" font-family="sans-serif" font-size="11" lengthAdjust="spacing" textLength="24" x="90.1428" y="698.4189">code</text><rect fill="none" height="6" style="stroke:#C82930;stroke-width:1.0;" width="6" x="78.1428" y="704.8359"/><text fill="#000000" font-family="sans-serif" font-size="11" lengthAdjust="spacing" textLength="26" x="90.1428" y="712.2549">name</text><line style="stroke:#A80036;stroke-width:1.5;" x1="71.1428" x2="208.1428" y1="718.6719" y2="718.6719"/><!--MD5=[1f6362a5c8f21d8d6a0fce68f3a92a4e]
class Parameter--><rect codeLine="27" fill="#FEFECE" filter="url(#f163nezc4gj53b)" height="89.5078" id="Parameter" style="stroke:#A80036;stroke-width:1.5;" width="90" x="369.6428" y="483"/><ellipse cx="384.6428" cy="499" fill="#ADD1B2" rx="11" ry="11" style="stroke:#A80036;stroke-width:1.0;"/><path d="M386.6428,495.5 Q386.8459,495 387.0803,494.75 Q387.3146,494.5 387.5803,494.5 Q388.049,494.5 388.3459,494.7813 Q388.6428,495.0625 388.6428,495.7188 L388.6428,497.2813 Q388.6428,497.9375 388.3615,498.2188 Q388.0803,498.5 387.6428,498.5 Q387.2521,498.5 387.0021,498.3281 Q386.7521,498.1563 386.6428,497.7031 Q386.5959,497.3906 386.424,497.2188 Q386.1115,496.8906 385.549,496.7031 Q384.9865,496.5 384.424,496.5 Q383.7209,496.5 383.1271,496.7813 Q382.549,497.0625 382.0959,497.6875 Q381.6428,498.3125 381.6428,499.1719 L381.6428,500.0938 Q381.6428,501.125 382.4865,501.8125 Q383.3303,502.5 384.8303,502.5 Q385.7209,502.5 386.3459,502.2969 Q386.7053,502.1875 387.1115,501.8281 Q387.3771,501.625 387.5178,501.5625 Q387.6584,501.5 387.8303,501.5 Q388.1584,501.5 388.3928,501.7656 Q388.6428,502.0156 388.6428,502.375 Q388.6428,502.7188 388.299,503.125 Q387.799,503.7188 387.0021,504.0469 Q385.9553,504.5 384.674,504.5 Q383.174,504.5 381.9709,503.9063 Q381.0021,503.4375 380.3146,502.4219 Q379.6428,501.4063 379.6428,500.2031 L379.6428,499.1094 Q379.6428,497.8594 380.2365,496.7656 Q380.8459,495.6719 381.8928,495.0938 Q382.9553,494.5 384.1428,494.5 Q384.8615,494.5 385.4865,494.75 Q386.1115,495 386.6428,495.5 Z " fill="#000000"/><text fill="#000000" font-family="sans-serif" font-size="12" lengthAdjust="spacing" textLength="58" x="398.6428" y="503.9102">Parameter</text><line style="stroke:#A80036;stroke-width:1.5;" x1="370.6428" x2="458.6428" y1="515" y2="515"/><rect fill="none" height="6" style="stroke:#C82930;stroke-width:1.0;" width="6" x="377.6428" y="523"/><text fill="#000000" font-family="sans-serif" font-size="11" lengthAdjust="spacing" textLength="24" x="389.6428" y="530.4189">code</text><rect fill="none" height="6" style="stroke:#C82930;stroke-width:1.0;" width="6" x="377.6428" y="536.8359"/><text fill="#000000" font-family="sans-serif" font-size="11" lengthAdjust="spacing" textLength="49" x="389.6428" y="544.2549">shorName</text><rect fill="none" height="6" style="stroke:#C82930;stroke-width:1.0;" width="6" x="377.6428" y="550.6719"/><text fill="#000000" font-family="sans-serif" font-size="11" lengthAdjust="spacing" textLength="53" x="389.6428" y="558.0908">description</text><line style="stroke:#A80036;stroke-width:1.5;" x1="370.6428" x2="458.6428" y1="564.5078" y2="564.5078"/><!--MD5=[0c27e179cfc1ecadd76b03e464a492e9]
class SampleCollectionMethod--><rect codeLine="33" fill="#FEFECE" filter="url(#f163nezc4gj53b)" height="61.8359" id="SampleCollectionMethod" style="stroke:#A80036;stroke-width:1.5;" width="170" x="494.6428" y="497"/><ellipse cx="509.6428" cy="513" fill="#ADD1B2" rx="11" ry="11" style="stroke:#A80036;stroke-width:1.0;"/><path d="M511.6428,509.5 Q511.8459,509 512.0803,508.75 Q512.3146,508.5 512.5803,508.5 Q513.049,508.5 513.3459,508.7813 Q513.6428,509.0625 513.6428,509.7188 L513.6428,511.2813 Q513.6428,511.9375 513.3615,512.2188 Q513.0803,512.5 512.6428,512.5 Q512.2521,512.5 512.0021,512.3281 Q511.7521,512.1563 511.6428,511.7031 Q511.5959,511.3906 511.424,511.2188 Q511.1115,510.8906 510.549,510.7031 Q509.9865,510.5 509.424,510.5 Q508.7209,510.5 508.1271,510.7813 Q507.549,511.0625 507.0959,511.6875 Q506.6428,512.3125 506.6428,513.1719 L506.6428,514.0938 Q506.6428,515.125 507.4865,515.8125 Q508.3303,516.5 509.8303,516.5 Q510.7209,516.5 511.3459,516.2969 Q511.7053,516.1875 512.1115,515.8281 Q512.3771,515.625 512.5178,515.5625 Q512.6584,515.5 512.8303,515.5 Q513.1584,515.5 513.3928,515.7656 Q513.6428,516.0156 513.6428,516.375 Q513.6428,516.7188 513.299,517.125 Q512.799,517.7188 512.0021,518.0469 Q510.9553,518.5 509.674,518.5 Q508.174,518.5 506.9709,517.9063 Q506.0021,517.4375 505.3146,516.4219 Q504.6428,515.4063 504.6428,514.2031 L504.6428,513.1094 Q504.6428,511.8594 505.2365,510.7656 Q505.8459,509.6719 506.8928,509.0938 Q507.9553,508.5 509.1428,508.5 Q509.8615,508.5 510.4865,508.75 Q511.1115,509 511.6428,509.5 Z " fill="#000000"/><text fill="#000000" font-family="sans-serif" font-size="12" lengthAdjust="spacing" textLength="138" x="523.6428" y="517.9102">SampleCollectionMethod</text><line style="stroke:#A80036;stroke-width:1.5;" x1="495.6428" x2="663.6428" y1="529" y2="529"/><rect fill="none" height="6" style="stroke:#C82930;stroke-width:1.0;" width="6" x="502.6428" y="537"/><text fill="#000000" font-family="sans-serif" font-size="11" lengthAdjust="spacing" textLength="53" x="514.6428" y="544.4189">description</text><line style="stroke:#A80036;stroke-width:1.5;" x1="495.6428" x2="663.6428" y1="550.8359" y2="550.8359"/><!--MD5=[76b5e19c9337179d2d7ae334371d68c8]
class Notification--><rect codeLine="37" fill="#FEFECE" filter="url(#f163nezc4gj53b)" height="61.8359" id="Notification" style="stroke:#A80036;stroke-width:1.5;" width="93" x="704.1428" y="497"/><ellipse cx="719.1428" cy="513" fill="#ADD1B2" rx="11" ry="11" style="stroke:#A80036;stroke-width:1.0;"/><path d="M721.1428,509.5 Q721.3459,509 721.5803,508.75 Q721.8146,508.5 722.0803,508.5 Q722.549,508.5 722.8459,508.7813 Q723.1428,509.0625 723.1428,509.7188 L723.1428,511.2813 Q723.1428,511.9375 722.8615,512.2188 Q722.5803,512.5 722.1428,512.5 Q721.7521,512.5 721.5021,512.3281 Q721.2521,512.1563 721.1428,511.7031 Q721.0959,511.3906 720.924,511.2188 Q720.6115,510.8906 720.049,510.7031 Q719.4865,510.5 718.924,510.5 Q718.2209,510.5 717.6271,510.7813 Q717.049,511.0625 716.5959,511.6875 Q716.1428,512.3125 716.1428,513.1719 L716.1428,514.0938 Q716.1428,515.125 716.9865,515.8125 Q717.8303,516.5 719.3303,516.5 Q720.2209,516.5 720.8459,516.2969 Q721.2053,516.1875 721.6115,515.8281 Q721.8771,515.625 722.0178,515.5625 Q722.1584,515.5 722.3303,515.5 Q722.6584,515.5 722.8928,515.7656 Q723.1428,516.0156 723.1428,516.375 Q723.1428,516.7188 722.799,517.125 Q722.299,517.7188 721.5021,518.0469 Q720.4553,518.5 719.174,518.5 Q717.674,518.5 716.4709,517.9063 Q715.5021,517.4375 714.8146,516.4219 Q714.1428,515.4063 714.1428,514.2031 L714.1428,513.1094 Q714.1428,511.8594 714.7365,510.7656 Q715.3459,509.6719 716.3928,509.0938 Q717.4553,508.5 718.6428,508.5 Q719.3615,508.5 719.9865,508.75 Q720.6115,509 721.1428,509.5 Z " fill="#000000"/><text fill="#000000" font-family="sans-serif" font-size="12" lengthAdjust="spacing" textLength="61" x="733.1428" y="517.9102">Notification</text><line style="stroke:#A80036;stroke-width:1.5;" x1="705.1428" x2="796.1428" y1="529" y2="529"/><rect fill="none" height="6" style="stroke:#C82930;stroke-width:1.0;" width="6" x="712.1428" y="537"/><text fill="#000000" font-family="sans-serif" font-size="11" lengthAdjust="spacing" textLength="62" x="724.1428" y="544.4189">textMessage</text><line style="stroke:#A80036;stroke-width:1.5;" x1="705.1428" x2="796.1428" y1="550.8359" y2="550.8359"/><!--MD5=[df38be88ccee13e832d6fafd6288a4ca]
class Test--><rect codeLine="41" fill="#FEFECE" filter="url(#f163nezc4gj53b)" height="89.5078" id="Test" style="stroke:#A80036;stroke-width:1.5;" width="74" x="456.6428" y="147"/><ellipse cx="479.7428" cy="163" fill="#ADD1B2" rx="11" ry="11" style="stroke:#A80036;stroke-width:1.0;"/><path d="M481.7428,159.5 Q481.9459,159 482.1803,158.75 Q482.4146,158.5 482.6803,158.5 Q483.149,158.5 483.4459,158.7813 Q483.7428,159.0625 483.7428,159.7188 L483.7428,161.2813 Q483.7428,161.9375 483.4615,162.2188 Q483.1803,162.5 482.7428,162.5 Q482.3521,162.5 482.1021,162.3281 Q481.8521,162.1563 481.7428,161.7031 Q481.6959,161.3906 481.524,161.2188 Q481.2115,160.8906 480.649,160.7031 Q480.0865,160.5 479.524,160.5 Q478.8209,160.5 478.2271,160.7813 Q477.649,161.0625 477.1959,161.6875 Q476.7428,162.3125 476.7428,163.1719 L476.7428,164.0938 Q476.7428,165.125 477.5865,165.8125 Q478.4303,166.5 479.9303,166.5 Q480.8209,166.5 481.4459,166.2969 Q481.8053,166.1875 482.2115,165.8281 Q482.4771,165.625 482.6178,165.5625 Q482.7584,165.5 482.9303,165.5 Q483.2584,165.5 483.4928,165.7656 Q483.7428,166.0156 483.7428,166.375 Q483.7428,166.7188 483.399,167.125 Q482.899,167.7188 482.1021,168.0469 Q481.0553,168.5 479.774,168.5 Q478.274,168.5 477.0709,167.9063 Q476.1021,167.4375 475.4146,166.4219 Q474.7428,165.4063 474.7428,164.2031 L474.7428,163.1094 Q474.7428,161.8594 475.3365,160.7656 Q475.9459,159.6719 476.9928,159.0938 Q478.0553,158.5 479.2428,158.5 Q479.9615,158.5 480.5865,158.75 Q481.2115,159 481.7428,159.5 Z " fill="#000000"/><text fill="#000000" font-family="sans-serif" font-size="12" lengthAdjust="spacing" textLength="24" x="495.5428" y="167.9102">Test</text><line style="stroke:#A80036;stroke-width:1.5;" x1="457.6428" x2="529.6428" y1="179" y2="179"/><rect fill="none" height="6" style="stroke:#C82930;stroke-width:1.0;" width="6" x="464.6428" y="187"/><text fill="#000000" font-family="sans-serif" font-size="11" lengthAdjust="spacing" textLength="24" x="476.6428" y="194.4189">code</text><rect fill="none" height="6" style="stroke:#C82930;stroke-width:1.0;" width="6" x="464.6428" y="200.8359"/><text fill="#000000" font-family="sans-serif" font-size="11" lengthAdjust="spacing" textLength="44" x="476.6428" y="208.2549">NhsCode</text><rect fill="none" height="6" style="stroke:#C82930;stroke-width:1.0;" width="6" x="464.6428" y="214.6719"/><text fill="#000000" font-family="sans-serif" font-size="11" lengthAdjust="spacing" textLength="48" x="476.6428" y="222.0908">createdAt</text><line style="stroke:#A80036;stroke-width:1.5;" x1="457.6428" x2="529.6428" y1="228.5078" y2="228.5078"/><!--MD5=[c18fe2235af84d27f50ab7ae87a88372]
class TestValidation--><rect codeLine="47" fill="#FEFECE" filter="url(#f163nezc4gj53b)" height="61.8359" id="TestValidation" style="stroke:#A80036;stroke-width:1.5;" width="110" x="695.6428" y="329"/><ellipse cx="710.6428" cy="345" fill="#ADD1B2" rx="11" ry="11" style="stroke:#A80036;stroke-width:1.0;"/><path d="M712.6428,341.5 Q712.8459,341 713.0803,340.75 Q713.3146,340.5 713.5803,340.5 Q714.049,340.5 714.3459,340.7813 Q714.6428,341.0625 714.6428,341.7188 L714.6428,343.2813 Q714.6428,343.9375 714.3615,344.2188 Q714.0803,344.5 713.6428,344.5 Q713.2521,344.5 713.0021,344.3281 Q712.7521,344.1563 712.6428,343.7031 Q712.5959,343.3906 712.424,343.2188 Q712.1115,342.8906 711.549,342.7031 Q710.9865,342.5 710.424,342.5 Q709.7209,342.5 709.1271,342.7813 Q708.549,343.0625 708.0959,343.6875 Q707.6428,344.3125 707.6428,345.1719 L707.6428,346.0938 Q707.6428,347.125 708.4865,347.8125 Q709.3303,348.5 710.8303,348.5 Q711.7209,348.5 712.3459,348.2969 Q712.7053,348.1875 713.1115,347.8281 Q713.3771,347.625 713.5178,347.5625 Q713.6584,347.5 713.8303,347.5 Q714.1584,347.5 714.3928,347.7656 Q714.6428,348.0156 714.6428,348.375 Q714.6428,348.7188 714.299,349.125 Q713.799,349.7188 713.0021,350.0469 Q711.9553,350.5 710.674,350.5 Q709.174,350.5 707.9709,349.9063 Q707.0021,349.4375 706.3146,348.4219 Q705.6428,347.4063 705.6428,346.2031 L705.6428,345.1094 Q705.6428,343.8594 706.2365,342.7656 Q706.8459,341.6719 707.8928,341.0938 Q708.9553,340.5 710.1428,340.5 Q710.8615,340.5 711.4865,340.75 Q712.1115,341 712.6428,341.5 Z " fill="#000000"/><text fill="#000000" font-family="sans-serif" font-size="12" lengthAdjust="spacing" textLength="78" x="724.6428" y="349.9102">TestValidation</text><line style="stroke:#A80036;stroke-width:1.5;" x1="696.6428" x2="804.6428" y1="361" y2="361"/><rect fill="none" height="6" style="stroke:#C82930;stroke-width:1.0;" width="6" x="703.6428" y="369"/><text fill="#000000" font-family="sans-serif" font-size="11" lengthAdjust="spacing" textLength="48" x="715.6428" y="376.4189">createdAt</text><line style="stroke:#A80036;stroke-width:1.5;" x1="696.6428" x2="804.6428" y1="382.8359" y2="382.8359"/><!--MD5=[0f07739f46effee96e095e9c408da841]
class TestParameter--><rect codeLine="51" fill="#FEFECE" filter="url(#f163nezc4gj53b)" height="48" id="TestParameter" style="stroke:#A80036;stroke-width:1.5;" width="114" x="911.6428" y="336"/><ellipse cx="926.6428" cy="352" fill="#ADD1B2" rx="11" ry="11" style="stroke:#A80036;stroke-width:1.0;"/><path d="M928.6428,348.5 Q928.8459,348 929.0803,347.75 Q929.3146,347.5 929.5803,347.5 Q930.049,347.5 930.3459,347.7813 Q930.6428,348.0625 930.6428,348.7188 L930.6428,350.2813 Q930.6428,350.9375 930.3615,351.2188 Q930.0803,351.5 929.6428,351.5 Q929.2521,351.5 929.0021,351.3281 Q928.7521,351.1563 928.6428,350.7031 Q928.5959,350.3906 928.424,350.2188 Q928.1115,349.8906 927.549,349.7031 Q926.9865,349.5 926.424,349.5 Q925.7209,349.5 925.1271,349.7813 Q924.549,350.0625 924.0959,350.6875 Q923.6428,351.3125 923.6428,352.1719 L923.6428,353.0938 Q923.6428,354.125 924.4865,354.8125 Q925.3303,355.5 926.8303,355.5 Q927.7209,355.5 928.3459,355.2969 Q928.7053,355.1875 929.1115,354.8281 Q929.3771,354.625 929.5178,354.5625 Q929.6584,354.5 929.8303,354.5 Q930.1584,354.5 930.3928,354.7656 Q930.6428,355.0156 930.6428,355.375 Q930.6428,355.7188 930.299,356.125 Q929.799,356.7188 929.0021,357.0469 Q927.9553,357.5 926.674,357.5 Q925.174,357.5 923.9709,356.9063 Q923.0021,356.4375 922.3146,355.4219 Q921.6428,354.4063 921.6428,353.2031 L921.6428,352.1094 Q921.6428,350.8594 922.2365,349.7656 Q922.8459,348.6719 923.8928,348.0938 Q924.9553,347.5 926.1428,347.5 Q926.8615,347.5 927.4865,347.75 Q928.1115,348 928.6428,348.5 Z " fill="#000000"/><text fill="#000000" font-family="sans-serif" font-size="12" lengthAdjust="spacing" textLength="82" x="940.6428" y="356.9102">TestParameter</text><line style="stroke:#A80036;stroke-width:1.5;" x1="912.6428" x2="1024.6428" y1="368" y2="368"/><line style="stroke:#A80036;stroke-width:1.5;" x1="912.6428" x2="1024.6428" y1="376" y2="376"/><!--MD5=[4e608140b854dae633589343bce77383]
class TestParameterResult--><rect codeLine="53" fill="#FEFECE" filter="url(#f163nezc4gj53b)" height="75.6719" id="TestParameterResult" style="stroke:#A80036;stroke-width:1.5;" width="150" x="911.6428" y="490"/><ellipse cx="926.6428" cy="506" fill="#ADD1B2" rx="11" ry="11" style="stroke:#A80036;stroke-width:1.0;"/><path d="M928.6428,502.5 Q928.8459,502 929.0803,501.75 Q929.3146,501.5 929.5803,501.5 Q930.049,501.5 930.3459,501.7813 Q930.6428,502.0625 930.6428,502.7188 L930.6428,504.2813 Q930.6428,504.9375 930.3615,505.2188 Q930.0803,505.5 929.6428,505.5 Q929.2521,505.5 929.0021,505.3281 Q928.7521,505.1563 928.6428,504.7031 Q928.5959,504.3906 928.424,504.2188 Q928.1115,503.8906 927.549,503.7031 Q926.9865,503.5 926.424,503.5 Q925.7209,503.5 925.1271,503.7813 Q924.549,504.0625 924.0959,504.6875 Q923.6428,505.3125 923.6428,506.1719 L923.6428,507.0938 Q923.6428,508.125 924.4865,508.8125 Q925.3303,509.5 926.8303,509.5 Q927.7209,509.5 928.3459,509.2969 Q928.7053,509.1875 929.1115,508.8281 Q929.3771,508.625 929.5178,508.5625 Q929.6584,508.5 929.8303,508.5 Q930.1584,508.5 930.3928,508.7656 Q930.6428,509.0156 930.6428,509.375 Q930.6428,509.7188 930.299,510.125 Q929.799,510.7188 929.0021,511.0469 Q927.9553,511.5 926.674,511.5 Q925.174,511.5 923.9709,510.9063 Q923.0021,510.4375 922.3146,509.4219 Q921.6428,508.4063 921.6428,507.2031 L921.6428,506.1094 Q921.6428,504.8594 922.2365,503.7656 Q922.8459,502.6719 923.8928,502.0938 Q924.9553,501.5 926.1428,501.5 Q926.8615,501.5 927.4865,501.75 Q928.1115,502 928.6428,502.5 Z " fill="#000000"/><text fill="#000000" font-family="sans-serif" font-size="12" lengthAdjust="spacing" textLength="118" x="940.6428" y="510.9102">TestParameterResult</text><line style="stroke:#A80036;stroke-width:1.5;" x1="912.6428" x2="1060.6428" y1="522" y2="522"/><rect fill="none" height="6" style="stroke:#C82930;stroke-width:1.0;" width="6" x="919.6428" y="530"/><text fill="#000000" font-family="sans-serif" font-size="11" lengthAdjust="spacing" textLength="48" x="931.6428" y="537.4189">createdAt</text><rect fill="none" height="6" style="stroke:#C82930;stroke-width:1.0;" width="6" x="919.6428" y="543.8359"/><text fill="#000000" font-family="sans-serif" font-size="11" lengthAdjust="spacing" textLength="26" x="931.6428" y="551.2549">value</text><line style="stroke:#A80036;stroke-width:1.5;" x1="912.6428" x2="1060.6428" y1="557.6719" y2="557.6719"/><!--MD5=[7e2bc2f128e759c5889ccd6a2666d576]
class EmailNotification--><rect codeLine="58" fill="#FEFECE" filter="url(#f163nezc4gj53b)" height="48" id="EmailNotification" style="stroke:#A80036;stroke-width:1.5;" width="125" x="564.1428" y="665"/><ellipse cx="579.1428" cy="681" fill="#ADD1B2" rx="11" ry="11" style="stroke:#A80036;stroke-width:1.0;"/><path d="M581.1428,677.5 Q581.3459,677 581.5803,676.75 Q581.8146,676.5 582.0803,676.5 Q582.549,676.5 582.8459,676.7813 Q583.1428,677.0625 583.1428,677.7188 L583.1428,679.2813 Q583.1428,679.9375 582.8615,680.2188 Q582.5803,680.5 582.1428,680.5 Q581.7521,680.5 581.5021,680.3281 Q581.2521,680.1563 581.1428,679.7031 Q581.0959,679.3906 580.924,679.2188 Q580.6115,678.8906 580.049,678.7031 Q579.4865,678.5 578.924,678.5 Q578.2209,678.5 577.6271,678.7813 Q577.049,679.0625 576.5959,679.6875 Q576.1428,680.3125 576.1428,681.1719 L576.1428,682.0938 Q576.1428,683.125 576.9865,683.8125 Q577.8303,684.5 579.3303,684.5 Q580.2209,684.5 580.8459,684.2969 Q581.2053,684.1875 581.6115,683.8281 Q581.8771,683.625 582.0178,683.5625 Q582.1584,683.5 582.3303,683.5 Q582.6584,683.5 582.8928,683.7656 Q583.1428,684.0156 583.1428,684.375 Q583.1428,684.7188 582.799,685.125 Q582.299,685.7188 581.5021,686.0469 Q580.4553,686.5 579.174,686.5 Q577.674,686.5 576.4709,685.9063 Q575.5021,685.4375 574.8146,684.4219 Q574.1428,683.4063 574.1428,682.2031 L574.1428,681.1094 Q574.1428,679.8594 574.7365,678.7656 Q575.3459,677.6719 576.3928,677.0938 Q577.4553,676.5 578.6428,676.5 Q579.3615,676.5 579.9865,676.75 Q580.6115,677 581.1428,677.5 Z " fill="#000000"/><text fill="#000000" font-family="sans-serif" font-size="12" lengthAdjust="spacing" textLength="93" x="593.1428" y="685.9102">EmailNotification</text><line style="stroke:#A80036;stroke-width:1.5;" x1="565.1428" x2="688.1428" y1="697" y2="697"/><line style="stroke:#A80036;stroke-width:1.5;" x1="565.1428" x2="688.1428" y1="705" y2="705"/><!--MD5=[1e5eea26d585b9a928e875b443aeda83]
class SmsNotification--><rect codeLine="60" fill="#FEFECE" filter="url(#f163nezc4gj53b)" height="48" id="SmsNotification" style="stroke:#A80036;stroke-width:1.5;" width="119" x="724.1428" y="665"/><ellipse cx="739.1428" cy="681" fill="#ADD1B2" rx="11" ry="11" style="stroke:#A80036;stroke-width:1.0;"/><path d="M741.1428,677.5 Q741.3459,677 741.5803,676.75 Q741.8146,676.5 742.0803,676.5 Q742.549,676.5 742.8459,676.7813 Q743.1428,677.0625 743.1428,677.7188 L743.1428,679.2813 Q743.1428,679.9375 742.8615,680.2188 Q742.5803,680.5 742.1428,680.5 Q741.7521,680.5 741.5021,680.3281 Q741.2521,680.1563 741.1428,679.7031 Q741.0959,679.3906 740.924,679.2188 Q740.6115,678.8906 740.049,678.7031 Q739.4865,678.5 738.924,678.5 Q738.2209,678.5 737.6271,678.7813 Q737.049,679.0625 736.5959,679.6875 Q736.1428,680.3125 736.1428,681.1719 L736.1428,682.0938 Q736.1428,683.125 736.9865,683.8125 Q737.8303,684.5 739.3303,684.5 Q740.2209,684.5 740.8459,684.2969 Q741.2053,684.1875 741.6115,683.8281 Q741.8771,683.625 742.0178,683.5625 Q742.1584,683.5 742.3303,683.5 Q742.6584,683.5 742.8928,683.7656 Q743.1428,684.0156 743.1428,684.375 Q743.1428,684.7188 742.799,685.125 Q742.299,685.7188 741.5021,686.0469 Q740.4553,686.5 739.174,686.5 Q737.674,686.5 736.4709,685.9063 Q735.5021,685.4375 734.8146,684.4219 Q734.1428,683.4063 734.1428,682.2031 L734.1428,681.1094 Q734.1428,679.8594 734.7365,678.7656 Q735.3459,677.6719 736.3928,677.0938 Q737.4553,676.5 738.6428,676.5 Q739.3615,676.5 739.9865,676.75 Q740.6115,677 741.1428,677.5 Z " fill="#000000"/><text fill="#000000" font-family="sans-serif" font-size="12" lengthAdjust="spacing" textLength="87" x="753.1428" y="685.9102">SmsNotification</text><line style="stroke:#A80036;stroke-width:1.5;" x1="725.1428" x2="842.1428" y1="697" y2="697"/><line style="stroke:#A80036;stroke-width:1.5;" x1="725.1428" x2="842.1428" y1="705" y2="705"/><!--MD5=[9681492165142af2a4a3a169d90ee8d4]
class Sample--><rect codeLine="62" fill="#FEFECE" filter="url(#f163nezc4gj53b)" height="61.8359" id="Sample" style="stroke:#A80036;stroke-width:1.5;" width="75" x="896.1428" y="658"/><ellipse cx="911.1428" cy="674" fill="#ADD1B2" rx="11" ry="11" style="stroke:#A80036;stroke-width:1.0;"/><path d="M913.1428,670.5 Q913.3459,670 913.5803,669.75 Q913.8146,669.5 914.0803,669.5 Q914.549,669.5 914.8459,669.7813 Q915.1428,670.0625 915.1428,670.7188 L915.1428,672.2813 Q915.1428,672.9375 914.8615,673.2188 Q914.5803,673.5 914.1428,673.5 Q913.7521,673.5 913.5021,673.3281 Q913.2521,673.1563 913.1428,672.7031 Q913.0959,672.3906 912.924,672.2188 Q912.6115,671.8906 912.049,671.7031 Q911.4865,671.5 910.924,671.5 Q910.2209,671.5 909.6271,671.7813 Q909.049,672.0625 908.5959,672.6875 Q908.1428,673.3125 908.1428,674.1719 L908.1428,675.0938 Q908.1428,676.125 908.9865,676.8125 Q909.8303,677.5 911.3303,677.5 Q912.2209,677.5 912.8459,677.2969 Q913.2053,677.1875 913.6115,676.8281 Q913.8771,676.625 914.0178,676.5625 Q914.1584,676.5 914.3303,676.5 Q914.6584,676.5 914.8928,676.7656 Q915.1428,677.0156 915.1428,677.375 Q915.1428,677.7188 914.799,678.125 Q914.299,678.7188 913.5021,679.0469 Q912.4553,679.5 911.174,679.5 Q909.674,679.5 908.4709,678.9063 Q907.5021,678.4375 906.8146,677.4219 Q906.1428,676.4063 906.1428,675.2031 L906.1428,674.1094 Q906.1428,672.8594 906.7365,671.7656 Q907.3459,670.6719 908.3928,670.0938 Q909.4553,669.5 910.6428,669.5 Q911.3615,669.5 911.9865,669.75 Q912.6115,670 913.1428,670.5 Z " fill="#000000"/><text fill="#000000" font-family="sans-serif" font-size="12" lengthAdjust="spacing" textLength="43" x="925.1428" y="678.9102">Sample</text><line style="stroke:#A80036;stroke-width:1.5;" x1="897.1428" x2="970.1428" y1="690" y2="690"/><rect fill="none" height="6" style="stroke:#C82930;stroke-width:1.0;" width="6" x="904.1428" y="698"/><text fill="#000000" font-family="sans-serif" font-size="11" lengthAdjust="spacing" textLength="48" x="916.1428" y="705.4189">createdAt</text><line style="stroke:#A80036;stroke-width:1.5;" x1="897.1428" x2="970.1428" y1="711.8359" y2="711.8359"/><!--MD5=[e9d7e258414067a038db330da661ebff]
class NhsReport--><rect fill="#FEFECE" filter="url(#f163nezc4gj53b)" height="48" id="NhsReport" style="stroke:#A80036;stroke-width:1.5;" width="92" x="1071.6428" y="168"/><ellipse cx="1086.6428" cy="184" fill="#ADD1B2" rx="11" ry="11" style="stroke:#A80036;stroke-width:1.0;"/><path d="M1088.6428,180.5 Q1088.8459,180 1089.0803,179.75 Q1089.3146,179.5 1089.5803,179.5 Q1090.049,179.5 1090.3459,179.7813 Q1090.6428,180.0625 1090.6428,180.7188 L1090.6428,182.2813 Q1090.6428,182.9375 1090.3615,183.2188 Q1090.0803,183.5 1089.6428,183.5 Q1089.2521,183.5 1089.0021,183.3281 Q1088.7521,183.1563 1088.6428,182.7031 Q1088.5959,182.3906 1088.424,182.2188 Q1088.1115,181.8906 1087.549,181.7031 Q1086.9865,181.5 1086.424,181.5 Q1085.7209,181.5 1085.1271,181.7813 Q1084.549,182.0625 1084.0959,182.6875 Q1083.6428,183.3125 1083.6428,184.1719 L1083.6428,185.0938 Q1083.6428,186.125 1084.4865,186.8125 Q1085.3303,187.5 1086.8303,187.5 Q1087.7209,187.5 1088.3459,187.2969 Q1088.7053,187.1875 1089.1115,186.8281 Q1089.3771,186.625 1089.5178,186.5625 Q1089.6584,186.5 1089.8303,186.5 Q1090.1584,186.5 1090.3928,186.7656 Q1090.6428,187.0156 1090.6428,187.375 Q1090.6428,187.7188 1090.299,188.125 Q1089.799,188.7188 1089.0021,189.0469 Q1087.9553,189.5 1086.674,189.5 Q1085.174,189.5 1083.9709,188.9063 Q1083.0021,188.4375 1082.3146,187.4219 Q1081.6428,186.4063 1081.6428,185.2031 L1081.6428,184.1094 Q1081.6428,182.8594 1082.2365,181.7656 Q1082.8459,180.6719 1083.8928,180.0938 Q1084.9553,179.5 1086.1428,179.5 Q1086.8615,179.5 1087.4865,179.75 Q1088.1115,180 1088.6428,180.5 Z " fill="#000000"/><text fill="#000000" font-family="sans-serif" font-size="12" lengthAdjust="spacing" textLength="60" x="1100.6428" y="188.9102">NhsReport</text><line style="stroke:#A80036;stroke-width:1.5;" x1="1072.6428" x2="1162.6428" y1="200" y2="200"/><line style="stroke:#A80036;stroke-width:1.5;" x1="1072.6428" x2="1162.6428" y1="208" y2="208"/><ellipse cx="414.6428" cy="360" fill="#000000" rx="2" ry="2" style="stroke:none;stroke-width:1.0;"/><!--MD5=[742a261f27a3dcd734c626287d811acd]
link Company to TestType--><path codeLine="66" d="M310.6628,69.1 C306.9428,125.82 298.8828,248.71 294.5428,314.8 " fill="none" id="Company-TestType" style="stroke:#A80036;stroke-width:1.0;"/><polygon fill="#000000" points="309.3154,197.1651,312.8402,188.3318,306.975,187.947,309.3154,197.1651" style="stroke:#000000;stroke-width:1.0;"/><text fill="#000000" font-family="sans-serif" font-size="13" lengthAdjust="spacing" textLength="53" x="318.6428" y="197.4951">conducts</text><text fill="#000000" font-family="sans-serif" font-size="13" lengthAdjust="spacing" textLength="7" x="302.5839" y="90.3437">1</text><text fill="#000000" font-family="sans-serif" font-size="13" lengthAdjust="spacing" textLength="5" x="289.604" y="304.2135">*</text><!--MD5=[f3c834ee0c542553b316f6375986f3c7]
link Company to NhsContract--><path codeLine="67" d="M355.2528,48.62 C473.8628,75.41 807.5028,150.77 935.1228,179.59 " fill="none" id="Company-NhsContract" style="stroke:#A80036;stroke-width:1.0;"/><polygon fill="#000000" points="658.5199,109.2773,650.3446,104.4179,649.0496,110.1513,658.5199,109.2773" style="stroke:#000000;stroke-width:1.0;"/><text fill="#000000" font-family="sans-serif" font-size="13" lengthAdjust="spacing" textLength="60" x="662.6428" y="113.4951">celebrated</text><text fill="#000000" font-family="sans-serif" font-size="13" lengthAdjust="spacing" textLength="7" x="363.1779" y="65.3597">1</text><text fill="#000000" font-family="sans-serif" font-size="13" lengthAdjust="spacing" textLength="7" x="920.1886" y="174.1132">1</text><!--MD5=[59b5263983ad836c6f58d4a562339d3c]
link Company to NhsReport--><path codeLine="68" d="M355.3228,38.52 C471.7128,38.59 802.6428,48.16 1053.6428,147 C1066.4428,152.04 1079.2028,160.05 1089.9228,167.86 " fill="none" id="Company-NhsReport" style="stroke:#A80036;stroke-width:1.0;"/><polygon fill="#000000" points="967.567,109.0428,959.1686,104.58,958.1493,110.3688,967.567,109.0428" style="stroke:#000000;stroke-width:1.0;"/><text fill="#000000" font-family="sans-serif" font-size="13" lengthAdjust="spacing" textLength="40" x="971.6428" y="113.4951">reports</text><text fill="#000000" font-family="sans-serif" font-size="13" lengthAdjust="spacing" textLength="7" x="363.26" y="34.7738">1</text><text fill="#000000" font-family="sans-serif" font-size="13" lengthAdjust="spacing" textLength="5" x="1077.1789" y="157.1643">*</text><!--MD5=[f6ee9d464b58e53b0eba50a03217e279]
link Nhs to NhsContract--><path codeLine="70" d="M1148.8728,61.1 C1113.0728,89.59 1051.1128,138.9 1014.7028,167.87 " fill="none" id="Nhs-NhsContract" style="stroke:#A80036;stroke-width:1.0;"/><polygon fill="#000000" points="1098.7304,111.2892,1107.638,107.9566,1103.9779,103.3573,1098.7304,111.2892" style="stroke:#000000;stroke-width:1.0;"/><text fill="#000000" font-family="sans-serif" font-size="13" lengthAdjust="spacing" textLength="60" x="1111.6428" y="113.4951">celebrated</text><text fill="#000000" font-family="sans-serif" font-size="13" lengthAdjust="spacing" textLength="7" x="1134.2507" y="62.3186">1</text><text fill="#000000" font-family="sans-serif" font-size="13" lengthAdjust="spacing" textLength="7" x="1014.2525" y="157.1768">1</text><!--MD5=[1baba5005e4f13456aa35026626316d4]
link NhsContract to NhsReportType--><path codeLine="71" d="M994.0828,216.05 C1001.9428,235.62 1014.9528,263.82 1031.6428,285 C1044.4928,301.3 1061.4328,316.57 1077.0028,328.96 " fill="none" id="NhsContract-NhsReportType" style="stroke:#A80036;stroke-width:1.0;"/><polygon fill="#000000" points="1039.6024,280.2058,1036.6172,271.1758,1031.8796,274.6551,1039.6024,280.2058" style="stroke:#000000;stroke-width:1.0;"/><text fill="#000000" font-family="sans-serif" font-size="13" lengthAdjust="spacing" textLength="53" x="1045.6428" y="281.4951">demands</text><text fill="#000000" font-family="sans-serif" font-size="13" lengthAdjust="spacing" textLength="7" x="988.2869" y="237.4002">1</text><text fill="#000000" font-family="sans-serif" font-size="13" lengthAdjust="spacing" textLength="5" x="1062.1284" y="317.9715">*</text><!--MD5=[39758b873677a242683341396b9f760d]
link NhsReport to NhsReportType--><path codeLine="72" d="M1113.1928,216.04 C1110.1328,234.63 1106.9028,261.47 1108.6428,285 C1109.7128,299.51 1111.9528,315.48 1114.1328,328.87 " fill="none" id="NhsReport-NhsReportType" style="stroke:#A80036;stroke-width:1.0;"/><polygon fill="#000000" points="1113.6844,281.1756,1116.5479,272.1064,1110.6702,272.1553,1113.6844,281.1756" style="stroke:#000000;stroke-width:1.0;"/><text fill="#000000" font-family="sans-serif" font-size="13" lengthAdjust="spacing" textLength="24" x="1122.6428" y="281.4951">is of</text><text fill="#000000" font-family="sans-serif" font-size="13" lengthAdjust="spacing" textLength="5" x="1106.4987" y="237.3877">*</text><text fill="#000000" font-family="sans-serif" font-size="13" lengthAdjust="spacing" textLength="7" x="1105.2745" y="318.3477">1</text><!--MD5=[0103a1b71d1aa488adcbffebf7edc226]
link Nhs to NhsApi--><path codeLine="73" d="M1185.3728,62.31 C1200.4128,103.21 1231.3428,190.82 1249.6428,267 C1255.2028,290.13 1259.3228,317.03 1261.8228,335.75 " fill="none" id="Nhs-NhsApi" style="stroke:#A80036;stroke-width:1.0;"/><polygon fill="#000000" points="1246.9891,196.9911,1247.384,187.4888,1241.7232,189.0714,1246.9891,196.9911" style="stroke:#000000;stroke-width:1.0;"/><text fill="#000000" font-family="sans-serif" font-size="13" lengthAdjust="spacing" textLength="47" x="1254.6428" y="197.4951">provides</text><text fill="#000000" font-family="sans-serif" font-size="13" lengthAdjust="spacing" textLength="7" x="1179.5822" y="83.3175">1</text><text fill="#000000" font-family="sans-serif" font-size="13" lengthAdjust="spacing" textLength="7" x="1253.2033" y="325.0261">1</text><!--MD5=[8f3f8b263c684413a4650768a310c34f]
link NhsReport to NhsApi--><path codeLine="74" d="M1133.6828,216.08 C1147.3028,235.17 1167.7528,262.67 1187.6428,285 C1203.6728,303 1223.2828,321.8 1238.7028,335.95 " fill="none" id="NhsReport-NhsApi" style="stroke:#A80036;stroke-width:1.0;"/><polygon fill="#000000" points="1195.9377,279.9366,1192.1877,271.1965,1187.7666,275.0699,1195.9377,279.9366" style="stroke:#000000;stroke-width:1.0;"/><text fill="#000000" font-family="sans-serif" font-size="13" lengthAdjust="spacing" textLength="43" x="1201.6428" y="281.4951">send to</text><text fill="#000000" font-family="sans-serif" font-size="13" lengthAdjust="spacing" textLength="5" x="1131.9831" y="237.4375">*</text><text fill="#000000" font-family="sans-serif" font-size="13" lengthAdjust="spacing" textLength="7" x="1224.1588" y="325.2773">1</text><!--MD5=[12d76240d3c3c66074d4ec2ea8bf469c]
link Company to Parameter--><path codeLine="76" d="M271.1228,69.15 C216.4128,112.9 129.9428,198.29 155.6428,285 C173.7228,345.99 188.0928,360.6 233.6428,405 C281.0728,451.24 306.6228,444.66 360.6428,483 C363.6028,485.1 366.6128,487.31 369.6128,489.58 " fill="none" id="Company-Parameter" style="stroke:#A80036;stroke-width:1.0;"/><polygon fill="#000000" points="161.7832,281.044,162.5816,271.567,156.8587,272.9076,161.7832,281.044" style="stroke:#000000;stroke-width:1.0;"/><text fill="#000000" font-family="sans-serif" font-size="13" lengthAdjust="spacing" textLength="118" x="169.6428" y="281.4951">capable of analysing</text><text fill="#000000" font-family="sans-serif" font-size="13" lengthAdjust="spacing" textLength="7" x="255.2595" y="90.4035">1</text><text fill="#000000" font-family="sans-serif" font-size="13" lengthAdjust="spacing" textLength="5" x="356.7406" y="479.4567">*</text><!--MD5=[93b4f25fb503a8e0e9a46b1d30ff3f44]
link Company to ParameterCategory--><path codeLine="77" d="M269.9828,41.36 C187.1528,48.48 12.6428,77 12.6428,191 C12.6428,191 12.6428,191 12.6428,529 C12.6428,578.81 51.1728,621.99 85.7828,650.73 " fill="none" id="Company-ParameterCategory" style="stroke:#A80036;stroke-width:1.0;"/><polygon fill="#000000" points="16.196,364.9619,21.6264,357.1541,16,355.4534,16.196,364.9619" style="stroke:#000000;stroke-width:1.0;"/><text fill="#000000" font-family="sans-serif" font-size="13" lengthAdjust="spacing" textLength="39" x="26.6428" y="365.4951">adopts</text><text fill="#000000" font-family="sans-serif" font-size="13" lengthAdjust="spacing" textLength="7" x="255.049" y="38.1019">1</text><text fill="#000000" font-family="sans-serif" font-size="13" lengthAdjust="spacing" textLength="5" x="70.7436" y="640.0438">*</text><!--MD5=[7e4bc624457760b649895ff2ead938fa]
link Company to Test--><path codeLine="78" d="M348.4028,69.03 C379.6228,95.25 424.7528,133.15 456.4028,159.73 " fill="none" id="Company-Test" style="stroke:#A80036;stroke-width:1.0;"/><polygon fill="#000000" points="411.4716,111.3913,406.4352,103.3238,402.6551,107.8249,411.4716,111.3913" style="stroke:#000000;stroke-width:1.0;"/><text fill="#000000" font-family="sans-serif" font-size="13" lengthAdjust="spacing" textLength="50" x="416.6428" y="113.4951">performs</text><text fill="#000000" font-family="sans-serif" font-size="13" lengthAdjust="spacing" textLength="7" x="347.754" y="90.2599">1</text><text fill="#000000" font-family="sans-serif" font-size="13" lengthAdjust="spacing" textLength="5" x="443.579" y="149.38">*</text><!--MD5=[e981d4f96c4342412d1e68160b30cf70]
link Test to TestType--><path codeLine="80" d="M456.4828,207.73 C427.4328,220.47 387.1628,240.93 357.6428,267 C342.1728,280.66 328.2928,298.59 317.2928,315 " fill="none" id="Test-TestType" style="stroke:#A80036;stroke-width:1.0;"/><polygon fill="#000000" points="358.6824,279.2279,367.6408,276.0344,364.0528,271.3787,358.6824,279.2279" style="stroke:#000000;stroke-width:1.0;"/><text fill="#000000" font-family="sans-serif" font-size="13" lengthAdjust="spacing" textLength="24" x="371.6428" y="281.4951">is of</text><text fill="#000000" font-family="sans-serif" font-size="13" lengthAdjust="spacing" textLength="5" x="443.6747" y="206.83">*</text><text fill="#000000" font-family="sans-serif" font-size="13" lengthAdjust="spacing" textLength="7" x="313.8229" y="304.1155">1</text><!--MD5=[b72ac8ab7fb5921fceb5036a3902baea]
link Test to Sample--><path codeLine="82" d="M530.7928,195.72 C599.2628,202.78 745.4628,227.79 823.6428,315 C903.0328,403.56 859.7528,459.3 894.6428,573 C903.5528,602.02 914.7728,634.78 922.8928,657.89 " fill="none" id="Test-Sample" style="stroke:#A80036;stroke-width:1.0;"/><polygon fill="#000000" points="884.8774,447.9885,881.2669,439.1899,876.7848,442.9925,884.8774,447.9885" style="stroke:#000000;stroke-width:1.0;"/><text fill="#000000" font-family="sans-serif" font-size="13" lengthAdjust="spacing" textLength="45" x="890.6428" y="449.4951">collects</text><text fill="#000000" font-family="sans-serif" font-size="13" lengthAdjust="spacing" textLength="5" x="538.5989" y="192.4555">*</text><text fill="#000000" font-family="sans-serif" font-size="13" lengthAdjust="spacing" textLength="5" x="915.16" y="647.3719">*</text><!--MD5=[c1cb776b9a41b6f62767e6402ec8305c]
link Test to apoint44650--><path d="M456.2828,215.15 C438.6228,227.86 419.3228,245.57 409.6428,267 C394.1028,301.4 411.4628,350.56 414.2728,358.03 " fill="none" id="Test-apoint44650" style="stroke:#A80036;stroke-width:1.0;"/><polygon fill="#000000" points="413.2324,280.9727,418.6034,273.124,412.9642,271.4659,413.2324,280.9727" style="stroke:#000000;stroke-width:1.0;"/><text fill="#000000" font-family="sans-serif" font-size="13" lengthAdjust="spacing" textLength="116" x="423.6428" y="281.4951">requests analysis of</text><text fill="#000000" font-family="sans-serif" font-size="13" lengthAdjust="spacing" textLength="5" x="443.6845" y="215.6135">*</text><!--MD5=[90460c4b9fcd7671d5935531513dbd8e]
link apoint44650 to Parameter--><path d="M414.6428,362.06 C414.6428,371.17 414.6428,437.06 414.6428,482.75 " fill="none" id="apoint44650-Parameter" style="stroke:#A80036;stroke-width:1.0;"/><text fill="#000000" font-family="sans-serif" font-size="13" lengthAdjust="spacing" textLength="20" x="393.1115" y="472.1558">1..*</text><!--MD5=[0c43e4833ba0b94315b7adce34e01411]
link apoint44650 to TestParameter--><path d="M416.1928,358.39 C426.0428,348.31 481.2928,293.69 539.1428,276 C678.5528,233.37 729.9928,226.61 867.1428,276 C900.0728,287.86 929.8928,315.55 948.5628,335.91 " fill="none" id="apoint44650-TestParameter" style="stroke:#A80036;stroke-width:1.0;stroke-dasharray:7.0,7.0;"/><!--MD5=[6df8849671cb880f6936e94aa30db6f9]
link Parameter to ParameterCategory--><path codeLine="84" d="M369.4628,556.93 C360.6028,562.31 351.3528,567.87 342.6428,573 C297.6128,599.5 246.4128,628.5 206.7028,650.74 " fill="none" id="Parameter-ParameterCategory" style="stroke:#A80036;stroke-width:1.0;"/><polygon fill="#000000" points="287.3108,614.6726,296.615,612.7021,293.6798,607.6096,287.3108,614.6726" style="stroke:#000000;stroke-width:1.0;"/><text fill="#000000" font-family="sans-serif" font-size="13" lengthAdjust="spacing" textLength="93" x="300.6428" y="617.4951">presented under</text><text fill="#000000" font-family="sans-serif" font-size="13" lengthAdjust="spacing" textLength="5" x="356.5658" y="557.9615">*</text><text fill="#000000" font-family="sans-serif" font-size="13" lengthAdjust="spacing" textLength="7" x="211.0244" y="640.0556">1</text><!--MD5=[8aaf0efd5e2f3824be7ea3e488dcc283]
link TestType to ParameterCategory--><path codeLine="86" d="M250.6128,385.98 C219.3028,407.48 178.1728,441.56 157.6428,483 C131.0828,536.62 131.5728,607.84 135.0828,650.67 " fill="none" id="TestType-ParameterCategory" style="stroke:#A80036;stroke-width:1.0;"/><polygon fill="#000000" points="160.6426,532.7583,166.9545,525.6441,161.5674,523.2928,160.6426,532.7583" style="stroke:#000000;stroke-width:1.0;"/><text fill="#000000" font-family="sans-serif" font-size="13" lengthAdjust="spacing" textLength="180" x="171.6428" y="533.4951">can measure parameters under</text><text fill="#000000" font-family="sans-serif" font-size="13" lengthAdjust="spacing" textLength="7" x="235.6809" y="386.753">1</text><text fill="#000000" font-family="sans-serif" font-size="13" lengthAdjust="spacing" textLength="20" x="112.5803" y="640.2606">1..*</text><!--MD5=[b2f584ed44712afd73b1257dcf7f0c09]
link TestType to SampleCollectionMethod--><path codeLine="87" d="M332.9028,384.78 C384.1528,414.32 471.6328,464.74 527.4828,496.93 " fill="none" id="TestType-SampleCollectionMethod" style="stroke:#A80036;stroke-width:1.0;"/><polygon fill="#000000" points="452.9747,446.6726,446.6057,439.6096,443.6705,444.7021,452.9747,446.6726" style="stroke:#000000;stroke-width:1.0;"/><text fill="#000000" font-family="sans-serif" font-size="13" lengthAdjust="spacing" textLength="36" x="457.6428" y="449.4951">allows</text><text fill="#000000" font-family="sans-serif" font-size="13" lengthAdjust="spacing" textLength="7" x="340.5959" y="385.2317">1</text><text fill="#000000" font-family="sans-serif" font-size="13" lengthAdjust="spacing" textLength="20" x="493.8853" y="485.935">1..*</text><!--MD5=[5ebaad9400df340855f77ec273292743]
link Test to SampleCollectionMethod--><path codeLine="89" d="M529.0528,237.29 C535.1128,246.66 540.7028,256.81 544.6428,267 C575.0828,345.81 579.7828,446.92 580.0728,496.64 " fill="none" id="Test-SampleCollectionMethod" style="stroke:#A80036;stroke-width:1.0;"/><polygon fill="#000000" points="580.6079,365.0818,581.7456,355.6395,575.9783,356.774,580.6079,365.0818" style="stroke:#000000;stroke-width:1.0;"/><text fill="#000000" font-family="sans-serif" font-size="13" lengthAdjust="spacing" textLength="81" x="588.6428" y="365.4951">execute using</text><text fill="#000000" font-family="sans-serif" font-size="13" lengthAdjust="spacing" textLength="5" x="528.475" y="258.0027">*</text><text fill="#000000" font-family="sans-serif" font-size="13" lengthAdjust="spacing" textLength="22" x="555.8927" y="486.0703">0..1</text><!--MD5=[905c082e5fce4eb785bce914d71adcec]
link Test to TestValidation--><path codeLine="90" d="M530.7428,216.96 C576.4728,246.5 654.2328,296.73 703.9728,328.86 " fill="none" id="Test-TestValidation" style="stroke:#A80036;stroke-width:1.0;"/><polygon fill="#000000" points="638.8427,278.8888,632.8396,271.5122,629.6503,276.4496,638.8427,278.8888" style="stroke:#000000;stroke-width:1.0;"/><text fill="#000000" font-family="sans-serif" font-size="13" lengthAdjust="spacing" textLength="50" x="643.6428" y="281.4951">validated</text><text fill="#000000" font-family="sans-serif" font-size="13" lengthAdjust="spacing" textLength="5" x="538.539" y="217.8772">*</text><text fill="#000000" font-family="sans-serif" font-size="13" lengthAdjust="spacing" textLength="22" x="670.0783" y="318.3357">0..1</text><!--MD5=[036c9872ad7515ab1af27a534778c04f]
link TestValidation to Notification--><path codeLine="91" d="M750.6428,391.06 C750.6428,421.05 750.6428,466.87 750.6428,496.88 " fill="none" id="TestValidation-Notification" style="stroke:#A80036;stroke-width:1.0;"/><polygon fill="#000000" points="755.6428,449.1758,758.5817,440.1307,752.7038,440.1307,755.6428,449.1758" style="stroke:#000000;stroke-width:1.0;"/><text fill="#000000" font-family="sans-serif" font-size="13" lengthAdjust="spacing" textLength="32" x="764.6428" y="449.4951">emits</text><text fill="#000000" font-family="sans-serif" font-size="13" lengthAdjust="spacing" textLength="7" x="742.9537" y="412.2958">1</text><text fill="#000000" font-family="sans-serif" font-size="13" lengthAdjust="spacing" textLength="22" x="726.374" y="486.3598">0..1</text><!--MD5=[a9089fca65c19b52c180d74e5c0a9738]
reverse link Notification to SmsNotification--><path codeLine="93" d="M761.0628,579.23 C766.9928,607.78 774.1328,642.19 778.7728,664.55 " fill="none" id="Notification-backto-SmsNotification" style="stroke:#A80036;stroke-width:1.0;"/><polygon fill="none" points="754.1428,580.29,756.9228,559.28,767.8428,577.44,754.1428,580.29" style="stroke:#A80036;stroke-width:1.0;"/><!--MD5=[a069fefa93fe627f96a6b9d57d25b567]
reverse link Notification to EmailNotification--><path codeLine="94" d="M714.6928,575.09 C691.8428,604.4 663.2228,641.1 644.9328,664.55 " fill="none" id="Notification-backto-EmailNotification" style="stroke:#A80036;stroke-width:1.0;"/><polygon fill="none" points="709.2128,570.75,727.0228,559.28,720.2528,579.36,709.2128,570.75" style="stroke:#A80036;stroke-width:1.0;"/><!--MD5=[0e00e25ac6b8c14659aaff2cf7e5df08]
link TestParameter to TestParameterResult--><path codeLine="96" d="M971.1428,384.08 C974.1128,411.43 979.0928,457.37 982.6028,489.77 " fill="none" id="TestParameter-TestParameterResult" style="stroke:#A80036;stroke-width:1.0;"/><polygon fill="#000000" points="983.1818,449.1466,985.1285,439.8375,979.2849,440.4711,983.1818,449.1466" style="stroke:#000000;stroke-width:1.0;"/><text fill="#000000" font-family="sans-serif" font-size="13" lengthAdjust="spacing" textLength="49" x="991.6428" y="449.4951">contains</text><text fill="#000000" font-family="sans-serif" font-size="13" lengthAdjust="spacing" textLength="7" x="963.899" y="405.4375">1</text><text fill="#000000" font-family="sans-serif" font-size="13" lengthAdjust="spacing" textLength="22" x="957.9238" y="479.0909">0..1</text><!--MD5=[be84f5b74f233620fd35d16ee4b496da]
link TestParameterResult to Sample--><path codeLine="97" d="M974.2128,566.28 C964.9128,594.18 952.3528,631.86 943.6828,657.87 " fill="none" id="TestParameterResult-Sample" style="stroke:#A80036;stroke-width:1.0;"/><polygon fill="#000000" points="965.0616,616.9192,970.71,609.2676,965.1338,607.4089,965.0616,616.9192" style="stroke:#000000;stroke-width:1.0;"/><text fill="#000000" font-family="sans-serif" font-size="13" lengthAdjust="spacing" textLength="78" x="975.6428" y="617.4951">obtained from</text><text fill="#000000" font-family="sans-serif" font-size="13" lengthAdjust="spacing" textLength="5" x="966.8333" y="587.2052">*</text><text fill="#000000" font-family="sans-serif" font-size="13" lengthAdjust="spacing" textLength="7" x="938.0316" y="647.3477">1</text><!--MD5=[691d5a87537a7b28aa3a4f59efd3e4de]
@startuml
'https://plantuml.com/class-diagram


class NhsContract
class Company{
-designation
}
class Nhs

class NhsApi

class NhsReportType{
-description
}

class TestType{
-code
-description
-collection
}

class ParameterCategory{
-code
-name
}

class Parameter{
-code
-shorName
-description
}

class SampleCollectionMethod{
-description
}

class Notification{
-textMessage
}

class Test{
-code
-NhsCode
-createdAt
}

class TestValidation{
-createdAt
}

class TestParameter

class TestParameterResult{
-createdAt
-value
}

class EmailNotification

class SmsNotification

class Sample{
-createdAt
}

Company "1" - - "*" TestType : conducts >
Company "1" - - "1" NhsContract : celebrated >
Company "1" - - "*" NhsReport : reports >

Nhs "1" - - "1" NhsContract : celebrated >
NhsContract "1" - - "*" NhsReportType : demands >
NhsReport "*" - - "1" NhsReportType  : is of >
Nhs "1" - - "1" NhsApi  : provides >
NhsReport "*" - - "1" NhsApi  : send to >

Company "1" - - "*" Parameter  : capable of analysing >
Company "1" - - "*" ParameterCategory  : adopts >
Company "1" - - "*" Test  : performs >

Test "*" - - "1" TestType  : is of >
Test "*" - - "1..*" Parameter  : requests analysis of >
Test "*" - - "*" Sample  : collects >
(Test, Parameter) . TestParameter
Parameter "*" - - "1" ParameterCategory : presented under >

TestType "1" - - "1..*" ParameterCategory : can measure parameters under >
TestType "1" - - "1..*" SampleCollectionMethod : allows >

Test "*" - - "0..1" SampleCollectionMethod : execute using  >
Test "*" - - "0..1" TestValidation : validated >
TestValidation "1" - - "0..1" Notification : emits >

Notification <|- - SmsNotification
Notification <|- - EmailNotification

TestParameter "1" - - "0..1" TestParameterResult : contains >
TestParameterResult "*" - - "1" Sample : obtained from >





@enduml

@startuml


class NhsContract
class Company{
-designation
}
class Nhs

class NhsApi

class NhsReportType{
-description
}

class TestType{
-code
-description
-collection
}

class ParameterCategory{
-code
-name
}

class Parameter{
-code
-shorName
-description
}

class SampleCollectionMethod{
-description
}

class Notification{
-textMessage
}

class Test{
-code
-NhsCode
-createdAt
}

class TestValidation{
-createdAt
}

class TestParameter

class TestParameterResult{
-createdAt
-value
}

class EmailNotification

class SmsNotification

class Sample{
-createdAt
}

Company "1" - - "*" TestType : conducts >
Company "1" - - "1" NhsContract : celebrated >
Company "1" - - "*" NhsReport : reports >

Nhs "1" - - "1" NhsContract : celebrated >
NhsContract "1" - - "*" NhsReportType : demands >
NhsReport "*" - - "1" NhsReportType  : is of >
Nhs "1" - - "1" NhsApi  : provides >
NhsReport "*" - - "1" NhsApi  : send to >

Company "1" - - "*" Parameter  : capable of analysing >
Company "1" - - "*" ParameterCategory  : adopts >
Company "1" - - "*" Test  : performs >

Test "*" - - "1" TestType  : is of >
Test "*" - - "1..*" Parameter  : requests analysis of >
Test "*" - - "*" Sample  : collects >
(Test, Parameter) . TestParameter
Parameter "*" - - "1" ParameterCategory : presented under >

TestType "1" - - "1..*" ParameterCategory : can measure parameters under >
TestType "1" - - "1..*" SampleCollectionMethod : allows >

Test "*" - - "0..1" SampleCollectionMethod : execute using  >
Test "*" - - "0..1" TestValidation : validated >
TestValidation "1" - - "0..1" Notification : emits >

Notification <|- - SmsNotification
Notification <|- - EmailNotification

TestParameter "1" - - "0..1" TestParameterResult : contains >
TestParameterResult "*" - - "1" Sample : obtained from >





@enduml

PlantUML version 1.2021.7(Sun May 23 13:40:07 BST 2021)
(GPL source distribution)
Java Runtime: OpenJDK Runtime Environment
JVM: Dynamic Code Evolution 64-Bit Server VM
Default Encoding: Cp1252
Language: pt
Country: PT
--></g></svg>